<?xml version="1.0" encoding="UTF-8"?>
<svg id="Layer_1" data-name="Layer 1" xmlns="http://www.w3.org/2000/svg" viewBox="0 0 1113.03 425.09">
  <defs>
    <style>
      .cls-1 {
        fill: #231f20;
        font-family: Poppins-Bold, Poppins;
        font-size: 20.98px;
        font-weight: 700;
      }

      .cls-1, .cls-2, .cls-3, .cls-4 {
        isolation: isolate;
      }

      .cls-5, .cls-6, .cls-7 {
        stroke-width: 0px;
      }

      .cls-8 {
        fill: none;
        stroke: #b52025;
        stroke-miterlimit: 10;
        stroke-width: 2px;
      }

      .cls-3 {
        fill: #fff;
      }

      .cls-3, .cls-4 {
        font-family: Poppins-SemiBold, Poppins;
        font-size: 20.74px;
        font-weight: 600;
      }

      .cls-6 {
        fill: #b52025;
      }

      .cls-7 {
        fill: #ffe600;
      }
    </style>
  </defs>
  <rect class="cls-6" x=".04" y="48.86" width="455.7" height="376.23"/>
  <g class="cls-2">
    <text class="cls-3" transform="translate(14.85 83.69)"><tspan x="0" y="0">Der :</tspan></text>
  </g>
  <g class="cls-2">
    <text class="cls-3" transform="translate(88.88 83.69)"><tspan x="0" y="0">Männliche = Mann</tspan><tspan x="0" y="24.89">Tage und Monate = Montag - Juli</tspan><tspan x="0" y="49.78">Jahreszeiten = Sommer</tspan><tspan x="0" y="74.66">Al kohol =es sei denn bier</tspan><tspan x="0" y="99.55">Jobs = Lehrer</tspan><tspan x="0" y="124.44">us = Optimismus</tspan><tspan x="0" y="149.33">ling = Zwilling</tspan><tspan x="0" y="174.22">or = Direktor</tspan><tspan x="0" y="199.1">eur = Friseur</tspan><tspan x="0" y="223.99">ig = honig</tspan><tspan x="0" y="248.88">ent = Patient</tspan><tspan x="0" y="273.77">ier = offizier </tspan><tspan x="0" y="298.66">ist = Artist</tspan></text>
  </g>
  <rect class="cls-7" x="455.74" y="48.86" width="340.26" height="376.23"/>
  <g class="cls-2">
    <text class="cls-4" transform="translate(468.14 83.69)"><tspan x="0" y="0">Die :</tspan></text>
  </g>
  <g class="cls-2">
    <text class="cls-4" transform="translate(542.17 83.69)"><tspan x="0" y="0">e = Blume</tspan></text>
    <text class="cls-4" transform="translate(542.17 108.58)"><tspan x="0" y="0">ei = Bäckerei</tspan></text>
    <text class="cls-4" transform="translate(542.17 133.47)"><tspan x="0" y="0">heit = Freiheit</tspan></text>
    <text class="cls-4" transform="translate(542.17 158.35)"><tspan x="0" y="0">keit = Möglichkeit</tspan></text>
    <text class="cls-4" transform="translate(542.17 183.24)"><tspan x="0" y="0">schaft = Freundschaft</tspan></text>
    <text class="cls-4" transform="translate(542.17 208.13)"><tspan x="0" y="0">ung = Zeitung</tspan></text>
    <text class="cls-4" transform="translate(542.17 233.02)"><tspan x="0" y="0">tät = Universität</tspan></text>
    <text class="cls-4" transform="translate(542.17 257.91)"><tspan x="0" y="0">ik = Musik</tspan></text>
    <text class="cls-4" transform="translate(542.17 282.79)"><tspan x="0" y="0">ur = Kultur</tspan></text>
    <text class="cls-4" transform="translate(542.17 307.68)"><tspan x="0" y="0">ion = Nation</tspan></text>
    <text class="cls-4" transform="translate(542.17 332.57)"><tspan x="0" y="0">ie = Familie</tspan></text>
    <text class="cls-4" transform="translate(542.17 357.46)"><tspan x="0" y="0">ette = Kassette</tspan></text>
    <text class="cls-4" transform="translate(542.17 382.35)"><tspan x="0" y="0">ade = Schokolade</tspan></text>
    <text class="cls-4" transform="translate(542.17 407.23)"><tspan x="0" y="0">anz = Distanz</tspan></text>
  </g>
  <rect class="cls-5" x="796" y="48.86" width="317.03" height="302.97"/>
  <g class="cls-2">
    <text class="cls-3" transform="translate(808.72 83.69)"><tspan x="0" y="0">Das :</tspan></text>
  </g>
  <g class="cls-2">
    <text class="cls-3" transform="translate(882.74 83.69)"><tspan x="0" y="0">chen = Mädchen</tspan></text>
    <text class="cls-3" transform="translate(882.74 108.58)"><tspan x="0" y="0">lein = Fräulein</tspan></text>
    <text class="cls-3" transform="translate(882.74 133.47)"><tspan x="0" y="0">ment = Instrument</tspan></text>
    <text class="cls-3" transform="translate(882.74 158.35)"><tspan x="0" y="0">nis = Ergebnis</tspan></text>
    <text class="cls-3" transform="translate(882.74 183.24)"><tspan x="0" y="0">um = Zentrum</tspan></text>
    <text class="cls-3" transform="translate(882.74 208.13)"><tspan x="0" y="0">tum = Eigentum</tspan></text>
    <text class="cls-3" transform="translate(882.74 233.02)"><tspan x="0" y="0">tel = Viertel</tspan></text>
    <text class="cls-3" transform="translate(882.74 257.91)"><tspan x="0" y="0">ing = Training</tspan></text>
    <text class="cls-3" transform="translate(882.74 282.79)"><tspan x="0" y="0">ma = Thema</tspan></text>
    <text class="cls-3" transform="translate(882.74 307.68)"><tspan x="0" y="0">ette = Baguette</tspan></text>
    <text class="cls-3" transform="translate(882.74 332.57)"><tspan x="0" y="0">o = Kino</tspan></text>
  </g>
  <g>
    <g class="cls-2">
      <text class="cls-1" transform="translate(5.98 21.71)"><tspan x="0" y="0">Artikel im Deutschen</tspan></text>
    </g>
    <rect class="cls-8" x="1" y="1" width="233.18" height="26.97"/>
  </g>
</svg>