<?xml version="1.0" encoding="UTF-8"?>
<svg id="Layer_1" data-name="Layer 1" xmlns="http://www.w3.org/2000/svg" viewBox="0 0 1113.03 425.09">
  <defs>
    <style>
      .cls-1 {
        fill: #231f20;
        font-family: Poppins-Bold, Poppins;
        font-size: 20.98px;
        font-weight: 700;
      }

      .cls-1, .cls-2, .cls-3, .cls-4 {
        isolation: isolate;
      }

      .cls-5, .cls-6, .cls-7 {
        stroke-width: 0px;
      }

      .cls-8 {
        fill: none;
        stroke: #b52025;
        stroke-miterlimit: 10;
        stroke-width: 2px;
      }

      .cls-3 {
        fill: #fff;
      }

      .cls-3, .cls-4 {
        font-family: Poppins-SemiBold, Poppins;
        font-size: 20.74px;
        font-weight: 600;
      }

      .cls-6 {
        fill: #b52025;
      }

      .cls-7 {
        fill: #ffe600;
      }
    </style>
  </defs>
  <rect class="cls-6" x=".04" y="48.86" width="455.7" height="229.8"/>
  <g class="cls-2">
    <text class="cls-3" transform="translate(14.85 83.69)"><tspan x="0" y="0">Der :</tspan></text>
  </g>
  <g class="cls-2">
    <text class="cls-3" transform="translate(88.88 83.69)"><tspan x="0" y="0">Männliche = Mann</tspan><tspan x="0" y="24.89">Tage und Monate = Montag - Juli</tspan><tspan x="0" y="49.78">Jahreszeiten = Sommer</tspan><tspan x="0" y="74.66">Jobs = Lehrer</tspan><tspan x="0" y="99.55">us = Zirkus</tspan><tspan x="0" y="124.44">ling = Schmetterling</tspan><tspan x="0" y="149.33">or = Motor</tspan><tspan x="0" y="174.22">eur = Friseur</tspan></text>
  </g>
  <rect class="cls-7" x="455.74" y="48.86" width="340.26" height="376.23"/>
  <g class="cls-2">
    <text class="cls-4" transform="translate(468.14 83.69)"><tspan x="0" y="0">Die :</tspan></text>
  </g>
  <g class="cls-2">
    <text class="cls-4" transform="translate(542.17 83.69)"><tspan x="0" y="0">e = Blume</tspan><tspan x="0" y="24.89">ei = Bäckerei</tspan><tspan x="0" y="49.78">heit = Freiheit</tspan><tspan x="0" y="74.66">keit = Möglichkeit</tspan><tspan x="0" y="99.55">schaft = Freundschaft</tspan><tspan x="0" y="124.44">ung = Zeitung</tspan><tspan x="0" y="149.33">tät = Universität</tspan><tspan x="0" y="174.22">ik = Musik</tspan><tspan x="0" y="199.1">ur = Kultur</tspan><tspan x="0" y="223.99">ion = Nation</tspan><tspan x="0" y="248.88">ie = Familie</tspan><tspan x="0" y="273.77">ette = Kassette</tspan><tspan x="0" y="298.66">ade = Schokolade</tspan><tspan x="0" y="323.54">anz = Distanz</tspan></text>
  </g>
  <rect class="cls-5" x="796" y="48.86" width="317.03" height="302.97"/>
  <g class="cls-2">
    <text class="cls-3" transform="translate(808.72 83.69)"><tspan x="0" y="0">Das :</tspan></text>
  </g>
  <text class="cls-3" transform="translate(882.74 83.69)"><tspan x="0" y="0">chen = Mädchen</tspan><tspan x="0" y="24.89">lein = Fräulein</tspan><tspan x="0" y="49.78">ment = Instrument</tspan><tspan x="0" y="74.66">nis = Ergebnis</tspan><tspan x="0" y="99.55">um = Zentrum</tspan><tspan x="0" y="124.44">tum = Eigentum</tspan><tspan x="0" y="149.33">tel = Viertel</tspan><tspan x="0" y="174.22">ing = Training</tspan><tspan x="0" y="199.1">ma = Thema</tspan><tspan x="0" y="223.99">ette = Baguette</tspan><tspan x="0" y="248.88">o = Kino</tspan></text>
  <g>
    <g class="cls-2">
      <text class="cls-1" transform="translate(5.98 21.71)"><tspan x="0" y="0">Artikel im Deutschen</tspan></text>
    </g>
    <rect class="cls-8" x="1" y="1" width="233.18" height="26.97"/>
  </g>
</svg>