<?xml version="1.0" encoding="UTF-8"?>
<svg id="Layer_1" data-name="Layer 1" xmlns="http://www.w3.org/2000/svg" viewBox="0 0 694.03 624.75">
  <defs>
    <style>
      .cls-1 {
        fill: none;
      }

      .cls-1, .cls-2, .cls-3, .cls-4, .cls-5 {
        stroke-width: 0px;
      }

      .cls-2 {
        fill: #fff;
      }

      .cls-3 {
        fill: #231f20;
      }

      .cls-4 {
        fill: #ed2024;
      }

      .cls-5 {
        fill: #f7ec13;
      }
    </style>
  </defs>
  <g>
    <rect class="cls-1" x="1" y="58.5" width="242.03" height="565.25"/>
    <rect class="cls-1" x="244.03" y="58.5" width="449" height="565.25"/>
  </g>
  <g>
    <path class="cls-3" d="M0,0v624.75h694.03V0H0ZM243.03,623.75H1V58.5h242.03v565.25ZM243.03,57.5H1V1h242.03v56.5ZM693.03,623.75H244.03V58.5h449v565.25ZM693.03,57.5H244.03V1h449v56.5Z"/>
    <rect class="cls-4" x="244.03" y="1" width="449" height="56.5"/>
    <rect class="cls-5" x="1" y="1" width="242.03" height="56.5"/>
  </g>
  <g>
    <path class="cls-3" d="M42.63,16.76c1.81-.27,3.97-.48,6.33-.48,4.28,0,7.32.99,9.34,2.88,2.05,1.88,3.25,4.55,3.25,8.28s-1.16,6.85-3.32,8.97c-2.16,2.16-5.72,3.32-10.2,3.32-2.12,0-3.9-.1-5.41-.27v-22.69ZM45.61,37.16c.75.14,1.85.17,3.01.17,6.37,0,9.82-3.56,9.82-9.79.03-5.44-3.05-8.9-9.34-8.9-1.54,0-2.7.14-3.49.31v18.21Z"/>
    <path class="cls-3" d="M68.68,18.3c.03,1.03-.72,1.85-1.92,1.85-1.06,0-1.81-.82-1.81-1.85s.79-1.88,1.88-1.88,1.85.82,1.85,1.88ZM65.32,39.52v-16.56h3.01v16.56h-3.01Z"/>
    <path class="cls-3" d="M75.01,31.79c.07,4.07,2.67,5.75,5.68,5.75,2.16,0,3.46-.38,4.59-.86l.51,2.16c-1.06.48-2.88,1.03-5.51,1.03-5.1,0-8.15-3.35-8.15-8.35s2.94-8.93,7.77-8.93c5.41,0,6.85,4.76,6.85,7.8,0,.62-.07,1.1-.1,1.4h-11.64ZM83.84,29.63c.03-1.92-.79-4.89-4.18-4.89-3.05,0-4.38,2.81-4.62,4.89h8.8Z"/>
    <path class="cls-3" d="M117.28,29.39c-.17-3.22-.38-7.08-.34-9.96h-.1c-.79,2.7-1.75,5.58-2.91,8.76l-4.07,11.19h-2.26l-3.73-10.99c-1.1-3.25-2.02-6.23-2.67-8.97h-.07c-.07,2.88-.24,6.74-.44,10.2l-.62,9.89h-2.84l1.61-23.07h3.8l3.94,11.16c.96,2.84,1.75,5.37,2.33,7.77h.1c.58-2.33,1.4-4.86,2.43-7.77l4.11-11.16h3.8l1.44,23.07h-2.91l-.58-10.13Z"/>
    <path class="cls-3" d="M140.45,31.1c0,6.13-4.24,8.8-8.25,8.8-4.48,0-7.94-3.29-7.94-8.52,0-5.54,3.63-8.8,8.21-8.8s7.97,3.46,7.97,8.52ZM127.31,31.27c0,3.63,2.09,6.37,5.03,6.37s5.03-2.7,5.03-6.43c0-2.81-1.4-6.37-4.96-6.37s-5.1,3.29-5.1,6.43Z"/>
    <path class="cls-3" d="M144.25,27.44c0-1.71-.03-3.11-.14-4.48h2.67l.17,2.74h.07c.82-1.57,2.74-3.11,5.48-3.11,2.29,0,5.85,1.37,5.85,7.05v9.89h-3.01v-9.55c0-2.67-.99-4.89-3.83-4.89-1.99,0-3.53,1.4-4.04,3.08-.14.38-.21.89-.21,1.4v9.96h-3.01v-12.08Z"/>
    <path class="cls-3" d="M172.42,39.52l-.24-2.09h-.1c-.92,1.3-2.7,2.46-5.07,2.46-3.35,0-5.07-2.36-5.07-4.76,0-4,3.56-6.19,9.96-6.16v-.34c0-1.37-.38-3.83-3.77-3.83-1.54,0-3.15.48-4.31,1.23l-.68-1.98c1.37-.89,3.35-1.47,5.44-1.47,5.07,0,6.3,3.46,6.3,6.78v6.19c0,1.44.07,2.84.27,3.97h-2.74ZM171.97,31.07c-3.29-.07-7.02.51-7.02,3.73,0,1.95,1.3,2.88,2.84,2.88,2.16,0,3.53-1.37,4-2.77.1-.31.17-.65.17-.96v-2.88Z"/>
    <path class="cls-3" d="M183.23,18.2v4.76h4.31v2.29h-4.31v8.93c0,2.05.58,3.22,2.26,3.22.79,0,1.37-.1,1.75-.21l.14,2.26c-.58.24-1.51.41-2.67.41-1.4,0-2.53-.44-3.25-1.27-.86-.89-1.16-2.36-1.16-4.31v-9.04h-2.57v-2.29h2.57v-3.97l2.94-.79Z"/>
    <path class="cls-3" d="M192.4,31.79c.07,4.07,2.67,5.75,5.68,5.75,2.16,0,3.46-.38,4.59-.86l.51,2.16c-1.06.48-2.88,1.03-5.51,1.03-5.1,0-8.15-3.35-8.15-8.35s2.94-8.93,7.77-8.93c5.41,0,6.85,4.76,6.85,7.8,0,.62-.07,1.1-.1,1.4h-11.64ZM201.23,29.63c.03-1.92-.79-4.89-4.18-4.89-3.05,0-4.38,2.81-4.62,4.89h8.8Z"/>
  </g>
  <g>
    <path class="cls-2" d="M287.74,16.76c1.81-.27,3.97-.48,6.33-.48,4.28,0,7.32.99,9.34,2.88,2.05,1.88,3.25,4.55,3.25,8.28s-1.16,6.85-3.32,8.97c-2.16,2.16-5.72,3.32-10.2,3.32-2.12,0-3.9-.1-5.41-.27v-22.69ZM290.72,37.16c.75.14,1.85.17,3.01.17,6.37,0,9.82-3.56,9.82-9.79.03-5.44-3.05-8.9-9.34-8.9-1.54,0-2.7.14-3.49.31v18.21Z"/>
    <path class="cls-2" d="M313.79,18.3c.03,1.03-.72,1.85-1.92,1.85-1.06,0-1.81-.82-1.81-1.85s.79-1.88,1.88-1.88,1.85.82,1.85,1.88ZM310.43,39.52v-16.56h3.01v16.56h-3.01Z"/>
    <path class="cls-2" d="M320.12,31.79c.07,4.07,2.67,5.75,5.68,5.75,2.16,0,3.46-.38,4.59-.86l.51,2.16c-1.06.48-2.88,1.03-5.51,1.03-5.1,0-8.15-3.35-8.15-8.35s2.94-8.93,7.77-8.93c5.41,0,6.85,4.76,6.85,7.8,0,.62-.07,1.1-.1,1.4h-11.64ZM328.95,29.63c.03-1.92-.79-4.89-4.18-4.89-3.05,0-4.38,2.81-4.62,4.89h8.8Z"/>
    <path class="cls-2" d="M345.48,39.52l-5.85-23.07h3.15l2.74,11.67c.68,2.88,1.3,5.75,1.71,7.97h.07c.38-2.29,1.1-5.03,1.88-8.01l3.08-11.64h3.11l2.81,11.71c.65,2.74,1.27,5.48,1.61,7.91h.07c.48-2.53,1.13-5.1,1.85-7.97l3.05-11.64h3.05l-6.54,23.07h-3.11l-2.91-12.01c-.72-2.94-1.2-5.2-1.51-7.53h-.07c-.41,2.29-.92,4.55-1.78,7.53l-3.29,12.01h-3.11Z"/>
    <path class="cls-2" d="M384.43,31.1c0,6.13-4.24,8.8-8.25,8.8-4.48,0-7.94-3.29-7.94-8.52,0-5.54,3.63-8.8,8.21-8.8s7.97,3.46,7.97,8.52ZM371.29,31.27c0,3.63,2.09,6.37,5.03,6.37s5.03-2.7,5.03-6.43c0-2.81-1.4-6.37-4.96-6.37s-5.1,3.29-5.1,6.43Z"/>
    <path class="cls-2" d="M400.04,38.91c-.79.41-2.53.96-4.76.96-5,0-8.25-3.39-8.25-8.45s3.49-8.8,8.9-8.8c1.78,0,3.35.44,4.18.86l-.68,2.33c-.72-.41-1.85-.79-3.49-.79-3.8,0-5.85,2.81-5.85,6.26,0,3.83,2.46,6.19,5.75,6.19,1.71,0,2.84-.44,3.7-.82l.51,2.26Z"/>
    <path class="cls-2" d="M403.56,15.22h3.01v10.34h.07c.48-.86,1.23-1.61,2.16-2.12.89-.51,1.95-.86,3.08-.86,2.22,0,5.78,1.37,5.78,7.08v9.86h-3.01v-9.51c0-2.67-.99-4.93-3.83-4.93-1.95,0-3.49,1.37-4.04,3.01-.17.41-.21.86-.21,1.44v9.99h-3.01V15.22Z"/>
    <path class="cls-2" d="M424.24,31.79c.07,4.07,2.67,5.75,5.68,5.75,2.16,0,3.46-.38,4.59-.86l.51,2.16c-1.06.48-2.88,1.03-5.51,1.03-5.1,0-8.15-3.35-8.15-8.35s2.94-8.93,7.77-8.93c5.41,0,6.85,4.76,6.85,7.8,0,.62-.07,1.1-.1,1.4h-11.64ZM433.07,29.63c.03-1.92-.79-4.89-4.18-4.89-3.05,0-4.38,2.81-4.62,4.89h8.8Z"/>
    <path class="cls-2" d="M439.71,27.44c0-1.71-.03-3.11-.14-4.48h2.67l.17,2.74h.07c.82-1.57,2.74-3.11,5.48-3.11,2.29,0,5.85,1.37,5.85,7.05v9.89h-3.01v-9.55c0-2.67-.99-4.89-3.83-4.89-1.99,0-3.53,1.4-4.04,3.08-.14.38-.21.89-.21,1.4v9.96h-3.01v-12.08Z"/>
    <path class="cls-2" d="M462.19,18.2v4.76h4.31v2.29h-4.31v8.93c0,2.05.58,3.22,2.26,3.22.79,0,1.37-.1,1.75-.21l.14,2.26c-.58.24-1.51.41-2.67.41-1.4,0-2.53-.44-3.25-1.27-.86-.89-1.16-2.36-1.16-4.31v-9.04h-2.57v-2.29h2.57v-3.97l2.94-.79Z"/>
    <path class="cls-2" d="M479.07,39.52l-.24-2.09h-.1c-.92,1.3-2.7,2.46-5.07,2.46-3.35,0-5.07-2.36-5.07-4.76,0-4,3.56-6.19,9.96-6.16v-.34c0-1.37-.38-3.83-3.77-3.83-1.54,0-3.15.48-4.31,1.23l-.68-1.98c1.37-.89,3.35-1.47,5.44-1.47,5.07,0,6.3,3.46,6.3,6.78v6.19c0,1.44.07,2.84.27,3.97h-2.74ZM478.62,31.07c-3.29-.07-7.02.51-7.02,3.73,0,1.95,1.3,2.88,2.84,2.88,2.16,0,3.53-1.37,4-2.77.1-.31.17-.65.17-.96v-2.88Z"/>
    <path class="cls-2" d="M500.66,22.96c-.07,1.2-.14,2.53-.14,4.55v9.62c0,3.8-.75,6.13-2.36,7.56-1.61,1.51-3.94,1.99-6.02,1.99s-4.18-.48-5.51-1.37l.75-2.29c1.1.68,2.81,1.3,4.86,1.3,3.08,0,5.34-1.61,5.34-5.78v-1.85h-.07c-.92,1.54-2.7,2.77-5.27,2.77-4.11,0-7.05-3.49-7.05-8.08,0-5.61,3.66-8.8,7.46-8.8,2.88,0,4.45,1.51,5.17,2.87h.07l.14-2.5h2.64ZM497.55,29.49c0-.51-.03-.96-.17-1.37-.55-1.75-2.02-3.18-4.21-3.18-2.88,0-4.93,2.43-4.93,6.26,0,3.25,1.64,5.96,4.89,5.96,1.85,0,3.53-1.16,4.18-3.08.17-.51.24-1.1.24-1.61v-2.98Z"/>
    <path class="cls-2" d="M507.2,31.79c.07,4.07,2.67,5.75,5.68,5.75,2.16,0,3.46-.38,4.59-.86l.51,2.16c-1.06.48-2.88,1.03-5.51,1.03-5.1,0-8.15-3.35-8.15-8.35s2.94-8.93,7.77-8.93c5.41,0,6.85,4.76,6.85,7.8,0,.62-.07,1.1-.1,1.4h-11.64ZM516.03,29.63c.04-1.92-.79-4.89-4.18-4.89-3.04,0-4.38,2.81-4.62,4.89h8.79Z"/>
  </g>
  <g>
    <path class="cls-3" d="M48.11,71.93h3.29v17.04c0,6.76-3.32,8.84-7.71,8.84-1.21,0-2.68-.26-3.51-.6l.49-2.68c.68.26,1.66.49,2.76.49,2.95,0,4.68-1.32,4.68-6.31v-16.77Z"/>
    <path class="cls-3" d="M66.89,97.4l-.26-2.3h-.11c-1.02,1.44-2.98,2.72-5.59,2.72-3.7,0-5.59-2.61-5.59-5.25,0-4.42,3.93-6.84,10.99-6.8v-.38c0-1.51-.42-4.23-4.16-4.23-1.7,0-3.48.53-4.76,1.36l-.76-2.19c1.51-.98,3.7-1.62,6.01-1.62,5.59,0,6.95,3.82,6.95,7.48v6.84c0,1.59.08,3.14.3,4.38h-3.02ZM66.4,88.07c-3.63-.08-7.75.57-7.75,4.12,0,2.15,1.44,3.17,3.14,3.17,2.38,0,3.89-1.51,4.42-3.06.11-.34.19-.72.19-1.06v-3.17Z"/>
    <path class="cls-3" d="M74.97,84.06c0-1.89-.04-3.44-.15-4.95h2.95l.19,3.02h.08c.91-1.74,3.02-3.44,6.04-3.44,2.53,0,6.46,1.51,6.46,7.78v10.92h-3.32v-10.54c0-2.95-1.1-5.4-4.23-5.4-2.19,0-3.89,1.55-4.46,3.4-.15.42-.23.98-.23,1.55v10.99h-3.32v-13.34Z"/>
    <path class="cls-3" d="M111.24,92.41c0,1.89.04,3.55.15,4.99h-2.95l-.19-2.98h-.08c-.87,1.47-2.8,3.4-6.04,3.4-2.87,0-6.31-1.59-6.31-8.01v-10.69h3.32v10.13c0,3.48,1.06,5.82,4.08,5.82,2.23,0,3.78-1.55,4.38-3.02.19-.49.3-1.1.3-1.7v-11.22h3.32v13.3Z"/>
    <path class="cls-3" d="M126.88,97.4l-.26-2.3h-.11c-1.02,1.44-2.98,2.72-5.59,2.72-3.7,0-5.59-2.61-5.59-5.25,0-4.42,3.93-6.84,10.99-6.8v-.38c0-1.51-.42-4.23-4.16-4.23-1.7,0-3.48.53-4.76,1.36l-.76-2.19c1.51-.98,3.7-1.62,6.01-1.62,5.59,0,6.95,3.82,6.95,7.48v6.84c0,1.59.08,3.14.3,4.38h-3.02ZM126.39,88.07c-3.63-.08-7.75.57-7.75,4.12,0,2.15,1.44,3.17,3.14,3.17,2.38,0,3.89-1.51,4.42-3.06.11-.34.19-.72.19-1.06v-3.17Z"/>
    <path class="cls-3" d="M134.96,84.82c0-2.15-.04-4-.15-5.71h2.91l.11,3.59h.15c.83-2.46,2.83-4,5.06-4,.38,0,.64.04.94.11v3.14c-.34-.08-.68-.11-1.13-.11-2.34,0-4,1.78-4.46,4.27-.08.45-.15.98-.15,1.55v9.75h-3.29v-12.58Z"/>
    <path class="cls-3" d="M42.9,117.26h13.71v2.76h-10.43v8.46h9.63v2.72h-9.63v11.52h-3.29v-25.46Z"/>
    <path class="cls-3" d="M61.86,134.19c.08,4.5,2.95,6.35,6.27,6.35,2.38,0,3.82-.42,5.06-.94l.57,2.38c-1.17.53-3.17,1.13-6.08,1.13-5.63,0-8.99-3.7-8.99-9.22s3.25-9.86,8.58-9.86c5.97,0,7.56,5.25,7.56,8.61,0,.68-.08,1.21-.11,1.55h-12.85ZM71.61,131.81c.04-2.12-.87-5.4-4.61-5.4-3.36,0-4.84,3.1-5.1,5.4h9.71Z"/>
    <path class="cls-3" d="M78.79,142.73c.08-1.25.15-3.1.15-4.72v-22.1h3.29v11.49h.08c1.17-2.04,3.29-3.36,6.23-3.36,4.53,0,7.74,3.78,7.71,9.33,0,6.54-4.12,9.79-8.2,9.79-2.65,0-4.76-1.02-6.12-3.44h-.11l-.15,3.02h-2.87ZM82.22,135.4c0,.42.08.83.15,1.21.64,2.3,2.57,3.89,4.99,3.89,3.48,0,5.55-2.83,5.55-7.03,0-3.66-1.89-6.8-5.44-6.8-2.27,0-4.38,1.55-5.06,4.08-.08.38-.19.83-.19,1.36v3.29Z"/>
    <path class="cls-3" d="M100.43,130.15c0-2.15-.04-4-.15-5.71h2.91l.11,3.59h.15c.83-2.46,2.83-4,5.06-4,.38,0,.64.04.94.11v3.14c-.34-.08-.68-.11-1.13-.11-2.34,0-4,1.78-4.46,4.27-.08.45-.15.98-.15,1.55v9.75h-3.29v-12.58Z"/>
    <path class="cls-3" d="M128.09,137.74c0,1.89.04,3.55.15,4.99h-2.95l-.19-2.98h-.08c-.87,1.47-2.8,3.4-6.04,3.4-2.87,0-6.31-1.59-6.31-8.01v-10.69h3.32v10.13c0,3.48,1.06,5.82,4.08,5.82,2.23,0,3.78-1.55,4.38-3.02.19-.49.3-1.1.3-1.7v-11.22h3.32v13.3Z"/>
    <path class="cls-3" d="M143.73,142.73l-.26-2.3h-.11c-1.02,1.44-2.98,2.72-5.59,2.72-3.7,0-5.59-2.61-5.59-5.25,0-4.42,3.93-6.84,10.99-6.8v-.38c0-1.51-.42-4.23-4.16-4.23-1.7,0-3.48.53-4.76,1.36l-.76-2.19c1.51-.98,3.7-1.62,6.01-1.62,5.59,0,6.95,3.82,6.95,7.48v6.84c0,1.59.08,3.14.3,4.38h-3.02ZM143.23,133.4c-3.63-.08-7.75.57-7.75,4.12,0,2.15,1.44,3.17,3.14,3.17,2.38,0,3.89-1.51,4.42-3.06.11-.34.19-.72.19-1.06v-3.17Z"/>
    <path class="cls-3" d="M151.81,130.15c0-2.15-.04-4-.15-5.71h2.91l.11,3.59h.15c.83-2.46,2.83-4,5.06-4,.38,0,.64.04.94.11v3.14c-.34-.08-.68-.11-1.13-.11-2.34,0-4,1.78-4.46,4.27-.08.45-.15.98-.15,1.55v9.75h-3.29v-12.58Z"/>
    <path class="cls-3" d="M64.36,176.88c-.19-3.55-.42-7.82-.38-10.99h-.11c-.87,2.98-1.93,6.16-3.21,9.67l-4.5,12.35h-2.49l-4.12-12.13c-1.21-3.59-2.23-6.88-2.95-9.9h-.08c-.08,3.17-.26,7.44-.49,11.26l-.68,10.92h-3.14l1.78-25.46h4.19l4.34,12.32c1.06,3.14,1.93,5.93,2.57,8.58h.11c.64-2.57,1.55-5.37,2.68-8.58l4.53-12.32h4.19l1.59,25.46h-3.21l-.64-11.18Z"/>
    <path class="cls-3" d="M83.51,188.06l-.26-2.3h-.11c-1.02,1.44-2.98,2.72-5.59,2.72-3.7,0-5.59-2.61-5.59-5.25,0-4.42,3.93-6.84,10.99-6.8v-.38c0-1.51-.42-4.23-4.16-4.23-1.7,0-3.48.53-4.76,1.36l-.76-2.19c1.51-.98,3.7-1.62,6.01-1.62,5.59,0,6.95,3.82,6.95,7.48v6.84c0,1.59.08,3.14.3,4.38h-3.02ZM74.33,164.6c0-1.06.87-1.93,1.93-1.93s1.85.83,1.85,1.93c0,1.02-.76,1.93-1.85,1.93s-1.93-.91-1.93-1.93ZM83.02,178.73c-3.63-.08-7.75.57-7.75,4.12,0,2.15,1.44,3.17,3.14,3.17,2.38,0,3.89-1.51,4.42-3.06.11-.34.19-.72.19-1.06v-3.17ZM81.36,164.6c0-1.06.83-1.93,1.89-1.93s1.85.83,1.85,1.93c0,1.02-.76,1.93-1.85,1.93s-1.89-.91-1.89-1.93Z"/>
    <path class="cls-3" d="M91.59,175.48c0-2.15-.04-4-.15-5.71h2.91l.11,3.59h.15c.83-2.46,2.83-4,5.06-4,.38,0,.64.04.94.11v3.14c-.34-.08-.68-.11-1.13-.11-2.34,0-4,1.78-4.46,4.27-.08.45-.15.98-.15,1.55v9.75h-3.29v-12.58Z"/>
    <path class="cls-3" d="M102.21,186.13l8.27-10.77c.79-.98,1.55-1.85,2.38-2.83v-.08h-9.9v-2.68h13.94l-.04,2.08-8.16,10.62c-.76,1.02-1.51,1.93-2.34,2.87v.08h10.69v2.64h-14.85v-1.93Z"/>
    <path class="cls-3" d="M47.02,225.38l-2.64,8.01h-3.4l8.65-25.46h3.97l8.69,25.46h-3.51l-2.72-8.01h-9.03ZM55.37,222.81l-2.49-7.33c-.57-1.66-.94-3.17-1.32-4.65h-.08c-.38,1.51-.79,3.06-1.28,4.61l-2.49,7.37h7.67Z"/>
    <path class="cls-3" d="M65.79,221.07c0-2.34-.08-4.23-.15-5.97h2.98l.15,3.14h.08c1.36-2.23,3.51-3.55,6.5-3.55,4.42,0,7.75,3.74,7.75,9.29,0,6.57-4,9.82-8.31,9.82-2.42,0-4.53-1.06-5.63-2.87h-.08v9.94h-3.29v-19.8ZM69.08,225.95c0,.49.08.94.15,1.36.6,2.3,2.61,3.89,4.99,3.89,3.51,0,5.55-2.87,5.55-7.06,0-3.66-1.93-6.8-5.44-6.8-2.27,0-4.38,1.62-5.02,4.12-.11.42-.23.91-.23,1.36v3.14Z"/>
    <path class="cls-3" d="M87.29,220.81c0-2.15-.04-4-.15-5.71h2.91l.11,3.59h.15c.83-2.46,2.83-4,5.06-4,.38,0,.64.04.94.11v3.14c-.34-.08-.68-.11-1.13-.11-2.34,0-4,1.78-4.46,4.27-.08.45-.15.98-.15,1.55v9.75h-3.29v-12.58Z"/>
    <path class="cls-3" d="M103.49,209.97c.04,1.13-.79,2.04-2.12,2.04-1.17,0-2-.91-2-2.04s.87-2.08,2.08-2.08,2.04.91,2.04,2.08ZM99.79,233.39v-18.29h3.32v18.29h-3.32Z"/>
    <path class="cls-3" d="M108.63,206.57h3.32v26.82h-3.32v-26.82Z"/>
    <path class="cls-3" d="M64.36,267.54c-.19-3.55-.42-7.82-.38-10.99h-.11c-.87,2.98-1.93,6.16-3.21,9.67l-4.5,12.35h-2.49l-4.12-12.13c-1.21-3.59-2.23-6.88-2.95-9.9h-.08c-.08,3.17-.26,7.44-.49,11.26l-.68,10.92h-3.14l1.78-25.46h4.19l4.34,12.32c1.06,3.14,1.93,5.93,2.57,8.58h.11c.64-2.57,1.55-5.37,2.68-8.58l4.53-12.32h4.19l1.59,25.46h-3.21l-.64-11.18Z"/>
    <path class="cls-3" d="M83.51,278.72l-.26-2.3h-.11c-1.02,1.44-2.98,2.72-5.59,2.72-3.7,0-5.59-2.61-5.59-5.25,0-4.42,3.93-6.84,10.99-6.8v-.38c0-1.51-.42-4.23-4.16-4.23-1.7,0-3.48.53-4.76,1.36l-.76-2.19c1.51-.98,3.7-1.62,6.01-1.62,5.59,0,6.95,3.82,6.95,7.48v6.84c0,1.59.08,3.14.3,4.38h-3.02ZM83.02,269.39c-3.63-.08-7.75.57-7.75,4.12,0,2.15,1.44,3.17,3.14,3.17,2.38,0,3.89-1.51,4.42-3.06.11-.34.19-.72.19-1.06v-3.17Z"/>
    <path class="cls-3" d="M95.3,255.3c.04,1.13-.79,2.04-2.12,2.04-1.17,0-2-.91-2-2.04s.87-2.08,2.08-2.08,2.04.91,2.04,2.08ZM91.59,278.72v-18.29h3.32v18.29h-3.32Z"/>
    <path class="cls-3" d="M48.11,298.59h3.29v17.04c0,6.76-3.32,8.84-7.71,8.84-1.21,0-2.68-.26-3.51-.6l.49-2.68c.68.26,1.66.49,2.76.49,2.95,0,4.68-1.32,4.68-6.31v-16.77Z"/>
    <path class="cls-3" d="M72.06,319.07c0,1.89.04,3.55.15,4.99h-2.95l-.19-2.98h-.08c-.87,1.47-2.8,3.4-6.04,3.4-2.87,0-6.31-1.59-6.31-8.01v-10.69h3.32v10.13c0,3.48,1.06,5.82,4.08,5.82,2.23,0,3.78-1.55,4.38-3.02.19-.49.3-1.1.3-1.7v-11.22h3.32v13.3Z"/>
    <path class="cls-3" d="M77.58,310.72c0-1.89-.04-3.44-.15-4.95h2.95l.19,3.02h.08c.91-1.74,3.02-3.44,6.04-3.44,2.53,0,6.46,1.51,6.46,7.78v10.92h-3.32v-10.54c0-2.95-1.1-5.4-4.23-5.4-2.19,0-3.89,1.55-4.46,3.4-.15.42-.23.98-.23,1.55v10.99h-3.32v-13.34Z"/>
    <path class="cls-3" d="M102.25,300.63c.04,1.13-.79,2.04-2.12,2.04-1.17,0-2-.91-2-2.04s.87-2.08,2.08-2.08,2.04.91,2.04,2.08ZM98.54,324.05v-18.29h3.32v18.29h-3.32Z"/>
    <path class="cls-3" d="M48.11,343.92h3.29v17.04c0,6.76-3.32,8.84-7.71,8.84-1.21,0-2.68-.26-3.51-.6l.49-2.68c.68.26,1.66.49,2.76.49,2.95,0,4.68-1.32,4.68-6.31v-16.77Z"/>
    <path class="cls-3" d="M72.06,364.4c0,1.89.04,3.55.15,4.99h-2.95l-.19-2.98h-.08c-.87,1.47-2.8,3.4-6.04,3.4-2.87,0-6.31-1.59-6.31-8.01v-10.69h3.32v10.12c0,3.48,1.06,5.82,4.08,5.82,2.23,0,3.78-1.55,4.38-3.02.19-.49.3-1.1.3-1.7v-11.22h3.32v13.3Z"/>
    <path class="cls-3" d="M77.58,342.56h3.32v26.82h-3.32v-26.82Z"/>
    <path class="cls-3" d="M90.2,345.96c.04,1.13-.79,2.04-2.12,2.04-1.17,0-2-.91-2-2.04s.87-2.08,2.08-2.08,2.04.91,2.04,2.08ZM86.49,369.38v-18.29h3.32v18.29h-3.32Z"/>
    <path class="cls-3" d="M47.02,406.71l-2.64,8.01h-3.4l8.65-25.46h3.97l8.69,25.46h-3.51l-2.72-8.01h-9.03ZM55.37,404.14l-2.49-7.33c-.57-1.66-.94-3.17-1.32-4.65h-.08c-.38,1.51-.79,3.06-1.28,4.61l-2.49,7.37h7.67Z"/>
    <path class="cls-3" d="M80.75,409.73c0,1.89.04,3.55.15,4.99h-2.95l-.19-2.98h-.08c-.87,1.47-2.8,3.4-6.04,3.4-2.87,0-6.31-1.59-6.31-8.01v-10.69h3.32v10.13c0,3.48,1.06,5.82,4.08,5.82,2.23,0,3.78-1.55,4.38-3.02.19-.49.3-1.1.3-1.7v-11.22h3.32v13.3Z"/>
    <path class="cls-3" d="M102.02,396.43c-.08,1.32-.15,2.8-.15,5.03v10.62c0,4.19-.83,6.76-2.61,8.35-1.78,1.66-4.34,2.19-6.65,2.19s-4.61-.53-6.08-1.51l.83-2.53c1.21.76,3.1,1.44,5.37,1.44,3.4,0,5.89-1.78,5.89-6.38v-2.04h-.08c-1.02,1.7-2.98,3.06-5.82,3.06-4.53,0-7.78-3.85-7.78-8.92,0-6.2,4.04-9.71,8.24-9.71,3.17,0,4.91,1.66,5.71,3.17h.08l.15-2.76h2.91ZM98.58,403.65c0-.57-.04-1.06-.19-1.51-.6-1.93-2.23-3.51-4.65-3.51-3.17,0-5.44,2.68-5.44,6.91,0,3.59,1.81,6.57,5.4,6.57,2.04,0,3.89-1.29,4.61-3.4.19-.57.26-1.21.26-1.78v-3.29Z"/>
    <path class="cls-3" d="M122.68,409.73c0,1.89.04,3.55.15,4.99h-2.95l-.19-2.98h-.08c-.87,1.47-2.8,3.4-6.04,3.4-2.87,0-6.31-1.59-6.31-8.01v-10.69h3.32v10.13c0,3.48,1.06,5.82,4.08,5.82,2.23,0,3.78-1.55,4.38-3.02.19-.49.3-1.1.3-1.7v-11.22h3.32v13.3Z"/>
    <path class="cls-3" d="M127.74,411.31c.98.64,2.72,1.32,4.38,1.32,2.42,0,3.55-1.21,3.55-2.72,0-1.59-.94-2.46-3.4-3.36-3.29-1.17-4.84-2.99-4.84-5.18,0-2.95,2.38-5.36,6.31-5.36,1.85,0,3.48.53,4.5,1.13l-.83,2.42c-.72-.45-2.04-1.06-3.74-1.06-1.96,0-3.06,1.13-3.06,2.49,0,1.51,1.1,2.19,3.48,3.1,3.17,1.21,4.8,2.8,4.8,5.52,0,3.21-2.49,5.48-6.84,5.48-2,0-3.85-.49-5.14-1.25l.83-2.53Z"/>
    <path class="cls-3" d="M147.16,391.18v5.25h4.76v2.53h-4.76v9.86c0,2.27.64,3.55,2.49,3.55.87,0,1.51-.11,1.93-.23l.15,2.49c-.64.26-1.66.45-2.95.45-1.55,0-2.8-.49-3.59-1.4-.94-.98-1.28-2.61-1.28-4.76v-9.97h-2.83v-2.53h2.83v-4.38l3.25-.87Z"/>
    <path class="cls-3" d="M42.45,456.04c1.47.91,3.63,1.66,5.89,1.66,3.36,0,5.33-1.78,5.33-4.34,0-2.38-1.36-3.74-4.8-5.06-4.16-1.47-6.73-3.63-6.73-7.22,0-3.97,3.29-6.91,8.24-6.91,2.61,0,4.5.6,5.63,1.25l-.91,2.68c-.83-.45-2.53-1.21-4.84-1.21-3.48,0-4.8,2.08-4.8,3.82,0,2.38,1.55,3.55,5.06,4.91,4.31,1.66,6.5,3.74,6.5,7.48,0,3.93-2.91,7.33-8.92,7.33-2.46,0-5.14-.72-6.5-1.62l.83-2.76Z"/>
    <path class="cls-3" d="M63.49,451.51c.08,4.5,2.95,6.35,6.27,6.35,2.38,0,3.82-.42,5.06-.94l.57,2.38c-1.17.53-3.17,1.13-6.08,1.13-5.63,0-8.99-3.7-8.99-9.22s3.25-9.86,8.58-9.86c5.97,0,7.56,5.25,7.56,8.61,0,.68-.08,1.21-.11,1.55h-12.85ZM73.24,449.13c.04-2.12-.87-5.4-4.61-5.4-3.36,0-4.84,3.1-5.1,5.4h9.71Z"/>
    <path class="cls-3" d="M80.56,447.73c0-2.34-.08-4.23-.15-5.97h2.98l.15,3.14h.08c1.36-2.23,3.51-3.55,6.5-3.55,4.42,0,7.75,3.74,7.75,9.29,0,6.57-4,9.82-8.31,9.82-2.42,0-4.53-1.06-5.63-2.87h-.08v9.94h-3.29v-19.8ZM83.85,452.6c0,.49.08.94.15,1.36.6,2.3,2.61,3.89,4.99,3.89,3.51,0,5.55-2.87,5.55-7.06,0-3.67-1.93-6.8-5.44-6.8-2.27,0-4.38,1.62-5.02,4.12-.11.42-.23.91-.23,1.36v3.14Z"/>
    <path class="cls-3" d="M106.06,436.51v5.25h4.76v2.53h-4.76v9.86c0,2.27.64,3.55,2.49,3.55.87,0,1.51-.11,1.93-.23l.15,2.49c-.64.26-1.66.45-2.95.45-1.55,0-2.8-.49-3.59-1.4-.94-.98-1.28-2.61-1.28-4.76v-9.97h-2.83v-2.53h2.83v-4.38l3.25-.87Z"/>
    <path class="cls-3" d="M116.19,451.51c.08,4.5,2.95,6.35,6.27,6.35,2.38,0,3.82-.42,5.06-.94l.57,2.38c-1.17.53-3.17,1.13-6.08,1.13-5.63,0-8.99-3.7-8.99-9.22s3.25-9.86,8.58-9.86c5.97,0,7.56,5.25,7.56,8.61,0,.68-.08,1.21-.11,1.55h-12.85ZM125.93,449.13c.04-2.12-.87-5.4-4.61-5.4-3.36,0-4.84,3.1-5.1,5.4h9.71Z"/>
    <path class="cls-3" d="M133.26,446.71c0-1.89-.04-3.44-.15-4.95h2.91l.15,2.95h.11c1.02-1.74,2.72-3.36,5.74-3.36,2.49,0,4.38,1.51,5.18,3.66h.08c.57-1.02,1.28-1.81,2.04-2.38,1.1-.83,2.3-1.28,4.04-1.28,2.42,0,6.01,1.59,6.01,7.93v10.77h-3.25v-10.35c0-3.51-1.28-5.63-3.97-5.63-1.89,0-3.36,1.4-3.93,3.02-.15.45-.26,1.06-.26,1.66v11.3h-3.25v-10.96c0-2.91-1.28-5.03-3.82-5.03-2.08,0-3.59,1.66-4.12,3.33-.19.49-.26,1.06-.26,1.62v11.03h-3.25v-13.34Z"/>
    <path class="cls-3" d="M164.61,460.05c.08-1.25.15-3.1.15-4.72v-22.1h3.29v11.49h.08c1.17-2.04,3.29-3.36,6.23-3.36,4.53,0,7.74,3.78,7.71,9.33,0,6.54-4.12,9.79-8.2,9.79-2.65,0-4.76-1.02-6.12-3.44h-.11l-.15,3.02h-2.87ZM168.05,452.72c0,.42.08.83.15,1.21.64,2.3,2.57,3.89,4.99,3.89,3.48,0,5.55-2.83,5.55-7.03,0-3.67-1.89-6.8-5.44-6.8-2.27,0-4.38,1.55-5.06,4.08-.08.38-.19.83-.19,1.36v3.29Z"/>
    <path class="cls-3" d="M188.11,451.51c.08,4.5,2.95,6.35,6.27,6.35,2.38,0,3.82-.42,5.06-.94l.57,2.38c-1.17.53-3.17,1.13-6.08,1.13-5.63,0-8.99-3.7-8.99-9.22s3.25-9.86,8.58-9.86c5.97,0,7.56,5.25,7.56,8.61,0,.68-.08,1.21-.11,1.55h-12.85ZM197.86,449.13c.04-2.12-.87-5.4-4.61-5.4-3.36,0-4.84,3.1-5.1,5.4h9.71Z"/>
    <path class="cls-3" d="M205.19,447.46c0-2.15-.04-4-.15-5.71h2.91l.11,3.59h.15c.83-2.46,2.83-4,5.06-4,.38,0,.64.04.94.11v3.14c-.34-.08-.68-.11-1.13-.11-2.34,0-4,1.78-4.46,4.27-.08.45-.15.98-.15,1.55v9.75h-3.29v-12.58Z"/>
    <path class="cls-3" d="M64.66,492.38c0,8.76-5.33,13.41-11.83,13.41s-11.45-5.21-11.45-12.92c0-8.08,5.02-13.37,11.83-13.37s11.45,5.33,11.45,12.88ZM44.9,492.8c0,5.44,2.95,10.31,8.12,10.31s8.16-4.8,8.16-10.58c0-5.06-2.64-10.35-8.12-10.35s-8.16,5.02-8.16,10.62Z"/>
    <path class="cls-3" d="M72.1,495.48h.08c.45-.64,1.1-1.44,1.62-2.08l5.36-6.31h4l-7.06,7.52,8.05,10.77h-4.04l-6.31-8.77-1.7,1.89v6.88h-3.29v-26.82h3.29v16.93Z"/>
    <path class="cls-3" d="M90.54,481.84v5.25h4.76v2.53h-4.76v9.86c0,2.27.64,3.55,2.49,3.55.87,0,1.51-.11,1.93-.23l.15,2.49c-.64.26-1.66.45-2.95.45-1.55,0-2.8-.49-3.59-1.4-.94-.98-1.28-2.61-1.28-4.76v-9.97h-2.83v-2.53h2.83v-4.38l3.25-.87Z"/>
    <path class="cls-3" d="M115.36,496.08c0,6.76-4.69,9.71-9.11,9.71-4.95,0-8.77-3.63-8.77-9.41,0-6.12,4-9.71,9.07-9.71s8.8,3.82,8.8,9.41ZM100.85,496.27c0,4,2.3,7.03,5.55,7.03s5.55-2.98,5.55-7.1c0-3.1-1.55-7.03-5.48-7.03s-5.63,3.63-5.63,7.1Z"/>
    <path class="cls-3" d="M119.4,505.38c.08-1.25.15-3.1.15-4.72v-22.1h3.29v11.49h.08c1.17-2.04,3.29-3.36,6.23-3.36,4.53,0,7.74,3.78,7.71,9.33,0,6.54-4.12,9.79-8.2,9.79-2.65,0-4.76-1.02-6.12-3.44h-.11l-.15,3.02h-2.87ZM122.83,498.05c0,.42.08.83.15,1.21.64,2.3,2.57,3.89,4.99,3.89,3.48,0,5.55-2.83,5.55-7.03,0-3.67-1.89-6.8-5.44-6.8-2.27,0-4.38,1.55-5.06,4.08-.08.38-.19.83-.19,1.36v3.29Z"/>
    <path class="cls-3" d="M142.89,496.84c.08,4.5,2.95,6.35,6.27,6.35,2.38,0,3.82-.42,5.06-.94l.57,2.38c-1.17.53-3.17,1.13-6.08,1.13-5.63,0-8.99-3.7-8.99-9.22s3.25-9.86,8.58-9.86c5.97,0,7.56,5.25,7.56,8.61,0,.68-.08,1.21-.11,1.55h-12.85ZM152.64,494.46c.04-2.12-.87-5.4-4.61-5.4-3.36,0-4.84,3.1-5.1,5.4h9.71Z"/>
    <path class="cls-3" d="M159.97,492.8c0-2.15-.04-4-.15-5.71h2.91l.11,3.59h.15c.83-2.46,2.83-4,5.06-4,.38,0,.64.04.94.11v3.14c-.34-.08-.68-.11-1.13-.11-2.34,0-4,1.78-4.46,4.27-.08.45-.15.98-.15,1.55v9.75h-3.29v-12.58Z"/>
    <path class="cls-3" d="M42.9,550.71v-25.46h3.59l8.16,12.88c1.89,2.98,3.36,5.67,4.57,8.27l.08-.04c-.3-3.4-.38-6.5-.38-10.47v-10.65h3.1v25.46h-3.32l-8.08-12.92c-1.78-2.83-3.48-5.74-4.76-8.5l-.11.04c.19,3.21.26,6.27.26,10.5v10.88h-3.1Z"/>
    <path class="cls-3" d="M84.19,541.42c0,6.76-4.69,9.71-9.11,9.71-4.95,0-8.77-3.63-8.77-9.41,0-6.12,4-9.71,9.07-9.71s8.8,3.82,8.8,9.41ZM69.68,541.6c0,4,2.3,7.03,5.55,7.03s5.55-2.98,5.55-7.1c0-3.1-1.55-7.03-5.48-7.03s-5.63,3.63-5.63,7.1Z"/>
    <path class="cls-3" d="M89.4,532.42l3.59,10.28c.6,1.66,1.1,3.17,1.47,4.69h.11c.42-1.51.94-3.02,1.55-4.69l3.55-10.28h3.48l-7.18,18.29h-3.17l-6.95-18.29h3.55Z"/>
    <path class="cls-3" d="M107.76,542.17c.08,4.5,2.95,6.35,6.27,6.35,2.38,0,3.82-.42,5.06-.94l.57,2.38c-1.17.53-3.17,1.13-6.08,1.13-5.63,0-8.99-3.7-8.99-9.22s3.25-9.86,8.58-9.86c5.97,0,7.56,5.25,7.56,8.61,0,.68-.08,1.21-.11,1.55h-12.85ZM117.51,539.79c.04-2.12-.87-5.4-4.61-5.4-3.36,0-4.84,3.1-5.1,5.4h9.71Z"/>
    <path class="cls-3" d="M124.84,537.37c0-1.89-.04-3.44-.15-4.95h2.91l.15,2.95h.11c1.02-1.74,2.72-3.36,5.74-3.36,2.49,0,4.38,1.51,5.18,3.66h.08c.57-1.02,1.28-1.81,2.04-2.38,1.1-.83,2.3-1.28,4.04-1.28,2.42,0,6.01,1.59,6.01,7.93v10.77h-3.25v-10.35c0-3.51-1.28-5.63-3.97-5.63-1.89,0-3.36,1.4-3.93,3.02-.15.45-.26,1.06-.26,1.66v11.3h-3.25v-10.96c0-2.91-1.28-5.03-3.82-5.03-2.08,0-3.59,1.66-4.12,3.33-.19.49-.26,1.06-.26,1.62v11.03h-3.25v-13.34Z"/>
    <path class="cls-3" d="M156.19,550.71c.08-1.25.15-3.1.15-4.72v-22.1h3.29v11.49h.08c1.17-2.04,3.29-3.36,6.23-3.36,4.53,0,7.75,3.78,7.71,9.33,0,6.54-4.12,9.79-8.2,9.79-2.64,0-4.76-1.02-6.12-3.44h-.11l-.15,3.02h-2.87ZM159.63,543.38c0,.42.08.83.15,1.21.64,2.3,2.57,3.89,4.99,3.89,3.48,0,5.55-2.83,5.55-7.03,0-3.67-1.89-6.8-5.44-6.8-2.27,0-4.38,1.55-5.06,4.08-.08.38-.19.83-.19,1.36v3.29Z"/>
    <path class="cls-3" d="M179.69,542.17c.08,4.5,2.95,6.35,6.27,6.35,2.38,0,3.82-.42,5.06-.94l.57,2.38c-1.17.53-3.17,1.13-6.08,1.13-5.63,0-8.99-3.7-8.99-9.22s3.25-9.86,8.58-9.86c5.97,0,7.56,5.25,7.56,8.61,0,.68-.08,1.21-.11,1.55h-12.85ZM189.43,539.79c.04-2.12-.87-5.4-4.61-5.4-3.36,0-4.84,3.1-5.1,5.4h9.71Z"/>
    <path class="cls-3" d="M196.76,538.13c0-2.15-.04-4-.15-5.71h2.91l.11,3.59h.15c.83-2.46,2.83-4,5.06-4,.38,0,.64.04.94.11v3.14c-.34-.08-.68-.11-1.13-.11-2.34,0-4,1.78-4.46,4.27-.08.45-.15.98-.15,1.55v9.75h-3.29v-12.58Z"/>
    <path class="cls-3" d="M42.9,570.92c2-.3,4.38-.53,6.99-.53,4.72,0,8.08,1.1,10.31,3.17,2.27,2.08,3.59,5.02,3.59,9.14s-1.28,7.56-3.67,9.9c-2.38,2.38-6.31,3.67-11.26,3.67-2.34,0-4.31-.11-5.97-.3v-25.05ZM46.19,593.43c.83.15,2.04.19,3.32.19,7.03,0,10.84-3.93,10.84-10.81.04-6.01-3.36-9.82-10.31-9.82-1.7,0-2.98.15-3.85.34v20.1Z"/>
    <path class="cls-3" d="M69.95,587.5c.08,4.5,2.95,6.35,6.27,6.35,2.38,0,3.82-.42,5.06-.94l.57,2.38c-1.17.53-3.17,1.13-6.08,1.13-5.63,0-8.99-3.7-8.99-9.22s3.25-9.86,8.58-9.86c5.97,0,7.56,5.25,7.56,8.61,0,.68-.08,1.21-.11,1.55h-12.85ZM79.7,585.12c.04-2.12-.87-5.4-4.61-5.4-3.36,0-4.84,3.1-5.1,5.4h9.71Z"/>
    <path class="cls-3" d="M84.94,594.11l8.27-10.77c.79-.98,1.55-1.85,2.38-2.83v-.08h-9.9v-2.68h13.94l-.04,2.08-8.16,10.62c-.76,1.02-1.51,1.93-2.34,2.87v.08h10.69v2.64h-14.85v-1.93Z"/>
    <path class="cls-3" d="M104.78,587.5c.08,4.5,2.95,6.35,6.27,6.35,2.38,0,3.82-.42,5.06-.94l.57,2.38c-1.17.53-3.17,1.13-6.08,1.13-5.63,0-8.99-3.7-8.99-9.22s3.25-9.86,8.58-9.86c5.97,0,7.56,5.25,7.56,8.61,0,.68-.08,1.21-.11,1.55h-12.85ZM114.52,585.12c.04-2.12-.87-5.4-4.61-5.4-3.36,0-4.84,3.1-5.1,5.4h9.71Z"/>
    <path class="cls-3" d="M121.85,582.7c0-1.89-.04-3.44-.15-4.95h2.91l.15,2.95h.11c1.02-1.74,2.72-3.36,5.74-3.36,2.49,0,4.38,1.51,5.18,3.66h.08c.57-1.02,1.28-1.81,2.04-2.38,1.1-.83,2.3-1.28,4.04-1.28,2.42,0,6.01,1.59,6.01,7.93v10.77h-3.25v-10.35c0-3.51-1.28-5.63-3.97-5.63-1.89,0-3.36,1.4-3.93,3.02-.15.45-.26,1.06-.26,1.66v11.3h-3.25v-10.96c0-2.91-1.28-5.03-3.82-5.03-2.08,0-3.59,1.66-4.12,3.33-.19.49-.26,1.06-.26,1.62v11.03h-3.25v-13.34Z"/>
    <path class="cls-3" d="M153.21,596.04c.08-1.25.15-3.1.15-4.72v-22.1h3.29v11.49h.08c1.17-2.04,3.29-3.36,6.23-3.36,4.53,0,7.74,3.78,7.71,9.33,0,6.54-4.12,9.79-8.2,9.79-2.65,0-4.76-1.02-6.12-3.44h-.11l-.15,3.02h-2.87ZM156.64,588.71c0,.42.08.83.15,1.21.64,2.3,2.57,3.89,4.99,3.89,3.48,0,5.55-2.83,5.55-7.03,0-3.67-1.89-6.8-5.44-6.8-2.27,0-4.38,1.55-5.06,4.08-.08.38-.19.83-.19,1.36v3.29Z"/>
    <path class="cls-3" d="M176.7,587.5c.08,4.5,2.95,6.35,6.27,6.35,2.38,0,3.82-.42,5.06-.94l.57,2.38c-1.17.53-3.17,1.13-6.08,1.13-5.63,0-8.99-3.7-8.99-9.22s3.25-9.86,8.58-9.86c5.97,0,7.56,5.25,7.56,8.61,0,.68-.08,1.21-.11,1.55h-12.85ZM186.45,585.12c.04-2.12-.87-5.4-4.61-5.4-3.36,0-4.84,3.1-5.1,5.4h9.71Z"/>
    <path class="cls-3" d="M193.78,583.46c0-2.15-.04-4-.15-5.71h2.91l.11,3.59h.15c.83-2.46,2.83-4,5.06-4,.38,0,.64.04.94.11v3.14c-.34-.08-.68-.11-1.13-.11-2.34,0-4,1.78-4.46,4.27-.08.45-.15.98-.15,1.55v9.75h-3.29v-12.58Z"/>
  </g>
  <g>
    <path class="cls-3" d="M309.47,86.21c-.19-3.55-.42-7.82-.38-10.99h-.11c-.87,2.98-1.93,6.16-3.21,9.67l-4.5,12.35h-2.49l-4.12-12.13c-1.21-3.59-2.23-6.88-2.95-9.9h-.08c-.08,3.17-.26,7.44-.49,11.26l-.68,10.92h-3.14l1.78-25.46h4.19l4.34,12.32c1.06,3.14,1.93,5.93,2.57,8.58h.11c.64-2.57,1.55-5.37,2.68-8.58l4.53-12.32h4.19l1.59,25.46h-3.21l-.64-11.18Z"/>
    <path class="cls-3" d="M335.04,88.1c0,6.76-4.69,9.71-9.11,9.71-4.95,0-8.77-3.63-8.77-9.41,0-6.12,4-9.71,9.07-9.71s8.8,3.82,8.8,9.41ZM320.54,88.29c0,4,2.3,7.03,5.55,7.03s5.55-2.98,5.55-7.1c0-3.1-1.55-7.03-5.48-7.03s-5.63,3.63-5.63,7.1Z"/>
    <path class="cls-3" d="M339.23,84.06c0-1.89-.04-3.44-.15-4.95h2.95l.19,3.02h.08c.91-1.74,3.02-3.44,6.04-3.44,2.53,0,6.46,1.51,6.46,7.78v10.92h-3.32v-10.54c0-2.95-1.1-5.4-4.23-5.4-2.19,0-3.89,1.55-4.46,3.4-.15.42-.23.98-.23,1.55v10.99h-3.32v-13.34Z"/>
    <path class="cls-3" d="M364.05,73.86v5.25h4.76v2.53h-4.76v9.86c0,2.27.64,3.55,2.49,3.55.87,0,1.51-.11,1.93-.23l.15,2.49c-.64.26-1.66.45-2.95.45-1.55,0-2.8-.49-3.59-1.4-.94-.98-1.28-2.61-1.28-4.76v-9.97h-2.83v-2.53h2.83v-4.38l3.25-.87Z"/>
    <path class="cls-3" d="M382.68,97.4l-.26-2.3h-.11c-1.02,1.44-2.98,2.72-5.59,2.72-3.7,0-5.59-2.61-5.59-5.25,0-4.42,3.93-6.84,10.99-6.8v-.38c0-1.51-.42-4.23-4.16-4.23-1.7,0-3.48.53-4.76,1.36l-.76-2.19c1.51-.98,3.7-1.62,6.01-1.62,5.59,0,6.95,3.82,6.95,7.48v6.84c0,1.59.08,3.14.3,4.38h-3.02ZM382.19,88.07c-3.63-.08-7.75.57-7.75,4.12,0,2.15,1.44,3.17,3.14,3.17,2.38,0,3.89-1.51,4.42-3.06.11-.34.19-.72.19-1.06v-3.17Z"/>
    <path class="cls-3" d="M406.52,79.11c-.08,1.32-.15,2.8-.15,5.02v10.62c0,4.19-.83,6.76-2.61,8.35-1.78,1.66-4.34,2.19-6.65,2.19s-4.61-.53-6.08-1.51l.83-2.53c1.21.76,3.1,1.44,5.37,1.44,3.4,0,5.89-1.78,5.89-6.38v-2.04h-.08c-1.02,1.7-2.98,3.06-5.82,3.06-4.53,0-7.78-3.85-7.78-8.92,0-6.2,4.04-9.71,8.24-9.71,3.17,0,4.91,1.66,5.71,3.17h.08l.15-2.76h2.91ZM403.08,86.33c0-.57-.04-1.06-.19-1.51-.6-1.93-2.23-3.51-4.65-3.51-3.17,0-5.44,2.68-5.44,6.91,0,3.59,1.81,6.57,5.4,6.57,2.04,0,3.89-1.28,4.61-3.4.19-.57.26-1.21.26-1.78v-3.29Z"/>
    <path class="cls-3" d="M288.01,117.6c2-.3,4.38-.53,6.99-.53,4.72,0,8.08,1.1,10.31,3.17,2.27,2.08,3.59,5.02,3.59,9.14s-1.28,7.56-3.67,9.9c-2.38,2.38-6.31,3.66-11.26,3.66-2.34,0-4.31-.11-5.97-.3v-25.05ZM291.3,140.12c.83.15,2.04.19,3.32.19,7.03,0,10.84-3.93,10.84-10.81.04-6.01-3.36-9.82-10.31-9.82-1.7,0-2.98.15-3.85.34v20.1Z"/>
    <path class="cls-3" d="M316.76,119.3c.04,1.13-.79,2.04-2.12,2.04-1.17,0-2-.91-2-2.04s.87-2.08,2.08-2.08,2.04.91,2.04,2.08ZM313.06,142.73v-18.29h3.32v18.29h-3.32Z"/>
    <path class="cls-3" d="M323.75,134.19c.08,4.5,2.95,6.35,6.27,6.35,2.38,0,3.82-.42,5.06-.94l.57,2.38c-1.17.53-3.17,1.13-6.08,1.13-5.63,0-8.99-3.7-8.99-9.22s3.25-9.86,8.58-9.86c5.97,0,7.56,5.25,7.56,8.61,0,.68-.08,1.21-.11,1.55h-12.85ZM333.49,131.81c.04-2.12-.87-5.4-4.61-5.4-3.36,0-4.84,3.1-5.1,5.4h9.71Z"/>
    <path class="cls-3" d="M340.82,129.39c0-1.89-.04-3.44-.15-4.95h2.95l.19,3.02h.08c.91-1.74,3.02-3.44,6.04-3.44,2.53,0,6.46,1.51,6.46,7.78v10.92h-3.32v-10.54c0-2.95-1.1-5.4-4.23-5.4-2.19,0-3.89,1.55-4.46,3.4-.15.42-.23.98-.23,1.55v10.99h-3.32v-13.34Z"/>
    <path class="cls-3" d="M361.33,139.33c.98.64,2.72,1.32,4.38,1.32,2.42,0,3.55-1.21,3.55-2.72,0-1.59-.94-2.46-3.4-3.36-3.29-1.17-4.84-2.98-4.84-5.18,0-2.95,2.38-5.37,6.31-5.37,1.85,0,3.48.53,4.5,1.13l-.83,2.42c-.72-.45-2.04-1.06-3.74-1.06-1.96,0-3.06,1.13-3.06,2.49,0,1.51,1.1,2.19,3.48,3.1,3.17,1.21,4.8,2.8,4.8,5.52,0,3.21-2.49,5.48-6.84,5.48-2,0-3.85-.49-5.14-1.25l.83-2.53Z"/>
    <path class="cls-3" d="M380.75,119.19v5.25h4.76v2.53h-4.76v9.86c0,2.27.64,3.55,2.49,3.55.87,0,1.51-.11,1.93-.23l.15,2.49c-.64.26-1.66.45-2.95.45-1.55,0-2.8-.49-3.59-1.4-.94-.98-1.28-2.61-1.28-4.76v-9.97h-2.83v-2.53h2.83v-4.38l3.25-.87Z"/>
    <path class="cls-3" d="M399.38,142.73l-.26-2.3h-.11c-1.02,1.44-2.98,2.72-5.59,2.72-3.7,0-5.59-2.61-5.59-5.25,0-4.42,3.93-6.84,10.99-6.8v-.38c0-1.51-.42-4.23-4.16-4.23-1.7,0-3.48.53-4.76,1.36l-.76-2.19c1.51-.98,3.7-1.62,6.01-1.62,5.59,0,6.95,3.82,6.95,7.48v6.84c0,1.59.08,3.14.3,4.38h-3.02ZM398.88,133.4c-3.63-.08-7.75.57-7.75,4.12,0,2.15,1.44,3.17,3.14,3.17,2.38,0,3.89-1.51,4.42-3.06.11-.34.19-.72.19-1.06v-3.17Z"/>
    <path class="cls-3" d="M423.21,124.44c-.08,1.32-.15,2.8-.15,5.02v10.62c0,4.19-.83,6.76-2.61,8.35-1.78,1.66-4.34,2.19-6.65,2.19s-4.61-.53-6.08-1.51l.83-2.53c1.21.76,3.1,1.44,5.36,1.44,3.4,0,5.89-1.78,5.89-6.38v-2.04h-.08c-1.02,1.7-2.98,3.06-5.82,3.06-4.53,0-7.78-3.85-7.78-8.92,0-6.2,4.04-9.71,8.24-9.71,3.17,0,4.91,1.66,5.71,3.17h.08l.15-2.76h2.91ZM419.77,131.66c0-.57-.04-1.06-.19-1.51-.6-1.93-2.23-3.51-4.65-3.51-3.17,0-5.44,2.68-5.44,6.91,0,3.59,1.81,6.57,5.4,6.57,2.04,0,3.89-1.28,4.61-3.4.19-.57.26-1.21.26-1.78v-3.29Z"/>
    <path class="cls-3" d="M309.47,176.88c-.19-3.55-.42-7.82-.38-10.99h-.11c-.87,2.98-1.93,6.16-3.21,9.67l-4.5,12.35h-2.49l-4.12-12.13c-1.21-3.59-2.23-6.88-2.95-9.9h-.08c-.08,3.17-.26,7.44-.49,11.26l-.68,10.92h-3.14l1.78-25.46h4.19l4.34,12.32c1.06,3.14,1.93,5.93,2.57,8.58h.11c.64-2.57,1.55-5.37,2.68-8.58l4.53-12.32h4.19l1.59,25.46h-3.21l-.64-11.18Z"/>
    <path class="cls-3" d="M322.43,164.64c.04,1.13-.79,2.04-2.12,2.04-1.17,0-2-.91-2-2.04s.87-2.08,2.08-2.08,2.04.91,2.04,2.08ZM318.72,188.06v-18.29h3.32v18.29h-3.32Z"/>
    <path class="cls-3" d="M331.57,164.52v5.25h4.76v2.53h-4.76v9.86c0,2.27.64,3.55,2.49,3.55.87,0,1.51-.11,1.93-.23l.15,2.49c-.64.26-1.66.45-2.95.45-1.55,0-2.8-.49-3.59-1.4-.94-.98-1.28-2.61-1.28-4.76v-9.97h-2.83v-2.53h2.83v-4.38l3.25-.87Z"/>
    <path class="cls-3" d="M344.07,164.52v5.25h4.76v2.53h-4.76v9.86c0,2.27.64,3.55,2.49,3.55.87,0,1.51-.11,1.93-.23l.15,2.49c-.64.26-1.66.45-2.95.45-1.55,0-2.8-.49-3.59-1.4-.94-.98-1.28-2.61-1.28-4.76v-9.97h-2.83v-2.53h2.83v-4.38l3.25-.87Z"/>
    <path class="cls-3" d="M354.23,169.77l2.42,9.29c.53,2.04,1.02,3.93,1.36,5.82h.11c.42-1.85,1.02-3.82,1.62-5.78l2.98-9.33h2.8l2.83,9.14c.68,2.19,1.21,4.12,1.62,5.97h.11c.3-1.85.79-3.78,1.4-5.93l2.61-9.18h3.29l-5.89,18.29h-3.02l-2.8-8.73c-.64-2.04-1.17-3.85-1.62-6.01h-.08c-.45,2.19-1.02,4.08-1.66,6.04l-2.95,8.69h-3.02l-5.52-18.29h3.4Z"/>
    <path class="cls-3" d="M396.88,178.77c0,6.76-4.69,9.71-9.11,9.71-4.95,0-8.77-3.63-8.77-9.41,0-6.12,4-9.71,9.07-9.71s8.8,3.82,8.8,9.41ZM382.38,178.95c0,4,2.3,7.03,5.55,7.03s5.55-2.98,5.55-7.1c0-3.1-1.55-7.03-5.48-7.03s-5.63,3.63-5.63,7.1Z"/>
    <path class="cls-3" d="M414.11,187.38c-.87.45-2.8,1.06-5.25,1.06-5.52,0-9.11-3.74-9.11-9.33s3.85-9.71,9.82-9.71c1.96,0,3.7.49,4.61.94l-.76,2.57c-.79-.45-2.04-.87-3.85-.87-4.19,0-6.46,3.1-6.46,6.91,0,4.23,2.72,6.84,6.35,6.84,1.89,0,3.14-.49,4.08-.91l.57,2.49Z"/>
    <path class="cls-3" d="M418,161.24h3.32v11.41h.08c.53-.94,1.36-1.78,2.38-2.34.98-.57,2.15-.94,3.4-.94,2.46,0,6.39,1.51,6.39,7.82v10.88h-3.32v-10.5c0-2.95-1.1-5.44-4.23-5.44-2.15,0-3.85,1.51-4.46,3.32-.19.45-.23.94-.23,1.59v11.03h-3.32v-26.82Z"/>
    <path class="cls-3" d="M288.01,208.27c2-.3,4.38-.53,6.99-.53,4.72,0,8.08,1.1,10.31,3.17,2.27,2.08,3.59,5.02,3.59,9.14s-1.28,7.56-3.67,9.9c-2.38,2.38-6.31,3.66-11.26,3.66-2.34,0-4.31-.11-5.97-.3v-25.05ZM291.3,230.78c.83.15,2.04.19,3.32.19,7.03,0,10.84-3.93,10.84-10.81.04-6.01-3.36-9.82-10.31-9.82-1.7,0-2.98.15-3.85.34v20.1Z"/>
    <path class="cls-3" d="M329.76,224.1c0,6.76-4.69,9.71-9.11,9.71-4.95,0-8.77-3.63-8.77-9.41,0-6.12,4-9.71,9.07-9.71s8.8,3.82,8.8,9.41ZM315.25,224.29c0,4,2.3,7.03,5.55,7.03s5.55-2.98,5.55-7.1c0-3.1-1.55-7.03-5.48-7.03s-5.63,3.63-5.63,7.1Z"/>
    <path class="cls-3" d="M333.95,220.05c0-1.89-.04-3.44-.15-4.95h2.95l.19,3.02h.08c.91-1.74,3.02-3.44,6.04-3.44,2.53,0,6.46,1.51,6.46,7.78v10.92h-3.32v-10.54c0-2.95-1.1-5.4-4.23-5.4-2.19,0-3.89,1.55-4.46,3.4-.15.42-.23.98-.23,1.55v10.99h-3.32v-13.34Z"/>
    <path class="cls-3" d="M354.91,220.05c0-1.89-.04-3.44-.15-4.95h2.95l.19,3.02h.08c.91-1.74,3.02-3.44,6.04-3.44,2.53,0,6.46,1.51,6.46,7.78v10.92h-3.32v-10.54c0-2.95-1.1-5.4-4.23-5.4-2.19,0-3.89,1.55-4.46,3.4-.15.42-.23.98-.23,1.55v10.99h-3.32v-13.34Z"/>
    <path class="cls-3" d="M377.73,224.85c.08,4.5,2.95,6.35,6.27,6.35,2.38,0,3.82-.42,5.06-.94l.57,2.38c-1.17.53-3.17,1.13-6.08,1.13-5.63,0-8.99-3.7-8.99-9.22s3.25-9.86,8.58-9.86c5.97,0,7.56,5.25,7.56,8.61,0,.68-.08,1.21-.11,1.55h-12.85ZM387.48,222.47c.04-2.12-.87-5.4-4.61-5.4-3.36,0-4.84,3.1-5.1,5.4h9.71Z"/>
    <path class="cls-3" d="M394.8,220.81c0-2.15-.04-4-.15-5.71h2.91l.11,3.59h.15c.83-2.46,2.83-4,5.06-4,.38,0,.64.04.94.11v3.14c-.34-.08-.68-.11-1.13-.11-2.34,0-4,1.78-4.46,4.27-.08.45-.15.98-.15,1.55v9.75h-3.29v-12.58Z"/>
    <path class="cls-3" d="M406.7,229.99c.98.64,2.72,1.32,4.38,1.32,2.42,0,3.55-1.21,3.55-2.72,0-1.59-.94-2.46-3.4-3.36-3.29-1.17-4.84-2.98-4.84-5.18,0-2.95,2.38-5.37,6.31-5.37,1.85,0,3.48.53,4.5,1.13l-.83,2.42c-.72-.45-2.04-1.06-3.74-1.06-1.96,0-3.06,1.13-3.06,2.49,0,1.51,1.1,2.19,3.48,3.1,3.17,1.21,4.8,2.8,4.8,5.52,0,3.21-2.49,5.48-6.84,5.48-2,0-3.85-.49-5.14-1.25l.83-2.53Z"/>
    <path class="cls-3" d="M426.12,209.85v5.25h4.76v2.53h-4.76v9.86c0,2.27.64,3.55,2.49,3.55.87,0,1.51-.11,1.93-.23l.15,2.49c-.64.26-1.66.45-2.95.45-1.55,0-2.8-.49-3.59-1.4-.94-.98-1.28-2.61-1.28-4.76v-9.97h-2.83v-2.53h2.83v-4.38l3.25-.87Z"/>
    <path class="cls-3" d="M444.74,233.39l-.26-2.3h-.11c-1.02,1.44-2.98,2.72-5.59,2.72-3.7,0-5.59-2.61-5.59-5.25,0-4.42,3.93-6.84,10.99-6.8v-.38c0-1.51-.42-4.23-4.16-4.23-1.7,0-3.48.53-4.76,1.36l-.76-2.19c1.51-.98,3.7-1.62,6.01-1.62,5.59,0,6.95,3.82,6.95,7.48v6.84c0,1.59.08,3.14.3,4.38h-3.02ZM444.25,224.06c-3.63-.08-7.75.57-7.75,4.12,0,2.15,1.44,3.17,3.14,3.17,2.38,0,3.89-1.51,4.42-3.06.11-.34.19-.72.19-1.06v-3.17Z"/>
    <path class="cls-3" d="M468.58,215.1c-.08,1.32-.15,2.8-.15,5.02v10.62c0,4.19-.83,6.76-2.61,8.35-1.78,1.66-4.34,2.19-6.65,2.19s-4.61-.53-6.08-1.51l.83-2.53c1.21.76,3.1,1.44,5.36,1.44,3.4,0,5.89-1.78,5.89-6.38v-2.04h-.08c-1.02,1.7-2.98,3.06-5.82,3.06-4.53,0-7.78-3.85-7.78-8.92,0-6.2,4.04-9.71,8.24-9.71,3.17,0,4.91,1.66,5.71,3.17h.08l.15-2.76h2.91ZM465.14,222.32c0-.57-.04-1.06-.19-1.51-.6-1.93-2.23-3.51-4.65-3.51-3.17,0-5.44,2.68-5.44,6.91,0,3.59,1.81,6.57,5.4,6.57,2.04,0,3.89-1.28,4.61-3.4.19-.57.26-1.21.26-1.78v-3.29Z"/>
    <path class="cls-3" d="M288.01,253.26h13.71v2.76h-10.43v8.46h9.63v2.72h-9.63v11.52h-3.29v-25.46Z"/>
    <path class="cls-3" d="M305.31,266.14c0-2.15-.04-4-.15-5.71h2.91l.11,3.59h.15c.83-2.46,2.83-4,5.06-4,.38,0,.64.04.94.11v3.14c-.34-.08-.68-.11-1.13-.11-2.34,0-4,1.78-4.46,4.27-.08.45-.15.98-.15,1.55v9.75h-3.29v-12.58Z"/>
    <path class="cls-3" d="M319.14,270.18c.08,4.5,2.95,6.35,6.27,6.35,2.38,0,3.82-.42,5.06-.94l.57,2.38c-1.17.53-3.17,1.13-6.08,1.13-5.63,0-8.99-3.7-8.99-9.22s3.25-9.86,8.58-9.86c5.97,0,7.56,5.25,7.56,8.61,0,.68-.08,1.21-.11,1.55h-12.85ZM328.89,267.8c.04-2.12-.87-5.4-4.61-5.4-3.36,0-4.84,3.1-5.1,5.4h9.71Z"/>
    <path class="cls-3" d="M339.92,255.3c.04,1.13-.79,2.04-2.12,2.04-1.17,0-2-.91-2-2.04s.87-2.08,2.08-2.08,2.04.91,2.04,2.08ZM336.21,278.72v-18.29h3.32v18.29h-3.32Z"/>
    <path class="cls-3" d="M349.06,255.18v5.25h4.76v2.53h-4.76v9.86c0,2.27.64,3.55,2.49,3.55.87,0,1.51-.11,1.93-.23l.15,2.49c-.64.26-1.66.45-2.95.45-1.55,0-2.8-.49-3.59-1.4-.94-.98-1.28-2.61-1.28-4.76v-9.97h-2.83v-2.53h2.83v-4.38l3.25-.87Z"/>
    <path class="cls-3" d="M367.68,278.72l-.26-2.3h-.11c-1.02,1.44-2.98,2.72-5.59,2.72-3.7,0-5.59-2.61-5.59-5.25,0-4.42,3.93-6.84,10.99-6.8v-.38c0-1.51-.42-4.23-4.16-4.23-1.7,0-3.48.53-4.76,1.36l-.76-2.19c1.51-.98,3.7-1.62,6.01-1.62,5.59,0,6.95,3.82,6.95,7.48v6.84c0,1.59.08,3.14.3,4.38h-3.02ZM367.19,269.39c-3.63-.08-7.75.57-7.75,4.12,0,2.15,1.44,3.17,3.14,3.17,2.38,0,3.89-1.51,4.42-3.06.11-.34.19-.72.19-1.06v-3.17Z"/>
    <path class="cls-3" d="M391.52,260.44c-.08,1.32-.15,2.8-.15,5.02v10.62c0,4.19-.83,6.76-2.61,8.35-1.78,1.66-4.34,2.19-6.65,2.19s-4.61-.53-6.08-1.51l.83-2.53c1.21.76,3.1,1.44,5.37,1.44,3.4,0,5.89-1.78,5.89-6.38v-2.04h-.08c-1.02,1.7-2.98,3.06-5.82,3.06-4.53,0-7.78-3.85-7.78-8.92,0-6.2,4.04-9.71,8.24-9.71,3.17,0,4.91,1.66,5.71,3.17h.08l.15-2.76h2.91ZM388.08,267.65c0-.57-.04-1.06-.19-1.51-.6-1.93-2.23-3.51-4.65-3.51-3.17,0-5.44,2.68-5.44,6.91,0,3.59,1.81,6.57,5.4,6.57,2.04,0,3.89-1.28,4.61-3.4.19-.57.26-1.21.26-1.78v-3.29Z"/>
    <path class="cls-3" d="M287.56,320.05c1.47.91,3.63,1.66,5.89,1.66,3.36,0,5.33-1.78,5.33-4.34,0-2.38-1.36-3.74-4.8-5.06-4.16-1.47-6.73-3.63-6.73-7.22,0-3.97,3.29-6.91,8.24-6.91,2.61,0,4.5.6,5.63,1.25l-.91,2.68c-.83-.45-2.53-1.21-4.84-1.21-3.48,0-4.8,2.08-4.8,3.82,0,2.38,1.55,3.55,5.06,4.91,4.31,1.66,6.5,3.74,6.5,7.48,0,3.93-2.91,7.33-8.92,7.33-2.46,0-5.14-.72-6.5-1.62l.83-2.76Z"/>
    <path class="cls-3" d="M316.76,324.05l-.26-2.3h-.11c-1.02,1.44-2.98,2.72-5.59,2.72-3.7,0-5.59-2.61-5.59-5.25,0-4.42,3.93-6.84,10.99-6.8v-.38c0-1.51-.42-4.23-4.16-4.23-1.7,0-3.48.53-4.76,1.36l-.76-2.19c1.51-.98,3.7-1.62,6.01-1.62,5.59,0,6.95,3.82,6.95,7.48v6.84c0,1.59.08,3.14.3,4.38h-3.02ZM316.27,314.72c-3.63-.08-7.75.57-7.75,4.12,0,2.15,1.44,3.17,3.14,3.17,2.38,0,3.89-1.51,4.42-3.06.11-.34.19-.72.19-1.06v-3.17Z"/>
    <path class="cls-3" d="M324.84,310.72c0-1.89-.04-3.44-.15-4.95h2.91l.15,2.95h.11c1.02-1.74,2.72-3.36,5.74-3.36,2.49,0,4.38,1.51,5.18,3.67h.08c.57-1.02,1.28-1.81,2.04-2.38,1.1-.83,2.3-1.28,4.04-1.28,2.42,0,6.01,1.59,6.01,7.93v10.77h-3.25v-10.35c0-3.51-1.28-5.63-3.97-5.63-1.89,0-3.36,1.4-3.93,3.02-.15.45-.26,1.06-.26,1.66v11.3h-3.25v-10.96c0-2.91-1.28-5.02-3.82-5.02-2.08,0-3.59,1.66-4.12,3.32-.19.49-.26,1.06-.26,1.62v11.03h-3.25v-13.34Z"/>
    <path class="cls-3" d="M355.89,320.65c.98.64,2.72,1.32,4.38,1.32,2.42,0,3.55-1.21,3.55-2.72,0-1.59-.94-2.46-3.4-3.36-3.29-1.17-4.84-2.98-4.84-5.18,0-2.95,2.38-5.37,6.31-5.37,1.85,0,3.48.53,4.5,1.13l-.83,2.42c-.72-.45-2.04-1.06-3.74-1.06-1.96,0-3.06,1.13-3.06,2.49,0,1.51,1.1,2.19,3.48,3.1,3.17,1.21,4.8,2.8,4.8,5.52,0,3.21-2.49,5.48-6.84,5.48-2,0-3.85-.49-5.14-1.25l.83-2.53Z"/>
    <path class="cls-3" d="M375.31,300.52v5.25h4.76v2.53h-4.76v9.86c0,2.27.64,3.55,2.49,3.55.87,0,1.51-.11,1.93-.23l.15,2.49c-.64.26-1.66.45-2.95.45-1.55,0-2.8-.49-3.59-1.4-.94-.98-1.28-2.61-1.28-4.76v-9.97h-2.83v-2.53h2.83v-4.38l3.25-.87Z"/>
    <path class="cls-3" d="M393.94,324.05l-.26-2.3h-.11c-1.02,1.44-2.98,2.72-5.59,2.72-3.7,0-5.59-2.61-5.59-5.25,0-4.42,3.93-6.84,10.99-6.8v-.38c0-1.51-.42-4.23-4.16-4.23-1.7,0-3.48.53-4.76,1.36l-.76-2.19c1.51-.98,3.7-1.62,6.01-1.62,5.59,0,6.95,3.82,6.95,7.48v6.84c0,1.59.08,3.14.3,4.38h-3.02ZM393.44,314.72c-3.63-.08-7.75.57-7.75,4.12,0,2.15,1.44,3.17,3.14,3.17,2.38,0,3.89-1.51,4.42-3.06.11-.34.19-.72.19-1.06v-3.17Z"/>
    <path class="cls-3" d="M417.77,305.77c-.08,1.32-.15,2.8-.15,5.02v10.62c0,4.19-.83,6.76-2.61,8.35-1.78,1.66-4.34,2.19-6.65,2.19s-4.61-.53-6.08-1.51l.83-2.53c1.21.76,3.1,1.44,5.36,1.44,3.4,0,5.89-1.78,5.89-6.38v-2.04h-.08c-1.02,1.7-2.98,3.06-5.82,3.06-4.53,0-7.78-3.85-7.78-8.92,0-6.2,4.04-9.71,8.24-9.71,3.17,0,4.91,1.66,5.71,3.17h.08l.15-2.76h2.91ZM414.34,312.98c0-.57-.04-1.06-.19-1.51-.6-1.93-2.23-3.51-4.65-3.51-3.17,0-5.44,2.68-5.44,6.91,0,3.59,1.81,6.57,5.4,6.57,2.04,0,3.89-1.29,4.61-3.4.19-.57.26-1.21.26-1.78v-3.29Z"/>
    <path class="cls-3" d="M438.36,297.83c-2.76,3.7-4.76,8.61-4.76,15.45s2.08,11.56,4.76,15.34h-2.61c-2.38-3.14-4.95-7.97-4.95-15.34.04-7.44,2.57-12.28,4.95-15.45h2.61Z"/>
    <path class="cls-4" d="M449.54,320.05c1.47.91,3.63,1.66,5.89,1.66,3.36,0,5.33-1.78,5.33-4.34,0-2.38-1.36-3.74-4.8-5.06-4.16-1.47-6.73-3.63-6.73-7.22,0-3.97,3.29-6.91,8.24-6.91,2.61,0,4.5.6,5.63,1.25l-.91,2.68c-.83-.45-2.53-1.21-4.84-1.21-3.48,0-4.8,2.08-4.8,3.82,0,2.38,1.55,3.55,5.06,4.91,4.31,1.66,6.5,3.74,6.5,7.48,0,3.93-2.91,7.33-8.92,7.33-2.46,0-5.14-.72-6.5-1.62l.83-2.76Z"/>
    <path class="cls-4" d="M485.28,314.76c0,6.76-4.69,9.71-9.11,9.71-4.95,0-8.77-3.63-8.77-9.41,0-6.12,4-9.71,9.07-9.71s8.8,3.82,8.8,9.41ZM470.77,314.95c0,4,2.3,7.03,5.55,7.03s5.55-2.98,5.55-7.1c0-3.1-1.55-7.03-5.48-7.03s-5.63,3.63-5.63,7.1Z"/>
    <path class="cls-4" d="M489.47,310.72c0-1.89-.04-3.44-.15-4.95h2.95l.19,3.02h.08c.91-1.74,3.02-3.44,6.04-3.44,2.53,0,6.46,1.51,6.46,7.78v10.92h-3.33v-10.54c0-2.95-1.1-5.4-4.23-5.4-2.19,0-3.89,1.55-4.46,3.4-.15.42-.23.98-.23,1.55v10.99h-3.32v-13.34Z"/>
    <path class="cls-4" d="M510.44,310.72c0-1.89-.04-3.44-.15-4.95h2.95l.19,3.02h.08c.91-1.74,3.02-3.44,6.04-3.44,2.53,0,6.46,1.51,6.46,7.78v10.92h-3.32v-10.54c0-2.95-1.1-5.4-4.23-5.4-2.19,0-3.89,1.55-4.46,3.4-.15.42-.23.98-.23,1.55v10.99h-3.33v-13.34Z"/>
    <path class="cls-4" d="M541.53,324.05l-.26-2.3h-.11c-1.02,1.44-2.99,2.72-5.59,2.72-3.7,0-5.59-2.61-5.59-5.25,0-4.42,3.93-6.84,10.99-6.8v-.38c0-1.51-.42-4.23-4.16-4.23-1.7,0-3.48.53-4.76,1.36l-.76-2.19c1.51-.98,3.7-1.62,6.01-1.62,5.59,0,6.95,3.82,6.95,7.48v6.84c0,1.59.08,3.14.3,4.38h-3.02ZM541.03,314.72c-3.63-.08-7.75.57-7.75,4.12,0,2.15,1.44,3.17,3.14,3.17,2.38,0,3.89-1.51,4.42-3.06.11-.34.19-.72.19-1.06v-3.17Z"/>
    <path class="cls-4" d="M549.46,324.05c.08-1.25.15-3.1.15-4.72v-22.1h3.29v11.49h.08c1.17-2.04,3.29-3.36,6.23-3.36,4.53,0,7.74,3.78,7.71,9.33,0,6.54-4.12,9.79-8.2,9.79-2.64,0-4.76-1.02-6.12-3.44h-.11l-.15,3.02h-2.87ZM552.9,316.72c0,.42.08.83.15,1.21.64,2.31,2.57,3.89,4.99,3.89,3.48,0,5.55-2.83,5.55-7.03,0-3.66-1.89-6.8-5.44-6.8-2.27,0-4.38,1.55-5.06,4.08-.08.38-.19.83-.19,1.36v3.29Z"/>
    <path class="cls-4" d="M572.95,315.51c.08,4.5,2.95,6.35,6.27,6.35,2.38,0,3.82-.42,5.06-.94l.57,2.38c-1.17.53-3.17,1.13-6.08,1.13-5.63,0-8.99-3.7-8.99-9.22s3.25-9.86,8.58-9.86c5.97,0,7.56,5.25,7.56,8.61,0,.68-.07,1.21-.11,1.55h-12.84ZM582.7,313.13c.04-2.12-.87-5.4-4.61-5.4-3.36,0-4.84,3.1-5.1,5.4h9.71Z"/>
    <path class="cls-4" d="M590.03,310.72c0-1.89-.04-3.44-.15-4.95h2.95l.19,3.02h.08c.91-1.74,3.02-3.44,6.04-3.44,2.53,0,6.46,1.51,6.46,7.78v10.92h-3.32v-10.54c0-2.95-1.1-5.4-4.23-5.4-2.19,0-3.89,1.55-4.46,3.4-.15.42-.23.98-.23,1.55v10.99h-3.33v-13.34Z"/>
    <path class="cls-4" d="M626.79,297.23v22.1c0,1.62.04,3.48.15,4.72h-2.98l-.15-3.17h-.08c-1.02,2.04-3.25,3.59-6.23,3.59-4.42,0-7.82-3.74-7.82-9.29-.04-6.08,3.74-9.82,8.2-9.82,2.79,0,4.68,1.32,5.52,2.8h.08v-10.92h3.32ZM623.46,313.21c0-.42-.04-.98-.15-1.4-.49-2.12-2.3-3.85-4.8-3.85-3.44,0-5.48,3.02-5.48,7.06,0,3.7,1.81,6.76,5.4,6.76,2.23,0,4.27-1.47,4.87-3.97.11-.45.15-.91.15-1.44v-3.17Z"/>
    <path class="cls-3" d="M638.31,328.62c2.68-3.74,4.76-8.65,4.76-15.45s-2.04-11.6-4.76-15.34h2.57c2.42,3.1,4.95,7.93,4.95,15.38s-2.53,12.2-4.95,15.41h-2.57Z"/>
    <path class="cls-3" d="M287.56,365.38c1.47.91,3.63,1.66,5.89,1.66,3.36,0,5.33-1.78,5.33-4.34,0-2.38-1.36-3.74-4.8-5.06-4.16-1.47-6.73-3.63-6.73-7.22,0-3.97,3.29-6.91,8.24-6.91,2.61,0,4.5.6,5.63,1.25l-.91,2.68c-.83-.45-2.53-1.21-4.84-1.21-3.48,0-4.8,2.08-4.8,3.82,0,2.38,1.55,3.55,5.06,4.91,4.31,1.66,6.5,3.74,6.5,7.48,0,3.93-2.91,7.33-8.92,7.33-2.46,0-5.14-.72-6.5-1.62l.83-2.76Z"/>
    <path class="cls-3" d="M323.3,360.09c0,6.76-4.69,9.71-9.11,9.71-4.95,0-8.77-3.63-8.77-9.41,0-6.12,4-9.71,9.07-9.71s8.8,3.82,8.8,9.41ZM308.79,360.28c0,4,2.3,7.03,5.55,7.03s5.55-2.98,5.55-7.1c0-3.1-1.55-7.03-5.48-7.03s-5.63,3.63-5.63,7.1Z"/>
    <path class="cls-3" d="M327.49,356.05c0-1.89-.04-3.44-.15-4.95h2.95l.19,3.02h.08c.91-1.74,3.02-3.44,6.04-3.44,2.53,0,6.46,1.51,6.46,7.78v10.92h-3.32v-10.54c0-2.95-1.1-5.4-4.23-5.4-2.19,0-3.89,1.55-4.46,3.4-.15.42-.23.98-.23,1.55v10.99h-3.32v-13.34Z"/>
    <path class="cls-3" d="M348.45,356.05c0-1.89-.04-3.44-.15-4.95h2.95l.19,3.02h.08c.91-1.74,3.02-3.44,6.04-3.44,2.53,0,6.46,1.51,6.46,7.78v10.92h-3.32v-10.54c0-2.95-1.1-5.4-4.23-5.4-2.19,0-3.89,1.55-4.46,3.4-.15.42-.23.98-.23,1.55v10.99h-3.32v-13.34Z"/>
    <path class="cls-3" d="M373.27,345.85v5.25h4.76v2.53h-4.76v9.86c0,2.27.64,3.55,2.49,3.55.87,0,1.51-.11,1.93-.23l.15,2.49c-.64.26-1.66.45-2.95.45-1.55,0-2.8-.49-3.59-1.4-.94-.98-1.28-2.61-1.28-4.76v-9.97h-2.83v-2.53h2.83v-4.38l3.25-.87Z"/>
    <path class="cls-3" d="M391.9,369.38l-.26-2.3h-.11c-1.02,1.44-2.98,2.72-5.59,2.72-3.7,0-5.59-2.61-5.59-5.25,0-4.42,3.93-6.84,10.99-6.8v-.38c0-1.51-.42-4.23-4.16-4.23-1.7,0-3.48.53-4.76,1.36l-.76-2.19c1.51-.98,3.7-1.62,6.01-1.62,5.59,0,6.95,3.82,6.95,7.48v6.84c0,1.59.08,3.14.3,4.38h-3.02ZM391.4,360.05c-3.63-.08-7.75.57-7.75,4.12,0,2.15,1.44,3.17,3.14,3.17,2.38,0,3.89-1.51,4.42-3.06.11-.34.19-.72.19-1.06v-3.17Z"/>
    <path class="cls-3" d="M415.73,351.1c-.08,1.32-.15,2.8-.15,5.03v10.62c0,4.19-.83,6.76-2.61,8.35-1.78,1.66-4.34,2.19-6.65,2.19s-4.61-.53-6.08-1.51l.83-2.53c1.21.76,3.1,1.44,5.36,1.44,3.4,0,5.89-1.78,5.89-6.38v-2.04h-.08c-1.02,1.7-2.98,3.06-5.82,3.06-4.53,0-7.78-3.85-7.78-8.92,0-6.2,4.04-9.71,8.24-9.71,3.17,0,4.91,1.66,5.71,3.17h.08l.15-2.76h2.91ZM412.3,358.31c0-.57-.04-1.06-.19-1.51-.6-1.93-2.23-3.51-4.65-3.51-3.17,0-5.44,2.68-5.44,6.91,0,3.59,1.81,6.57,5.4,6.57,2.04,0,3.89-1.29,4.61-3.4.19-.57.26-1.21.26-1.78v-3.29Z"/>
  </g>
</svg>