<?xml version="1.0" encoding="UTF-8"?>
<svg id="Layer_1" data-name="Layer 1" xmlns="http://www.w3.org/2000/svg" viewBox="0 0 1079.6 931.8">
  <defs>
    <style>
      .cls-1, .cls-2, .cls-3, .cls-4, .cls-5, .cls-6, .cls-7, .cls-8, .cls-9, .cls-10, .cls-11, .cls-12, .cls-13, .cls-14 {
        isolation: isolate;
      }

      .cls-1, .cls-2, .cls-7, .cls-9, .cls-11, .cls-14 {
        font-family: Poppins-Medium, Poppins;
        font-weight: 500;
      }

      .cls-1, .cls-7, .cls-9 {
        font-size: 19.19px;
      }

      .cls-1, .cls-15 {
        fill: #b52025;
      }

      .cls-2, .cls-11, .cls-13 {
        font-size: 19.09px;
      }

      .cls-3 {
        font-size: 20.98px;
      }

      .cls-3, .cls-10, .cls-13 {
        font-family: Poppins-Bold, Poppins;
        font-weight: 700;
      }

      .cls-3, .cls-13 {
        fill: #231f20;
      }

      .cls-16 {
        stroke: #000;
      }

      .cls-16, .cls-17 {
        fill: none;
        stroke-miterlimit: 10;
      }

      .cls-4, .cls-6, .cls-8, .cls-10, .cls-12 {
        font-size: 15.44px;
      }

      .cls-4, .cls-6, .cls-8, .cls-12 {
        font-family: Poppins-SemiBold, Poppins;
        font-weight: 600;
      }

      .cls-4, .cls-7, .cls-18 {
        fill: #ff0013;
      }

      .cls-19 {
        fill: #ffec00;
      }

      .cls-19, .cls-20, .cls-15, .cls-18 {
        stroke-width: 0px;
      }

      .cls-6, .cls-11, .cls-14 {
        fill: #fff;
      }

      .cls-17 {
        stroke: #b52025;
        stroke-width: 2px;
      }

      .cls-12 {
        fill: #fff200;
      }

      .cls-14 {
        font-size: 20.69px;
      }
    </style>
  </defs>
  <g>
    <text class="cls-3" transform="translate(6 21.71)"><tspan x="0" y="0">nominativ und akkusativ</tspan></text>
    <rect class="cls-17" x="1" y="1" width="282.5" height="27"/>
  </g>
  <g>
    <g>
      <path class="cls-15" d="M10.2,160.5v190.5h460.5v-190.5H10.2ZM469.9,350.2H10.9v-188.9h459v188.9Z"/>
      <rect class="cls-19" x="11" y="161.3" width="48.1" height="188.9"/>
    </g>
    <rect class="cls-15" x="59.1" y="119.3" width=".8" height="231.3"/>
    <rect class="cls-15" x="161.8" y="119.3" width=".8" height="231.3"/>
    <rect class="cls-15" x="59.5" y="350.2" width="660.1" height=".8"/>
    <rect class="cls-15" x="59.5" y="287" width="660.1" height=".8"/>
    <rect class="cls-15" x="59.5" y="160.5" width="660.1" height=".8"/>
    <g>
      <rect class="cls-15" x="59.9" y="119.7" width="101.9" height="40.8"/>
      <rect class="cls-15" x="59.5" y="118.9" width="410.8" height=".8"/>
    </g>
    <rect class="cls-15" x="59.5" y="223.7" width="660.1" height=".8"/>
    <g>
      <rect class="cls-15" x="162.6" y="119.7" width="101.9" height="40.8"/>
      <rect class="cls-15" x="264.5" y="119.3" width=".8" height="231.3"/>
    </g>
    <g>
      <rect class="cls-15" x="265.3" y="119.7" width="101.9" height="40.8"/>
      <rect class="cls-15" x="367.2" y="119.3" width=".8" height="231.3"/>
    </g>
    <g>
      <rect class="cls-15" x="368" y="119.7" width="101.9" height="40.8"/>
      <rect class="cls-15" x="469.9" y="119.3" width=".8" height="231.3"/>
    </g>
    <g>
      <rect class="cls-20" x="470.7" y="161.3" width="248.5" height="62.4"/>
      <rect class="cls-20" x="470.7" y="224.5" width="248.5" height="62.4"/>
      <rect class="cls-20" x="470.7" y="287.8" width="248.5" height="62.4"/>
      <rect class="cls-15" x="719.2" y="160.5" width=".8" height="190.1"/>
    </g>
  </g>
  <text class="cls-13" transform="translate(42.07 304.25) rotate(-90)"><tspan x="0" y="0">nominativ</tspan></text>
  <text class="cls-2" transform="translate(93.78 200.1)"><tspan x="0" y="0">Der</tspan></text>
  <text class="cls-2" transform="translate(95.51 264.16)"><tspan x="0" y="0">ein</tspan></text>
  <text class="cls-2" transform="translate(90.22 325.75)"><tspan x="0" y="0">kein</tspan></text>
  <text class="cls-2" transform="translate(298.41 264.16)"><tspan x="0" y="0">ein</tspan></text>
  <text class="cls-11" transform="translate(480.95 264.16)"><tspan x="0" y="0">unbestimmtem Artikel</tspan></text>
  <text class="cls-2" transform="translate(293.12 325.75)"><tspan x="0" y="0">kein</tspan></text>
  <text class="cls-2" transform="translate(192.6 264.16)"><tspan x="0" y="0">eine</tspan></text>
  <text class="cls-2" transform="translate(187.31 325.75)"><tspan x="0" y="0">keine</tspan></text>
  <text class="cls-2" transform="translate(393.31 325.75)"><tspan x="0" y="0">keine</tspan></text>
  <text class="cls-11" transform="translate(480.95 325.75)"><tspan x="0" y="0">Negationsartikel</tspan></text>
  <text class="cls-2" transform="translate(197.92 200.1)"><tspan x="0" y="0">Die</tspan></text>
  <text class="cls-2" transform="translate(294.68 200.1)"><tspan x="0" y="0">Das</tspan></text>
  <text class="cls-2" transform="translate(403.91 200.1)"><tspan x="0" y="0">Die</tspan></text>
  <text class="cls-11" transform="translate(480.95 200.1)"><tspan x="0" y="0">bestimmtem Artike</tspan></text>
  <text class="cls-14" transform="translate(105.2 151.98)"><tspan x="0" y="0">M</tspan></text>
  <text class="cls-14" transform="translate(204.67 151.98)"><tspan x="0" y="0">F</tspan></text>
  <text class="cls-14" transform="translate(306.13 151.98)"><tspan x="0" y="0">N</tspan></text>
  <text class="cls-14" transform="translate(413.41 151.98)"><tspan x="0" y="0">P</tspan></text>
  <path class="cls-20" d="M428,248.4l.6-.6.6-.6,2.7-2.7-.8-.8-.8-.8-3.3,3.3-.6.6c-.5-.4-1-.7-1.5-1.1-1.7-1-3.7-1.5-5.8-1.5s-4,.5-5.7,1.5-3.1,2.3-4.1,4.1c-1,1.7-1.5,3.7-1.5,5.9s.5,4.2,1.5,5.9c.3.5.6,1,1,1.4l-.6.6-.6.6-2.7,2.7.8.8.8.8,3.9-3.9c.5.4,1,.8,1.6,1.1.9.5,1.8.9,2.7,1.1,1,.2,2,.4,3,.4,2.1,0,4-.5,5.8-1.5,1.7-1,3.1-2.3,4.1-4.1,1-1.7,1.5-3.7,1.5-5.9s-.5-4.2-1.5-5.9c-.4-.5-.7-.9-1.1-1.4h0ZM411.7,261.6c-.2-.3-.3-.5-.5-.8-.8-1.5-1.1-3.2-1.1-5.1s.4-3.6,1.1-5c.8-1.5,1.9-2.6,3.2-3.4,1.4-.8,2.9-1.2,4.7-1.2,1.7,0,3.3.4,4.7,1.2.5.3.9.6,1.3.9l-13.4,13.4h0ZM427,260.8c-.8,1.5-1.9,2.6-3.2,3.4-1.4.8-2.9,1.2-4.7,1.2-1.7,0-3.3-.4-4.7-1.2-.5-.3-.9-.6-1.3-.9l12.8-12.8.6-.6c.2.2.3.5.5.8.8,1.5,1.2,3.2,1.2,5s-.4,3.6-1.2,5.1h0Z"/>
  <g>
    <text class="cls-7" transform="translate(12.08 393.53)"><tspan x="0" y="0">M</tspan></text>
    <text class="cls-7" transform="translate(211.72 393.53)"><tspan x="0" y="0">F</tspan></text>
    <text class="cls-7" transform="translate(414.04 393.53)"><tspan x="0" y="0">N</tspan></text>
    <text class="cls-7" transform="translate(630.07 393.53)"><tspan x="0" y="0">P</tspan></text>
    <text class="cls-9" transform="translate(12.08 422.73)"><tspan x="0" y="0">Das ist </tspan></text>
    <text class="cls-1" transform="translate(81.39 422.73)"><tspan x="0" y="0">der </tspan></text>
    <text class="cls-9" transform="translate(118.6 422.73)"><tspan x="0" y="0">Manne</tspan></text>
    <text class="cls-9" transform="translate(12.08 446.73)"><tspan x="0" y="0">Das ist </tspan></text>
    <text class="cls-1" transform="translate(81.39 446.73)"><tspan x="0" y="0">ein </tspan></text>
    <text class="cls-9" transform="translate(115.74 446.73)"><tspan x="0" y="0">Manne</tspan></text>
    <text class="cls-9" transform="translate(12.08 470.73)"><tspan x="0" y="0">Das ist </tspan></text>
    <text class="cls-1" transform="translate(81.39 470.73)"><tspan x="0" y="0">kein </tspan></text>
    <text class="cls-9" transform="translate(126.37 470.73)"><tspan x="0" y="0">Manne</tspan></text>
    <text class="cls-9" transform="translate(211.72 422.73)"><tspan x="0" y="0">Das ist </tspan></text>
    <text class="cls-1" transform="translate(281.03 422.73)"><tspan x="0" y="0">die </tspan></text>
    <text class="cls-9" transform="translate(315.94 422.73)"><tspan x="0" y="0">Frau</tspan></text>
    <text class="cls-9" transform="translate(211.72 446.73)"><tspan x="0" y="0">Das ist </tspan></text>
    <text class="cls-1" transform="translate(281.03 446.73)"><tspan x="0" y="0">eine </tspan></text>
    <text class="cls-9" transform="translate(327.23 446.73)"><tspan x="0" y="0">Frau</tspan></text>
    <text class="cls-9" transform="translate(211.72 470.73)"><tspan x="0" y="0">Das ist </tspan></text>
    <text class="cls-1" transform="translate(281.03 470.73)"><tspan x="0" y="0" xml:space="preserve">keine  </tspan></text>
    <text class="cls-9" transform="translate(342.85 470.73)"><tspan x="0" y="0">Frau</tspan></text>
    <text class="cls-9" transform="translate(414.04 424.63)"><tspan x="0" y="0">Das ist </tspan></text>
    <text class="cls-1" transform="translate(483.35 424.63)"><tspan x="0" y="0">das </tspan></text>
    <text class="cls-9" transform="translate(524.62 424.63)"><tspan x="0" y="0">Manne</tspan></text>
    <text class="cls-9" transform="translate(414.04 448.63)"><tspan x="0" y="0">Das ist </tspan></text>
    <text class="cls-1" transform="translate(483.35 448.63)"><tspan x="0" y="0">ein </tspan></text>
    <text class="cls-9" transform="translate(517.71 448.63)"><tspan x="0" y="0">Manne</tspan></text>
    <text class="cls-9" transform="translate(414.04 472.64)"><tspan x="0" y="0">Das ist </tspan></text>
    <text class="cls-1" transform="translate(483.35 472.64)"><tspan x="0" y="0">kein </tspan></text>
    <text class="cls-9" transform="translate(528.34 472.64)"><tspan x="0" y="0">Manne</tspan></text>
    <text class="cls-9" transform="translate(630.07 424.63)"><tspan x="0" y="0">Das sind </tspan></text>
    <text class="cls-1" transform="translate(717.7 424.63)"><tspan x="0" y="0">die </tspan></text>
    <text class="cls-9" transform="translate(752.61 424.63)"><tspan x="0" y="0">Kinder</tspan></text>
    <text class="cls-9" transform="translate(630.07 448.63)"><tspan x="0" y="0">Das sind Kinder</tspan></text>
    <text class="cls-9" transform="translate(630.07 472.64)"><tspan x="0" y="0">Das sind </tspan></text>
    <text class="cls-1" transform="translate(717.7 472.64)"><tspan x="0" y="0">keine </tspan></text>
    <text class="cls-9" transform="translate(774.53 472.64)"><tspan x="0" y="0">Kinder</tspan></text>
  </g>
  <rect class="cls-18" x="6" y="54.7" width="175.8" height="39.6"/>
  <text class="cls-6" transform="translate(17.99 78.69)"><tspan x="0" y="0">was ist Nominativ ?</tspan></text>
  <g class="cls-5">
    <text class="cls-8" transform="translate(240.49 68.15)"><tspan x="0" y="0">Der Nominativ hebt das Subjekt hervor. </tspan></text>
    <text class="cls-8" transform="translate(240.49 94.05)"><tspan x="0" y="0">Die W-Frage lautet &quot;wer?&quot; bei Personen und &quot;was?&quot; bei Sachen</tspan></text>
  </g>
  <g class="cls-5">
    <text class="cls-4" transform="translate(12.08 528.87)"><tspan x="0" y="0">Der Mann hört Musik </tspan></text>
    <text class="cls-8" transform="translate(12.08 554.77)"><tspan x="0" y="0">( wo steht Das Subjekts im satz)</tspan></text>
    <text class="cls-8" transform="translate(12.08 580.57)"><tspan x="0" y="0">Der Mann = Nominativ</tspan></text>
  </g>
  <g class="cls-5">
    <text class="cls-4" transform="translate(33.09 637.25)"><tspan x="0" y="0">In Nominativ wir fragen nach den weisen : Wir </tspan></text>
    <text class="cls-8" transform="translate(33.09 663.15)"><tspan x="0" y="0">Wir hört Musik?</tspan></text>
    <text class="cls-8" transform="translate(33.09 688.95)"><tspan x="0" y="0">Der Mann </tspan></text>
  </g>
  <g class="cls-5">
    <text class="cls-4" transform="translate(419.07 637.25)"><tspan x="0" y="0">Und über Die sache Die wir fragen: Was </tspan></text>
    <text class="cls-8" transform="translate(419.07 663.15)"><tspan x="0" y="0">Die stadt ist groß</tspan></text>
    <text class="cls-8" transform="translate(419.07 688.95)"><tspan x="0" y="0">Was ist groß ?</tspan></text>
  </g>
  <g class="cls-5">
    <text class="cls-8" transform="translate(598.82 663.83)"><tspan x="0" y="0">Das Auto ist neu  </tspan></text>
    <text class="cls-8" transform="translate(598.82 689.73)"><tspan x="0" y="0">Was ist neu?</tspan></text>
  </g>
  <g class="cls-5">
    <text class="cls-4" transform="translate(296.4 528.87)"><tspan x="0" y="0">Die Frau liest Das Buch </tspan></text>
    <text class="cls-8" transform="translate(296.4 554.77)"><tspan x="0" y="0">Die Frau = Nominativ</tspan></text>
  </g>
  <g class="cls-5">
    <text class="cls-4" transform="translate(549.12 528.87)"><tspan x="0" y="0">Das Kind kauft einen apfel </tspan></text>
    <text class="cls-8" transform="translate(549.12 554.77)"><tspan x="0" y="0">Das kind = Nominativ</tspan></text>
  </g>
  <text class="cls-8" transform="translate(193.52 78.69)"><tspan x="0" y="0">==&gt;</tspan></text>
  <rect class="cls-18" x="14.5" y="718.6" width="358" height="110.4"/>
  <rect class="cls-16" x="14.5" y="606.6" width="752.3" height="101.2"/>
  <g class="cls-5">
    <text class="cls-6" transform="translate(21.93 740.32)"><tspan x="0" y="0">Wir haben 5 verben immer mit Nominativ :</tspan></text>
    <text class="cls-12" transform="translate(21.93 766.22)"><tspan x="0" y="0">Sein </tspan></text>
    <text class="cls-8" transform="translate(59.03 766.22)"><tspan x="0" y="0">/ </tspan></text>
    <text class="cls-12" transform="translate(70.23 766.22)"><tspan x="0" y="0">Werden </tspan></text>
    <text class="cls-8" transform="translate(135.73 766.22)"><tspan x="0" y="0">/ </tspan></text>
    <text class="cls-12" transform="translate(146.83 766.22)"><tspan x="0" y="0">Scheinen </tspan></text>
    <text class="cls-8" transform="translate(223.23 766.22)"><tspan x="0" y="0">/ </tspan></text>
    <text class="cls-12" transform="translate(234.43 766.22)"><tspan x="0" y="0">Heißen </tspan></text>
    <text class="cls-8" transform="translate(293.93 766.22)"><tspan x="0" y="0">/ </tspan></text>
    <text class="cls-12" transform="translate(305.13 766.22)"><tspan x="0" y="0">Bleiben</tspan></text>
    <text class="cls-6" transform="translate(21.93 792.02)"><tspan x="0" y="0">Wenn wir diese Verben sehen,</tspan></text>
    <text class="cls-6" transform="translate(21.93 817.92)"><tspan x="0" y="0">kennen wir den Satz Nominativ</tspan></text>
  </g>
  <rect class="cls-19" x="377.7" y="718.6" width="701.9" height="89.4"/>
  <g class="cls-5">
    <text class="cls-10" transform="translate(384.99 739.7)"><tspan x="0" y="0">eine Übung : was oder wir?</tspan></text>
    <text class="cls-8" transform="translate(594.19 739.7)"><tspan x="0" y="0"> </tspan></text>
  </g>
  <g class="cls-5">
    <text class="cls-8" transform="translate(550.28 766.34)"><tspan x="0" y="0">-Hans ist verheiratet </tspan></text>
    <text class="cls-8" transform="translate(550.28 792.24)"><tspan x="0" y="0" xml:space="preserve">              ist verheiratet?</tspan></text>
  </g>
  <g class="cls-5">
    <text class="cls-8" transform="translate(384.99 766.34)"><tspan x="0" y="0">-Peter ist in berlin </tspan></text>
    <text class="cls-8" transform="translate(384.99 792.24)"><tspan x="0" y="0" xml:space="preserve">              ist berlin ?</tspan></text>
  </g>
  <rect class="cls-19" x="377.7" y="814.3" width="643.1" height="117.5"/>
  <text class="cls-10" transform="translate(384.99 834.98)"><tspan x="0" y="0">Eine Übung: Der/ Das / Die </tspan></text>
  <text class="cls-8" transform="translate(384.99 861.62)"><tspan x="0" y="0" xml:space="preserve"> …… Bus kommt . / …….. Glas ist sehr lecker  / - Wo ist …….     Zeitung?</tspan></text>
  <text class="cls-10" transform="translate(384.99 893.82)"><tspan x="0" y="0">Eine Übung: ein / ein/ eine :</tspan></text>
  <text class="cls-8" transform="translate(384.99 920.46)"><tspan x="0" y="0" xml:space="preserve">Das ist …. Computer . / Das sind Studenten .  ……. Studenten kommen aus kanada</tspan></text>
  <g class="cls-5">
    <text class="cls-8" transform="translate(734.97 766.34)"><tspan x="0" y="0">-Die Uni ist in Bonn </tspan></text>
    <text class="cls-8" transform="translate(734.97 792.24)"><tspan x="0" y="0" xml:space="preserve">            ist in Bonn ?</tspan></text>
  </g>
  <g class="cls-5">
    <text class="cls-8" transform="translate(908.99 766.34)"><tspan x="0" y="0">-Die schule ist groß </tspan></text>
    <text class="cls-8" transform="translate(908.99 792.24)"><tspan x="0" y="0" xml:space="preserve">               Ist groß?</tspan></text>
  </g>
</svg>