<?xml version="1.0" encoding="UTF-8"?>
<svg id="Layer_1" data-name="Layer 1" xmlns="http://www.w3.org/2000/svg" viewBox="0 0 1120.36 1281.64">
  <defs>
    <style>
      .cls-1, .cls-2, .cls-3 {
        font-size: 24px;
      }

      .cls-1, .cls-4 {
        fill: #231f20;
        font-family: Poppins-Bold, Poppins;
        font-weight: 700;
      }

      .cls-2, .cls-5, .cls-6, .cls-7, .cls-3 {
        font-family: Poppins-Medium, Poppins;
        font-weight: 500;
      }

      .cls-8 {
        fill: #ffec00;
      }

      .cls-8, .cls-9, .cls-10 {
        stroke-width: 0px;
      }

      .cls-11 {
        fill: none;
        stroke: #b52025;
        stroke-miterlimit: 10;
        stroke-width: 2px;
      }

      .cls-4 {
        font-size: 20.98px;
      }

      .cls-5 {
        fill: #ff0013;
      }

      .cls-5, .cls-6, .cls-7 {
        font-size: 26px;
      }

      .cls-10, .cls-12 {
        fill: #b52025;
      }

      .cls-7, .cls-3 {
        fill: #fff;
      }
    </style>
  </defs>
  <g>
    <text class="cls-4" transform="translate(11.9 21.71)"><tspan x="0" y="0">nominativ und akkusativ</tspan></text>
    <rect class="cls-11" x="6.92" y="1" width="282.52" height="26.97"/>
  </g>
  <g>
    <g>
      <path class="cls-10" d="M0,132.33v239.45h578.88v-239.45H0ZM577.88,370.78H1v-237.45h576.88v237.45Z"/>
      <rect class="cls-8" x="1" y="133.33" width="60.49" height="237.45"/>
    </g>
    <rect class="cls-10" x="61.49" y="80.57" width="1" height="290.71"/>
    <rect class="cls-10" x="190.58" y="80.57" width="1" height="290.71"/>
    <rect class="cls-10" x="61.99" y="370.78" width="829.77" height="1"/>
    <rect class="cls-10" x="61.99" y="291.3" width="829.77" height="1"/>
    <rect class="cls-10" x="61.99" y="132.33" width="829.77" height="1"/>
    <g>
      <rect class="cls-10" x="62.49" y="81.07" width="128.09" height="51.26"/>
      <rect class="cls-10" x="61.99" y="80.07" width="516.39" height="1"/>
    </g>
    <rect class="cls-10" x="61.99" y="211.81" width="829.77" height="1"/>
    <g>
      <rect class="cls-10" x="191.58" y="81.07" width="128.1" height="51.26"/>
      <rect class="cls-10" x="319.68" y="80.57" width="1" height="290.71"/>
    </g>
    <g>
      <rect class="cls-10" x="320.68" y="81.07" width="128.1" height="51.26"/>
      <rect class="cls-10" x="448.78" y="80.57" width="1" height="290.71"/>
    </g>
    <g>
      <rect class="cls-10" x="449.78" y="81.07" width="128.1" height="51.26"/>
      <rect class="cls-10" x="577.88" y="80.57" width="1" height="290.71"/>
    </g>
    <g>
      <rect class="cls-9" x="578.88" y="133.33" width="312.38" height="78.48"/>
      <rect class="cls-9" x="578.88" y="212.81" width="312.38" height="78.49"/>
      <rect class="cls-9" x="578.88" y="292.3" width="312.38" height="78.48"/>
      <rect class="cls-10" x="891.26" y="132.33" width="1" height="238.95"/>
    </g>
  </g>
  <text class="cls-1" transform="translate(40.11 313.04) rotate(-90)"><tspan x="0" y="0">nominativ</tspan></text>
  <text class="cls-2" transform="translate(105.11 182.13)"><tspan x="0" y="0">Der</tspan></text>
  <text class="cls-2" transform="translate(107.28 262.64)"><tspan x="0" y="0">ein</tspan></text>
  <text class="cls-2" transform="translate(100.63 340.06)"><tspan x="0" y="0">kein</tspan></text>
  <text class="cls-2" transform="translate(362.31 262.64)"><tspan x="0" y="0">ein</tspan></text>
  <text class="cls-3" transform="translate(591.76 262.64)"><tspan x="0" y="0">unbestimmtem Artikel</tspan></text>
  <text class="cls-2" transform="translate(355.66 340.06)"><tspan x="0" y="0">kein</tspan></text>
  <text class="cls-2" transform="translate(229.31 262.64)"><tspan x="0" y="0">eine</tspan></text>
  <text class="cls-2" transform="translate(222.67 340.06)"><tspan x="0" y="0">keine</tspan></text>
  <text class="cls-2" transform="translate(481.59 340.06)"><tspan x="0" y="0">keine</tspan></text>
  <text class="cls-3" transform="translate(591.76 340.06)"><tspan x="0" y="0">Negationsartikel</tspan></text>
  <text class="cls-2" transform="translate(236 182.13)"><tspan x="0" y="0">Die</tspan></text>
  <text class="cls-2" transform="translate(357.62 182.13)"><tspan x="0" y="0">Das</tspan></text>
  <text class="cls-2" transform="translate(494.92 182.13)"><tspan x="0" y="0">Die</tspan></text>
  <text class="cls-3" transform="translate(591.76 182.13)"><tspan x="0" y="0">bestimmtem Artike</tspan></text>
  <text class="cls-7" transform="translate(119.46 121.64)"><tspan x="0" y="0">M</tspan></text>
  <text class="cls-7" transform="translate(244.49 121.64)"><tspan x="0" y="0">F</tspan></text>
  <text class="cls-7" transform="translate(372.02 121.64)"><tspan x="0" y="0">N</tspan></text>
  <text class="cls-7" transform="translate(506.86 121.64)"><tspan x="0" y="0">P</tspan></text>
  <path class="cls-9" d="M525.2,242.86l.76-.76.75-.75,3.42-3.42-1-1-1-1-4.16,4.16-.76.76c-.6-.49-1.25-.93-1.94-1.32-2.18-1.21-4.62-1.83-7.26-1.83s-5.03.62-7.22,1.83c-2.17,1.22-3.92,2.94-5.19,5.1-1.27,2.17-1.91,4.65-1.91,7.4s.65,5.24,1.92,7.42c.37.64.78,1.23,1.23,1.79l-.76.76-.75.75-3.44,3.44,1,1,1,1,4.94-4.94c.61.5,1.26.95,1.95,1.33,1.09.61,2.25,1.07,3.45,1.38,1.21.3,2.47.46,3.77.46,2.64,0,5.08-.61,7.26-1.83,2.17-1.21,3.92-2.94,5.17-5.11,1.26-2.18,1.89-4.68,1.89-7.42s-.64-5.23-1.89-7.4c-.37-.64-.78-1.23-1.23-1.78ZM504.66,259.4c-.22-.32-.41-.66-.59-1-.96-1.83-1.44-3.98-1.44-6.37s.49-4.52,1.44-6.34c.97-1.84,2.34-3.29,4.07-4.28,1.71-.99,3.69-1.49,5.86-1.49s4.14.5,5.86,1.49c.59.33,1.13.72,1.63,1.16l-16.82,16.82ZM523.93,258.39c-.97,1.86-2.34,3.32-4.06,4.32-1.71,1-3.69,1.51-5.86,1.51s-4.14-.51-5.86-1.51c-.59-.34-1.13-.73-1.62-1.17l16.07-16.07.77-.77c.2.31.4.64.58.98.96,1.83,1.45,3.96,1.45,6.34s-.49,4.52-1.45,6.37Z"/>
  <g>
    <text class="cls-5" transform="translate(1 457.92)"><tspan x="0" y="0">M</tspan></text>
    <text class="cls-5" transform="translate(271.45 457.92)"><tspan x="0" y="0">F</tspan></text>
    <text class="cls-5" transform="translate(545.52 457.92)"><tspan x="0" y="0">N</tspan></text>
    <text class="cls-5" transform="translate(838.16 457.92)"><tspan x="0" y="0">P</tspan></text>
    <text class="cls-6" transform="translate(1 497.48)"><tspan x="0" y="0">Das ist </tspan><tspan class="cls-12" x="93.89" y="0">der </tspan><tspan x="144.3" y="0">Manne </tspan></text>
    <text class="cls-6" transform="translate(1 529.99)"><tspan x="0" y="0">Das ist </tspan><tspan class="cls-12" x="93.89" y="0">ein </tspan><tspan x="140.43" y="0">Manne </tspan></text>
    <text class="cls-6" transform="translate(1 562.51)"><tspan x="0" y="0">Das ist </tspan><tspan class="cls-12" x="93.89" y="0">kein </tspan><tspan x="154.83" y="0">Manne </tspan></text>
    <text class="cls-6" transform="translate(271.45 497.48)"><tspan x="0" y="0">Das ist </tspan><tspan class="cls-12" x="93.89" y="0">die </tspan><tspan x="141.18" y="0">Frau</tspan></text>
    <text class="cls-6" transform="translate(271.45 529.99)"><tspan x="0" y="0">Das ist </tspan><tspan class="cls-12" x="93.89" y="0">eine </tspan><tspan x="156.47" y="0">Frau</tspan></text>
    <text class="cls-6" transform="translate(271.45 562.51)"><tspan x="0" y="0">Das ist </tspan><tspan class="cls-12" x="93.89" y="0" xml:space="preserve">keine  </tspan><tspan x="177.63" y="0">Frau</tspan></text>
    <text class="cls-6" transform="translate(545.52 500.06)"><tspan x="0" y="0">Das ist </tspan><tspan class="cls-12" x="93.89" y="0">das </tspan><tspan x="149.79" y="0">Manne </tspan></text>
    <text class="cls-6" transform="translate(545.52 532.57)"><tspan x="0" y="0">Das ist </tspan><tspan class="cls-12" x="93.89" y="0">ein </tspan><tspan x="140.43" y="0">Manne </tspan></text>
    <text class="cls-6" transform="translate(545.52 565.09)"><tspan x="0" y="0">Das ist </tspan><tspan class="cls-12" x="93.89" y="0">kein </tspan><tspan x="154.83" y="0">Manne </tspan></text>
    <text class="cls-6" transform="translate(838.16 500.06)"><tspan x="0" y="0">Das sind </tspan><tspan class="cls-12" x="118.72" y="0">die </tspan><tspan x="166.01" y="0">Kinder</tspan></text>
    <text class="cls-6" transform="translate(838.16 532.57)"><tspan x="0" y="0">Das sind Kinder</tspan></text>
    <text class="cls-6" transform="translate(838.16 565.09)"><tspan x="0" y="0">Das sind </tspan><tspan class="cls-12" x="118.72" y="0">keine </tspan><tspan x="195.7" y="0">Kinder</tspan></text>
  </g>
  <text class="cls-6" transform="translate(5.92 419.73)"><tspan x="0" y="0">zum,B</tspan></text>
  <g>
    <g>
      <path class="cls-10" d="M2.65,675.81v239.45h578.88v-239.45H2.65ZM580.53,914.26H3.65v-237.45h576.88v237.45Z"/>
      <rect class="cls-8" x="3.65" y="676.81" width="60.49" height="237.45"/>
    </g>
    <rect class="cls-10" x="64.14" y="624.05" width="1" height="371.4"/>
    <rect class="cls-10" x="193.23" y="624.05" width="1" height="370.9"/>
    <rect class="cls-10" x="64.64" y="914.26" width="829.77" height="1"/>
    <rect class="cls-10" x="64.64" y="994.45" width="829.77" height="1"/>
    <rect class="cls-10" x="64.64" y="834.78" width="829.77" height="1"/>
    <rect class="cls-10" x="64.64" y="675.81" width="829.77" height="1"/>
    <g>
      <rect class="cls-10" x="65.14" y="624.55" width="128.09" height="51.26"/>
      <rect class="cls-10" x="64.64" y="623.55" width="516.39" height="1"/>
    </g>
    <rect class="cls-10" x="64.64" y="755.29" width="829.77" height="1"/>
    <g>
      <rect class="cls-10" x="194.23" y="624.69" width="128.1" height="65.4"/>
      <rect class="cls-10" x="322.33" y="624.05" width="1" height="370.9"/>
    </g>
    <g>
      <rect class="cls-10" x="323.33" y="624.69" width="128.1" height="65.4"/>
      <rect class="cls-10" x="451.43" y="624.05" width="1" height="370.9"/>
    </g>
    <g>
      <rect class="cls-10" x="452.43" y="624.55" width="128.1" height="51.26"/>
      <rect class="cls-10" x="580.53" y="624.05" width="1" height="290.71"/>
    </g>
    <g>
      <rect class="cls-9" x="581.53" y="676.81" width="312.38" height="78.48"/>
      <rect class="cls-9" x="581.53" y="756.29" width="312.38" height="78.49"/>
      <rect class="cls-9" x="581.53" y="835.78" width="312.38" height="78.48"/>
      <rect class="cls-10" x="893.91" y="675.81" width="1" height="238.95"/>
    </g>
  </g>
  <text class="cls-1" transform="translate(42.76 857.53) rotate(-90)"><tspan x="0" y="0">akkusativ</tspan></text>
  <text class="cls-2" transform="translate(107.76 725.61)"><tspan x="0" y="0">Der</tspan></text>
  <text class="cls-2" transform="translate(109.93 806.13)"><tspan x="0" y="0">ein</tspan></text>
  <text class="cls-2" transform="translate(103.28 883.55)"><tspan x="0" y="0">kein</tspan></text>
  <text class="cls-2" transform="translate(364.96 806.13)"><tspan x="0" y="0">ein</tspan></text>
  <text class="cls-3" transform="translate(594.41 806.13)"><tspan x="0" y="0">unbestimmtem Artikel</tspan></text>
  <text class="cls-2" transform="translate(358.31 883.55)"><tspan x="0" y="0">kein</tspan></text>
  <text class="cls-2" transform="translate(231.96 806.13)"><tspan x="0" y="0">eine</tspan></text>
  <text class="cls-2" transform="translate(225.32 883.55)"><tspan x="0" y="0">keine</tspan></text>
  <text class="cls-2" transform="translate(484.24 883.55)"><tspan x="0" y="0">keine</tspan></text>
  <text class="cls-3" transform="translate(594.41 883.55)"><tspan x="0" y="0">Negationsartikel</tspan></text>
  <text class="cls-2" transform="translate(238.65 725.61)"><tspan x="0" y="0">Die</tspan></text>
  <text class="cls-2" transform="translate(360.27 725.61)"><tspan x="0" y="0">Das</tspan></text>
  <text class="cls-2" transform="translate(497.57 725.61)"><tspan x="0" y="0">Die</tspan></text>
  <text class="cls-3" transform="translate(594.41 725.61)"><tspan x="0" y="0">bestimmtem Artike</tspan></text>
  <text class="cls-7" transform="translate(122.11 665.12)"><tspan x="0" y="0">M</tspan></text>
  <text class="cls-7" transform="translate(247.14 665.12)"><tspan x="0" y="0">F</tspan></text>
  <text class="cls-7" transform="translate(374.67 665.12)"><tspan x="0" y="0">N</tspan></text>
  <text class="cls-7" transform="translate(509.51 665.12)"><tspan x="0" y="0">P</tspan></text>
  <path class="cls-9" d="M527.85,786.34l.76-.76.75-.75,3.42-3.42-1-1-1-1-4.16,4.16-.76.76c-.6-.49-1.25-.93-1.94-1.32-2.18-1.21-4.62-1.83-7.26-1.83s-5.03.62-7.22,1.83c-2.17,1.22-3.92,2.94-5.19,5.1-1.27,2.17-1.91,4.65-1.91,7.4s.65,5.24,1.92,7.42c.37.64.78,1.23,1.23,1.79l-.76.76-.75.75-3.44,3.44,1,1,1,1,4.94-4.94c.61.5,1.26.95,1.95,1.33,1.09.61,2.25,1.07,3.45,1.38,1.21.3,2.47.46,3.77.46,2.64,0,5.08-.61,7.26-1.83,2.17-1.21,3.92-2.94,5.17-5.11,1.26-2.18,1.89-4.68,1.89-7.42s-.64-5.23-1.89-7.4c-.37-.64-.78-1.23-1.23-1.78ZM507.31,802.88c-.22-.32-.41-.66-.59-1-.96-1.83-1.44-3.98-1.44-6.37s.49-4.52,1.44-6.34c.97-1.84,2.34-3.29,4.07-4.28,1.71-.99,3.69-1.49,5.86-1.49s4.14.5,5.86,1.49c.59.33,1.13.72,1.63,1.16l-16.82,16.82ZM526.58,801.88c-.97,1.86-2.34,3.32-4.06,4.32-1.71,1-3.69,1.51-5.86,1.51s-4.14-.51-5.86-1.51c-.59-.34-1.13-.73-1.62-1.17l16.07-16.07.77-.77c.2.31.4.64.58.98.96,1.83,1.45,3.96,1.45,6.34s-.49,4.52-1.45,6.37Z"/>
  <g>
    <text class="cls-5" transform="translate(3.65 1159.34)"><tspan x="0" y="0">M</tspan></text>
    <text class="cls-5" transform="translate(274.1 1159.34)"><tspan x="0" y="0">F</tspan></text>
    <text class="cls-5" transform="translate(548.17 1159.34)"><tspan x="0" y="0">N</tspan></text>
    <text class="cls-5" transform="translate(840.81 1159.34)"><tspan x="0" y="0">P</tspan></text>
    <text class="cls-6" transform="translate(3.65 1198.9)"><tspan x="0" y="0">Das ist </tspan><tspan class="cls-12" x="93.89" y="0">der </tspan><tspan x="144.3" y="0">Manne </tspan></text>
    <text class="cls-6" transform="translate(3.65 1231.41)"><tspan x="0" y="0">Das ist </tspan><tspan class="cls-12" x="93.89" y="0">ein </tspan><tspan x="140.43" y="0">Manne </tspan></text>
    <text class="cls-6" transform="translate(3.65 1263.93)"><tspan x="0" y="0">Das ist </tspan><tspan class="cls-12" x="93.89" y="0">kein </tspan><tspan x="154.83" y="0">Manne </tspan></text>
    <text class="cls-6" transform="translate(274.1 1198.9)"><tspan x="0" y="0">Das ist </tspan><tspan class="cls-12" x="93.89" y="0">die </tspan><tspan x="141.18" y="0">Frau</tspan></text>
    <text class="cls-6" transform="translate(274.1 1231.41)"><tspan x="0" y="0">Das ist </tspan><tspan class="cls-12" x="93.89" y="0">eine </tspan><tspan x="156.47" y="0">Frau</tspan></text>
    <text class="cls-6" transform="translate(274.1 1263.93)"><tspan x="0" y="0">Das ist </tspan><tspan class="cls-12" x="93.89" y="0" xml:space="preserve">keine  </tspan><tspan x="177.63" y="0">Frau</tspan></text>
    <text class="cls-6" transform="translate(548.17 1201.48)"><tspan x="0" y="0">Das ist </tspan><tspan class="cls-12" x="93.89" y="0">das </tspan><tspan x="149.79" y="0">Manne </tspan></text>
    <text class="cls-6" transform="translate(548.17 1233.99)"><tspan x="0" y="0">Das ist </tspan><tspan class="cls-12" x="93.89" y="0">ein </tspan><tspan x="140.43" y="0">Manne </tspan></text>
    <text class="cls-6" transform="translate(548.17 1266.51)"><tspan x="0" y="0">Das ist </tspan><tspan class="cls-12" x="93.89" y="0">kein </tspan><tspan x="154.83" y="0">Manne </tspan></text>
    <text class="cls-6" transform="translate(840.81 1201.48)"><tspan x="0" y="0">Das sind </tspan><tspan class="cls-12" x="118.72" y="0">die </tspan><tspan x="166.01" y="0">Kinder</tspan></text>
    <text class="cls-6" transform="translate(840.81 1233.99)"><tspan x="0" y="0">Das sind Kinder</tspan></text>
    <text class="cls-6" transform="translate(840.81 1266.51)"><tspan x="0" y="0">Das sind </tspan><tspan class="cls-12" x="118.72" y="0">keine </tspan><tspan x="195.7" y="0">Kinder</tspan></text>
  </g>
  <text class="cls-6" transform="translate(8.57 1121.15)"><tspan x="0" y="0">zum,B</tspan></text>
</svg>