<?xml version="1.0" encoding="UTF-8"?>
<svg id="Layer_1" data-name="Layer 1" xmlns="http://www.w3.org/2000/svg" viewBox="0 0 753.12 849.59">
  <defs>
    <style>
      .cls-1 {
        fill: #b62226;
      }

      .cls-1, .cls-2, .cls-3 {
        stroke-width: 0px;
      }

      .cls-4 {
        fill: #fff;
      }

      .cls-5 {
        font-size: 15.59px;
      }

      .cls-5, .cls-6, .cls-7 {
        font-family: Poppins-SemiBold, Poppins;
        font-weight: 600;
      }

      .cls-8 {
        stroke-width: .5px;
      }

      .cls-8, .cls-9, .cls-10 {
        stroke: #000;
        stroke-miterlimit: 10;
      }

      .cls-9 {
        fill: none;
      }

      .cls-2 {
        fill: #010101;
      }

      .cls-6 {
        font-size: 13.3px;
      }

      .cls-7 {
        font-size: 17.71px;
      }

      .cls-11 {
        fill: #b52025;
      }

      .cls-3, .cls-12 {
        fill: #231f20;
      }

      .cls-13 {
        fill: #fff200;
      }

      .cls-14 {
        font-family: Poppins-Bold, Poppins;
        font-size: 17.24px;
        font-weight: 700;
      }

      .cls-15 {
        fill: red;
      }
    </style>
  </defs>
  <g>
    <g>
      <path class="cls-3" d="M18.46,12.21c-.41.73-1.02,1.32-1.86,1.77s-1.88.67-3.13.67h-2.31v5.47h-3.72V4.87h6.02c1.22,0,2.24.21,3.08.63s1.47,1,1.89,1.74.63,1.59.63,2.55c0,.89-.2,1.69-.61,2.43h.01ZM14.76,11.2c.35-.33.53-.8.53-1.41s-.18-1.08-.53-1.41c-.35-.33-.88-.5-1.59-.5h-2.02v3.82h2.02c.71,0,1.24-.17,1.59-.5Z"/>
      <path class="cls-3" d="M32.37,14.96h-8.41c.06.76.3,1.33.73,1.73.42.4.95.6,1.58.6.92,0,1.57-.39,1.94-1.17h3.96c-.2.79-.57,1.51-1.1,2.15s-1.19,1.14-1.98,1.5c-.79.36-1.69.54-2.68.54-1.19,0-2.24-.25-3.17-.76-.92-.51-1.65-1.23-2.17-2.17-.53-.94-.78-2.04-.78-3.3s.26-2.36.78-3.3,1.24-1.67,2.16-2.17c.92-.51,1.99-.76,3.19-.76s2.22.25,3.13.74c.91.49,1.62,1.2,2.14,2.1.52.91.78,1.98.78,3.19,0,.35-.02.71-.06,1.09h-.04ZM28.63,12.89c0-.64-.22-1.14-.66-1.52s-.98-.56-1.63-.56-1.14.18-1.58.54-.69.88-.79,1.54h4.66Z"/>
      <path class="cls-3" d="M39.73,8.44c.66-.39,1.38-.57,2.17-.57v3.93h-1.02c-.92,0-1.62.2-2.09.6-.46.4-.69,1.1-.69,2.1v5.63h-3.72v-12.13h3.72v2.02c.43-.66.98-1.19,1.63-1.58Z"/>
      <path class="cls-3" d="M45.8,19.76c-.83-.36-1.48-.86-1.96-1.49s-.75-1.34-.8-2.12h3.67c.05.42.24.76.59,1.02s.78.39,1.28.39c.46,0,.82-.09,1.08-.27.25-.18.38-.42.38-.71,0-.35-.18-.61-.54-.78s-.95-.35-1.76-.55c-.87-.2-1.6-.42-2.17-.64-.58-.22-1.08-.58-1.5-1.06-.42-.49-.63-1.14-.63-1.97,0-.69.19-1.33.57-1.9.39-.57.95-1.02,1.7-1.36.75-.33,1.63-.5,2.66-.5,1.52,0,2.72.38,3.6,1.13.88.76,1.38,1.75,1.51,3h-3.43c-.06-.42-.24-.76-.55-1-.31-.25-.72-.37-1.23-.37-.43,0-.77.08-1,.25s-.35.4-.35.68c0,.35.18.61.55.78s.94.35,1.73.52c.9.23,1.63.46,2.2.68s1.06.59,1.49,1.09c.42.5.65,1.17.66,2.01,0,.71-.2,1.35-.6,1.9-.4.55-.97,1-1.72,1.31s-1.62.48-2.59.48c-1.06,0-2-.18-2.82-.54h-.02v.02Z"/>
      <path class="cls-3" d="M58.14,19.54c-.95-.51-1.7-1.23-2.24-2.17s-.81-2.04-.81-3.3.28-2.34.83-3.29,1.3-1.68,2.26-2.19,2.03-.76,3.22-.76,2.26.25,3.22.76,1.71,1.24,2.26,2.19.82,2.05.82,3.29-.28,2.34-.84,3.29c-.55.95-1.32,1.68-2.28,2.19s-2.04.76-3.23.76-2.26-.25-3.2-.76h-.01ZM63.16,16.31c.5-.52.75-1.26.75-2.24s-.24-1.72-.73-2.24c-.49-.53-1.08-.78-1.79-.78s-1.33.26-1.8.78-.72,1.26-.72,2.25.23,1.72.71,2.24c.47.53,1.06.78,1.77.78s1.31-.26,1.82-.78h0Z"/>
      <path class="cls-3" d="M80.45,9.25c.85.92,1.27,2.19,1.27,3.79v7.09h-3.69v-6.59c0-.81-.21-1.44-.63-1.89s-.99-.67-1.7-.67-1.27.22-1.7.67-.63,1.08-.63,1.89v6.59h-3.72v-12.13h3.72v1.61c.38-.54.89-.96,1.52-1.27s1.36-.47,2.15-.47c1.42,0,2.56.46,3.41,1.38h0Z"/>
      <path class="cls-3" d="M84.28,10.76c.47-.94,1.11-1.67,1.92-2.17.81-.51,1.72-.76,2.71-.76.86,0,1.61.18,2.25.53.65.35,1.14.8,1.49,1.37v-1.72h3.72v12.13h-3.72v-1.72c-.36.56-.87,1.02-1.51,1.37-.65.35-1.39.53-2.25.53-.99,0-1.88-.26-2.7-.78s-1.45-1.25-1.92-2.2-.71-2.05-.71-3.29.24-2.34.71-3.29h.01ZM91.89,11.87c-.52-.54-1.14-.8-1.88-.8s-1.37.27-1.88.79-.78,1.26-.78,2.19.26,1.66.78,2.21,1.14.81,1.88.81,1.37-.27,1.88-.8.78-1.26.78-2.2-.26-1.66-.78-2.2Z"/>
      <path class="cls-3" d="M102.79,4.04v16.09h-3.72V4.04h3.72Z"/>
      <path class="cls-3" d="M110.7,8.35c.64-.35,1.38-.53,2.24-.53,1,0,1.9.25,2.71.76s1.45,1.23,1.92,2.17.71,2.04.71,3.29-.24,2.34-.71,3.29-1.12,1.68-1.92,2.2-1.72.78-2.71.78c-.84,0-1.59-.18-2.22-.53-.65-.35-1.14-.79-1.51-1.35v7.48h-3.72V8h3.72v1.72c.36-.56.86-1.02,1.5-1.37h0ZM113.73,11.86c-.52-.53-1.14-.79-1.9-.79s-1.37.27-1.88.8-.78,1.26-.78,2.2.26,1.66.78,2.2,1.14.8,1.88.8,1.37-.27,1.89-.81c.52-.54.78-1.28.78-2.21s-.26-1.65-.78-2.19h.01Z"/>
      <path class="cls-3" d="M125.59,8.44c.66-.39,1.38-.57,2.17-.57v3.93h-1.02c-.92,0-1.62.2-2.09.6-.46.4-.69,1.1-.69,2.1v5.63h-3.72v-12.13h3.72v2.02c.43-.66.98-1.19,1.63-1.58h0Z"/>
      <path class="cls-3" d="M131.86,19.54c-.95-.51-1.7-1.23-2.24-2.17s-.81-2.04-.81-3.3.28-2.34.83-3.29,1.3-1.68,2.26-2.19,2.03-.76,3.22-.76,2.26.25,3.22.76,1.71,1.24,2.26,2.19c.55.95.82,2.05.82,3.29s-.28,2.34-.84,3.29c-.55.95-1.32,1.68-2.28,2.19-.96.51-2.04.76-3.23.76s-2.26-.25-3.2-.76h-.01ZM136.88,16.31c.5-.52.75-1.26.75-2.24s-.24-1.72-.73-2.24c-.49-.53-1.08-.78-1.79-.78s-1.33.26-1.8.78-.72,1.26-.72,2.25.23,1.72.71,2.24c.47.53,1.06.78,1.77.78s1.31-.26,1.82-.78h-.01Z"/>
      <path class="cls-3" d="M154.19,9.25c.85.92,1.27,2.19,1.27,3.79v7.09h-3.69v-6.59c0-.81-.21-1.44-.63-1.89s-.99-.67-1.7-.67-1.27.22-1.7.67c-.42.45-.63,1.08-.63,1.89v6.59h-3.72v-12.13h3.72v1.61c.38-.54.89-.96,1.52-1.27s1.36-.47,2.15-.47c1.42,0,2.56.46,3.41,1.38h0Z"/>
      <path class="cls-3" d="M160.35,19.54c-.95-.51-1.7-1.23-2.24-2.17s-.81-2.04-.81-3.3.28-2.34.83-3.29,1.3-1.68,2.26-2.19,2.03-.76,3.22-.76,2.26.25,3.22.76,1.71,1.24,2.26,2.19c.55.95.82,2.05.82,3.29s-.28,2.34-.84,3.29c-.55.95-1.32,1.68-2.28,2.19-.96.51-2.04.76-3.23.76s-2.26-.25-3.2-.76h-.01ZM165.37,16.31c.5-.52.75-1.26.75-2.24s-.24-1.72-.73-2.24c-.49-.53-1.08-.78-1.79-.78s-1.33.26-1.8.78-.72,1.26-.72,2.25.23,1.72.71,2.24c.47.53,1.06.78,1.77.78s1.31-.26,1.82-.78h-.01Z"/>
      <path class="cls-3" d="M190.96,9.24c.9.91,1.34,2.18,1.34,3.8v7.09h-3.69v-6.59c0-.78-.2-1.38-.62-1.82-.42-.42-.98-.64-1.71-.64s-1.29.21-1.71.64c-.42.42-.62,1.03-.62,1.82v6.59h-3.69v-6.59c0-.78-.2-1.38-.62-1.82-.42-.42-.98-.64-1.71-.64s-1.29.21-1.71.64c-.42.42-.62,1.03-.62,1.82v6.59h-3.72v-12.13h3.72v1.52c.38-.51.87-.9,1.48-1.21.61-.3,1.29-.44,2.07-.44.91,0,1.73.19,2.45.59.72.39,1.28.95,1.68,1.67.42-.66,1-1.21,1.72-1.63s1.51-.63,2.37-.63c1.5,0,2.7.45,3.6,1.37h0Z"/>
      <path class="cls-3" d="M206.27,14.96h-8.41c.06.76.3,1.33.73,1.73.42.4.95.6,1.58.6.92,0,1.57-.39,1.94-1.17h3.96c-.2.79-.57,1.51-1.1,2.15s-1.19,1.14-1.98,1.5-1.69.54-2.68.54c-1.19,0-2.24-.25-3.17-.76-.92-.51-1.65-1.23-2.17-2.17-.53-.94-.78-2.04-.78-3.3s.26-2.36.78-3.3,1.24-1.67,2.16-2.17c.92-.51,1.99-.76,3.19-.76s2.22.25,3.13.74,1.62,1.2,2.14,2.1c.52.91.78,1.98.78,3.19,0,.35-.02.71-.06,1.09h-.04ZM202.53,12.89c0-.64-.22-1.14-.66-1.52s-.98-.56-1.63-.56-1.14.18-1.58.54-.69.88-.79,1.54h4.66Z"/>
      <path class="cls-3" d="M219.09,9.25c.85.92,1.27,2.19,1.27,3.79v7.09h-3.69v-6.59c0-.81-.21-1.44-.63-1.89s-.99-.67-1.7-.67-1.27.22-1.7.67c-.42.45-.63,1.08-.63,1.89v6.59h-3.72v-12.13h3.72v1.61c.38-.54.89-.96,1.52-1.27s1.36-.47,2.15-.47c1.42,0,2.56.46,3.41,1.38h0Z"/>
    </g>
    <path class="cls-1" d="M229.42,26.23H0V0h229.42v26.23ZM1.85,24.38h225.73V1.85H1.85v22.54h0Z"/>
  </g>
  <path class="cls-3" d="M236.02,110.98c-.99,1.54-1.48,3.3-1.48,5.27s.29,4.88.87,8.46c.04.36.2,1.54.47,3.55s.4,3.93.4,5.78c0,3.26-.85,5.67-2.52,7.22s-4.04,2.32-7.08,2.32h-2.68v-2.68h2.28c2.28,0,4.02-.55,5.2-1.65s1.78-2.87,1.78-5.33c0-1.39-.09-2.92-.27-4.6-.18-1.67-.38-3.3-.6-4.87-.22-1.43-.41-2.88-.58-4.36-.16-1.48-.23-2.77-.23-3.9,0-2.55.63-4.71,1.92-6.47s3.24-2.96,5.88-3.6v-.13c-2.64-.62-4.6-1.8-5.88-3.55s-1.92-3.9-1.92-6.45c0-1.12.08-2.42.23-3.9s.35-2.93.58-4.36c.22-1.56.42-3.18.6-4.87.18-1.67.27-3.21.27-4.6,0-2.47-.6-4.24-1.78-5.33-1.18-1.1-2.92-1.65-5.2-1.65h-2.28v-2.68h2.68c3.04,0,5.4.77,7.08,2.32s2.52,3.94,2.52,7.22c0,1.84-.13,3.76-.4,5.78s-.42,3.2-.47,3.55c-.59,3.59-.87,6.4-.87,8.46s.49,3.73,1.48,5.27,2.93,2.73,5.83,3.53v2.75c-2.91.8-4.87,1.98-5.83,3.53v.02-.03Z"/>
  <path class="cls-3" d="M189.56,216.8c-.99,1.54-1.48,3.3-1.48,5.27s.29,4.88.87,8.46c.04.36.2,1.54.47,3.55s.4,3.93.4,5.78c0,3.26-.85,5.67-2.52,7.22-1.67,1.54-4.04,2.32-7.08,2.32h-2.68v-2.68h2.28c2.28,0,4.02-.55,5.2-1.65s1.78-2.87,1.78-5.33c0-1.39-.09-2.92-.27-4.6-.18-1.67-.38-3.3-.6-4.87-.22-1.43-.41-2.88-.58-4.36-.16-1.48-.23-2.77-.23-3.9,0-2.55.63-4.71,1.92-6.47s3.24-2.96,5.88-3.6v-.13c-2.64-.62-4.6-1.8-5.88-3.55-1.27-1.75-1.92-3.9-1.92-6.45,0-1.12.08-2.42.23-3.9s.35-2.93.58-4.36c.22-1.56.42-3.18.6-4.87.18-1.67.27-3.21.27-4.6,0-2.47-.6-4.24-1.78-5.33-1.18-1.1-2.92-1.65-5.2-1.65h-2.28v-2.68h2.68c3.04,0,5.4.77,7.08,2.32s2.52,3.94,2.52,7.22c0,1.84-.13,3.76-.4,5.78s-.42,3.2-.47,3.55c-.59,3.59-.87,6.4-.87,8.46s.49,3.73,1.48,5.27,2.93,2.73,5.83,3.53v2.75c-2.91.8-4.87,1.98-5.83,3.53v.02-.03Z"/>
  <g>
    <path class="cls-1" d="M133.92,86.66c-.27-.26-.39-.57-.39-.95s.13-.69.39-.95c.27-.26.6-.38.99-.38s.73.12.99.38.39.57.39.95-.13.69-.39.95c-.27.26-.6.38-.99.38s-.73-.12-.99-.38ZM136.02,88.11v8.92h-2.25v-8.92h2.25Z"/>
    <path class="cls-1" d="M138.22,90.14c.38-.69.89-1.24,1.56-1.61s1.43-.58,2.29-.58c1.11,0,2.03.28,2.74.84.73.56,1.21,1.32,1.46,2.33h-2.44c-.13-.39-.35-.69-.65-.91-.31-.21-.69-.33-1.14-.33-.65,0-1.15.23-1.54.7s-.57,1.14-.57,1.99.19,1.51.57,1.97.88.7,1.54.7c.91,0,1.51-.41,1.79-1.22h2.44c-.24.97-.73,1.74-1.47,2.3-.73.57-1.65.86-2.74.86-.87,0-1.63-.2-2.29-.58s-1.18-.91-1.56-1.61c-.38-.69-.57-1.5-.57-2.43s.19-1.74.57-2.43v.02Z"/>
    <path class="cls-1" d="M154.76,88.42c.52.3.94.73,1.24,1.3s.45,1.27.45,2.07v5.23h-2.25v-4.93c0-.71-.18-1.26-.53-1.64-.36-.38-.85-.58-1.45-.58s-1.11.2-1.47.58-.53.92-.53,1.64v4.93h-2.25v-11.92h2.25v4.11c.29-.39.68-.69,1.16-.91s1.01-.33,1.61-.33c.68,0,1.27.14,1.8.45h-.02,0Z"/>
    <path class="cls-1" d="M133.72,109.46c.36-.7.86-1.24,1.47-1.61.62-.38,1.31-.57,2.07-.57.58,0,1.14.12,1.66.38.52.26.95.59,1.26,1v-4.23h2.29v11.92h-2.29v-1.32c-.28.45-.67.79-1.17,1.06-.5.27-1.09.4-1.76.4-.75,0-1.44-.2-2.07-.58-.62-.39-1.11-.94-1.47-1.64s-.55-1.51-.55-2.43.18-1.7.55-2.41h0v.02ZM139.89,110.47c-.21-.39-.5-.69-.87-.9-.37-.2-.76-.32-1.17-.32s-.8.1-1.16.31c-.35.2-.63.5-.87.89-.21.39-.33.86-.33,1.4s.11,1,.33,1.4.51.71.87.92.73.32,1.15.32.81-.1,1.17-.32c.36-.2.66-.51.87-.9.21-.39.32-.87.32-1.4s-.1-1.01-.32-1.4h.01Z"/>
    <path class="cls-1" d="M153.12,107.42v8.92h-2.27v-1.14c-.29.39-.67.69-1.14.91-.47.21-.98.33-1.53.33-.7,0-1.31-.14-1.85-.45-.53-.3-.96-.73-1.27-1.3s-.47-1.27-.47-2.06v-5.23h2.25v4.91c0,.71.18,1.26.53,1.64.35.38.84.58,1.45.58s1.11-.2,1.47-.58c.35-.38.53-.92.53-1.64v-4.91h2.28Z"/>
    <path class="cls-1" d="M141.99,131.9h-6.52c.06.65.28,1.15.68,1.51s.88.55,1.47.55c.84,0,1.44-.36,1.79-1.08h2.44c-.26.87-.75,1.56-1.48,2.12s-1.63.84-2.69.84c-.87,0-1.64-.2-2.32-.58-.68-.38-1.21-.92-1.59-1.63-.38-.7-.58-1.5-.58-2.42s.19-1.74.57-2.44.9-1.24,1.58-1.61,1.46-.57,2.34-.57,1.6.19,2.28.55c.67.37,1.19.88,1.56,1.55s.56,1.44.56,2.32c0,.32-.02.61-.07.87v.02h-.01ZM139.72,130.38c0-.58-.21-1.05-.62-1.4s-.9-.52-1.5-.52c-.56,0-1.02.17-1.4.5s-.61.81-.7,1.4h4.23v.02Z"/>
    <path class="cls-1" d="M147.09,127.03c.47-.27,1-.4,1.6-.4v2.36h-.6c-.71,0-1.25.17-1.6.5s-.53.91-.53,1.74v4.45h-2.25v-8.92h2.25v1.39c.29-.47.67-.85,1.14-1.11h0Z"/>
    <path class="cls-3" d="M156.24,120.43l-4.34,18.17h-2.2l4.34-18.17h2.2Z"/>
    <path class="cls-1" d="M159.48,135.43c-.58-.27-1.04-.61-1.38-1.07s-.52-.95-.56-1.5h2.27c.04.33.21.62.5.86.3.22.67.33,1.1.33s.76-.08,1-.26.36-.39.36-.66c0-.29-.14-.5-.45-.65s-.76-.3-1.4-.47c-.67-.17-1.21-.33-1.64-.5s-.79-.43-1.1-.79-.47-.84-.47-1.44c0-.49.14-.95.43-1.36s.69-.73,1.22-.97,1.16-.35,1.88-.35c1.06,0,1.92.27,2.55.8.63.53.99,1.25,1.05,2.15h-2.16c-.03-.35-.19-.63-.45-.85-.27-.2-.61-.32-1.06-.32-.41,0-.72.07-.95.22-.21.16-.33.36-.33.62,0,.3.16.52.46.69.3.16.77.32,1.4.47.65.17,1.17.33,1.59.5s.78.45,1.09.8.47.84.47,1.43c0,.51-.14.98-.43,1.39s-.69.73-1.22.96c-.53.22-1.15.35-1.86.35s-1.39-.13-1.96-.39v-.02h.03Z"/>
    <path class="cls-1" d="M166.97,125.32c-.27-.26-.39-.57-.39-.95s.13-.69.39-.95c.27-.26.6-.38.99-.38s.73.12.99.38.39.57.39.95-.13.69-.39.95c-.27.26-.6.38-.99.38s-.73-.12-.99-.38ZM169.07,126.75v8.92h-2.25v-8.92h2.25Z"/>
    <path class="cls-1" d="M179.53,131.9h-6.52c.06.65.28,1.15.68,1.51s.88.55,1.47.55c.84,0,1.44-.36,1.79-1.08h2.44c-.26.87-.75,1.56-1.48,2.12s-1.63.84-2.69.84c-.87,0-1.64-.2-2.32-.58s-1.21-.92-1.59-1.63-.58-1.5-.58-2.42.19-1.74.57-2.44.9-1.24,1.58-1.61,1.46-.57,2.34-.57,1.6.19,2.28.55c.67.37,1.19.88,1.56,1.55s.56,1.44.56,2.32c0,.32-.02.61-.07.87v.02h-.01ZM177.25,130.38c0-.58-.21-1.05-.62-1.4s-.9-.52-1.5-.52c-.56,0-1.02.17-1.4.5s-.61.81-.7,1.4h4.23v.02Z"/>
    <path class="cls-3" d="M187.28,120.43l-4.34,18.17h-2.2l4.34-18.17h2.2Z"/>
    <path class="cls-1" d="M197.28,131.9h-6.52c.06.65.28,1.15.68,1.51s.88.55,1.47.55c.84,0,1.44-.36,1.79-1.08h2.44c-.26.87-.75,1.56-1.48,2.12s-1.63.84-2.69.84c-.87,0-1.64-.2-2.32-.58s-1.21-.92-1.59-1.63-.58-1.5-.58-2.42.19-1.74.57-2.44.9-1.24,1.58-1.61,1.46-.57,2.34-.57,1.6.19,2.28.55c.67.37,1.19.88,1.56,1.55s.56,1.44.56,2.32c0,.32-.02.61-.07.87v.02h-.01ZM195.01,130.38c0-.58-.21-1.05-.62-1.4s-.9-.52-1.5-.52c-.56,0-1.02.17-1.4.5s-.61.81-.7,1.4h4.23v.02Z"/>
    <path class="cls-1" d="M200.45,135.43c-.58-.27-1.04-.61-1.38-1.07s-.52-.95-.56-1.5h2.27c.04.33.21.62.5.86.3.22.67.33,1.1.33s.76-.08,1-.26c.24-.18.36-.39.36-.66,0-.29-.14-.5-.45-.65s-.76-.3-1.4-.47c-.67-.17-1.21-.33-1.64-.5-.42-.18-.79-.43-1.1-.79s-.47-.84-.47-1.44c0-.49.14-.95.43-1.36s.69-.73,1.22-.97c.53-.23,1.16-.35,1.88-.35,1.06,0,1.92.27,2.55.8s.99,1.25,1.05,2.15h-2.16c-.03-.35-.19-.63-.45-.85-.27-.2-.61-.32-1.06-.32-.41,0-.72.07-.95.22-.21.16-.33.36-.33.62,0,.3.16.52.46.69.3.16.77.32,1.4.47.65.17,1.17.33,1.59.5s.78.45,1.09.8.47.84.47,1.43c0,.51-.14.98-.43,1.39s-.69.73-1.22.96c-.53.22-1.15.35-1.86.35s-1.39-.13-1.96-.39v-.02h.03Z"/>
  </g>
  <g>
    <path class="cls-1" d="M254.56,109.66c-.58-.27-1.04-.61-1.38-1.07s-.52-.95-.56-1.5h2.27c.04.33.21.62.5.86.3.22.67.33,1.1.33s.76-.08,1-.26.36-.39.36-.66c0-.29-.14-.5-.45-.65-.3-.14-.76-.3-1.4-.47-.67-.17-1.21-.33-1.64-.5s-.79-.43-1.1-.79-.47-.84-.47-1.44c0-.49.14-.95.43-1.36s.69-.73,1.22-.97,1.16-.35,1.88-.35c1.06,0,1.92.27,2.55.8.63.53.99,1.25,1.05,2.15h-2.16c-.03-.35-.19-.63-.45-.85-.27-.2-.61-.32-1.06-.32-.41,0-.72.07-.95.22-.21.16-.33.36-.33.62,0,.3.16.52.46.69.3.16.77.32,1.4.47.65.17,1.17.33,1.59.5.42.18.78.45,1.09.8s.47.84.47,1.43c0,.51-.14.98-.43,1.39s-.69.73-1.22.96-1.15.35-1.86.35-1.39-.13-1.96-.39v-.02h.03Z"/>
    <path class="cls-1" d="M262.04,99.55c-.27-.26-.39-.57-.39-.95s.13-.69.39-.95c.27-.26.6-.38.99-.38s.73.12.99.38.39.57.39.95-.13.69-.39.95c-.27.26-.6.38-.99.38s-.73-.12-.99-.38ZM264.15,100.99v8.92h-2.25v-8.92h2.25Z"/>
    <path class="cls-1" d="M273.9,101.88c.66.67.99,1.6.99,2.81v5.23h-2.25v-4.93c0-.71-.18-1.26-.53-1.64-.36-.38-.85-.58-1.45-.58s-1.11.2-1.47.58-.53.92-.53,1.64v4.93h-2.25v-8.92h2.25v1.11c.3-.39.69-.69,1.15-.91s.98-.33,1.54-.33c1.06,0,1.93.33,2.58,1h-.02Z"/>
    <path class="cls-1" d="M282.27,101.24c.5.27.9.6,1.19,1.02v-1.27h2.27v9c0,.82-.17,1.56-.5,2.22-.33.65-.84,1.16-1.5,1.54s-1.47.58-2.42.58c-1.27,0-2.3-.3-3.12-.88s-1.27-1.4-1.38-2.42h2.24c.11.41.37.73.76.98.39.23.87.36,1.43.36.66,0,1.18-.2,1.59-.59s.61-.99.61-1.78v-1.39c-.29.42-.69.77-1.2,1.05s-1.09.42-1.75.42c-.75,0-1.44-.2-2.07-.58-.62-.39-1.11-.94-1.47-1.64-.36-.7-.55-1.51-.55-2.43s.18-1.7.55-2.41c.36-.7.86-1.24,1.47-1.61s1.3-.57,2.07-.57c.67,0,1.26.13,1.76.39h.02ZM283.13,104.04c-.21-.39-.5-.69-.87-.9-.37-.2-.76-.32-1.17-.32s-.8.1-1.16.31c-.35.2-.63.5-.87.89-.21.39-.33.86-.33,1.4s.11,1,.33,1.4c.21.4.51.71.87.92s.73.32,1.15.32.81-.1,1.17-.32c.36-.2.66-.51.87-.9s.32-.87.32-1.4-.1-1.01-.32-1.4h.01Z"/>
    <path class="cls-1" d="M296.36,100.99v8.92h-2.27v-1.14c-.29.39-.67.69-1.14.91-.47.21-.98.33-1.53.33-.7,0-1.31-.14-1.85-.45s-.96-.73-1.27-1.3-.47-1.27-.47-2.06v-5.23h2.25v4.91c0,.71.18,1.26.53,1.64.35.38.84.58,1.45.58s1.11-.2,1.47-.58c.35-.38.53-.92.53-1.64v-4.91h2.28Z"/>
    <path class="cls-1" d="M300.83,98v11.92h-2.25v-11.92s2.25,0,2.25,0Z"/>
    <path class="cls-1" d="M303.02,103.03c.36-.7.86-1.24,1.47-1.61s1.3-.57,2.07-.57c.67,0,1.25.13,1.75.4s.9.6,1.2,1.01v-1.27h2.27v8.92h-2.27v-1.3c-.29.42-.69.76-1.2,1.04s-1.1.41-1.77.41c-.75,0-1.44-.2-2.06-.58-.61-.39-1.11-.94-1.47-1.64-.36-.7-.55-1.51-.55-2.43s.18-1.7.55-2.41h0v.02ZM309.18,104.04c-.21-.39-.5-.69-.87-.9-.37-.2-.76-.32-1.17-.32s-.8.1-1.16.31c-.35.2-.63.5-.87.89-.21.39-.33.86-.33,1.4s.11,1,.33,1.4c.21.4.51.71.87.92s.73.32,1.15.32.81-.1,1.17-.32c.36-.2.66-.51.87-.9s.32-.87.32-1.4-.1-1.01-.32-1.4h.01Z"/>
    <path class="cls-1" d="M317.38,101.27c.47-.27,1-.4,1.6-.4v2.36h-.6c-.71,0-1.25.17-1.6.5-.36.33-.53.91-.53,1.74v4.45h-2.25v-8.92h2.25v1.39c.29-.47.67-.85,1.14-1.11h0Z"/>
  </g>
  <g>
    <path class="cls-1" d="M216.71,202.25c.51-.28,1.09-.41,1.75-.41.76,0,1.45.19,2.07.57s1.11.91,1.47,1.6.55,1.5.55,2.41-.19,1.71-.55,2.43c-.36.7-.86,1.25-1.47,1.64s-1.3.58-2.07.58c-.66,0-1.24-.13-1.73-.4-.5-.27-.9-.6-1.21-1.01v5.53h-2.25v-13.17h2.25v1.28c.29-.41.69-.75,1.2-1.02h-.01ZM219.9,205.03c-.21-.39-.51-.69-.87-.89s-.75-.31-1.17-.31-.79.1-1.15.32-.65.51-.87.91c-.21.4-.33.87-.33,1.4s.11,1,.33,1.4c.21.4.51.7.87.91.36.2.73.32,1.15.32s.81-.1,1.17-.32.65-.52.87-.91.33-.87.33-1.41-.11-1-.33-1.4h0v-.02Z"/>
    <path class="cls-1" d="M226.42,199v11.92h-2.25v-11.92h2.25Z"/>
    <path class="cls-1" d="M237.09,201.99v8.92h-2.27v-1.14c-.29.39-.67.69-1.14.91-.47.21-.98.33-1.53.33-.7,0-1.31-.14-1.85-.45s-.96-.73-1.27-1.3-.47-1.27-.47-2.06v-5.23h2.25v4.91c0,.71.18,1.26.53,1.64.35.38.84.58,1.45.58s1.11-.2,1.47-.58c.35-.38.53-.92.53-1.64v-4.91h2.28Z"/>
    <path class="cls-1" d="M242.69,202.27c.47-.27,1-.4,1.6-.4v2.36h-.6c-.71,0-1.25.17-1.6.5s-.53.91-.53,1.74v4.45h-2.25v-8.92h2.25v1.39c.29-.47.67-.85,1.14-1.11h0Z"/>
    <path class="cls-1" d="M245.76,204.02c.36-.7.86-1.24,1.47-1.61s1.3-.57,2.07-.57c.67,0,1.25.13,1.75.4.5.27.9.6,1.2,1.01v-1.27h2.27v8.92h-2.27v-1.3c-.29.42-.69.76-1.2,1.04s-1.1.41-1.77.41c-.75,0-1.44-.2-2.06-.58-.61-.39-1.11-.94-1.47-1.64s-.55-1.51-.55-2.43.18-1.7.55-2.41h0v.02ZM251.93,205.04c-.21-.39-.5-.69-.87-.9-.37-.2-.76-.32-1.17-.32s-.8.1-1.16.31c-.35.2-.63.5-.87.89-.21.39-.33.86-.33,1.4s.11,1,.33,1.4.51.71.87.92.73.32,1.15.32.81-.1,1.17-.32c.36-.2.66-.51.87-.9s.32-.87.32-1.4-.1-1.01-.32-1.4h.01Z"/>
    <path class="cls-1" d="M258.98,199v11.92h-2.25v-11.92h2.25Z"/>
  </g>
  <g>
    <path class="cls-1" d="M233.26,221.2v4.21h-.7v-.62c-.13.21-.32.38-.56.5s-.5.19-.79.19c-.33,0-.62-.07-.88-.2s-.47-.33-.61-.6c-.16-.27-.22-.6-.22-1v-2.47h.69v2.37c0,.41.1.73.32.96s.49.33.87.33.67-.11.88-.35.32-.57.32-1v-2.32h.7-.02Z"/>
    <path class="cls-1" d="M237.76,221.58c.32.31.47.76.47,1.35v2.48h-.69v-2.38c0-.42-.1-.73-.32-.97-.2-.22-.49-.33-.87-.33s-.66.11-.88.35c-.21.22-.33.57-.33,1v2.34h-.7v-4.21h.7v.6c.13-.21.33-.38.57-.5s.5-.18.79-.18c.51,0,.92.16,1.25.47h.02Z"/>
    <path class="cls-1" d="M239.36,222.16c.18-.33.41-.58.72-.76.31-.18.65-.27,1.02-.27.33,0,.63.07.91.22s.49.35.65.6v-2.23h.71v5.69h-.71v-.79c-.13.24-.33.47-.61.61-.27.17-.59.24-.96.24s-.71-.09-1.01-.28c-.31-.19-.55-.45-.72-.78-.18-.33-.26-.71-.26-1.14s.08-.81.26-1.14h0ZM242.48,222.47c-.12-.23-.3-.42-.51-.55s-.47-.19-.72-.19-.5.07-.72.19-.39.3-.51.53c-.12.23-.2.51-.2.84s.07.6.2.85c.12.23.3.42.51.55s.46.19.72.19.5-.07.72-.19.39-.31.51-.55.2-.51.2-.84-.07-.6-.2-.84h0Z"/>
  </g>
  <g>
    <path class="cls-1" d="M146.13,180.26l-2.61,8.92h-2.44l-1.63-6.24-1.63,6.24h-2.45l-2.62-8.92h2.29l1.58,6.79,1.7-6.79h2.38l1.67,6.78,1.58-6.78h2.16-.02.01Z"/>
    <path class="cls-1" d="M147.51,178.83c-.27-.26-.39-.57-.39-.95s.13-.69.39-.95c.27-.26.6-.38.99-.38s.73.12.99.38c.26.26.39.57.39.95s-.13.69-.39.95c-.27.26-.6.38-.99.38s-.73-.12-.99-.38ZM149.62,180.26v8.92h-2.25v-8.92h2.25Z"/>
    <path class="cls-1" d="M155.23,180.54c.47-.27,1-.4,1.6-.4v2.36h-.6c-.71,0-1.25.17-1.6.5s-.53.91-.53,1.74v4.45h-2.25v-8.92h2.25v1.39c.29-.47.67-.85,1.14-1.11h0Z"/>
    <path class="cls-1" d="M133.92,198.16c-.27-.26-.39-.57-.39-.95s.13-.69.39-.95c.27-.26.6-.38.99-.38s.73.12.99.38.39.57.39.95-.13.69-.39.95c-.27.26-.6.38-.99.38s-.73-.12-.99-.38ZM136.02,199.59v8.92h-2.25v-8.92h2.25Z"/>
    <path class="cls-1" d="M145.07,199.92c.52.3.94.73,1.24,1.3s.45,1.27.45,2.07v5.23h-2.25v-4.93c0-.71-.18-1.26-.53-1.64s-.85-.58-1.45-.58-1.11.2-1.47.58-.53.92-.53,1.64v4.93h-2.25v-11.92h2.25v4.11c.29-.39.68-.69,1.16-.91s1.01-.33,1.61-.33c.68,0,1.27.14,1.8.45h-.02Z"/>
    <path class="cls-1" d="M152.28,199.87c.47-.27,1-.4,1.6-.4v2.36h-.6c-.71,0-1.25.17-1.6.5s-.53.91-.53,1.74v4.45h-2.25v-8.92h2.25v1.39c.29-.47.67-.85,1.14-1.11h0Z"/>
    <path class="cls-1" d="M135.21,227.6c-.58-.27-1.04-.61-1.38-1.07s-.52-.95-.56-1.5h2.27c.04.33.21.62.5.86.3.22.67.33,1.1.33s.76-.08,1-.26.36-.39.36-.66c0-.29-.14-.5-.45-.65s-.76-.3-1.4-.47c-.67-.17-1.21-.33-1.64-.5-.42-.18-.79-.43-1.1-.79s-.47-.84-.47-1.44c0-.49.14-.95.43-1.36s.69-.73,1.22-.97,1.16-.35,1.88-.35c1.06,0,1.92.27,2.55.8s.99,1.25,1.05,2.15h-2.16c-.03-.35-.19-.63-.45-.85-.27-.2-.61-.32-1.06-.32-.41,0-.72.07-.95.22-.21.16-.33.36-.33.62,0,.3.16.52.46.69.3.16.77.32,1.4.47.65.17,1.17.33,1.59.5s.78.45,1.09.8c.31.36.47.84.47,1.43,0,.51-.14.98-.43,1.39s-.69.73-1.22.96c-.53.22-1.15.35-1.86.35s-1.39-.13-1.96-.39v-.02h.03Z"/>
    <path class="cls-1" d="M142.69,217.49c-.27-.26-.39-.57-.39-.95s.13-.69.39-.95c.27-.26.6-.38.99-.38s.73.12.99.38.39.57.39.95-.13.69-.39.95c-.27.26-.6.38-.99.38s-.73-.12-.99-.38ZM144.8,218.92v8.92h-2.25v-8.92h2.25Z"/>
    <path class="cls-1" d="M155.25,224.07h-6.52c.06.65.28,1.15.68,1.51s.88.55,1.47.55c.84,0,1.44-.36,1.79-1.08h2.44c-.26.87-.75,1.56-1.48,2.12s-1.63.84-2.69.84c-.87,0-1.64-.2-2.32-.58s-1.21-.92-1.59-1.63c-.38-.7-.58-1.5-.58-2.42s.19-1.74.57-2.44.9-1.24,1.58-1.61,1.46-.57,2.34-.57,1.6.19,2.28.55c.67.37,1.19.88,1.56,1.55s.56,1.44.56,2.32c0,.32-.02.61-.07.87v.02h-.01ZM152.98,222.55c0-.58-.21-1.05-.62-1.4-.41-.35-.9-.52-1.5-.52-.56,0-1.02.17-1.4.5s-.61.81-.7,1.4h4.23v.02Z"/>
    <path class="cls-1" d="M135.53,246.88c-.62-.27-1.12-.66-1.49-1.16-.37-.5-.56-1.1-.57-1.79h2.42c.03.47.2.82.49,1.1s.7.4,1.21.4.94-.12,1.25-.38c.3-.26.46-.59.46-.99,0-.33-.1-.6-.31-.82-.2-.21-.47-.38-.76-.5-.31-.12-.73-.26-1.27-.41-.73-.21-1.32-.43-1.78-.63s-.86-.52-1.17-.95c-.33-.42-.49-.99-.49-1.69s.17-1.25.5-1.74c.33-.49.8-.87,1.4-1.14s1.28-.39,2.07-.39c1.16,0,2.1.28,2.83.85.73.57,1.12,1.35,1.2,2.36h-2.47c-.02-.39-.19-.71-.49-.96-.31-.26-.71-.38-1.21-.38-.45,0-.79.11-1.06.33s-.39.56-.39.99c0,.3.1.56.3.75s.45.36.73.48c.3.12.71.27,1.25.43.73.21,1.32.43,1.79.65s.87.53,1.19.97.5,1,.5,1.69c0,.6-.16,1.16-.47,1.67s-.77.92-1.37,1.24-1.31.47-2.14.47-1.49-.13-2.12-.4l-.03-.04h-.01Z"/>
    <path class="cls-1" d="M143.73,236.8c-.27-.26-.39-.57-.39-.95s.13-.69.39-.95c.27-.26.6-.38.99-.38s.73.12.99.38.39.57.39.95-.13.69-.39.95c-.27.26-.6.38-.99.38s-.73-.12-.99-.38ZM145.82,238.25v8.92h-2.25v-8.92h2.25Z"/>
    <path class="cls-1" d="M156.28,243.4h-6.52c.06.65.28,1.15.68,1.51s.88.55,1.47.55c.84,0,1.44-.36,1.79-1.08h2.44c-.26.87-.75,1.56-1.48,2.12s-1.63.84-2.69.84c-.87,0-1.64-.2-2.32-.58s-1.21-.92-1.59-1.63c-.38-.7-.58-1.5-.58-2.42s.19-1.74.57-2.44.9-1.24,1.58-1.61c.68-.38,1.46-.57,2.34-.57s1.6.19,2.28.55c.67.37,1.19.88,1.56,1.55s.56,1.44.56,2.32c0,.32-.02.61-.07.87v.02h-.01ZM154.01,241.87c0-.58-.21-1.05-.62-1.4-.41-.35-.9-.52-1.5-.52-.56,0-1.02.17-1.4.5s-.61.81-.7,1.4h4.23v.02Z"/>
  </g>
  <path class="cls-1" d="M246.93,228.55h-20.11v-11.35h20.11v11.35ZM227.34,228.04h19.08v-10.32h-19.08v10.32h0Z"/>
  <g>
    <g>
      <g>
        <g>
          <path class="cls-2" d="M359.05,83.53c.36-.7.86-1.24,1.47-1.61.62-.38,1.31-.57,2.07-.57.58,0,1.14.12,1.67.38.52.26.95.59,1.26,1v-4.23h2.29v11.92h-2.29v-1.32c-.28.45-.67.79-1.17,1.06-.5.27-1.09.4-1.76.4-.75,0-1.44-.2-2.07-.58-.62-.39-1.11-.94-1.47-1.64s-.53-1.51-.53-2.43.18-1.7.53-2.41h0v.02ZM365.22,84.54c-.21-.39-.5-.69-.87-.9-.37-.2-.76-.32-1.17-.32s-.8.1-1.16.31-.63.5-.87.89c-.21.39-.33.86-.33,1.4s.11,1,.33,1.4c.21.4.51.71.87.92s.73.32,1.15.32.81-.1,1.17-.32c.36-.2.66-.51.87-.9s.32-.87.32-1.4-.11-1.01-.32-1.4h.01Z"/>
          <path class="cls-2" d="M370.18,80.06c-.27-.26-.39-.57-.39-.95s.13-.69.39-.95.6-.38.99-.38.73.12.99.38.39.57.39.95-.13.69-.39.95c-.27.26-.6.38-.99.38s-.73-.12-.99-.38ZM372.27,81.49v8.92h-2.25v-8.92h2.25Z"/>
          <path class="cls-2" d="M382.74,86.64h-6.52c.06.65.28,1.15.68,1.51s.88.55,1.47.55c.85,0,1.44-.36,1.79-1.08h2.44c-.26.87-.75,1.56-1.48,2.12s-1.63.84-2.69.84c-.87,0-1.64-.2-2.32-.58s-1.21-.92-1.59-1.63-.58-1.5-.58-2.42.19-1.74.57-2.44.9-1.24,1.58-1.61,1.46-.57,2.34-.57,1.6.19,2.28.55c.67.37,1.19.88,1.56,1.55s.56,1.44.56,2.32c0,.32-.02.61-.07.87v.02h-.01ZM380.46,85.12c0-.58-.21-1.05-.62-1.4s-.9-.52-1.5-.52c-.56,0-1.02.17-1.4.5s-.61.81-.7,1.4h4.23v.02Z"/>
          <path class="cls-2" d="M395.21,79.17v1.81h-4.69v2.88h3.6v1.79h-3.6v4.74h-2.25v-11.25h6.95-.01Z"/>
          <path class="cls-2" d="M400.19,81.77c.47-.27,1-.4,1.6-.4v2.36h-.6c-.71,0-1.25.17-1.6.5s-.55.91-.55,1.74v4.45h-2.25v-8.92h2.25v1.39c.29-.47.67-.85,1.14-1.11h.01Z"/>
          <path class="cls-2" d="M403.28,83.53c.36-.7.86-1.24,1.47-1.61s1.3-.57,2.07-.57c.67,0,1.25.13,1.75.4s.9.6,1.2,1.01v-1.27h2.27v8.92h-2.27v-1.3c-.29.42-.69.76-1.2,1.04s-1.1.41-1.77.41c-.75,0-1.44-.2-2.06-.58-.61-.39-1.11-.94-1.47-1.64s-.53-1.51-.53-2.43.18-1.7.53-2.41h0v.02ZM409.44,84.54c-.21-.39-.5-.69-.87-.9-.37-.2-.76-.32-1.17-.32s-.8.1-1.16.31-.63.5-.87.89c-.21.39-.33.86-.33,1.4s.11,1,.33,1.4.51.71.87.92.73.32,1.15.32.81-.1,1.17-.32c.36-.2.66-.51.87-.9.21-.39.32-.87.32-1.4s-.11-1.01-.32-1.4h.01Z"/>
          <path class="cls-2" d="M419.48,81.74c.5.27.9.6,1.19,1.02v-1.27h2.27v9c0,.82-.17,1.56-.5,2.22s-.84,1.16-1.5,1.54-1.47.58-2.42.58c-1.27,0-2.3-.3-3.12-.88s-1.27-1.4-1.38-2.42h2.24c.11.41.37.73.76.98.39.23.87.36,1.43.36.66,0,1.18-.2,1.59-.59s.61-.99.61-1.78v-1.39c-.29.42-.69.77-1.2,1.05s-1.09.42-1.75.42c-.75,0-1.44-.2-2.07-.58-.62-.39-1.11-.94-1.47-1.64s-.53-1.51-.53-2.43.18-1.7.53-2.41.86-1.24,1.47-1.61,1.3-.57,2.07-.57c.67,0,1.26.13,1.76.39h.02ZM420.36,84.54c-.21-.39-.5-.69-.87-.9-.37-.2-.76-.32-1.17-.32s-.8.1-1.16.31-.63.5-.87.89c-.21.39-.33.86-.33,1.4s.11,1,.33,1.4.51.71.87.92.73.32,1.15.32.81-.1,1.17-.32c.36-.2.66-.51.87-.9.21-.39.32-.87.32-1.4s-.11-1.01-.32-1.4h.01Z"/>
          <path class="cls-2" d="M433.39,86.64h-6.52c.06.65.28,1.15.68,1.51s.88.55,1.47.55c.85,0,1.44-.36,1.79-1.08h2.44c-.26.87-.75,1.56-1.48,2.12s-1.63.84-2.69.84c-.87,0-1.64-.2-2.32-.58s-1.21-.92-1.59-1.63-.58-1.5-.58-2.42.19-1.74.57-2.44.9-1.24,1.58-1.61,1.46-.57,2.34-.57,1.6.19,2.28.55c.67.37,1.19.88,1.56,1.55s.56,1.44.56,2.32c0,.32-.02.61-.07.87v.02h-.01ZM431.11,85.12c0-.58-.21-1.05-.62-1.4-.41-.35-.9-.52-1.5-.52-.56,0-1.02.17-1.4.5s-.61.81-.7,1.4h4.23v.02Z"/>
        </g>
        <g>
          <path class="cls-2" d="M474.66,83.53c.36-.7.86-1.24,1.47-1.61.62-.38,1.31-.57,2.07-.57.58,0,1.14.12,1.67.38.52.26.95.59,1.26,1v-4.23h2.29v11.92h-2.29v-1.32c-.28.45-.67.79-1.17,1.06s-1.09.4-1.76.4c-.75,0-1.44-.2-2.07-.58-.62-.39-1.11-.94-1.47-1.64s-.53-1.51-.53-2.43.18-1.7.53-2.41h0v.02ZM480.83,84.54c-.21-.39-.5-.69-.87-.9-.37-.2-.76-.32-1.17-.32s-.8.1-1.16.31-.63.5-.87.89c-.21.39-.33.86-.33,1.4s.11,1,.33,1.4.51.71.87.92.73.32,1.15.32.81-.1,1.17-.32c.36-.2.66-.51.87-.9.21-.39.32-.87.32-1.4s-.11-1.01-.32-1.4h.01Z"/>
          <path class="cls-2" d="M485.78,80.06c-.27-.26-.39-.57-.39-.95s.13-.69.39-.95.6-.38.99-.38.73.12.99.38.39.57.39.95-.13.69-.39.95c-.27.26-.6.38-.99.38s-.73-.12-.99-.38ZM487.88,81.49v8.92h-2.25v-8.92h2.25Z"/>
          <path class="cls-2" d="M498.33,86.64h-6.52c.06.65.28,1.15.68,1.51s.88.55,1.47.55c.85,0,1.44-.36,1.79-1.08h2.44c-.26.87-.75,1.56-1.48,2.12s-1.63.84-2.69.84c-.87,0-1.64-.2-2.32-.58s-1.21-.92-1.59-1.63-.58-1.5-.58-2.42.19-1.74.57-2.44.9-1.24,1.58-1.61,1.46-.57,2.34-.57,1.6.19,2.28.55c.67.37,1.19.88,1.56,1.55s.56,1.44.56,2.32c0,.32-.02.61-.07.87v.02h-.01ZM496.06,85.12c0-.58-.21-1.05-.62-1.4-.41-.35-.9-.52-1.5-.52-.56,0-1.02.17-1.4.5s-.61.81-.7,1.4h4.23v.02Z"/>
          <path class="cls-2" d="M510.77,88.27h-4.48l-.73,2.14h-2.36l4.04-11.27h2.62l4.04,11.27h-2.38l-.73-2.14h-.01ZM510.16,86.47l-1.63-4.71-1.63,4.71h3.26-.01Z"/>
          <path class="cls-2" d="M522.93,82.37c.66.67.99,1.6.99,2.81v5.23h-2.25v-4.93c0-.71-.18-1.26-.53-1.64-.35-.38-.84-.58-1.45-.58s-1.11.2-1.47.58-.55.92-.55,1.64v4.93h-2.25v-8.92h2.25v1.11c.3-.39.69-.69,1.15-.91.47-.21.98-.33,1.54-.33,1.06,0,1.93.33,2.58,1h-.01Z"/>
          <path class="cls-2" d="M528.67,83.34v4.32c0,.3.07.51.21.65s.39.2.73.2h1.05v1.9h-1.41c-1.9,0-2.85-.92-2.85-2.77v-4.31h-1.07v-1.85h1.07v-2.2h2.27v2.2h1.99v1.85h-1.99Z"/>
          <path class="cls-2" d="M544.67,81.49l-2.61,8.92h-2.44l-1.63-6.24-1.63,6.24h-2.45l-2.63-8.92h2.29l1.58,6.79,1.7-6.79h2.38l1.67,6.78,1.58-6.78h2.16,0Z"/>
          <path class="cls-2" d="M547.55,89.99c-.69-.38-1.22-.92-1.63-1.63-.39-.7-.59-1.5-.59-2.42s.2-1.71.6-2.42c.4-.7.96-1.24,1.66-1.63.7-.38,1.48-.58,2.34-.58s1.64.2,2.34.58c.7.38,1.25.92,1.66,1.63.4.7.6,1.5.6,2.42s-.2,1.71-.61,2.42-.98,1.24-1.67,1.63c-.7.38-1.49.58-2.36.58s-1.64-.2-2.33-.58h-.01ZM551.02,88.3c.36-.2.65-.49.87-.89s.32-.88.32-1.45c0-.86-.22-1.5-.67-1.95-.45-.46-.99-.69-1.64-.69s-1.18.22-1.63.69c-.43.46-.65,1.11-.65,1.95s.21,1.5.63,1.95c.42.46.96.69,1.6.69.41,0,.79-.1,1.15-.3h0Z"/>
          <path class="cls-2" d="M559.57,81.77c.47-.27,1-.4,1.6-.4v2.36h-.6c-.71,0-1.25.17-1.6.5s-.55.91-.55,1.74v4.45h-2.25v-8.92h2.25v1.39c.29-.47.67-.85,1.14-1.11h.01Z"/>
          <path class="cls-2" d="M565.32,83.34v4.32c0,.3.07.51.21.65s.39.2.73.2h1.05v1.9h-1.41c-1.9,0-2.85-.92-2.85-2.77v-4.31h-1.07v-1.85h1.07v-2.2h2.27v2.2h1.99v1.85h-1.99Z"/>
        </g>
      </g>
      <g>
        <g>
          <g>
            <path class="cls-1" d="M387.07,122.16c-.62-.27-1.12-.66-1.49-1.16s-.56-1.1-.57-1.79h2.42c.03.47.2.82.49,1.1.3.27.7.4,1.21.4s.95-.12,1.25-.38.46-.59.46-.99c0-.33-.1-.6-.31-.82s-.47-.38-.77-.5c-.31-.12-.73-.26-1.27-.41-.73-.21-1.32-.43-1.78-.63s-.86-.52-1.17-.95c-.33-.42-.49-.99-.49-1.69s.17-1.25.5-1.74c.33-.49.8-.87,1.4-1.14s1.28-.39,2.07-.39c1.16,0,2.1.28,2.83.85.73.57,1.12,1.35,1.2,2.36h-2.47c-.02-.39-.19-.71-.49-.96s-.71-.38-1.21-.38c-.45,0-.79.11-1.06.33s-.39.56-.39.99c0,.3.1.56.3.75s.45.36.73.48.71.27,1.25.43c.73.21,1.32.43,1.79.65s.87.53,1.19.97c.33.43.5,1,.5,1.69,0,.6-.16,1.16-.47,1.67s-.77.92-1.37,1.24-1.31.47-2.14.47-1.49-.13-2.12-.4v-.04h-.03Z"/>
            <path class="cls-1" d="M395.27,112.08c-.27-.26-.39-.57-.39-.95s.13-.69.39-.95.6-.38.99-.38.73.12.99.38.39.57.39.95-.13.69-.39.95c-.27.26-.6.38-.99.38s-.73-.12-.99-.38ZM397.37,113.53v8.92h-2.25v-8.92h2.25Z"/>
            <path class="cls-1" d="M407.82,118.66h-6.52c.06.65.28,1.15.68,1.51s.88.55,1.47.55c.85,0,1.44-.36,1.79-1.08h2.44c-.26.87-.75,1.56-1.48,2.12s-1.63.84-2.69.84c-.87,0-1.64-.2-2.32-.58s-1.21-.92-1.59-1.63-.58-1.5-.58-2.42.19-1.74.57-2.44.9-1.24,1.58-1.61,1.46-.57,2.34-.57,1.6.19,2.28.55c.67.37,1.19.88,1.56,1.55s.56,1.44.56,2.32c0,.32-.02.61-.07.87v.02h-.01ZM405.56,117.14c0-.58-.21-1.05-.62-1.4-.41-.35-.9-.52-1.5-.52-.56,0-1.02.17-1.4.5s-.61.81-.7,1.4h4.23v.02Z"/>
            <path class="cls-1" d="M385.26,154.21c.36-.7.86-1.24,1.47-1.61.62-.38,1.31-.57,2.07-.57.58,0,1.14.12,1.67.38.52.26.95.59,1.26,1v-4.23h2.29v11.92h-2.29v-1.32c-.28.45-.67.79-1.17,1.06s-1.09.4-1.76.4c-.75,0-1.44-.2-2.07-.58-.62-.39-1.11-.94-1.47-1.64s-.53-1.51-.53-2.43.18-1.7.53-2.41h0v.02ZM391.43,155.22c-.21-.39-.5-.69-.87-.9-.37-.2-.76-.32-1.17-.32s-.8.1-1.16.31-.63.5-.87.89c-.21.39-.33.86-.33,1.4s.11,1,.33,1.4.51.71.87.92.73.32,1.15.32.81-.1,1.17-.32c.36-.2.66-.51.87-.9.21-.39.32-.87.32-1.4s-.11-1.01-.32-1.4h.01Z"/>
            <path class="cls-1" d="M404.65,152.17v8.92h-2.27v-1.14c-.29.39-.67.69-1.14.91-.47.21-.98.33-1.53.33-.7,0-1.31-.14-1.85-.45-.53-.3-.96-.73-1.27-1.3s-.47-1.27-.47-2.06v-5.23h2.25v4.91c0,.71.18,1.26.53,1.64.35.38.84.58,1.45.58s1.11-.2,1.47-.58c.35-.38.53-.92.53-1.64v-4.91h2.28Z"/>
          </g>
          <g>
            <path class="cls-1" d="M518.06,133.14c-.27-.26-.39-.57-.39-.95s.13-.69.39-.95.6-.38.99-.38.73.12.99.38.39.57.39.95-.13.69-.39.95c-.27.26-.6.38-.99.38s-.73-.12-.99-.38ZM520.15,134.58v8.92h-2.25v-8.92h2.25Z"/>
            <path class="cls-1" d="M522.37,136.62c.38-.69.89-1.24,1.56-1.61s1.43-.58,2.29-.58c1.11,0,2.03.28,2.74.84s1.21,1.32,1.46,2.33h-2.44c-.12-.39-.35-.69-.65-.91-.31-.21-.69-.33-1.14-.33-.65,0-1.15.23-1.54.7s-.57,1.14-.57,1.99.19,1.51.57,1.97.88.7,1.54.7c.91,0,1.51-.41,1.79-1.22h2.44c-.24.97-.73,1.74-1.47,2.3s-1.65.86-2.74.86c-.87,0-1.63-.2-2.29-.58-.67-.38-1.18-.91-1.56-1.61-.38-.69-.57-1.5-.57-2.43s.19-1.74.57-2.43v.02h0Z"/>
            <path class="cls-1" d="M538.92,134.9c.52.3.94.73,1.24,1.3.3.58.45,1.27.45,2.07v5.23h-2.25v-4.93c0-.71-.18-1.26-.53-1.64-.35-.38-.84-.58-1.45-.58s-1.11.2-1.47.58-.55.92-.55,1.64v4.93h-2.25v-11.92h2.25v4.11c.29-.39.68-.69,1.16-.91.48-.21,1.01-.33,1.61-.33.68,0,1.27.14,1.8.45h-.01Z"/>
          </g>
          <g>
            <polygon class="cls-3" points="440.17 159.97 424.33 159.97 424.33 158.93 439.14 158.93 439.14 118.54 424.33 118.54 424.33 117.51 440.17 117.51 440.17 159.97"/>
            <rect class="cls-3" x="439.65" y="138.23" width="68.71" height="1.02"/>
          </g>
        </g>
        <g>
          <g>
            <g>
              <path class="cls-1" d="M397.68,172.34l-2.61,7.92h-2.44l-1.63-5.53-1.63,5.53h-2.45l-2.63-7.92h2.29l1.58,6.03,1.7-6.03h2.38l1.67,6.01,1.58-6.01h2.16,0Z"/>
              <path class="cls-1" d="M399.05,171.07c-.27-.22-.39-.5-.39-.84s.13-.61.39-.84.6-.33.99-.33.73.11.99.33.39.5.39.84-.13.61-.39.84c-.27.22-.6.33-.99.33s-.73-.11-.99-.33ZM401.16,172.34v7.92h-2.25v-7.92h2.25Z"/>
              <path class="cls-1" d="M406.77,172.59c.47-.23,1-.36,1.6-.36v2.09h-.6c-.71,0-1.25.14-1.6.45s-.55.81-.55,1.54v3.94h-2.25v-7.92h2.25v1.24c.29-.42.67-.75,1.14-.99h.01Z"/>
            </g>
            <g>
              <path class="cls-1" d="M518.05,171.07c-.27-.22-.39-.5-.39-.84s.13-.61.39-.84.6-.33.99-.33.73.11.99.33.39.5.39.84-.13.61-.39.84c-.27.22-.6.33-.99.33s-.73-.11-.99-.33ZM520.15,172.34v7.92h-2.25v-7.92h2.25Z"/>
              <path class="cls-1" d="M529.21,172.62c.52.26.94.65,1.24,1.16.3.51.45,1.12.45,1.84v4.64h-2.25v-4.36c0-.62-.18-1.11-.53-1.45s-.84-.5-1.45-.5-1.11.17-1.47.5-.55.82-.55,1.45v4.36h-2.25v-10.58h2.25v3.64c.29-.33.68-.61,1.16-.81.48-.2,1.01-.29,1.61-.29.68,0,1.27.13,1.8.39h-.01Z"/>
              <path class="cls-1" d="M536.41,172.59c.47-.23,1-.36,1.6-.36v2.09h-.6c-.71,0-1.25.14-1.6.45s-.55.81-.55,1.54v3.94h-2.25v-7.92h2.25v1.24c.29-.42.67-.75,1.14-.99h.01Z"/>
            </g>
          </g>
          <rect class="cls-3" x="424.33" y="177.9" width="84.03" height="1.02"/>
        </g>
        <g>
          <g>
            <g>
              <path class="cls-1" d="M384.69,188.14c-.27-.22-.39-.5-.39-.84s.13-.61.39-.84.6-.33.99-.33.73.11.99.33.39.5.39.84-.13.61-.39.84c-.27.22-.6.33-.99.33s-.73-.11-.99-.33ZM386.81,189.42v7.92h-2.25v-7.92h2.25Z"/>
              <path class="cls-1" d="M395.86,189.7c.52.26.94.65,1.24,1.16.3.51.45,1.12.45,1.84v4.64h-2.25v-4.36c0-.62-.18-1.11-.53-1.45s-.84-.5-1.45-.5-1.11.17-1.47.5-.55.82-.55,1.45v4.36h-2.25v-10.58h2.25v3.64c.29-.33.68-.61,1.16-.81.48-.2,1.01-.29,1.61-.29.68,0,1.27.13,1.8.39h-.01Z"/>
              <path class="cls-1" d="M403.07,189.67c.47-.23,1-.36,1.6-.36v2.09h-.6c-.71,0-1.25.14-1.6.45s-.55.81-.55,1.54v3.94h-2.25v-7.92h2.25v1.24c.29-.42.67-.75,1.14-.99h.01Z"/>
            </g>
            <g>
              <path class="cls-1" d="M529.51,189.42l-2.61,7.92h-2.44l-1.63-5.53-1.63,5.53h-2.45l-2.63-7.92h2.29l1.58,6.03,1.7-6.03h2.38l1.67,6.01,1.58-6.01h2.16,0Z"/>
              <path class="cls-1" d="M530.89,188.14c-.27-.22-.39-.5-.39-.84s.13-.61.39-.84.6-.33.99-.33.73.11.99.33.39.5.39.84-.13.61-.39.84c-.27.22-.6.33-.99.33s-.73-.11-.99-.33ZM532.99,189.42v7.92h-2.25v-7.92h2.25Z"/>
              <path class="cls-1" d="M538.6,189.67c.47-.23,1-.36,1.6-.36v2.09h-.6c-.71,0-1.25.14-1.6.45s-.55.81-.55,1.54v3.94h-2.25v-7.92h2.25v1.24c.29-.42.67-.75,1.14-.99h.01Z"/>
            </g>
          </g>
          <rect class="cls-3" x="423.58" y="194.98" width="84.03" height="1.02"/>
        </g>
        <g>
          <g>
            <g>
              <path class="cls-1" d="M393.11,209.42h-6.52c.06.58.28,1.01.68,1.35s.88.48,1.47.48c.85,0,1.44-.32,1.79-.96h2.44c-.26.76-.75,1.39-1.48,1.88-.73.49-1.63.73-2.69.73-.87,0-1.64-.17-2.32-.5s-1.21-.81-1.59-1.44-.58-1.34-.58-2.15.19-1.54.57-2.16.9-1.1,1.58-1.43,1.46-.5,2.34-.5,1.6.17,2.28.48c.67.33,1.19.78,1.56,1.38.37.6.56,1.27.56,2.06,0,.29-.02.55-.07.77h-.01ZM390.84,208.09c0-.51-.21-.92-.62-1.24s-.9-.47-1.5-.47c-.56,0-1.02.16-1.4.46s-.61.72-.7,1.26h4.23Z"/>
              <path class="cls-1" d="M398.21,205.11c.47-.23,1-.36,1.6-.36v2.09h-.6c-.71,0-1.25.14-1.6.45s-.55.81-.55,1.54v3.94h-2.25v-7.92h2.25v1.24c.29-.42.67-.75,1.14-.99h.01Z"/>
            </g>
            <g>
              <path class="cls-1" d="M525.71,209.42h-6.52c.06.58.28,1.01.68,1.35s.88.48,1.47.48c.85,0,1.44-.32,1.79-.96h2.44c-.26.76-.75,1.39-1.48,1.88-.73.49-1.63.73-2.69.73-.87,0-1.64-.17-2.32-.5s-1.21-.81-1.59-1.44-.58-1.34-.58-2.15.19-1.54.57-2.16.9-1.1,1.58-1.43,1.46-.5,2.34-.5,1.6.17,2.28.48c.67.33,1.19.78,1.56,1.38.37.6.56,1.27.56,2.06,0,.29-.02.55-.07.77h-.01ZM523.44,208.09c0-.51-.21-.92-.62-1.24s-.9-.47-1.5-.47c-.56,0-1.02.16-1.4.46s-.61.72-.7,1.26h4.23Z"/>
              <path class="cls-1" d="M530.8,205.11c.47-.23,1-.36,1.6-.36v2.09h-.6c-.71,0-1.25.14-1.6.45s-.55.81-.55,1.54v3.94h-2.25v-7.92h2.25v1.24c.29-.42.67-.75,1.14-.99h.01Z"/>
            </g>
          </g>
          <rect class="cls-3" x="423.91" y="210.43" width="84.03" height="1.02"/>
        </g>
        <g>
          <g>
            <g>
              <path class="cls-1" d="M386.24,231.2c-.58-.23-1.04-.56-1.38-.95-.33-.4-.52-.85-.56-1.32h2.27c.04.31.21.56.5.76.3.2.66.3,1.1.3s.76-.07,1-.22.36-.35.36-.59-.14-.46-.45-.58-.76-.27-1.4-.42c-.67-.14-1.21-.29-1.64-.45-.42-.16-.79-.39-1.1-.7-.31-.32-.47-.73-.47-1.27,0-.45.14-.85.43-1.2.29-.36.69-.65,1.22-.86.53-.2,1.16-.32,1.88-.32,1.06,0,1.92.23,2.55.71s.99,1.11,1.05,1.92h-2.16c-.03-.32-.18-.57-.45-.75-.27-.19-.61-.28-1.06-.28-.41,0-.72.07-.95.2-.21.13-.33.32-.33.56,0,.27.16.47.46.6s.77.28,1.4.42c.65.14,1.17.29,1.59.45s.78.39,1.09.71.47.73.47,1.27c0,.47-.14.87-.43,1.24-.29.36-.69.65-1.22.86s-1.15.31-1.86.31-1.39-.11-1.96-.35v-.02l.03-.02Z"/>
              <path class="cls-1" d="M393.71,222.22c-.27-.22-.39-.5-.39-.84s.13-.61.39-.84.6-.33.99-.33.73.11.99.33.39.5.39.84-.13.61-.39.84c-.27.22-.6.33-.99.33s-.73-.11-.99-.33ZM395.82,223.5v7.92h-2.25v-7.92h2.25Z"/>
              <path class="cls-1" d="M406.26,228.06h-6.52c.06.58.28,1.01.68,1.35s.88.48,1.47.48c.85,0,1.44-.32,1.79-.96h2.44c-.26.76-.75,1.39-1.48,1.88-.73.49-1.63.73-2.69.73-.87,0-1.64-.17-2.32-.5s-1.21-.81-1.59-1.44-.58-1.34-.58-2.15.19-1.54.57-2.16.9-1.1,1.58-1.43,1.46-.5,2.34-.5,1.6.17,2.28.48c.67.33,1.19.78,1.56,1.38.37.6.56,1.27.56,2.06,0,.29-.02.55-.07.77h-.01ZM403.99,226.72c0-.51-.21-.92-.62-1.24s-.9-.47-1.5-.47c-.56,0-1.02.16-1.4.46s-.61.72-.7,1.26h4.23Z"/>
            </g>
            <g>
              <path class="cls-1" d="M519.36,231.2c-.58-.23-1.04-.56-1.38-.95-.33-.4-.52-.85-.56-1.32h2.27c.04.31.21.56.5.76.3.2.66.3,1.1.3s.76-.07,1-.22.36-.35.36-.59-.14-.46-.45-.58-.76-.27-1.4-.42c-.67-.14-1.21-.29-1.64-.45-.42-.16-.79-.39-1.1-.7-.31-.32-.47-.73-.47-1.27,0-.45.14-.85.43-1.2.29-.36.69-.65,1.22-.86.53-.2,1.16-.32,1.88-.32,1.06,0,1.92.23,2.55.71s.99,1.11,1.05,1.92h-2.16c-.03-.32-.18-.57-.45-.75-.27-.19-.61-.28-1.06-.28-.41,0-.72.07-.95.2-.21.13-.33.32-.33.56,0,.27.16.47.46.6s.77.28,1.4.42c.65.14,1.17.29,1.59.45s.78.39,1.09.71.47.73.47,1.27c0,.47-.14.87-.43,1.24-.29.36-.69.65-1.22.86s-1.15.31-1.86.31-1.39-.11-1.96-.35v-.02l.03-.02Z"/>
              <path class="cls-1" d="M526.84,222.22c-.27-.22-.39-.5-.39-.84s.13-.61.39-.84.6-.33.99-.33.73.11.99.33.39.5.39.84-.13.61-.39.84c-.27.22-.6.33-.99.33s-.73-.11-.99-.33ZM528.94,223.5v7.92h-2.25v-7.92h2.25Z"/>
              <path class="cls-1" d="M539.38,228.06h-6.52c.06.58.28,1.01.68,1.35s.88.48,1.47.48c.85,0,1.44-.32,1.79-.96h2.44c-.26.76-.75,1.39-1.48,1.88-.73.49-1.63.73-2.69.73-.87,0-1.64-.17-2.32-.5s-1.21-.81-1.59-1.44-.58-1.34-.58-2.15.19-1.54.57-2.16.9-1.1,1.58-1.43,1.46-.5,2.34-.5,1.6.17,2.28.48c.67.33,1.19.78,1.56,1.38.37.6.56,1.27.56,2.06,0,.29-.02.55-.07.77h-.01ZM537.11,226.72c0-.51-.21-.92-.62-1.24s-.9-.47-1.5-.47c-.56,0-1.02.16-1.4.46s-.61.72-.7,1.26h4.23Z"/>
            </g>
          </g>
          <rect class="cls-3" x="423.81" y="229.06" width="84.03" height="1.02"/>
        </g>
        <g>
          <g>
            <path class="cls-1" d="M393.11,243.56h-6.52c.06.58.28,1.01.68,1.35s.88.48,1.47.48c.85,0,1.44-.32,1.79-.96h2.44c-.26.76-.75,1.39-1.48,1.88-.73.49-1.63.73-2.69.73-.87,0-1.64-.17-2.32-.5s-1.21-.81-1.59-1.44-.58-1.34-.58-2.15.19-1.54.57-2.16.9-1.1,1.58-1.43,1.46-.5,2.34-.5,1.6.17,2.28.48c.67.33,1.19.78,1.56,1.38.37.6.56,1.27.56,2.06,0,.29-.02.55-.07.77h-.01ZM390.84,242.22c0-.51-.21-.92-.62-1.24s-.9-.47-1.5-.47c-.56,0-1.02.16-1.4.46s-.61.72-.7,1.26h4.23Z"/>
            <path class="cls-1" d="M396.27,246.7c-.58-.23-1.04-.56-1.38-.95-.33-.4-.52-.85-.56-1.32h2.27c.04.31.21.56.5.76.3.2.66.3,1.1.3s.76-.07,1-.22.36-.35.36-.59-.14-.46-.45-.58-.76-.27-1.4-.42c-.67-.14-1.21-.29-1.64-.45-.42-.16-.79-.39-1.1-.7-.31-.32-.47-.73-.47-1.27,0-.45.14-.85.43-1.2.29-.36.69-.65,1.22-.86.53-.2,1.16-.32,1.88-.32,1.06,0,1.92.23,2.55.71s.99,1.11,1.05,1.92h-2.16c-.03-.32-.18-.57-.45-.75-.27-.19-.61-.28-1.06-.28-.41,0-.72.07-.95.2-.21.13-.33.32-.33.56,0,.27.16.47.46.6s.77.28,1.4.42c.65.14,1.17.29,1.59.45s.78.39,1.09.71.47.73.47,1.27c0,.47-.14.87-.43,1.24-.29.36-.69.65-1.22.86s-1.15.31-1.86.31-1.39-.11-1.96-.35v-.02l.03-.02Z"/>
          </g>
          <g>
            <path class="cls-1" d="M526.58,243.56h-6.52c.06.58.28,1.01.68,1.35s.88.48,1.47.48c.85,0,1.44-.32,1.79-.96h2.44c-.26.76-.75,1.39-1.48,1.88-.73.49-1.63.73-2.69.73-.87,0-1.64-.17-2.32-.5s-1.21-.81-1.59-1.44-.58-1.34-.58-2.15.19-1.54.57-2.16.9-1.1,1.58-1.43,1.46-.5,2.34-.5,1.6.17,2.28.48c.67.33,1.19.78,1.56,1.38.37.6.56,1.27.56,2.06,0,.29-.02.55-.07.77h-.01ZM524.31,242.22c0-.51-.21-.92-.62-1.24s-.9-.47-1.5-.47c-.56,0-1.02.16-1.4.46s-.61.72-.7,1.26h4.23Z"/>
            <path class="cls-1" d="M529.74,246.7c-.58-.23-1.04-.56-1.38-.95-.33-.4-.52-.85-.56-1.32h2.27c.04.31.21.56.5.76.3.2.66.3,1.1.3s.76-.07,1-.22.36-.35.36-.59-.14-.46-.45-.58-.76-.27-1.4-.42c-.67-.14-1.21-.29-1.64-.45-.42-.16-.79-.39-1.1-.7-.31-.32-.47-.73-.47-1.27,0-.45.14-.85.43-1.2.29-.36.69-.65,1.22-.86.53-.2,1.16-.32,1.88-.32,1.06,0,1.92.23,2.55.71s.99,1.11,1.05,1.92h-2.16c-.03-.32-.18-.57-.45-.75-.27-.19-.61-.28-1.06-.28-.41,0-.72.07-.95.2-.21.13-.33.32-.33.56,0,.27.16.47.46.6s.77.28,1.4.42c.65.14,1.17.29,1.59.45s.78.39,1.09.71.47.73.47,1.27c0,.47-.14.87-.43,1.24-.29.36-.69.65-1.22.86s-1.15.31-1.86.31-1.39-.11-1.96-.35v-.02l.03-.02Z"/>
          </g>
          <rect class="cls-3" x="423.91" y="244.57" width="84.03" height="1.02"/>
        </g>
      </g>
    </g>
    <path class="cls-2" d="M572.94,256.98h-220.63V68.12h220.63v188.86h0ZM353.23,256.28h218.78V68.82h-218.78v187.45h0Z"/>
  </g>
  <g>
    <text class="cls-5" transform="translate(10.76 365.72)"><tspan x="0" y="0">Schwar</tspan></text>
    <text class="cls-5" transform="translate(10.76 313.43)"><tspan x="0" y="0">Regelmäßige</tspan><tspan x="0" y="18.71">Verben</tspan></text>
    <text class="cls-5" transform="translate(35.14 350.35)"><tspan x="0" y="0">=</tspan></text>
  </g>
  <rect class="cls-2" x="287.84" y="302.94" width="250.31" height="130.3"/>
  <text class="cls-14" transform="translate(296.36 329.77)"><tspan class="cls-4"><tspan x="0" y="0">aber</tspan></tspan><tspan class="cls-4"><tspan x="0" y="20.69">Das ende des Verbs ist</tspan></tspan><tspan class="cls-13"><tspan x="0" y="41.38">d t m n</tspan></tspan><tspan class="cls-4"><tspan x="0" y="62.08">Wir ergänzen es</tspan></tspan><tspan class="cls-4" x="0" y="82.77">(</tspan><tspan class="cls-13" x="8.23" y="82.77">e</tspan><tspan class="cls-4" x="18.85" y="82.77">) = </tspan><tspan class="cls-15" x="46.38" y="82.77">du </tspan><tspan class="cls-4" x="73.37" y="82.77">/ </tspan><tspan class="cls-15" x="84.84" y="82.77">ihr </tspan><tspan class="cls-4" x="112.58" y="82.77">/ </tspan><tspan class="cls-15" x="124.05" y="82.77">er </tspan><tspan class="cls-4" x="145.71" y="82.77">/ </tspan><tspan class="cls-15" x="157.17" y="82.77">sie </tspan><tspan class="cls-4" x="186.16" y="82.77">/ </tspan><tspan class="cls-15" x="197.62" y="82.77">es</tspan></text>
  <rect class="cls-2" x="10.87" y="659.07" width="140.03" height="57.9"/>
  <text class="cls-14" transform="translate(19.39 680.77)"><tspan class="cls-13"><tspan x="0" y="0">X Z S ß</tspan></tspan><tspan class="cls-15" x="0" y="20.69">du </tspan><tspan class="cls-4" x="26.99" y="20.69" xml:space="preserve">=&gt;  st  =&gt;  t</tspan></text>
  <g>
    <text class="cls-6" transform="translate(292.57 513.16)"><tspan class="cls-11" x="0" y="0">Ich </tspan><tspan x="23.65" y="0">ordn</tspan><tspan class="cls-11" x="55.31" y="0">e</tspan><tspan class="cls-11" x="0" y="22.27">Du </tspan><tspan x="21.48" y="22.27">ordn</tspan><tspan class="cls-11" x="53.14" y="22.27">est</tspan><tspan class="cls-11" x="0" y="44.54">Er/Sie/Es </tspan><tspan x="62.85" y="44.54">ordn</tspan><tspan class="cls-11" x="94.5" y="44.54">et</tspan><tspan class="cls-11" x="0" y="66.81">Wir </tspan><tspan x="25.85" y="66.81">ordn</tspan><tspan class="cls-11" x="57.5" y="66.81">en</tspan><tspan class="cls-11" x="0" y="89.07">Ihr </tspan><tspan x="21.02" y="89.07">ordn</tspan><tspan class="cls-11" x="52.67" y="89.07">et</tspan><tspan class="cls-11" x="0" y="111.34">Sie </tspan><tspan x="23.16" y="111.34">ordn</tspan><tspan class="cls-11" x="54.82" y="111.34">en</tspan></text>
    <g>
      <text class="cls-7" transform="translate(299.71 469.99)"><tspan x="0" y="0">ordnen</tspan></text>
      <rect class="cls-9" x="292.57" y="449.1" width="80.87" height="32.76"/>
    </g>
  </g>
  <g>
    <text class="cls-6" transform="translate(412.59 513.16)"><tspan class="cls-11" x="0" y="0">Ich </tspan><tspan x="23.65" y="0">bad</tspan><tspan class="cls-11" x="50.69" y="0">e</tspan><tspan class="cls-11" x="0" y="22.27">Du </tspan><tspan x="21.48" y="22.27">bad</tspan><tspan class="cls-11" x="48.53" y="22.27">est</tspan><tspan class="cls-11" x="0" y="44.54">Er/Sie/Es </tspan><tspan x="62.85" y="44.54">bad</tspan><tspan class="cls-11" x="89.89" y="44.54">et</tspan><tspan class="cls-11" x="0" y="66.81">Wir </tspan><tspan x="25.85" y="66.81">bad</tspan><tspan class="cls-11" x="52.89" y="66.81">en</tspan><tspan class="cls-11" x="0" y="89.07">Ihr </tspan><tspan x="21.02" y="89.07">bad</tspan><tspan class="cls-11" x="48.06" y="89.07">et</tspan><tspan class="cls-11" x="0" y="111.34">Sie </tspan><tspan x="23.16" y="111.34">bad</tspan><tspan class="cls-11" x="50.2" y="111.34">en</tspan></text>
    <g>
      <text class="cls-7" transform="translate(419.73 469.99)"><tspan x="0" y="0">baden</tspan></text>
      <rect class="cls-9" x="412.59" y="449.1" width="72.6" height="32.76"/>
    </g>
  </g>
  <g>
    <text class="cls-6" transform="translate(529.77 513.16)"><tspan class="cls-11" x="0" y="0">Ich </tspan><tspan x="23.65" y="0">atm</tspan><tspan class="cls-11" x="51.76" y="0">e</tspan><tspan class="cls-11" x="0" y="22.27">Du </tspan><tspan x="21.48" y="22.27">atm</tspan><tspan class="cls-11" x="49.59" y="22.27">est</tspan><tspan class="cls-11"><tspan x="0" y="44.54">Er/Sie/Es atmet</tspan></tspan><tspan class="cls-11" x="0" y="66.81">Wir </tspan><tspan x="25.85" y="66.81">atm</tspan><tspan class="cls-11" x="53.95" y="66.81">en</tspan><tspan class="cls-11" x="0" y="89.07">Ihr </tspan><tspan x="21.02" y="89.07">atm</tspan><tspan class="cls-11" x="49.12" y="89.07">et</tspan><tspan class="cls-11" x="0" y="111.34">Sie </tspan><tspan x="23.16" y="111.34">atm</tspan><tspan class="cls-11" x="51.27" y="111.34">en</tspan></text>
    <g>
      <text class="cls-7" transform="translate(536.91 469.99)"><tspan x="0" y="0">atmen</tspan></text>
      <rect class="cls-9" x="529.77" y="449.1" width="73.71" height="32.76"/>
    </g>
  </g>
  <g>
    <text class="cls-6" transform="translate(646.15 513.16)"><tspan class="cls-11" x="0" y="0">Ich </tspan><tspan x="23.65" y="0">wart</tspan><tspan class="cls-11" x="54.42" y="0">e</tspan><tspan class="cls-11" x="0" y="22.27">Du </tspan><tspan x="21.48" y="22.27">wart</tspan><tspan class="cls-11" x="52.25" y="22.27">est</tspan><tspan class="cls-11" x="0" y="44.54">Er/Sie/Es </tspan><tspan x="62.85" y="44.54">wart</tspan><tspan class="cls-11" x="93.61" y="44.54">et</tspan><tspan class="cls-11" x="0" y="66.81">Wir </tspan><tspan x="25.85" y="66.81">wart</tspan><tspan class="cls-11" x="56.61" y="66.81">en</tspan><tspan class="cls-11" x="0" y="89.07">Ihr </tspan><tspan x="21.02" y="89.07">wart</tspan><tspan class="cls-11" x="51.78" y="89.07">et</tspan><tspan class="cls-11" x="0" y="111.34">Sie </tspan><tspan x="23.16" y="111.34">wart</tspan><tspan class="cls-11" x="53.92" y="111.34">en</tspan></text>
    <g>
      <text class="cls-7" transform="translate(653.29 469.99)"><tspan x="0" y="0">warten</tspan></text>
      <rect class="cls-9" x="646.15" y="449.1" width="80.87" height="32.76"/>
    </g>
  </g>
  <g>
    <text class="cls-6" transform="translate(10.76 442.7)"><tspan class="cls-11" x="0" y="0">ich </tspan><tspan x="23.65" y="0">komm</tspan><tspan class="cls-11" x="67.76" y="0">e</tspan><tspan class="cls-11" x="0" y="22.27">du </tspan><tspan x="20.97" y="22.27">komm</tspan><tspan class="cls-11" x="65.08" y="22.27">st</tspan><tspan class="cls-11" x="0" y="44.54">er</tspan><tspan class="cls-12" x="13.57" y="44.54">/</tspan><tspan class="cls-11" x="20.04" y="44.54">sie</tspan><tspan class="cls-12" x="39.18" y="44.54">/</tspan><tspan class="cls-11" x="45.64" y="44.54">es </tspan><tspan x="64.25" y="44.54">komm</tspan><tspan class="cls-11" x="108.37" y="44.54">t</tspan><tspan class="cls-11" x="0" y="66.81">wir </tspan><tspan x="23.45" y="66.81">komm</tspan><tspan class="cls-11" x="67.57" y="66.81">en</tspan><tspan class="cls-11" x="0" y="89.07">ihr </tspan><tspan x="21.02" y="89.07">komm</tspan><tspan class="cls-11" x="65.13" y="89.07">t</tspan><tspan class="cls-11" x="0" y="111.34">sie </tspan><tspan x="22.31" y="111.34">komm</tspan><tspan class="cls-11" x="66.42" y="111.34">en</tspan><tspan class="cls-11" x="0" y="133.61">Sie </tspan><tspan x="23.16" y="133.61">komm</tspan><tspan class="cls-11" x="67.27" y="133.61">en</tspan></text>
    <g>
      <text class="cls-7" transform="translate(17.9 400.98)"><tspan x="0" y="0">Kommen</tspan></text>
      <rect class="cls-9" x="10.76" y="380.09" width="97.08" height="32.76"/>
    </g>
  </g>
  <g>
    <text class="cls-6" transform="translate(142.59 442.7)"><tspan class="cls-11" x="0" y="0">ich </tspan><tspan x="23.65" y="0">sprech</tspan><tspan class="cls-11" x="70.28" y="0">e</tspan><tspan class="cls-11" x="0" y="22.27">du </tspan><tspan x="20.97" y="22.27">sprichs</tspan><tspan class="cls-11" x="70.33" y="22.27">t</tspan><tspan class="cls-11" x="0" y="44.54">er</tspan><tspan class="cls-12" x="13.57" y="44.54">/</tspan><tspan class="cls-11" x="20.04" y="44.54">sie</tspan><tspan class="cls-12" x="39.18" y="44.54">/</tspan><tspan class="cls-11" x="45.64" y="44.54">es </tspan><tspan x="64.25" y="44.54">sprich</tspan><tspan class="cls-11" x="106.37" y="44.54">t</tspan><tspan class="cls-11" x="0" y="66.81">wir </tspan><tspan x="23.45" y="66.81">sprech</tspan><tspan class="cls-11" x="70.08" y="66.81">en</tspan><tspan class="cls-11" x="0" y="89.07">ihr </tspan><tspan x="21.02" y="89.07">sprech</tspan><tspan class="cls-11" x="67.65" y="89.07">t</tspan><tspan class="cls-11" x="0" y="111.34">sie </tspan><tspan x="22.31" y="111.34">sprech</tspan><tspan class="cls-11" x="68.93" y="111.34">en</tspan><tspan class="cls-11" x="0" y="133.61">Sie </tspan><tspan x="23.16" y="133.61">sprech</tspan><tspan class="cls-11" x="69.79" y="133.61">en </tspan></text>
    <g>
      <text class="cls-7" transform="translate(149.73 400.98)"><tspan x="0" y="0">Sprechen</tspan></text>
      <rect class="cls-9" x="142.59" y="380.09" width="100.67" height="32.76"/>
    </g>
  </g>
  <g>
    <text class="cls-5" transform="translate(159.07 350.35)"><tspan x="0" y="0">=</tspan></text>
    <text class="cls-5" transform="translate(142.59 313.43)"><tspan x="0" y="0">Unregelmäßige</tspan><tspan x="0" y="18.71">Verben</tspan></text>
    <text class="cls-5" transform="translate(142.59 365.72)"><tspan x="0" y="0">stark</tspan></text>
  </g>
  <line class="cls-10" x1="130.53" y1="296.89" x2="130.53" y2="608.37"/>
  <line class="cls-8" x1="406.34" y1="440.55" x2="406.34" y2="631.07"/>
  <line class="cls-8" x1="522.8" y1="440.55" x2="522.8" y2="631.07"/>
  <line class="cls-8" x1="640.12" y1="440.55" x2="640.12" y2="631.07"/>
  <g>
    <text class="cls-6" transform="translate(167.08 723.13)"><tspan class="cls-11" x="0" y="0">ich </tspan><tspan x="23.65" y="0">grüß</tspan><tspan class="cls-11" x="56.49" y="0">e</tspan><tspan class="cls-11" x="0" y="22.27">du </tspan><tspan x="20.97" y="22.27">grüß</tspan><tspan class="cls-11" x="53.8" y="22.27">t</tspan><tspan class="cls-11" x="0" y="44.54">er/sie/es </tspan><tspan x="64.25" y="44.54">grüß</tspan><tspan class="cls-11" x="97.09" y="44.54">t</tspan><tspan class="cls-11" x="0" y="66.81">wir </tspan><tspan x="23.45" y="66.81">grüß</tspan><tspan class="cls-11" x="56.29" y="66.81">en</tspan><tspan class="cls-11" x="0" y="89.07">ihr </tspan><tspan x="21.02" y="89.07">grüß</tspan><tspan class="cls-11" x="53.86" y="89.07">t</tspan><tspan class="cls-11" x="0" y="111.34">sie/Sie </tspan><tspan x="48.77" y="111.34">grüß</tspan><tspan class="cls-11" x="81.6" y="111.34">en</tspan></text>
    <g>
      <text class="cls-7" transform="translate(174.22 679.96)"><tspan x="0" y="0">grüßen</tspan></text>
      <rect class="cls-9" x="167.08" y="659.07" width="80.87" height="32.76"/>
    </g>
  </g>
  <g>
    <text class="cls-6" transform="translate(287.1 723.13)"><tspan class="cls-11" x="0" y="0">ich </tspan><tspan x="23.65" y="0">tanz</tspan><tspan class="cls-11" x="53.03" y="0">e</tspan><tspan class="cls-11" x="0" y="22.27">du </tspan><tspan x="20.97" y="22.27">tanz</tspan><tspan class="cls-11" x="50.35" y="22.27">t</tspan><tspan class="cls-11" x="0" y="44.54">er/sie/es </tspan><tspan x="64.25" y="44.54">tanz</tspan><tspan class="cls-11" x="93.64" y="44.54">t</tspan><tspan class="cls-11" x="0" y="66.81">wir </tspan><tspan x="23.45" y="66.81">tanz</tspan><tspan class="cls-11" x="52.83" y="66.81">en	</tspan><tspan class="cls-11" x="0" y="89.07">ihr </tspan><tspan x="21.02" y="89.07">tanz</tspan><tspan class="cls-11" x="50.4" y="89.07">t</tspan><tspan class="cls-11" x="0" y="111.34">sie/Sie </tspan><tspan x="48.77" y="111.34">tanz</tspan><tspan class="cls-11" x="78.15" y="111.34">en</tspan></text>
    <g>
      <text class="cls-7" transform="translate(292.24 679.96)"><tspan x="0" y="0">tanzen</tspan></text>
      <rect class="cls-9" x="287.1" y="659.07" width="72.6" height="32.76"/>
    </g>
  </g>
  <g>
    <text class="cls-6" transform="translate(404.28 723.13)"><tspan class="cls-11" x="0" y="0">ich </tspan><tspan x="23.65" y="0">mix</tspan><tspan class="cls-11" x="48.46" y="0">e</tspan><tspan class="cls-11" x="0" y="22.27">du </tspan><tspan x="20.97" y="22.27">mix</tspan><tspan class="cls-11" x="45.77" y="22.27">t</tspan><tspan class="cls-11" x="0" y="44.54">er/sie/es </tspan><tspan x="64.25" y="44.54">mix</tspan><tspan class="cls-11" x="89.06" y="44.54">t</tspan><tspan class="cls-11" x="0" y="66.81">wir </tspan><tspan x="23.45" y="66.81">mix</tspan><tspan class="cls-11" x="48.26" y="66.81">en</tspan><tspan class="cls-11" x="0" y="89.07">ihr </tspan><tspan x="21.02" y="89.07">mix</tspan><tspan class="cls-11" x="45.83" y="89.07">t</tspan><tspan class="cls-11" x="0" y="111.34">sie/Sie </tspan><tspan x="48.77" y="111.34">mix</tspan><tspan class="cls-11" x="73.57" y="111.34">en</tspan></text>
    <g>
      <text class="cls-7" transform="translate(412.42 679.96)"><tspan x="0" y="0">mixen</tspan></text>
      <rect class="cls-9" x="404.28" y="659.07" width="73.71" height="32.76"/>
    </g>
  </g>
  <g>
    <text class="cls-6" transform="translate(520.66 723.13)"><tspan class="cls-11" x="0" y="0">ich </tspan><tspan x="23.65" y="0">les</tspan><tspan class="cls-11" x="42.8" y="0">e</tspan><tspan class="cls-11" x="0" y="22.27">du </tspan><tspan x="20.97" y="22.27">lies</tspan><tspan class="cls-11" x="43.81" y="22.27">t</tspan><tspan class="cls-11" x="0" y="44.54">er/sie/es </tspan><tspan x="64.25" y="44.54">lies</tspan><tspan class="cls-11" x="87.1" y="44.54">t</tspan><tspan class="cls-11" x="0" y="66.81">wir </tspan><tspan x="23.45" y="66.81">les</tspan><tspan class="cls-11" x="42.6" y="66.81">en</tspan><tspan class="cls-11" x="0" y="89.07">ihr </tspan><tspan x="21.02" y="89.07">les</tspan><tspan class="cls-11" x="40.16" y="89.07">t</tspan><tspan class="cls-11" x="0" y="111.34">sie/Sie </tspan><tspan x="48.77" y="111.34">les</tspan><tspan class="cls-11" x="67.91" y="111.34">en</tspan></text>
    <g>
      <text class="cls-7" transform="translate(527.8 679.96)"><tspan x="0" y="0">lesen</tspan></text>
      <rect class="cls-9" x="520.66" y="659.07" width="63.92" height="32.76"/>
    </g>
  </g>
  <line class="cls-8" x1="280.85" y1="659.07" x2="280.85" y2="849.59"/>
  <line class="cls-8" x1="397.31" y1="659.07" x2="397.31" y2="849.59"/>
  <line class="cls-8" x1="514.62" y1="659.07" x2="514.62" y2="849.59"/>
</svg>