<?xml version="1.0" encoding="UTF-8"?>
<svg xmlns="http://www.w3.org/2000/svg" viewBox="0 0 800 800">
  <defs>
    <style>
      .cls-1 {
        fill: #656565;
      }

      .cls-1, .cls-2, .cls-3, .cls-4, .cls-5, .cls-6, .cls-7, .cls-8, .cls-9, .cls-10, .cls-11, .cls-12, .cls-13, .cls-14, .cls-15, .cls-16, .cls-17 {
        stroke-width: 0px;
      }

      .cls-2 {
        fill: #673e23;
      }

      .cls-18 {
        letter-spacing: .19em;
      }

      .cls-19 {
        letter-spacing: .19em;
      }

      .cls-3 {
        fill: #252525;
      }

      .cls-4 {
        fill: #316130;
      }

      .cls-20 {
        letter-spacing: .17em;
      }

      .cls-21 {
        letter-spacing: .19em;
      }

      .cls-6 {
        fill: #89532e;
      }

      .cls-22 {
        letter-spacing: .18em;
      }

      .cls-7 {
        fill: #806a29;
      }

      .cls-23, .cls-24 {
        letter-spacing: .2em;
      }

      .cls-25 {
        letter-spacing: .2em;
      }

      .cls-8 {
        fill: #ab8d36;
      }

      .cls-9 {
        fill: #82ad38;
      }

      .cls-10, .cls-24, .cls-26 {
        fill: #fff;
      }

      .cls-27 {
        fill: #caa76c;
        font-size: 26px;
      }

      .cls-27, .cls-24, .cls-26 {
        font-family: SourceSansPro-Black, 'Source Sans Pro';
        font-weight: 800;
      }

      .cls-11 {
        fill: #e5cab5;
      }

      .cls-12 {
        fill: #878787;
      }

      .cls-28 {
        letter-spacing: .2em;
      }

      .cls-13 {
        fill: #96122c;
      }

      .cls-14 {
        fill: #c8183b;
      }

      .cls-15 {
        fill: #a18378;
      }

      .cls-16 {
        fill: #97b747;
      }

      .cls-24, .cls-26 {
        font-size: 12.34px;
      }

      .cls-17 {
        fill: #d7afa0;
      }

      .cls-29 {
        letter-spacing: .19em;
      }

      .cls-30 {
        letter-spacing: .2em;
      }
    </style>
  </defs>
  <g id="BACKGROUND">
    <rect class="cls-3" width="800" height="800"/>
  </g>
  <g id="OBJECTS">
    <g>
      <g>
        <rect class="cls-2" x="283.26" y="289.01" width="48.44" height="8" transform="translate(14.47 600.49) rotate(-90)"/>
        <g>
          <rect class="cls-2" x="395.8" y="272.95" width="8" height="462.72"/>
          <g>
            <path class="cls-9" d="M168.64,268.87l5.61-19.68c-14.69,7.67-5.61,19.68-5.61,19.68Z"/>
            <path class="cls-16" d="M174.25,249.19l-5.61,19.68s14.04-5.42,5.61-19.68Z"/>
          </g>
          <g>
            <path class="cls-9" d="M380.27,304.93l-14.25-14.7c-.69,16.55,14.25,14.7,14.25,14.7Z"/>
            <path class="cls-16" d="M366.03,290.24l14.25,14.7s2.32-14.87-14.25-14.7Z"/>
          </g>
          <g>
            <path class="cls-9" d="M572.01,440.45l14.21-14.73s-14.94-1.82-14.21,14.73Z"/>
            <path class="cls-16" d="M586.22,425.72l-14.21,14.73c16.57.14,14.21-14.73,14.21-14.73Z"/>
          </g>
          <g>
            <path class="cls-9" d="M163.19,266.13l-13.16-15.68c-1.88,16.46,13.16,15.68,13.16,15.68Z"/>
            <path class="cls-16" d="M150.03,250.45l13.16,15.68s3.38-14.67-13.16-15.68Z"/>
          </g>
          <g>
            <path class="cls-9" d="M162.98,275.64l-19.44-6.4c7.08,14.98,19.44,6.4,19.44,6.4Z"/>
            <path class="cls-16" d="M143.54,269.24l19.44,6.4s-4.85-14.25-19.44-6.4Z"/>
          </g>
          <g>
            <path class="cls-9" d="M640.48,465.5l18.3,9.16c-4.82-15.85-18.3-9.16-18.3-9.16Z"/>
            <path class="cls-16" d="M658.78,474.66l-18.3-9.16s2.73,14.8,18.3,9.16Z"/>
          </g>
          <g>
            <path class="cls-9" d="M573.08,281.18l-7.43,19.07c15.34-6.26,7.43-19.07,7.43-19.07Z"/>
            <path class="cls-16" d="M565.66,300.25l7.43-19.07s-14.49,4.08-7.43,19.07Z"/>
          </g>
          <g>
            <path class="cls-9" d="M575.91,281.27l14.54,14.4c.35-16.57-14.54-14.4-14.54-14.4Z"/>
            <path class="cls-16" d="M590.46,295.67l-14.54-14.4s-2.02,14.92,14.54,14.4Z"/>
          </g>
          <g>
            <path class="cls-9" d="M419.38,476.51l19.46,6.34c-7.12-14.96-19.46-6.34-19.46-6.34Z"/>
            <path class="cls-16" d="M438.84,482.85l-19.46-6.34s4.89,14.24,19.46,6.34Z"/>
          </g>
          <g>
            <path class="cls-9" d="M419.31,473.68l13.56-15.33c-16.56.58-13.56,15.33-13.56,15.33Z"/>
            <path class="cls-16" d="M432.87,458.35l-13.56,15.33s15.01,1.17,13.56-15.33Z"/>
          </g>
          <g>
            <path class="cls-9" d="M654.36,458.24l13.17,15.66c1.86-16.46-13.17-15.66-13.17-15.66Z"/>
            <path class="cls-16" d="M654.36,458.24s-3.37,14.67,13.17,15.66l-13.17-15.66Z"/>
          </g>
          <g>
            <path class="cls-9" d="M462.8,281.21l-14.18,14.76c16.57.11,14.18-14.76,14.18-14.76Z"/>
            <path class="cls-16" d="M448.62,295.97l14.18-14.76s-14.95-1.79-14.18,14.76Z"/>
          </g>
          <g>
            <path class="cls-2" d="M366.08,708.77c-5.52,9.11-10.29,16.98-10.29,26.9h8c0-7.69,4.03-14.33,9.13-22.75,8.25-13.61,19.54-32.25,19.54-66.78V226.52c0-31.16-20.02-33.97-20.87-34.07l-1.02,7.93c.57.09,13.9,2.36,13.9,26.14v419.62c0,32.29-10.19,49.12-18.38,62.64Z"/>
            <path class="cls-2" d="M429.04,200.38l-.54-3.96-.49-3.97c-.85.1-20.87,2.92-20.87,34.07v419.62c0,34.53,11.29,53.17,19.54,66.78,5.1,8.42,9.13,15.07,9.13,22.75h8c0-9.92-4.77-17.79-10.29-26.9-8.19-13.52-18.38-30.34-18.38-62.64V226.52c0-23.78,13.33-26.05,13.9-26.14Z"/>
          </g>
          <g>
            <path class="cls-2" d="M568.38,482.52v-86.39c0-18.4-13.75-24.44-21.02-25.06l-.68,7.97c.56.05,13.7,1.36,13.7,17.09v86.39h8Z"/>
            <path class="cls-2" d="M582.11,379.03l-.71-7.97c-7.27.62-21.02,6.67-21.02,25.06v86.39h8v-86.39c0-15.29,12.32-16.96,13.73-17.09Z"/>
          </g>
          <path class="cls-2" d="M641.82,334.04v-32.73c0-17.84-14.95-32.36-33.32-32.36H191.1c-18.37,0-33.32,14.52-33.32,32.36v32.73h8v-32.73c0-13.43,11.36-24.36,25.32-24.36h417.4c13.96,0,25.32,10.93,25.32,24.36v32.73h8Z"/>
          <g>
            <g>
              <circle class="cls-4" cx="484.47" cy="186.17" r="55.41"/>
              <g>
                <path class="cls-9" d="M444.16,153.77l-19.91,4.74c13.88,9.06,19.91-4.74,19.91-4.74Z"/>
                <path class="cls-16" d="M424.24,158.5l19.91-4.74s-11.6-9.6-19.91,4.74Z"/>
              </g>
              <g>
                <path class="cls-9" d="M436.1,195l-20.33,2.36c12.71,10.62,20.33-2.36,20.33-2.36Z"/>
                <path class="cls-16" d="M415.77,197.36l20.33-2.36s-10.39-10.89-20.33,2.36Z"/>
              </g>
              <g>
                <path class="cls-9" d="M434.08,201.7l-8.83,18.46c15.76-5.1,8.83-18.46,8.83-18.46Z"/>
                <path class="cls-16" d="M425.25,220.17l8.83-18.46s-14.75,2.99-8.83,18.46Z"/>
              </g>
              <g>
                <path class="cls-9" d="M444.16,208.42l-8.83,18.46c15.76-5.1,8.83-18.46,8.83-18.46Z"/>
                <path class="cls-16" d="M435.33,226.88l8.83-18.46s-14.75,2.99-8.83,18.46Z"/>
              </g>
              <g>
                <path class="cls-9" d="M436.69,166.58l-20.33,2.36c12.71,10.62,20.33-2.36,20.33-2.36Z"/>
                <path class="cls-16" d="M416.36,168.94l20.33-2.36s-10.39-10.89-20.33,2.36Z"/>
              </g>
              <g>
                <path class="cls-9" d="M434.22,173.12l-12.71,16.04c16.5-1.47,12.71-16.04,12.71-16.04Z"/>
                <path class="cls-16" d="M421.51,189.16l12.71-16.04s-15.05-.36-12.71,16.04Z"/>
              </g>
              <g>
                <path class="cls-9" d="M534.96,189.94l14.1,14.83c.85-16.55-14.1-14.83-14.1-14.83Z"/>
                <path class="cls-16" d="M534.96,189.94s-2.47,14.85,14.1,14.83l-14.1-14.83Z"/>
              </g>
              <g>
                <path class="cls-9" d="M527.62,162.54l18.07-9.62c-15.71-5.25-18.07,9.62-18.07,9.62Z"/>
                <path class="cls-16" d="M545.68,152.92l-18.07,9.62s13.65,6.35,18.07-9.62Z"/>
              </g>
              <g>
                <path class="cls-9" d="M525.85,155.59l8-18.84c-15.52,5.8-8,18.84-8,18.84Z"/>
                <path class="cls-16" d="M533.85,136.75l-8,18.84s14.61-3.64,8-18.84Z"/>
              </g>
              <g>
                <path class="cls-9" d="M519.92,128.67c-12.82,10.5-1.48,20.41-1.48,20.41l1.48-20.41Z"/>
                <path class="cls-16" d="M519.92,128.67l-1.48,20.41s12.65-8.17,1.48-20.41Z"/>
              </g>
              <g>
                <path class="cls-9" d="M534.57,186.12l20.11-3.83c-13.45-9.68-20.11,3.83-20.11,3.83Z"/>
                <path class="cls-16" d="M554.68,182.3l-20.11,3.83s11.15,10.11,20.11-3.83Z"/>
              </g>
              <g>
                <path class="cls-9" d="M536.25,179.47l9.61-18.07c-15.97,4.42-9.61,18.07-9.61,18.07Z"/>
                <path class="cls-16" d="M545.87,161.4l-9.61,18.07s14.87-2.35,9.61-18.07Z"/>
              </g>
              <g>
                <path class="cls-9" d="M447.79,220.75l.25,20.47c11.88-11.55-.25-20.47-.25-20.47Z"/>
                <path class="cls-16" d="M447.79,220.75s-11.91,9.21.25,20.47l-.25-20.47Z"/>
              </g>
              <g>
                <path class="cls-9" d="M486.18,236.07l-7.43,19.07c15.34-6.26,7.43-19.07,7.43-19.07Z"/>
                <path class="cls-16" d="M478.75,255.15l7.43-19.07s-14.49,4.08-7.43,19.07Z"/>
              </g>
              <g>
                <path class="cls-9" d="M489.85,237.44l14.54,14.4c.35-16.57-14.54-14.4-14.54-14.4Z"/>
                <path class="cls-16" d="M504.4,251.84l-14.54-14.4s-2.02,14.92,14.54,14.4Z"/>
              </g>
              <g>
                <path class="cls-9" d="M500.29,235.63l19.74,5.41c-7.82-14.61-19.74-5.41-19.74-5.41Z"/>
                <path class="cls-16" d="M520.02,241.04l-19.74-5.41s5.56,13.99,19.74,5.41Z"/>
              </g>
              <g>
                <path class="cls-9" d="M473.92,135.09l-15.71-13.12c1.05,16.54,15.71,13.12,15.71,13.12Z"/>
                <path class="cls-16" d="M458.22,121.97l15.71,13.12s.75-15.04-15.71-13.12Z"/>
              </g>
              <g>
                <path class="cls-9" d="M464.57,136.79l-20.42-1.41c10.55,12.78,20.42,1.41,20.42,1.41Z"/>
                <path class="cls-16" d="M444.16,135.38l20.42,1.41s-8.21-12.62-20.42-1.41Z"/>
              </g>
              <g>
                <path class="cls-9" d="M449.8,150.29l-15.87-12.92c1.26,16.52,15.87,12.92,15.87,12.92Z"/>
                <path class="cls-16" d="M433.92,137.37l15.87,12.92s.56-15.04-15.87-12.92Z"/>
              </g>
              <g>
                <path class="cls-9" d="M498.86,137.12l17.81-10.08c-15.85-4.84-17.81,10.08-17.81,10.08Z"/>
                <path class="cls-16" d="M516.67,127.03l-17.81,10.08s13.81,5.99,17.81-10.08Z"/>
              </g>
              <g>
                <path class="cls-9" d="M486.49,119.67c-4.42,15.97,10.55,17.54,10.55,17.54l-10.55-17.54Z"/>
                <path class="cls-16" d="M486.49,119.67l10.55,17.54s5.63-13.96-10.55-17.54Z"/>
              </g>
              <g>
                <path class="cls-9" d="M477.32,116.16c-10.1,13.14,3.19,20.22,3.19,20.22l-3.19-20.22Z"/>
                <path class="cls-16" d="M477.32,116.16l3.19,20.22s10.46-10.82-3.19-20.22Z"/>
              </g>
              <g>
                <path class="cls-9" d="M460.6,229.77l-7.89,18.89c15.49-5.89,7.89-18.89,7.89-18.89Z"/>
                <path class="cls-16" d="M452.71,248.65l7.89-18.89s-14.58,3.73-7.89,18.89Z"/>
              </g>
              <g>
                <path class="cls-9" d="M465.1,233.39l9.77,17.98c5.11-15.76-9.77-17.98-9.77-17.98Z"/>
                <path class="cls-16" d="M465.1,233.39s-6.23,13.7,9.77,17.98l-9.77-17.98Z"/>
              </g>
              <g>
                <path class="cls-9" d="M532.01,200.04l8.36,18.68c6.31-15.32-8.36-18.68-8.36-18.68Z"/>
                <path class="cls-16" d="M532.01,200.04s-7.27,13.18,8.36,18.68l-8.36-18.68Z"/>
              </g>
              <g>
                <path class="cls-9" d="M515.27,223.15l12.43,16.26c2.62-16.36-12.43-16.26-12.43-16.26Z"/>
                <path class="cls-16" d="M515.27,223.15s-4.04,14.5,12.43,16.26l-12.43-16.26Z"/>
              </g>
              <g>
                <path class="cls-9" d="M520.47,220.5l20.35,2.15c-10.08-13.15-20.35-2.15-20.35-2.15Z"/>
                <path class="cls-16" d="M540.83,222.65l-20.35-2.15s7.75,12.91,20.35,2.15Z"/>
              </g>
            </g>
            <g>
              <circle class="cls-4" cx="315.14" cy="186.17" r="55.41"/>
              <g>
                <path class="cls-9" d="M274.83,153.77l-19.91,4.74c13.88,9.06,19.91-4.74,19.91-4.74Z"/>
                <path class="cls-16" d="M254.92,158.5l19.91-4.74s-11.6-9.6-19.91,4.74Z"/>
              </g>
              <g>
                <path class="cls-9" d="M266.78,195l-20.33,2.36c12.71,10.62,20.33-2.36,20.33-2.36Z"/>
                <path class="cls-16" d="M246.44,197.36l20.33-2.36s-10.39-10.89-20.33,2.36Z"/>
              </g>
              <g>
                <path class="cls-9" d="M264.76,201.7l-8.83,18.46c15.76-5.1,8.83-18.46,8.83-18.46Z"/>
                <path class="cls-16" d="M255.92,220.17l8.83-18.46s-14.75,2.99-8.83,18.46Z"/>
              </g>
              <g>
                <path class="cls-9" d="M274.83,208.42l-8.83,18.46c15.76-5.1,8.83-18.46,8.83-18.46Z"/>
                <path class="cls-16" d="M266,226.88l8.83-18.46s-14.75,2.99-8.83,18.46Z"/>
              </g>
              <g>
                <path class="cls-9" d="M267.37,166.58l-20.33,2.36c12.71,10.62,20.33-2.36,20.33-2.36Z"/>
                <path class="cls-16" d="M247.03,168.94l20.33-2.36s-10.39-10.89-20.33,2.36Z"/>
              </g>
              <g>
                <path class="cls-9" d="M264.89,173.12l-12.71,16.04c16.5-1.47,12.71-16.04,12.71-16.04Z"/>
                <path class="cls-16" d="M252.18,189.16l12.71-16.04s-15.05-.36-12.71,16.04Z"/>
              </g>
              <g>
                <path class="cls-9" d="M365.63,189.94l14.1,14.83c.85-16.55-14.1-14.83-14.1-14.83Z"/>
                <path class="cls-16" d="M365.63,189.94s-2.47,14.85,14.1,14.83l-14.1-14.83Z"/>
              </g>
              <g>
                <path class="cls-9" d="M358.29,162.54l18.07-9.62c-15.71-5.25-18.07,9.62-18.07,9.62Z"/>
                <path class="cls-16" d="M376.35,152.92l-18.07,9.62s13.65,6.35,18.07-9.62Z"/>
              </g>
              <g>
                <path class="cls-9" d="M356.52,155.59l8-18.84c-15.52,5.8-8,18.84-8,18.84Z"/>
                <path class="cls-16" d="M364.52,136.75l-8,18.84s14.61-3.64,8-18.84Z"/>
              </g>
              <g>
                <path class="cls-9" d="M350.59,128.67c-12.82,10.5-1.48,20.41-1.48,20.41l1.48-20.41Z"/>
                <path class="cls-16" d="M350.59,128.67l-1.48,20.41s12.65-8.17,1.48-20.41Z"/>
              </g>
              <g>
                <path class="cls-9" d="M365.24,186.12l20.11-3.83c-13.45-9.68-20.11,3.83-20.11,3.83Z"/>
                <path class="cls-16" d="M385.35,182.3l-20.11,3.83s11.15,10.11,20.11-3.83Z"/>
              </g>
              <g>
                <path class="cls-9" d="M366.92,179.47l9.61-18.07c-15.97,4.42-9.61,18.07-9.61,18.07Z"/>
                <path class="cls-16" d="M376.54,161.4l-9.61,18.07s14.87-2.35,9.61-18.07Z"/>
              </g>
              <g>
                <path class="cls-9" d="M278.46,220.75l.25,20.47c11.88-11.55-.25-20.47-.25-20.47Z"/>
                <path class="cls-16" d="M278.46,220.75s-11.91,9.21.25,20.47l-.25-20.47Z"/>
              </g>
              <g>
                <path class="cls-9" d="M316.85,236.07l-7.43,19.07c15.34-6.26,7.43-19.07,7.43-19.07Z"/>
                <path class="cls-16" d="M309.42,255.15l7.43-19.07s-14.49,4.08-7.43,19.07Z"/>
              </g>
              <g>
                <path class="cls-9" d="M320.52,237.44l14.54,14.4c.35-16.57-14.54-14.4-14.54-14.4Z"/>
                <path class="cls-16" d="M335.07,251.84l-14.54-14.4s-2.02,14.92,14.54,14.4Z"/>
              </g>
              <g>
                <path class="cls-9" d="M330.96,235.63l19.74,5.41c-7.82-14.61-19.74-5.41-19.74-5.41Z"/>
                <path class="cls-16" d="M350.69,241.04l-19.74-5.41s5.56,13.99,19.74,5.41Z"/>
              </g>
              <g>
                <path class="cls-9" d="M304.59,135.09l-15.71-13.12c1.04,16.54,15.71,13.12,15.71,13.12Z"/>
                <path class="cls-16" d="M288.89,121.97l15.71,13.12s.75-15.04-15.71-13.12Z"/>
              </g>
              <g>
                <path class="cls-9" d="M295.25,136.79l-20.42-1.41c10.55,12.78,20.42,1.41,20.42,1.41Z"/>
                <path class="cls-16" d="M274.83,135.38l20.42,1.41s-8.21-12.62-20.42-1.41Z"/>
              </g>
              <g>
                <path class="cls-9" d="M280.47,150.29l-15.87-12.92c1.26,16.52,15.87,12.92,15.87,12.92Z"/>
                <path class="cls-16" d="M264.59,137.37l15.87,12.92s.56-15.04-15.87-12.92Z"/>
              </g>
              <g>
                <path class="cls-9" d="M329.53,137.12l17.81-10.08c-15.85-4.84-17.81,10.08-17.81,10.08Z"/>
                <path class="cls-16" d="M347.34,127.03l-17.81,10.08s13.81,5.99,17.81-10.08Z"/>
              </g>
              <g>
                <path class="cls-9" d="M317.16,119.67c-4.42,15.97,10.55,17.54,10.55,17.54l-10.55-17.54Z"/>
                <path class="cls-16" d="M317.16,119.67l10.55,17.54s5.63-13.96-10.55-17.54Z"/>
              </g>
              <g>
                <path class="cls-9" d="M307.99,116.16c-10.1,13.14,3.19,20.22,3.19,20.22l-3.19-20.22Z"/>
                <path class="cls-16" d="M307.99,116.16l3.19,20.22s10.46-10.82-3.19-20.22Z"/>
              </g>
              <g>
                <path class="cls-9" d="M291.27,229.77l-7.89,18.89c15.49-5.89,7.89-18.89,7.89-18.89Z"/>
                <path class="cls-16" d="M283.38,248.65l7.89-18.89s-14.58,3.73-7.89,18.89Z"/>
              </g>
              <g>
                <path class="cls-9" d="M295.77,233.39l9.77,17.98c5.11-15.76-9.77-17.98-9.77-17.98Z"/>
                <path class="cls-16" d="M295.77,233.39s-6.23,13.7,9.77,17.98l-9.77-17.98Z"/>
              </g>
              <g>
                <path class="cls-9" d="M362.68,200.04l8.36,18.68c6.31-15.32-8.36-18.68-8.36-18.68Z"/>
                <path class="cls-16" d="M362.68,200.04s-7.27,13.18,8.36,18.68l-8.36-18.68Z"/>
              </g>
              <g>
                <path class="cls-9" d="M345.94,223.15l12.43,16.26c2.62-16.36-12.43-16.26-12.43-16.26Z"/>
                <path class="cls-16" d="M345.94,223.15s-4.04,14.5,12.43,16.26l-12.43-16.26Z"/>
              </g>
              <g>
                <path class="cls-9" d="M351.14,220.5l20.35,2.15c-10.08-13.15-20.35-2.15-20.35-2.15Z"/>
                <path class="cls-16" d="M371.5,222.65l-20.35-2.15s7.75,12.91,20.35,2.15Z"/>
              </g>
            </g>
            <g>
              <circle class="cls-4" cx="564.38" cy="531.9" r="55.41"/>
              <g>
                <path class="cls-9" d="M524.07,499.49l-19.91,4.74c13.88,9.06,19.91-4.74,19.91-4.74Z"/>
                <path class="cls-16" d="M504.16,504.23l19.91-4.74s-11.6-9.6-19.91,4.74Z"/>
              </g>
              <g>
                <path class="cls-9" d="M516.02,540.72l-20.33,2.36c12.71,10.62,20.33-2.36,20.33-2.36Z"/>
                <path class="cls-16" d="M495.69,543.08l20.33-2.36s-10.39-10.89-20.33,2.36Z"/>
              </g>
              <g>
                <path class="cls-9" d="M514,547.43l-8.83,18.46c15.76-5.1,8.83-18.46,8.83-18.46Z"/>
                <path class="cls-16" d="M505.17,565.89l8.83-18.46s-14.75,2.99-8.83,18.46Z"/>
              </g>
              <g>
                <path class="cls-9" d="M524.07,554.15l-8.83,18.46c15.76-5.1,8.83-18.46,8.83-18.46Z"/>
                <path class="cls-16" d="M515.24,572.61l8.83-18.46s-14.75,2.99-8.83,18.46Z"/>
              </g>
              <g>
                <path class="cls-9" d="M516.61,512.31l-20.33,2.36c12.71,10.62,20.33-2.36,20.33-2.36Z"/>
                <path class="cls-16" d="M496.28,514.67l20.33-2.36s-10.39-10.89-20.33,2.36Z"/>
              </g>
              <g>
                <path class="cls-9" d="M514.13,518.85l-12.71,16.04c16.5-1.47,12.71-16.04,12.71-16.04Z"/>
                <path class="cls-16" d="M501.42,534.89l12.71-16.04s-15.05-.36-12.71,16.04Z"/>
              </g>
              <g>
                <path class="cls-9" d="M614.88,535.67l14.1,14.83c.85-16.55-14.1-14.83-14.1-14.83Z"/>
                <path class="cls-16" d="M614.88,535.67s-2.46,14.85,14.1,14.83l-14.1-14.83Z"/>
              </g>
              <g>
                <path class="cls-9" d="M607.53,508.26l18.07-9.62c-15.71-5.25-18.07,9.62-18.07,9.62Z"/>
                <path class="cls-16" d="M625.6,498.65l-18.07,9.62s13.65,6.35,18.07-9.62Z"/>
              </g>
              <g>
                <path class="cls-9" d="M605.77,501.32l8-18.84c-15.52,5.8-8,18.84-8,18.84Z"/>
                <path class="cls-16" d="M613.76,482.48l-8,18.84s14.61-3.64,8-18.84Z"/>
              </g>
              <g>
                <path class="cls-9" d="M599.83,474.4c-12.82,10.5-1.48,20.41-1.48,20.41l1.48-20.41Z"/>
                <path class="cls-16" d="M599.83,474.4l-1.48,20.41s12.65-8.17,1.48-20.41Z"/>
              </g>
              <g>
                <path class="cls-9" d="M614.49,531.85l20.11-3.83c-13.45-9.68-20.11,3.83-20.11,3.83Z"/>
                <path class="cls-16" d="M634.59,528.03l-20.11,3.83s11.15,10.11,20.11-3.83Z"/>
              </g>
              <g>
                <path class="cls-9" d="M616.17,525.2l9.61-18.07c-15.97,4.42-9.61,18.07-9.61,18.07Z"/>
                <path class="cls-16" d="M625.78,507.13l-9.61,18.07s14.87-2.35,9.61-18.07Z"/>
              </g>
              <g>
                <path class="cls-9" d="M527.7,566.48l.25,20.47c11.88-11.55-.25-20.47-.25-20.47Z"/>
                <path class="cls-16" d="M527.7,566.48s-11.91,9.21.25,20.47l-.25-20.47Z"/>
              </g>
              <g>
                <path class="cls-9" d="M566.09,581.8l-7.43,19.07c15.34-6.26,7.43-19.07,7.43-19.07Z"/>
                <path class="cls-16" d="M558.66,600.87l7.43-19.07s-14.49,4.08-7.43,19.07Z"/>
              </g>
              <g>
                <path class="cls-9" d="M569.77,583.16l14.54,14.4c.35-16.57-14.54-14.4-14.54-14.4Z"/>
                <path class="cls-16" d="M584.31,597.56l-14.54-14.4s-2.02,14.92,14.54,14.4Z"/>
              </g>
              <g>
                <path class="cls-9" d="M580.2,581.36l19.74,5.41c-7.82-14.61-19.74-5.41-19.74-5.41Z"/>
                <path class="cls-16" d="M599.94,586.77l-19.74-5.41s5.56,13.99,19.74,5.41Z"/>
              </g>
              <g>
                <path class="cls-9" d="M553.84,480.81l-15.71-13.12c1.04,16.54,15.71,13.12,15.71,13.12Z"/>
                <path class="cls-16" d="M538.13,467.69l15.71,13.12s.75-15.04-15.71-13.12Z"/>
              </g>
              <g>
                <path class="cls-9" d="M544.49,482.52l-20.42-1.41c10.55,12.78,20.42,1.41,20.42,1.41Z"/>
                <path class="cls-16" d="M524.07,481.11l20.42,1.41s-8.21-12.62-20.42-1.41Z"/>
              </g>
              <g>
                <path class="cls-9" d="M529.71,496.02l-15.87-12.92c1.26,16.52,15.87,12.92,15.87,12.92Z"/>
                <path class="cls-16" d="M513.84,483.1l15.87,12.92s.56-15.04-15.87-12.92Z"/>
              </g>
              <g>
                <path class="cls-9" d="M578.77,482.84l17.81-10.08c-15.85-4.84-17.81,10.08-17.81,10.08Z"/>
                <path class="cls-16" d="M596.58,472.76l-17.81,10.08s13.81,5.99,17.81-10.08Z"/>
              </g>
              <g>
                <path class="cls-9" d="M566.4,465.4c-4.42,15.97,10.55,17.54,10.55,17.54l-10.55-17.54Z"/>
                <path class="cls-16" d="M566.4,465.4l10.55,17.54s5.63-13.96-10.55-17.54Z"/>
              </g>
              <g>
                <path class="cls-9" d="M557.23,461.89c-10.1,13.14,3.19,20.22,3.19,20.22l-3.19-20.22Z"/>
                <path class="cls-16" d="M557.23,461.89l3.19,20.22s10.46-10.83-3.19-20.22Z"/>
              </g>
              <g>
                <path class="cls-9" d="M540.51,575.49l-7.89,18.89c15.49-5.89,7.89-18.89,7.89-18.89Z"/>
                <path class="cls-16" d="M532.62,594.38l7.89-18.89s-14.58,3.73-7.89,18.89Z"/>
              </g>
              <g>
                <path class="cls-9" d="M545.01,579.12l9.77,17.98c5.11-15.76-9.77-17.98-9.77-17.98Z"/>
                <path class="cls-16" d="M554.78,597.1l-9.77-17.98s-6.23,13.7,9.77,17.98Z"/>
              </g>
              <g>
                <path class="cls-9" d="M611.93,545.76l8.36,18.68c6.31-15.32-8.36-18.68-8.36-18.68Z"/>
                <path class="cls-16" d="M611.93,545.76s-7.27,13.18,8.36,18.68l-8.36-18.68Z"/>
              </g>
              <g>
                <path class="cls-9" d="M595.18,568.87l12.43,16.26c2.62-16.36-12.43-16.26-12.43-16.26Z"/>
                <path class="cls-16" d="M595.18,568.87s-4.04,14.5,12.43,16.26l-12.43-16.26Z"/>
              </g>
              <g>
                <path class="cls-9" d="M600.39,566.22l20.35,2.15c-10.08-13.15-20.35-2.15-20.35-2.15Z"/>
                <path class="cls-16" d="M620.74,568.37l-20.35-2.15s7.75,12.91,20.35,2.15Z"/>
              </g>
            </g>
            <g>
              <g>
                <path class="cls-17" d="M290.95,200.81h2.25v-12.67h-3.64c-1.89,0-3.63,1.04-4.53,2.71-.83,1.54-.82,3.39.03,4.92l1.28,2.31c.93,1.68,2.7,2.72,4.61,2.72Z"/>
                <path class="cls-17" d="M343.94,198.09l1.28-2.31c.85-1.53.86-3.38.03-4.92-.9-1.67-2.64-2.71-4.53-2.71h-3.64v12.67h2.25c1.92,0,3.69-1.04,4.61-2.72Z"/>
              </g>
              <path class="cls-11" d="M315.14,221.65c13.73,0,24.86-11.13,24.86-24.86v-21.31c0-13.73-11.13-24.86-24.86-24.86h0c-13.73,0-24.86,11.13-24.86,24.86v21.31c0,13.73,11.13,24.86,24.86,24.86h0Z"/>
              <g>
                <g>
                  <path class="cls-5" d="M306.79,189.74c0-1.37-1.11-2.49-2.49-2.49s-2.49,1.11-2.49,2.49,1.11,2.49,2.49,2.49,2.49-1.11,2.49-2.49Z"/>
                  <path class="cls-10" d="M306.32,188.65c0-.51-.41-.92-.92-.92s-.92.41-.92.92.41.92.92.92.92-.41.92-.92Z"/>
                </g>
                <g>
                  <path class="cls-5" d="M328.46,189.74c0-1.37-1.11-2.49-2.49-2.49s-2.49,1.11-2.49,2.49,1.11,2.49,2.49,2.49,2.49-1.11,2.49-2.49Z"/>
                  <path class="cls-10" d="M327.98,188.65c0-.51-.41-.92-.92-.92s-.92.41-.92.92.41.92.92.92.92-.41.92-.92Z"/>
                </g>
                <path class="cls-12" d="M306.97,182.58h-6.19c-1.67,0-3.02,1.35-3.02,3.02v.53h10.66v-2.1c0-.8-.65-1.45-1.45-1.45Z"/>
                <path class="cls-12" d="M332.51,185.6c0-1.67-1.35-3.02-3.02-3.02h-6.19c-.8,0-1.45.65-1.45,1.45v2.1h10.66v-.53Z"/>
              </g>
              <path class="cls-17" d="M317.77,203.2h0c1.03-.64,1.51-1.55,1.34-2.44-.02-.08-.2-.22-.48-.38-2.17-1.27-4.85-1.27-7.02,0-.28.16-.46.3-.48.38-.17.89.31,1.8,1.34,2.44,1.68.76,3.6.76,5.28,0Z"/>
              <path class="cls-12" d="M317.74,203.77h-5.21c-2.91,0-5.27,2.36-5.27,5.27h15.75c0-2.91-2.36-5.27-5.27-5.27Z"/>
              <path class="cls-12" d="M293.96,186.07c2.02-2.53,3.68-5.8,4.99-9,2.66-6.54,3.16-14.55-1.33-19.23,0,0-8.75,8.49-8.75,18.11v12.2h1.11c1.49,0,2.92-.75,3.98-2.08Z"/>
              <path class="cls-12" d="M340.3,188.14h1.11v-12.2c0-9.62-8.74-18.11-8.74-18.11-4.49,4.68-3.99,12.69-1.33,19.23,1.3,3.2,2.96,6.47,4.99,9,1.06,1.33,2.49,2.08,3.98,2.08Z"/>
            </g>
            <g>
              <path class="cls-12" d="M479.81,221.65h9.31c10.21,0,19.6-5.6,24.45-14.58h0c2.86-5.29,3.92-11.37,3.03-17.32l-3.2-21.34c-1.53-10.23-10.32-17.8-20.66-17.8h-10.43c-1.39,0-2.77.27-4.06.78-.57-.5-1.3-.78-2.06-.78h0c-10.34,0-19.13,7.57-20.66,17.8l-3.2,21.34c-.89,5.95.17,12.03,3.03,17.32h0c4.85,8.98,14.24,14.58,24.45,14.58Z"/>
              <path class="cls-1" d="M489.12,221.65c8.49,0,16.4-3.88,21.62-10.35v-19.07h-52.54v19.07c5.22,6.47,13.13,10.35,21.62,10.35h9.31Z"/>
              <g>
                <path class="cls-17" d="M460.28,200.81h2.25v-12.67h-3.64c-1.89,0-3.63,1.04-4.53,2.71-.83,1.54-.82,3.39.03,4.92l1.28,2.31c.93,1.68,2.7,2.72,4.61,2.72Z"/>
                <path class="cls-17" d="M513.26,198.09l1.28-2.31c.85-1.53.86-3.38.03-4.92-.9-1.67-2.64-2.71-4.53-2.71h-3.64v12.67h2.25c1.92,0,3.69-1.04,4.61-2.72Z"/>
              </g>
              <rect class="cls-11" x="459.6" y="150.61" width="49.73" height="71.04" rx="24.86" ry="24.86"/>
              <path class="cls-12" d="M478.25,167.63s10.48,12.38,31.08,12.38h1.41v-12.38s.19-17.02-20.06-17.02h-8.37c-1.39,0-2.77.24-4.06.71-.57-.46-1.3-.71-2.06-.71-1.4,0-2.77.13-4.1.37-.38.07-.75.15-1.12.23-7.36,1.72-12.56,8.38-12.82,15.93-.01.31,0,.48,0,.48v12.38h1.47c12.75,0,18.65-12.38,18.65-12.38Z"/>
              <g>
                <g>
                  <g>
                    <circle class="cls-5" cx="473.63" cy="189.74" r="2.49"/>
                    <path class="cls-10" d="M475.65,188.65c0-.51-.41-.92-.92-.92s-.92.41-.92.92.41.92.92.92.92-.41.92-.92Z"/>
                  </g>
                  <g>
                    <circle class="cls-5" cx="495.3" cy="189.74" r="2.49"/>
                    <path class="cls-10" d="M497.31,188.65c0-.51-.41-.92-.92-.92s-.92.41-.92.92.41.92.92.92.92-.41.92-.92Z"/>
                  </g>
                  <path class="cls-12" d="M476.03,185.24c.94.05,1.72-.7,1.72-1.64s-.85-1.74-1.82-1.63l-1.19.13c-2.98.31-5.72,1.76-7.65,4.04l.55-.22c1.57-.63,3.25-.92,4.94-.84l3.45.17Z"/>
                  <path class="cls-12" d="M496.35,185.07c1.69-.08,3.37.2,4.94.84l.55.22c-1.94-2.28-4.68-3.73-7.65-4.04l-1.19-.13c-.97-.1-1.82.66-1.82,1.63s.79,1.69,1.72,1.64l3.45-.17Z"/>
                </g>
                <path class="cls-17" d="M487.1,203.2h0c1.03-.64,1.51-1.55,1.34-2.44-.02-.08-.2-.22-.48-.38-2.17-1.27-4.85-1.27-7.02,0-.28.16-.46.3-.48.38-.17.89.31,1.8,1.34,2.44,1.68.76,3.6.76,5.28,0Z"/>
              </g>
              <g>
                <path class="cls-17" d="M483,211.96c.99.22,2.01.22,2.99,0,1.81-.4,3.39-1.5,4.38-3.07l.31-.48-2.56-.88-3.62.81-3.62-.81-2.56.88.31.48c.99,1.57,2.57,2.67,4.38,3.07Z"/>
                <path class="cls-15" d="M487,208.41h3.68l-2.44-1.8c-.75-.55-1.76-.62-2.57-.16l-.81.46c-.22.12-.48.12-.7,0l-.82-.46c-.81-.46-1.82-.4-2.57.16l-2.44,1.8h3.68c1.61.61,3.39.61,5.01,0Z"/>
              </g>
            </g>
            <g>
              <g>
                <circle class="cls-4" cx="637.71" cy="364.12" r="55.41" transform="translate(-70.69 557.57) rotate(-45)"/>
                <g>
                  <path class="cls-9" d="M597.4,331.71l-19.91,4.74c13.88,9.06,19.91-4.74,19.91-4.74Z"/>
                  <path class="cls-16" d="M577.48,336.44l19.91-4.74s-11.6-9.6-19.91,4.74Z"/>
                </g>
                <g>
                  <path class="cls-9" d="M589.34,372.94l-20.33,2.36c12.71,10.62,20.33-2.36,20.33-2.36Z"/>
                  <path class="cls-16" d="M569.01,375.3l20.33-2.36s-10.39-10.89-20.33,2.36Z"/>
                </g>
                <g>
                  <path class="cls-9" d="M587.32,379.64l-8.83,18.46c15.76-5.1,8.83-18.46,8.83-18.46Z"/>
                  <path class="cls-16" d="M578.49,398.11l8.83-18.46s-14.75,2.99-8.83,18.46Z"/>
                </g>
                <g>
                  <path class="cls-9" d="M597.4,386.36l-8.83,18.46c15.76-5.1,8.83-18.46,8.83-18.46Z"/>
                  <path class="cls-16" d="M588.57,404.83l8.83-18.46s-14.75,2.99-8.83,18.46Z"/>
                </g>
                <g>
                  <path class="cls-9" d="M589.93,344.52l-20.33,2.36c12.71,10.62,20.33-2.36,20.33-2.36Z"/>
                  <path class="cls-16" d="M569.6,346.88l20.33-2.36s-10.39-10.89-20.33,2.36Z"/>
                </g>
                <g>
                  <path class="cls-9" d="M587.46,351.06l-12.71,16.04c16.5-1.47,12.71-16.04,12.71-16.04Z"/>
                  <path class="cls-16" d="M574.75,367.1l12.71-16.04s-15.05-.36-12.71,16.04Z"/>
                </g>
                <g>
                  <path class="cls-9" d="M688.2,367.89l14.1,14.83c.85-16.55-14.1-14.83-14.1-14.83Z"/>
                  <path class="cls-16" d="M688.2,367.89s-2.47,14.85,14.1,14.83l-14.1-14.83Z"/>
                </g>
                <g>
                  <path class="cls-9" d="M680.86,340.48l18.07-9.62c-15.71-5.25-18.07,9.62-18.07,9.62Z"/>
                  <path class="cls-16" d="M698.92,330.86l-18.07,9.62s13.65,6.35,18.07-9.62Z"/>
                </g>
                <g>
                  <path class="cls-9" d="M679.09,333.53l8-18.84c-15.52,5.8-8,18.84-8,18.84Z"/>
                  <path class="cls-16" d="M687.09,314.7l-8,18.84s14.61-3.64,8-18.84Z"/>
                </g>
                <g>
                  <path class="cls-9" d="M673.16,306.61c-12.82,10.5-1.48,20.41-1.48,20.41l1.48-20.41Z"/>
                  <path class="cls-16" d="M673.16,306.61l-1.48,20.41s12.65-8.17,1.48-20.41Z"/>
                </g>
                <g>
                  <path class="cls-9" d="M687.81,364.06l20.11-3.83c-13.45-9.68-20.11,3.83-20.11,3.83Z"/>
                  <path class="cls-16" d="M707.92,360.24l-20.11,3.83s11.15,10.11,20.11-3.83Z"/>
                </g>
                <g>
                  <path class="cls-9" d="M689.49,357.41l9.61-18.07c-15.97,4.42-9.61,18.07-9.61,18.07Z"/>
                  <path class="cls-16" d="M699.11,339.34l-9.61,18.07s14.87-2.35,9.61-18.07Z"/>
                </g>
                <g>
                  <path class="cls-9" d="M601.02,398.69l.25,20.47c11.88-11.55-.25-20.47-.25-20.47Z"/>
                  <path class="cls-16" d="M601.02,398.69s-11.91,9.21.25,20.47l-.25-20.47Z"/>
                </g>
                <g>
                  <path class="cls-9" d="M639.42,414.02l-7.43,19.07c15.34-6.26,7.43-19.07,7.43-19.07Z"/>
                  <path class="cls-16" d="M631.99,433.09l7.43-19.07s-14.49,4.08-7.43,19.07Z"/>
                </g>
                <g>
                  <path class="cls-9" d="M643.09,415.38l14.54,14.4c.35-16.57-14.54-14.4-14.54-14.4Z"/>
                  <path class="cls-16" d="M657.64,429.78l-14.54-14.4s-2.02,14.92,14.54,14.4Z"/>
                </g>
                <g>
                  <path class="cls-9" d="M653.52,413.57l19.74,5.41c-7.82-14.61-19.74-5.41-19.74-5.41Z"/>
                  <path class="cls-16" d="M673.26,418.98l-19.74-5.41s5.56,13.99,19.74,5.41Z"/>
                </g>
                <g>
                  <path class="cls-9" d="M627.16,313.03l-15.71-13.12c1.04,16.54,15.71,13.12,15.71,13.12Z"/>
                  <path class="cls-16" d="M611.46,299.91l15.71,13.12s.75-15.04-15.71-13.12Z"/>
                </g>
                <g>
                  <path class="cls-9" d="M617.81,314.73l-20.42-1.41c10.55,12.78,20.42,1.41,20.42,1.41Z"/>
                  <path class="cls-16" d="M597.4,313.32l20.42,1.41s-8.21-12.62-20.42-1.41Z"/>
                </g>
                <g>
                  <path class="cls-9" d="M603.04,328.23l-15.87-12.92c1.26,16.52,15.87,12.92,15.87,12.92Z"/>
                  <path class="cls-16" d="M587.16,315.31l15.87,12.92s.56-15.04-15.87-12.92Z"/>
                </g>
                <g>
                  <path class="cls-9" d="M652.1,315.06l17.81-10.08c-15.85-4.84-17.81,10.08-17.81,10.08Z"/>
                  <path class="cls-16" d="M669.91,304.97l-17.81,10.08s13.81,5.99,17.81-10.08Z"/>
                </g>
                <g>
                  <path class="cls-9" d="M639.73,297.62c-4.42,15.97,10.55,17.54,10.55,17.54l-10.55-17.54Z"/>
                  <path class="cls-16" d="M639.73,297.62l10.55,17.54s5.63-13.96-10.55-17.54Z"/>
                </g>
                <g>
                  <path class="cls-9" d="M630.56,294.1c-10.1,13.14,3.19,20.22,3.19,20.22l-3.19-20.22Z"/>
                  <path class="cls-16" d="M630.56,294.1l3.19,20.22s10.46-10.82-3.19-20.22Z"/>
                </g>
                <g>
                  <path class="cls-9" d="M613.84,407.71l-7.89,18.89c15.49-5.89,7.89-18.89,7.89-18.89Z"/>
                  <path class="cls-16" d="M605.95,426.59l7.89-18.89s-14.58,3.73-7.89,18.89Z"/>
                </g>
                <g>
                  <path class="cls-9" d="M618.33,411.33l9.77,17.98c5.11-15.76-9.77-17.98-9.77-17.98Z"/>
                  <path class="cls-16" d="M618.33,411.33s-6.23,13.7,9.77,17.98l-9.77-17.98Z"/>
                </g>
                <g>
                  <path class="cls-9" d="M685.25,377.98l8.36,18.68c6.31-15.32-8.36-18.68-8.36-18.68Z"/>
                  <path class="cls-16" d="M685.25,377.98s-7.27,13.18,8.36,18.68l-8.36-18.68Z"/>
                </g>
                <g>
                  <path class="cls-9" d="M668.51,401.09l12.43,16.26c2.62-16.36-12.43-16.26-12.43-16.26Z"/>
                  <path class="cls-16" d="M668.51,401.09s-4.04,14.5,12.43,16.26l-12.43-16.26Z"/>
                </g>
                <g>
                  <path class="cls-9" d="M673.71,398.44l20.35,2.15c-10.08-13.15-20.35-2.15-20.35-2.15Z"/>
                  <path class="cls-16" d="M694.07,400.59l-20.35-2.15s7.75,12.91,20.35,2.15Z"/>
                </g>
              </g>
              <g>
                <circle class="cls-4" cx="491.05" cy="364.12" r="55.41" transform="translate(87.33 823.16) rotate(-85.23)"/>
                <g>
                  <path class="cls-9" d="M450.74,331.71l-19.91,4.74c13.88,9.06,19.91-4.74,19.91-4.74Z"/>
                  <path class="cls-16" d="M430.83,336.44l19.91-4.74s-11.6-9.6-19.91,4.74Z"/>
                </g>
                <g>
                  <path class="cls-9" d="M442.69,372.94l-20.33,2.36c12.71,10.62,20.33-2.36,20.33-2.36Z"/>
                  <path class="cls-16" d="M422.36,375.3l20.33-2.36s-10.39-10.89-20.33,2.36Z"/>
                </g>
                <g>
                  <path class="cls-9" d="M440.67,379.64l-8.83,18.46c15.76-5.1,8.83-18.46,8.83-18.46Z"/>
                  <path class="cls-16" d="M431.84,398.11l8.83-18.46s-14.75,2.99-8.83,18.46Z"/>
                </g>
                <g>
                  <path class="cls-9" d="M450.75,386.36l-8.83,18.46c15.76-5.1,8.83-18.46,8.83-18.46Z"/>
                  <path class="cls-16" d="M441.91,404.83l8.83-18.46s-14.75,2.99-8.83,18.46Z"/>
                </g>
                <g>
                  <path class="cls-9" d="M443.28,344.52l-20.33,2.36c12.71,10.62,20.33-2.36,20.33-2.36Z"/>
                  <path class="cls-16" d="M422.95,346.88l20.33-2.36s-10.39-10.89-20.33,2.36Z"/>
                </g>
                <g>
                  <path class="cls-9" d="M440.81,351.06l-12.71,16.04c16.5-1.47,12.71-16.04,12.71-16.04Z"/>
                  <path class="cls-16" d="M428.1,367.1l12.71-16.04s-15.05-.36-12.71,16.04Z"/>
                </g>
                <g>
                  <path class="cls-9" d="M541.55,367.89l14.1,14.83c.85-16.55-14.1-14.83-14.1-14.83Z"/>
                  <path class="cls-16" d="M541.55,367.89s-2.46,14.85,14.1,14.83l-14.1-14.83Z"/>
                </g>
                <g>
                  <path class="cls-9" d="M534.2,340.48l18.07-9.62c-15.71-5.25-18.07,9.62-18.07,9.62Z"/>
                  <path class="cls-16" d="M552.27,330.86l-18.07,9.62s13.65,6.35,18.07-9.62Z"/>
                </g>
                <g>
                  <path class="cls-9" d="M532.44,333.53l8-18.84c-15.52,5.8-8,18.84-8,18.84Z"/>
                  <path class="cls-16" d="M540.44,314.7l-8,18.84s14.61-3.64,8-18.84Z"/>
                </g>
                <g>
                  <path class="cls-9" d="M526.51,306.61c-12.82,10.5-1.48,20.41-1.48,20.41l1.48-20.41Z"/>
                  <path class="cls-16" d="M526.51,306.61l-1.48,20.41s12.65-8.17,1.48-20.41Z"/>
                </g>
                <g>
                  <path class="cls-9" d="M541.16,364.06l20.11-3.83c-13.45-9.68-20.11,3.83-20.11,3.83Z"/>
                  <path class="cls-16" d="M561.27,360.24l-20.11,3.83s11.15,10.11,20.11-3.83Z"/>
                </g>
                <g>
                  <path class="cls-9" d="M542.84,357.41l9.61-18.07c-15.97,4.42-9.61,18.07-9.61,18.07Z"/>
                  <path class="cls-16" d="M552.45,339.34l-9.61,18.07s14.87-2.35,9.61-18.07Z"/>
                </g>
                <g>
                  <path class="cls-9" d="M454.37,398.69l.25,20.47c11.88-11.55-.25-20.47-.25-20.47Z"/>
                  <path class="cls-16" d="M454.37,398.69s-11.91,9.21.25,20.47l-.25-20.47Z"/>
                </g>
                <g>
                  <path class="cls-9" d="M492.77,414.02l-7.43,19.07c15.34-6.26,7.43-19.07,7.43-19.07Z"/>
                  <path class="cls-16" d="M485.34,433.09l7.43-19.07s-14.49,4.08-7.43,19.07Z"/>
                </g>
                <g>
                  <path class="cls-9" d="M496.44,415.38l14.54,14.4c.35-16.57-14.54-14.4-14.54-14.4Z"/>
                  <path class="cls-16" d="M510.98,429.78l-14.54-14.4s-2.02,14.92,14.54,14.4Z"/>
                </g>
                <g>
                  <path class="cls-9" d="M506.87,413.57l19.74,5.41c-7.82-14.61-19.74-5.41-19.74-5.41Z"/>
                  <path class="cls-16" d="M526.61,418.98l-19.74-5.41s5.56,13.99,19.74,5.41Z"/>
                </g>
                <g>
                  <path class="cls-9" d="M480.51,313.03l-15.71-13.12c1.04,16.54,15.71,13.12,15.71,13.12Z"/>
                  <path class="cls-16" d="M464.8,299.91l15.71,13.12s.75-15.04-15.71-13.12Z"/>
                </g>
                <g>
                  <path class="cls-9" d="M471.16,314.73l-20.42-1.41c10.55,12.78,20.42,1.41,20.42,1.41Z"/>
                  <path class="cls-16" d="M450.74,313.32l20.42,1.41s-8.21-12.62-20.42-1.41Z"/>
                </g>
                <g>
                  <path class="cls-9" d="M456.38,328.23l-15.87-12.92c1.26,16.52,15.87,12.92,15.87,12.92Z"/>
                  <path class="cls-16" d="M440.51,315.31l15.87,12.92s.56-15.04-15.87-12.92Z"/>
                </g>
                <g>
                  <path class="cls-9" d="M505.45,315.06l17.81-10.08c-15.85-4.84-17.81,10.08-17.81,10.08Z"/>
                  <path class="cls-16" d="M523.26,304.97l-17.81,10.08s13.81,5.99,17.81-10.08Z"/>
                </g>
                <g>
                  <path class="cls-9" d="M493.07,297.62c-4.42,15.97,10.55,17.54,10.55,17.54l-10.55-17.54Z"/>
                  <path class="cls-16" d="M493.07,297.62l10.55,17.54s5.63-13.96-10.55-17.54Z"/>
                </g>
                <g>
                  <path class="cls-9" d="M483.91,294.1c-10.1,13.14,3.19,20.22,3.19,20.22l-3.19-20.22Z"/>
                  <path class="cls-16" d="M483.91,294.1l3.19,20.22s10.46-10.82-3.19-20.22Z"/>
                </g>
                <g>
                  <path class="cls-9" d="M467.19,407.71l-7.89,18.89c15.49-5.89,7.89-18.89,7.89-18.89Z"/>
                  <path class="cls-16" d="M459.3,426.59l7.89-18.89s-14.58,3.73-7.89,18.89Z"/>
                </g>
                <g>
                  <path class="cls-9" d="M471.68,411.33l9.77,17.98c5.11-15.76-9.77-17.98-9.77-17.98Z"/>
                  <path class="cls-16" d="M471.68,411.33s-6.23,13.7,9.77,17.98l-9.77-17.98Z"/>
                </g>
                <g>
                  <path class="cls-9" d="M538.6,377.98l8.36,18.68c6.31-15.32-8.36-18.68-8.36-18.68Z"/>
                  <path class="cls-16" d="M538.6,377.98s-7.27,13.18,8.36,18.68l-8.36-18.68Z"/>
                </g>
                <g>
                  <path class="cls-9" d="M521.86,401.09l12.43,16.26c2.62-16.36-12.43-16.26-12.43-16.26Z"/>
                  <path class="cls-16" d="M521.86,401.09s-4.04,14.5,12.43,16.26l-12.43-16.26Z"/>
                </g>
                <g>
                  <path class="cls-9" d="M527.06,398.44l20.35,2.15c-10.08-13.15-20.35-2.15-20.35-2.15Z"/>
                  <path class="cls-16" d="M547.41,400.59l-20.35-2.15s7.75,12.91,20.35,2.15Z"/>
                </g>
              </g>
              <g>
                <g>
                  <path class="cls-17" d="M466.87,378.8h2.25v-12.67h-3.64c-1.89,0-3.63,1.04-4.53,2.71h0c-.83,1.54-.82,3.39.03,4.92l1.28,2.31c.93,1.68,2.7,2.72,4.61,2.72Z"/>
                  <path class="cls-17" d="M516.63,366.13h-3.64v12.67h2.25c1.92,0,3.68-1.04,4.61-2.72l1.28-2.31c.85-1.53.86-3.38.03-4.92h0c-.9-1.67-2.64-2.71-4.53-2.71Z"/>
                </g>
                <path class="cls-11" d="M491.05,399.63c13.73,0,24.86-11.13,24.86-24.86v-21.31c0-13.73-11.13-24.86-24.86-24.86h0c-13.73,0-24.86,11.13-24.86,24.86v21.31c0,13.73,11.13,24.86,24.86,24.86h0Z"/>
                <g>
                  <g>
                    <circle class="cls-5" cx="480.22" cy="367.73" r="2.49"/>
                    <path class="cls-10" d="M482.23,366.63c0-.51-.41-.92-.92-.92s-.92.41-.92.92.41.92.92.92.92-.41.92-.92Z"/>
                  </g>
                  <g>
                    <circle class="cls-5" cx="501.89" cy="367.73" r="2.49"/>
                    <path class="cls-10" d="M503.9,366.63c0-.51-.41-.92-.92-.92s-.92.41-.92.92.41.92.92.92.92-.41.92-.92Z"/>
                  </g>
                  <path class="cls-8" d="M482.89,360.56h-6.19c-1.67,0-3.02,1.35-3.02,3.02v.53h10.66v-2.1c0-.8-.65-1.45-1.45-1.45Z"/>
                  <path class="cls-8" d="M505.41,360.56h-6.19c-.8,0-1.45.65-1.45,1.45v2.1h10.66v-.53c0-1.67-1.35-3.02-3.02-3.02Z"/>
                </g>
                <path class="cls-17" d="M493.69,381.19h0c1.03-.64,1.51-1.55,1.34-2.44-.02-.08-.2-.22-.48-.38-2.17-1.27-4.85-1.27-7.02,0-.28.16-.46.3-.48.38-.17.89.31,1.8,1.34,2.44,1.68.76,3.6.76,5.28,0Z"/>
                <path class="cls-8" d="M493.66,381.76h-5.21c-2.91,0-5.27,2.36-5.27,5.27h15.75c0-2.91-2.36-5.27-5.27-5.27Z"/>
                <path class="cls-8" d="M471.66,351.63c.43-2.47,2.58-4.27,5.08-4.27h28.62c2.51,0,4.65,1.8,5.08,4.27l1.79,10.22c.43,2.47,2.58,4.27,5.08,4.27v-19.54c0-9.94-8.06-17.99-17.99-17.99h-16.55c-9.94,0-17.99,8.06-17.99,17.99v19.54c2.51,0,4.65-1.8,5.08-4.27l1.79-10.22Z"/>
              </g>
              <g>
                <path class="cls-6" d="M633.02,403.6h9.37c10.21,0,19.6-5.6,24.45-14.58h0c2.86-5.29,3.92-11.37,3.03-17.32l-1.97-21.05c-2.24-14.95-15.08-26.01-30.2-26.01h0c-15.12,0-27.96,11.06-30.2,26.01l-1.97,21.05c-.89,5.95.17,12.03,3.03,17.32,4.85,8.98,14.24,14.58,24.45,14.58Z"/>
                <path class="cls-2" d="M633.02,403.6h9.37c.35,0,.7,0,1.05-.02,11.52-.44,20.5-10.18,20.5-21.7v-15.63h-52.54v15.62c0,11.52,8.98,21.24,20.5,21.7.37.01.74.02,1.12.02Z"/>
                <g>
                  <path class="cls-17" d="M613.49,374.83h2.25v-12.67h-3.64c-1.89,0-3.63,1.04-4.53,2.71-.83,1.54-.82,3.39.03,4.92l1.28,2.31c.93,1.68,2.7,2.72,4.61,2.72Z"/>
                  <path class="cls-17" d="M666.48,372.11l1.28-2.31c.85-1.53.86-3.38.03-4.92-.9-1.67-2.64-2.71-4.53-2.71h-3.64v12.67h2.25c1.92,0,3.69-1.04,4.61-2.72Z"/>
                </g>
                <path class="cls-11" d="M637.68,395.67c13.73,0,24.86-11.13,24.86-24.86v-21.31c0-13.73-11.13-24.86-24.86-24.86h0c-13.73,0-24.86,11.13-24.86,24.86v21.31c0,13.73,11.13,24.86,24.86,24.86h0Z"/>
                <g>
                  <g>
                    <g>
                      <path class="cls-5" d="M629.33,363.76c0-1.37-1.11-2.49-2.49-2.49s-2.49,1.11-2.49,2.49,1.11,2.49,2.49,2.49,2.49-1.11,2.49-2.49Z"/>
                      <path class="cls-10" d="M628.86,362.67c0-.51-.41-.92-.92-.92s-.92.41-.92.92.41.92.92.92.92-.41.92-.92Z"/>
                    </g>
                    <g>
                      <path class="cls-5" d="M651,363.76c0-1.37-1.11-2.49-2.49-2.49s-2.49,1.11-2.49,2.49,1.11,2.49,2.49,2.49,2.49-1.11,2.49-2.49Z"/>
                      <path class="cls-10" d="M650.52,362.67c0-.51-.41-.92-.92-.92s-.92.41-.92.92.41.92.92.92.92-.41.92-.92Z"/>
                    </g>
                    <path class="cls-6" d="M629.24,359.26c.94.05,1.72-.7,1.72-1.64s-.85-1.74-1.82-1.63l-1.19.13c-2.98.31-5.72,1.76-7.65,4.04l.55-.22c1.57-.63,3.25-.92,4.94-.84l3.45.17Z"/>
                    <path class="cls-6" d="M649.56,359.09c1.69-.08,3.37.2,4.94.84l.55.22c-1.94-2.28-4.68-3.73-7.65-4.04l-1.19-.13c-.97-.1-1.82.66-1.82,1.63s.79,1.69,1.72,1.64l3.45-.17Z"/>
                  </g>
                  <path class="cls-17" d="M640.31,377.22h0c1.03-.64,1.51-1.55,1.34-2.44-.02-.08-.2-.22-.48-.38-2.17-1.27-4.85-1.27-7.02,0-.28.16-.46.3-.48.38-.17.89.31,1.8,1.34,2.44,1.68.76,3.6.76,5.28,0Z"/>
                </g>
                <g>
                  <path class="cls-14" d="M636.21,385.98c.99.22,2.01.22,2.99,0,1.81-.4,3.39-1.5,4.38-3.07l.31-.48-2.56-.88-3.62.81-3.62-.81-2.56.88.31.48c.99,1.57,2.57,2.67,4.38,3.07Z"/>
                  <path class="cls-13" d="M640.21,382.43h3.68l-2.45-1.8c-.75-.55-1.76-.62-2.57-.16l-.81.46c-.22.12-.48.12-.7,0l-.81-.46c-.82-.46-1.82-.4-2.58.16l-2.44,1.8h3.68c1.61.61,3.39.61,5.01,0Z"/>
                </g>
                <path class="cls-6" d="M616.61,359.59c2.01-5.14,7.85-16.19,21.07-16.19s19.07,11.05,21.07,16.19c.61,1.56,2.12,2.58,3.79,2.58l4.65-14.7c-3.46-13.3-15.5-22.82-29.51-22.83-14.01.01-26.06,9.53-29.51,22.83l4.65,14.7c1.67,0,3.18-1.02,3.79-2.58Z"/>
              </g>
            </g>
            <g>
              <circle class="cls-4" cx="308.56" cy="364.12" r="55.41" transform="translate(-100.98 609.2) rotate(-80.62)"/>
              <g>
                <path class="cls-9" d="M268.25,331.71l-19.91,4.74c13.88,9.06,19.91-4.74,19.91-4.74Z"/>
                <path class="cls-16" d="M248.34,336.44l19.91-4.74s-11.6-9.6-19.91,4.74Z"/>
              </g>
              <g>
                <path class="cls-9" d="M260.2,372.94l-20.33,2.36c12.71,10.62,20.33-2.36,20.33-2.36Z"/>
                <path class="cls-16" d="M239.87,375.3l20.33-2.36s-10.39-10.89-20.33,2.36Z"/>
              </g>
              <g>
                <path class="cls-9" d="M258.18,379.64l-8.83,18.46c15.76-5.1,8.83-18.46,8.83-18.46Z"/>
                <path class="cls-16" d="M249.35,398.11l8.83-18.46s-14.75,2.99-8.83,18.46Z"/>
              </g>
              <g>
                <path class="cls-9" d="M264.16,389.42l-5.04,19.84c14.46-8.09,5.04-19.84,5.04-19.84Z"/>
                <path class="cls-16" d="M259.12,409.26l5.04-19.84s-13.88,5.82-5.04,19.84Z"/>
              </g>
              <g>
                <path class="cls-9" d="M260.79,344.52l-20.33,2.36c12.71,10.62,20.33-2.36,20.33-2.36Z"/>
                <path class="cls-16" d="M240.46,346.88l20.33-2.36s-10.39-10.89-20.33,2.36Z"/>
              </g>
              <g>
                <path class="cls-9" d="M258.31,351.06l-12.71,16.04c16.5-1.47,12.71-16.04,12.71-16.04Z"/>
                <path class="cls-16" d="M245.6,367.1l12.71-16.04s-15.05-.36-12.71,16.04Z"/>
              </g>
              <g>
                <path class="cls-9" d="M359.06,367.89l14.1,14.83c.85-16.55-14.1-14.83-14.1-14.83Z"/>
                <path class="cls-16" d="M359.06,367.89s-2.47,14.85,14.1,14.83l-14.1-14.83Z"/>
              </g>
              <g>
                <path class="cls-9" d="M351.71,340.48l18.07-9.62c-15.71-5.25-18.07,9.62-18.07,9.62Z"/>
                <path class="cls-16" d="M369.78,330.86l-18.07,9.62s13.65,6.35,18.07-9.62Z"/>
              </g>
              <g>
                <path class="cls-9" d="M349.95,333.53l8-18.84c-15.52,5.8-8,18.84-8,18.84Z"/>
                <path class="cls-16" d="M357.94,314.7l-8,18.84s14.61-3.64,8-18.84Z"/>
              </g>
              <g>
                <path class="cls-9" d="M344.01,306.61c-12.82,10.5-1.48,20.41-1.48,20.41l1.48-20.41Z"/>
                <path class="cls-16" d="M344.01,306.61l-1.48,20.41s12.65-8.17,1.48-20.41Z"/>
              </g>
              <g>
                <path class="cls-9" d="M358.67,364.06l20.11-3.83c-13.45-9.68-20.11,3.83-20.11,3.83Z"/>
                <path class="cls-16" d="M378.77,360.24l-20.11,3.83s11.15,10.11,20.11-3.83Z"/>
              </g>
              <g>
                <path class="cls-9" d="M360.35,357.41l9.61-18.07c-15.97,4.42-9.61,18.07-9.61,18.07Z"/>
                <path class="cls-16" d="M369.96,339.34l-9.61,18.07s14.87-2.35,9.61-18.07Z"/>
              </g>
              <g>
                <path class="cls-9" d="M271.88,398.69l.25,20.47c11.88-11.55-.25-20.47-.25-20.47Z"/>
                <path class="cls-16" d="M271.88,398.69s-11.91,9.21.25,20.47l-.25-20.47Z"/>
              </g>
              <g>
                <path class="cls-9" d="M310.27,414.02l-7.43,19.07c15.34-6.26,7.43-19.07,7.43-19.07Z"/>
                <path class="cls-16" d="M302.84,433.09l7.43-19.07s-14.49,4.08-7.43,19.07Z"/>
              </g>
              <g>
                <path class="cls-9" d="M313.95,415.38l14.54,14.4c.35-16.57-14.54-14.4-14.54-14.4Z"/>
                <path class="cls-16" d="M328.49,429.78l-14.54-14.4s-2.02,14.92,14.54,14.4Z"/>
              </g>
              <g>
                <path class="cls-9" d="M324.38,413.57l19.74,5.41c-7.82-14.61-19.74-5.41-19.74-5.41Z"/>
                <path class="cls-16" d="M344.12,418.98l-19.74-5.41s5.56,13.99,19.74,5.41Z"/>
              </g>
              <g>
                <path class="cls-9" d="M298.02,313.03l-15.71-13.12c1.04,16.54,15.71,13.12,15.71,13.12Z"/>
                <path class="cls-16" d="M282.31,299.91l15.71,13.12s.75-15.04-15.71-13.12Z"/>
              </g>
              <g>
                <path class="cls-9" d="M288.67,314.73l-20.42-1.41c10.55,12.78,20.42,1.41,20.42,1.41Z"/>
                <path class="cls-16" d="M268.25,313.32l20.42,1.41s-8.21-12.62-20.42-1.41Z"/>
              </g>
              <g>
                <path class="cls-9" d="M273.89,328.23l-15.87-12.92c1.26,16.52,15.87,12.92,15.87,12.92Z"/>
                <path class="cls-16" d="M258.02,315.31l15.87,12.92s.56-15.04-15.87-12.92Z"/>
              </g>
              <g>
                <path class="cls-9" d="M322.95,315.06l17.81-10.08c-15.85-4.84-17.81,10.08-17.81,10.08Z"/>
                <path class="cls-16" d="M340.76,304.97l-17.81,10.08s13.81,5.99,17.81-10.08Z"/>
              </g>
              <g>
                <path class="cls-9" d="M310.58,297.62c-4.42,15.97,10.55,17.54,10.55,17.54l-10.55-17.54Z"/>
                <path class="cls-16" d="M310.58,297.62l10.55,17.54s5.63-13.96-10.55-17.54Z"/>
              </g>
              <g>
                <path class="cls-9" d="M301.41,294.1c-10.1,13.14,3.19,20.22,3.19,20.22l-3.19-20.22Z"/>
                <path class="cls-16" d="M301.41,294.1l3.19,20.22s10.46-10.82-3.19-20.22Z"/>
              </g>
              <g>
                <path class="cls-9" d="M284.69,407.71l-7.89,18.89c15.49-5.89,7.89-18.89,7.89-18.89Z"/>
                <path class="cls-16" d="M276.8,426.59l7.89-18.89s-14.58,3.73-7.89,18.89Z"/>
              </g>
              <g>
                <path class="cls-9" d="M289.19,411.33l9.77,17.98c5.11-15.76-9.77-17.98-9.77-17.98Z"/>
                <path class="cls-16" d="M289.19,411.33s-6.23,13.7,9.77,17.98l-9.77-17.98Z"/>
              </g>
              <g>
                <path class="cls-9" d="M356.11,377.98l8.36,18.68c6.31-15.32-8.36-18.68-8.36-18.68Z"/>
                <path class="cls-16" d="M356.11,377.98s-7.27,13.18,8.36,18.68l-8.36-18.68Z"/>
              </g>
              <g>
                <path class="cls-9" d="M339.36,401.09l12.43,16.26c2.62-16.36-12.43-16.26-12.43-16.26Z"/>
                <path class="cls-16" d="M339.36,401.09s-4.04,14.5,12.43,16.26l-12.43-16.26Z"/>
              </g>
              <g>
                <path class="cls-9" d="M344.57,398.44l20.35,2.15c-10.08-13.15-20.35-2.15-20.35-2.15Z"/>
                <path class="cls-16" d="M364.92,400.59l-20.35-2.15s7.75,12.91,20.35,2.15Z"/>
              </g>
            </g>
            <g>
              <circle class="cls-4" cx="161.91" cy="364.12" r="55.41" transform="translate(-55.32 30.04) rotate(-9.06)"/>
              <g>
                <path class="cls-9" d="M121.6,331.71l-19.91,4.74c13.88,9.06,19.91-4.74,19.91-4.74Z"/>
                <path class="cls-16" d="M101.69,336.44l19.91-4.74s-11.6-9.6-19.91,4.74Z"/>
              </g>
              <g>
                <path class="cls-9" d="M113.55,372.94l-20.33,2.36c12.71,10.62,20.33-2.36,20.33-2.36Z"/>
                <path class="cls-16" d="M93.22,375.3l20.33-2.36s-10.39-10.89-20.33,2.36Z"/>
              </g>
              <g>
                <path class="cls-9" d="M111.53,379.64l-8.83,18.46c15.76-5.1,8.83-18.46,8.83-18.46Z"/>
                <path class="cls-16" d="M102.69,398.11l8.83-18.46s-14.75,2.99-8.83,18.46Z"/>
              </g>
              <g>
                <path class="cls-9" d="M121.6,386.36l-8.83,18.46c15.76-5.1,8.83-18.46,8.83-18.46Z"/>
                <path class="cls-16" d="M112.77,404.83l8.83-18.46s-14.75,2.99-8.83,18.46Z"/>
              </g>
              <g>
                <path class="cls-9" d="M114.14,344.52l-20.33,2.36c12.71,10.62,20.33-2.36,20.33-2.36Z"/>
                <path class="cls-16" d="M93.8,346.88l20.33-2.36s-10.39-10.89-20.33,2.36Z"/>
              </g>
              <g>
                <path class="cls-9" d="M111.66,351.06l-12.71,16.04c16.5-1.47,12.71-16.04,12.71-16.04Z"/>
                <path class="cls-16" d="M98.95,367.1l12.71-16.04s-15.05-.36-12.71,16.04Z"/>
              </g>
              <g>
                <path class="cls-9" d="M212.4,367.89l14.1,14.83c.85-16.55-14.1-14.83-14.1-14.83Z"/>
                <path class="cls-16" d="M212.4,367.89s-2.47,14.85,14.1,14.83l-14.1-14.83Z"/>
              </g>
              <g>
                <path class="cls-9" d="M205.06,340.48l18.07-9.62c-15.71-5.25-18.07,9.62-18.07,9.62Z"/>
                <path class="cls-16" d="M223.12,330.86l-18.07,9.62s13.65,6.35,18.07-9.62Z"/>
              </g>
              <g>
                <path class="cls-9" d="M203.29,333.53l8-18.84c-15.52,5.8-8,18.84-8,18.84Z"/>
                <path class="cls-16" d="M211.29,314.7l-8,18.84s14.61-3.64,8-18.84Z"/>
              </g>
              <g>
                <path class="cls-9" d="M197.36,306.61c-12.82,10.5-1.48,20.41-1.48,20.41l1.48-20.41Z"/>
                <path class="cls-16" d="M197.36,306.61l-1.48,20.41s12.65-8.17,1.48-20.41Z"/>
              </g>
              <g>
                <path class="cls-9" d="M212.01,364.06l20.11-3.83c-13.45-9.68-20.11,3.83-20.11,3.83Z"/>
                <path class="cls-16" d="M232.12,360.24l-20.11,3.83s11.15,10.11,20.11-3.83Z"/>
              </g>
              <g>
                <path class="cls-9" d="M213.69,357.41l9.61-18.07c-15.97,4.42-9.61,18.07-9.61,18.07Z"/>
                <path class="cls-16" d="M223.31,339.34l-9.61,18.07s14.87-2.35,9.61-18.07Z"/>
              </g>
              <g>
                <path class="cls-9" d="M125.23,398.69l.25,20.47c11.88-11.55-.25-20.47-.25-20.47Z"/>
                <path class="cls-16" d="M125.23,398.69s-11.91,9.21.25,20.47l-.25-20.47Z"/>
              </g>
              <g>
                <path class="cls-9" d="M163.62,414.02l-7.43,19.07c15.34-6.26,7.43-19.07,7.43-19.07Z"/>
                <path class="cls-16" d="M156.19,433.09l7.43-19.07s-14.49,4.08-7.43,19.07Z"/>
              </g>
              <g>
                <path class="cls-9" d="M167.29,415.38l14.54,14.4c.35-16.57-14.54-14.4-14.54-14.4Z"/>
                <path class="cls-16" d="M181.84,429.78l-14.54-14.4s-2.02,14.92,14.54,14.4Z"/>
              </g>
              <g>
                <path class="cls-9" d="M177.73,413.57l19.74,5.41c-7.82-14.61-19.74-5.41-19.74-5.41Z"/>
                <path class="cls-16" d="M197.47,418.98l-19.74-5.41s5.56,13.99,19.74,5.41Z"/>
              </g>
              <g>
                <path class="cls-9" d="M151.36,313.03l-15.71-13.12c1.04,16.54,15.71,13.12,15.71,13.12Z"/>
                <path class="cls-16" d="M135.66,299.91l15.71,13.12s.75-15.04-15.71-13.12Z"/>
              </g>
              <g>
                <path class="cls-9" d="M142.02,314.73l-20.42-1.41c10.55,12.78,20.42,1.41,20.42,1.41Z"/>
                <path class="cls-16" d="M121.6,313.32l20.42,1.41s-8.21-12.62-20.42-1.41Z"/>
              </g>
              <g>
                <path class="cls-9" d="M127.24,328.23l-15.87-12.92c1.26,16.52,15.87,12.92,15.87,12.92Z"/>
                <path class="cls-16" d="M111.37,315.31l15.87,12.92s.56-15.04-15.87-12.92Z"/>
              </g>
              <g>
                <path class="cls-9" d="M176.3,315.06l17.81-10.08c-15.85-4.84-17.81,10.08-17.81,10.08Z"/>
                <path class="cls-16" d="M194.11,304.97l-17.81,10.08s13.81,5.99,17.81-10.08Z"/>
              </g>
              <g>
                <path class="cls-9" d="M174.48,315.15l-10.55-17.54c-4.42,15.97,10.55,17.54,10.55,17.54Z"/>
                <path class="cls-16" d="M163.93,297.62l10.55,17.54s5.63-13.96-10.55-17.54Z"/>
              </g>
              <g>
                <path class="cls-9" d="M154.76,294.1c-10.1,13.14,3.19,20.22,3.19,20.22l-3.19-20.22Z"/>
                <path class="cls-16" d="M154.76,294.1l3.19,20.22s10.46-10.82-3.19-20.22Z"/>
              </g>
              <g>
                <path class="cls-9" d="M138.04,407.71l-7.89,18.89c15.49-5.89,7.89-18.89,7.89-18.89Z"/>
                <path class="cls-16" d="M130.15,426.59l7.89-18.89s-14.58,3.73-7.89,18.89Z"/>
              </g>
              <g>
                <path class="cls-9" d="M142.54,411.33l9.77,17.98c5.11-15.76-9.77-17.98-9.77-17.98Z"/>
                <path class="cls-16" d="M142.54,411.33s-6.23,13.7,9.77,17.98l-9.77-17.98Z"/>
              </g>
              <g>
                <path class="cls-9" d="M209.45,377.98l8.36,18.68c6.31-15.32-8.36-18.68-8.36-18.68Z"/>
                <path class="cls-16" d="M209.45,377.98s-7.27,13.18,8.36,18.68l-8.36-18.68Z"/>
              </g>
              <g>
                <path class="cls-9" d="M192.71,401.09l12.43,16.26c2.62-16.36-12.43-16.26-12.43-16.26Z"/>
                <path class="cls-16" d="M192.71,401.09s-4.04,14.5,12.43,16.26l-12.43-16.26Z"/>
              </g>
              <g>
                <path class="cls-9" d="M197.91,398.44l20.35,2.15c-10.08-13.15-20.35-2.15-20.35-2.15Z"/>
                <path class="cls-16" d="M218.27,400.59l-20.35-2.15s7.75,12.91,20.35,2.15Z"/>
              </g>
            </g>
            <g>
              <g>
                <path class="cls-17" d="M137.72,378.8h2.25v-12.67h-3.64c-1.89,0-3.63,1.04-4.53,2.71h0c-.83,1.54-.82,3.39.03,4.92l1.28,2.31c.93,1.68,2.7,2.72,4.61,2.72Z"/>
                <path class="cls-17" d="M190.71,376.08l1.28-2.31c.85-1.53.86-3.38.03-4.92h0c-.9-1.67-2.64-2.71-4.53-2.71h-3.64v12.67h2.25c1.92,0,3.69-1.04,4.61-2.72Z"/>
              </g>
              <path class="cls-11" d="M161.91,399.63c13.73,0,24.86-11.13,24.86-24.86v-21.31c0-13.73-11.13-24.86-24.86-24.86h0c-13.73,0-24.86,11.13-24.86,24.86v21.31c0,13.73,11.13,24.86,24.86,24.86h0Z"/>
              <path class="cls-2" d="M142.51,351.63c.43-2.47,2.58-4.27,5.08-4.27h8.1l4.06-18.77c-1.39,0-2.77.27-4.06.78-.57-.5-1.3-.78-2.06-.78-9.94,0-17.99,8.06-17.99,17.99v19.54c2.51,0,4.65-1.8,5.08-4.27l1.79-10.22Z"/>
              <path class="cls-6" d="M135.64,339.74c0,4.21,3.41,7.62,7.62,7.62h32.96c2.51,0,4.65,1.8,5.08,4.27l1.79,10.22c.43,2.47,2.58,4.27,5.08,4.27v-19.54c0-9.94-8.06-17.99-17.99-17.99h-20.14c-4.29,0-8.34-1.96-10.99-5.33-2.23,3.48-3.42,7.53-3.42,11.66v4.81Z"/>
              <g>
                <g>
                  <path class="cls-5" d="M153.56,367.73c0-1.37-1.11-2.49-2.49-2.49s-2.49,1.11-2.49,2.49,1.11,2.49,2.49,2.49,2.49-1.11,2.49-2.49Z"/>
                  <path class="cls-10" d="M153.09,366.63c0-.51-.41-.92-.92-.92s-.92.41-.92.92.41.92.92.92.92-.41.92-.92Z"/>
                </g>
                <g>
                  <path class="cls-5" d="M175.23,367.73c0-1.37-1.11-2.49-2.49-2.49s-2.49,1.11-2.49,2.49,1.11,2.49,2.49,2.49,2.49-1.11,2.49-2.49Z"/>
                  <path class="cls-10" d="M174.75,366.63c0-.51-.41-.92-.92-.92s-.92.41-.92.92.41.92.92.92.92-.41.92-.92Z"/>
                </g>
                <path class="cls-2" d="M153.74,360.56h-6.19c-1.67,0-3.02,1.35-3.02,3.02v.53h10.66v-2.1c0-.8-.65-1.45-1.45-1.45Z"/>
                <path class="cls-2" d="M176.26,360.56h-6.19c-.8,0-1.45.65-1.45,1.45v2.1h10.66v-.53c0-1.67-1.35-3.02-3.02-3.02Z"/>
              </g>
              <path class="cls-17" d="M164.54,381.19h0c1.03-.64,1.51-1.55,1.34-2.44-.02-.08-.2-.22-.48-.38-2.17-1.27-4.85-1.27-7.02,0-.28.16-.46.3-.48.38-.17.89.31,1.8,1.34,2.44,1.68.76,3.6.76,5.28,0Z"/>
            </g>
            <g>
              <path class="cls-8" d="M287.33,395.1h48.19c8.42,0,15.24-6.82,15.24-15.24h0c-4.36,0-8.05-3.19-8.7-7.49l-4.57-30.5c-1.53-10.23-10.32-17.8-20.66-17.8h0c-.76,0-1.49.28-2.06.78-1.29-.52-2.67-.78-4.06-.78h-10.43c-10.34,0-19.13,7.57-20.66,17.8l-4.57,30.5c-.65,4.31-4.34,7.49-8.7,7.49h0c0,8.42,6.82,15.24,15.24,15.24h5.74Z"/>
              <rect class="cls-7" x="282.29" y="365.68" width="52.54" height="29.42"/>
              <g>
                <path class="cls-17" d="M284.38,374.26h2.25v-12.67h-3.64c-1.89,0-3.63,1.04-4.53,2.71-.83,1.54-.82,3.39.03,4.92l1.28,2.31c.93,1.68,2.7,2.72,4.61,2.72Z"/>
                <path class="cls-17" d="M337.36,371.54l1.28-2.31c.85-1.53.86-3.38.03-4.92-.9-1.67-2.64-2.71-4.53-2.71h-3.64v12.67h2.25c1.92,0,3.69-1.04,4.61-2.72Z"/>
              </g>
              <path class="cls-11" d="M308.56,395.1c13.73,0,24.86-11.13,24.86-24.86v-21.31c0-13.73-11.13-24.86-24.86-24.86h0c-13.73,0-24.86,11.13-24.86,24.86v21.31c0,13.73,11.13,24.86,24.86,24.86h0Z"/>
              <path class="cls-8" d="M314.78,342.83s5.89,13.65,18.65,13.65h1.47v-13.65s.04-6.43-2.45-11.76c-2.97-3.34-6.99-5.69-11.5-6.59-1.33-.27-2.7-.41-4.1-.41-.76,0-1.49.28-2.06.78-1.29-.52-2.67-.78-4.06-.78h-8.37c-20.25,0-20.06,18.77-20.06,18.77v13.65h1.41c20.6,0,31.08-13.65,31.08-13.65Z"/>
              <g>
                <g>
                  <g>
                    <path class="cls-5" d="M300.21,363.19c0-1.37-1.11-2.49-2.49-2.49s-2.49,1.11-2.49,2.49,1.11,2.49,2.49,2.49,2.49-1.11,2.49-2.49Z"/>
                    <path class="cls-10" d="M299.74,362.1c0-.51-.41-.92-.92-.92s-.92.41-.92.92.41.92.92.92.92-.41.92-.92Z"/>
                  </g>
                  <g>
                    <path class="cls-5" d="M321.88,363.19c0-1.37-1.11-2.49-2.49-2.49s-2.49,1.11-2.49,2.49,1.11,2.49,2.49,2.49,2.49-1.11,2.49-2.49Z"/>
                    <path class="cls-10" d="M321.41,362.1c0-.51-.41-.92-.92-.92s-.92.41-.92.92.41.92.92.92.92-.41.92-.92Z"/>
                  </g>
                  <path class="cls-7" d="M300.12,358.69c.94.05,1.72-.7,1.72-1.64s-.85-1.74-1.82-1.63l-1.19.13c-2.98.31-5.72,1.76-7.65,4.04l.55-.22c1.57-.63,3.25-.92,4.94-.84l3.45.17Z"/>
                  <path class="cls-7" d="M320.44,358.52c1.69-.08,3.37.2,4.94.84l.55.22c-1.94-2.28-4.68-3.73-7.65-4.04l-1.19-.13c-.97-.1-1.82.66-1.82,1.63s.79,1.69,1.72,1.64l3.45-.17Z"/>
                </g>
                <path class="cls-17" d="M311.19,376.65h0c1.03-.64,1.51-1.55,1.34-2.44-.02-.08-.2-.22-.48-.38-2.17-1.27-4.85-1.27-7.02,0-.28.16-.46.3-.48.38-.17.89.31,1.8,1.34,2.44,1.68.76,3.6.76,5.28,0Z"/>
              </g>
              <g>
                <path class="cls-14" d="M307.09,385.41h0c.99.22,2.01.22,2.99,0h0c1.81-.4,3.39-1.5,4.38-3.07l.31-.48-2.56-.88-3.62.81-3.62-.81-2.56.88.31.48c.99,1.57,2.57,2.67,4.38,3.07Z"/>
                <path class="cls-13" d="M311.09,381.86h3.68l-2.45-1.8c-.75-.55-1.76-.62-2.57-.16l-.81.46c-.22.12-.48.12-.7,0l-.81-.46c-.81-.46-1.82-.4-2.58.16l-2.44,1.8h3.68c1.61.61,3.39.61,5.01,0Z"/>
              </g>
            </g>
            <g>
              <g>
                <path class="cls-17" d="M540.2,544.18h2.25v-12.67h-3.64c-1.89,0-3.63,1.04-4.53,2.71-.83,1.54-.82,3.39.03,4.92l1.28,2.31c.93,1.68,2.7,2.72,4.61,2.72Z"/>
                <path class="cls-17" d="M593.18,541.46l1.28-2.31c.85-1.53.86-3.38.03-4.92-.9-1.67-2.64-2.71-4.53-2.71h-3.64v12.67h2.25c1.92,0,3.68-1.04,4.61-2.72Z"/>
              </g>
              <path class="cls-11" d="M564.38,565.02c13.73,0,24.86-11.13,24.86-24.86v-21.31c0-13.73-11.13-24.86-24.86-24.86h0c-13.73,0-24.86,11.13-24.86,24.86v21.31c0,13.73,11.13,24.86,24.86,24.86h0Z"/>
              <g>
                <g>
                  <circle class="cls-5" cx="553.55" cy="533.11" r="2.49"/>
                  <path class="cls-10" d="M555.56,532.02c0-.51-.41-.92-.92-.92s-.92.41-.92.92.41.92.92.92.92-.41.92-.92Z"/>
                </g>
                <g>
                  <circle class="cls-5" cx="575.21" cy="533.11" r="2.49"/>
                  <path class="cls-10" d="M577.23,532.02c0-.51-.41-.92-.92-.92s-.92.41-.92.92.41.92.92.92.92-.41.92-.92Z"/>
                </g>
                <path class="cls-8" d="M556.22,525.95h-6.19c-1.67,0-3.02,1.35-3.02,3.02v.53h10.66v-2.1c0-.8-.65-1.45-1.45-1.45Z"/>
                <path class="cls-8" d="M578.73,525.95h-6.19c-.8,0-1.45.65-1.45,1.45v2.1h10.66v-.53c0-1.67-1.35-3.02-3.02-3.02Z"/>
              </g>
              <path class="cls-17" d="M567.01,546.57h0c1.03-.64,1.51-1.55,1.34-2.44-.02-.08-.2-.22-.48-.38-2.17-1.27-4.85-1.27-7.02,0-.28.16-.46.3-.48.38-.17.89.31,1.8,1.34,2.44,1.68.76,3.6.76,5.28,0Z"/>
              <path class="cls-8" d="M544.98,517.02c.43-2.47,2.58-4.27,5.08-4.27h28.62c2.51,0,4.65,1.8,5.08,4.27l1.79,10.22c.43,2.47,2.58,4.27,5.08,4.27v-19.54c0-9.94-8.06-17.99-17.99-17.99h-16.55c-9.94,0-17.99,8.06-17.99,17.99v19.54c2.51,0,4.65-1.8,5.08-4.27l1.79-10.22Z"/>
              <polygon class="cls-8" points="578.5 512.75 584.54 521.37 584.82 509.96 544.61 509.96 544.22 521.09 555.33 512.75 553.32 521.09 566.8 512.85 565.77 521.09 578.5 512.75"/>
              <g>
                <path class="cls-17" d="M565.37,553.95l.8-.1c1.65-.21,3.19-.94,4.39-2.07l-2.56-.88-3.62.81-3.62-.81-2.56.88c1.21,1.14,2.75,1.87,4.39,2.07l.8.1c.66.08,1.32.08,1.97,0Z"/>
                <path class="cls-15" d="M567.14,551.92l3.42-.14-3.16-1.16c-.6-.22-1.26-.25-1.88-.07-.75.21-1.55.21-2.3,0-.62-.18-1.28-.15-1.88.07l-3.16,1.16,3.42.14c1.84.08,3.69.08,5.53,0Z"/>
              </g>
            </g>
          </g>
          <g>
            <path class="cls-9" d="M346.14,463.35l-15.36,13.52c16.5,1.49,15.36-13.52,15.36-13.52Z"/>
            <path class="cls-16" d="M330.78,476.87l15.36-13.52s-14.75-3.03-15.36,13.52Z"/>
          </g>
          <g>
            <path class="cls-9" d="M236.83,188.02l-16.39-12.26c1.93,16.46,16.39,12.26,16.39,12.26Z"/>
            <path class="cls-16" d="M220.44,175.76l16.39,12.26s-.06-15.05-16.39-12.26Z"/>
          </g>
          <g>
            <path class="cls-9" d="M563.79,215.88l10.57-17.53c-16.18,3.56-10.57,17.53-10.57,17.53Z"/>
            <path class="cls-16" d="M574.36,198.35l-10.57,17.53s14.97-1.55,10.57-17.53Z"/>
          </g>
          <g>
            <path class="cls-9" d="M447.37,520.8l14.1,14.83c.85-16.55-14.1-14.83-14.1-14.83Z"/>
            <path class="cls-16" d="M447.37,520.8s-2.47,14.85,14.1,14.83l-14.1-14.83Z"/>
          </g>
          <g>
            <path class="cls-9" d="M210.56,445.95l18.07-9.62c-15.71-5.25-18.07,9.62-18.07,9.62Z"/>
            <path class="cls-16" d="M228.63,436.33l-18.07,9.62s13.65,6.35,18.07-9.62Z"/>
          </g>
          <g>
            <path class="cls-9" d="M641.59,269.27l20.37-1.98c-12.51-10.86-20.37,1.98-20.37,1.98Z"/>
            <path class="cls-16" d="M661.96,267.29l-20.37,1.98s10.18,11.09,20.37-1.98Z"/>
          </g>
          <g>
            <path class="cls-9" d="M632.93,238.69c-12.82,10.5-1.48,20.41-1.48,20.41l1.48-20.41Z"/>
            <path class="cls-16" d="M632.93,238.69l-1.48,20.41s12.65-8.17,1.48-20.41Z"/>
          </g>
          <g>
            <path class="cls-9" d="M207.91,426.23l20.17,3.48c-9.19-13.79-20.17-3.48-20.17-3.48Z"/>
            <path class="cls-16" d="M228.07,429.71l-20.17-3.48s6.88,13.39,20.17,3.48Z"/>
          </g>
          <g>
            <path class="cls-9" d="M229.31,289.7l4.46,19.98c9.25-13.75-4.46-19.98-4.46-19.98Z"/>
            <path class="cls-16" d="M229.31,289.7s-9.76,11.46,4.46,19.98l-4.46-19.98Z"/>
          </g>
          <g>
            <path class="cls-9" d="M641.04,262.51l9.61-18.07c-15.97,4.42-9.61,18.07-9.61,18.07Z"/>
            <path class="cls-16" d="M650.65,244.44l-9.61,18.07s14.87-2.35,9.61-18.07Z"/>
          </g>
          <g>
            <path class="cls-9" d="M585.27,246.07c-6.29,15.33,8.39,18.67,8.39,18.67l-8.39-18.67Z"/>
            <path class="cls-16" d="M585.27,246.07l8.39,18.67s7.25-13.19-8.39-18.67Z"/>
          </g>
          <g>
            <path class="cls-9" d="M569.48,224.86l18.03-9.68c-15.73-5.2-18.03,9.68-18.03,9.68Z"/>
            <path class="cls-16" d="M587.51,215.18l-18.03,9.68s13.67,6.3,18.03-9.68Z"/>
          </g>
          <g>
            <path class="cls-9" d="M394.04,124.01l-16.46-12.16c2.03,16.44,16.46,12.16,16.46,12.16Z"/>
            <path class="cls-16" d="M377.58,111.85l16.46,12.16s-.15-15.05-16.46-12.16Z"/>
          </g>
          <g>
            <path class="cls-9" d="M405.97,130.39l15.89-12.9c-16.43-2.15-15.89,12.9-15.89,12.9Z"/>
            <path class="cls-16" d="M421.86,117.5l-15.89,12.9s14.61,3.62,15.89-12.9Z"/>
          </g>
          <g>
            <path class="cls-9" d="M227.35,281.62l-14.9,14.03c16.54.94,14.9-14.03,14.9-14.03Z"/>
            <path class="cls-16" d="M212.45,295.65l14.9-14.03s-14.84-2.54-14.9,14.03Z"/>
          </g>
          <g>
            <path class="cls-9" d="M230.52,282.11l17.32,10.9c-3.25-16.25-17.32-10.9-17.32-10.9Z"/>
            <path class="cls-16" d="M247.84,293.01l-17.32-10.9s1.27,15,17.32,10.9Z"/>
          </g>
          <g>
            <path class="cls-9" d="M371.6,551.04l-20.11,3.82c13.45,9.68,20.11-3.82,20.11-3.82Z"/>
            <path class="cls-16" d="M351.49,554.86l20.11-3.82s-11.15-10.12-20.11,3.82Z"/>
          </g>
          <g>
            <path class="cls-9" d="M379.73,549.34l-13.55-15.34c-1.46,16.5,13.55,15.34,13.55,15.34Z"/>
            <path class="cls-16" d="M366.18,534l13.55,15.34s3.01-14.75-13.55-15.34Z"/>
          </g>
          <g>
            <path class="cls-9" d="M379.14,552.49l-11.45,16.96c16.34-2.73,11.45-16.96,11.45-16.96Z"/>
            <path class="cls-16" d="M367.69,569.45l11.45-16.96s-15.03.79-11.45,16.96Z"/>
          </g>
          <g>
            <path class="cls-9" d="M401.81,99.69c-12.49,10.88-.87,20.45-.87,20.45l.87-20.45Z"/>
            <path class="cls-16" d="M401.81,99.69l-.87,20.45s12.4-8.54.87-20.45Z"/>
          </g>
          <g>
            <path class="cls-9" d="M222.05,245.23l-8.56,18.59c15.69-5.33,8.56-18.59,8.56-18.59Z"/>
            <path class="cls-16" d="M213.49,263.82l8.56-18.59s-14.71,3.21-8.56,18.59Z"/>
          </g>
          <g>
            <path class="cls-9" d="M603.34,264.26l4.63-19.94c-14.29,8.39-4.63,19.94-4.63,19.94Z"/>
            <path class="cls-16" d="M607.97,244.32l-4.63,19.94s13.76-6.11,4.63-19.94Z"/>
          </g>
          <g>
            <path class="cls-9" d="M141.09,480.28l13.85-15.07c-16.57.26-13.85,15.07-13.85,15.07Z"/>
            <path class="cls-16" d="M154.94,465.21l-13.85,15.07s14.98,1.46,13.85-15.07Z"/>
          </g>
        </g>
        <rect class="cls-2" x="162.6" y="735.67" width="472.79" height="32"/>
        <g>
          <polygon class="cls-2" points="162.73 762.07 162.73 741.27 139.39 741.27 147.6 751.67 139.39 762.07 162.73 762.07"/>
          <polygon class="cls-2" points="635.27 741.27 635.27 762.07 658.61 762.07 650.4 751.67 658.61 741.27 635.27 741.27"/>
        </g>
        <text class="cls-27" transform="translate(169.07 761.12)"><tspan class="cls-30" x="0" y="0">Mein </tspan><tspan class="cls-22" x="87.93" y="0">f</tspan><tspan class="cls-30" x="101.97" y="0">amilliens</tspan><tspan class="cls-29" x="256.46" y="0">t</tspan><tspan class="cls-25" x="271.8" y="0">ammm</tspan><tspan class="cls-18" x="374.4" y="0">b</tspan><tspan class="cls-25" x="394.42" y="0">aum</tspan></text>
      </g>
      <rect class="cls-2" x="263.96" y="224.86" width="99.08" height="24.33"/>
      <text class="cls-26" transform="translate(287.57 239.73)"><tspan class="cls-23" x="0" y="0">Lah</tspan><tspan class="cls-20" x="27.81" y="0">c</tspan><tspan class="cls-28" x="35.73" y="0">en</tspan></text>
      <rect class="cls-2" x="111.39" y="401.9" width="99.08" height="24.33"/>
      <text class="cls-24" transform="translate(150.01 416.77)"><tspan x="0" y="0">Ich</tspan></text>
      <rect class="cls-2" x="259.02" y="401.9" width="99.08" height="24.33"/>
      <text class="cls-26" transform="translate(292.01 416.77)"><tspan class="cls-23" x="0" y="0">Hi</tspan><tspan class="cls-19" x="16.9" y="0">b</tspan><tspan class="cls-28" x="26.41" y="0">a</tspan></text>
      <rect class="cls-2" x="441.51" y="401.9" width="99.08" height="24.33"/>
      <text class="cls-26" transform="translate(467.78 416.77)"><tspan class="cls-23" x="0" y="0">Ja</tspan><tspan class="cls-21" x="18.04" y="0">w</tspan><tspan class="cls-28" x="30.23" y="0">ad</tspan></text>
      <rect class="cls-2" x="590.94" y="401.9" width="99.08" height="24.33"/>
      <text class="cls-24" transform="translate(617.87 416.77)"><tspan x="0" y="0">Amina</tspan></text>
      <rect class="cls-2" x="514.98" y="569.19" width="99.08" height="24.33"/>
      <text class="cls-24" transform="translate(544.31 584.06)"><tspan x="0" y="0">Islam</tspan></text>
      <rect class="cls-2" x="436.6" y="224.86" width="99.08" height="24.33"/>
      <text class="cls-24" transform="translate(466.04 239.73)"><tspan x="0" y="0">Aicha</tspan></text>
    </g>
    <text class="cls-27" transform="translate(108.21 58.66)"><tspan class="cls-25" x="0" y="0">Das ist mein </tspan><tspan class="cls-22" x="215.02" y="0">f</tspan><tspan class="cls-30" x="229.06" y="0">amilliens</tspan><tspan class="cls-18" x="383.55" y="0">t</tspan><tspan class="cls-30" x="398.89" y="0">ammm</tspan><tspan class="cls-18" x="501.48" y="0">b</tspan><tspan class="cls-30" x="521.5" y="0">aum</tspan></text>
  </g>
</svg>