<?xml version="1.0" encoding="UTF-8"?>
<svg id="Layer_1" data-name="Layer 1" xmlns="http://www.w3.org/2000/svg" viewBox="0 0 1025.83 819.29">
  <defs>
    <style>
      .cls-1 {
        stroke: #231f20;
      }

      .cls-1, .cls-2 {
        fill: none;
        stroke-miterlimit: 10;
      }

      .cls-3 {
        fill: #bdbdbd;
      }

      .cls-3, .cls-4, .cls-5, .cls-6, .cls-7, .cls-8, .cls-9, .cls-10, .cls-11, .cls-12 {
        stroke-width: 0px;
      }

      .cls-4 {
        fill: #f9ed24;
      }

      .cls-5 {
        fill: #d42f2f;
      }

      .cls-2 {
        stroke: #000;
        stroke-width: 2px;
      }

      .cls-6 {
        fill: #3c5aa9;
      }

      .cls-7 {
        fill: #231f20;
      }

      .cls-8 {
        fill: #259a47;
      }

      .cls-9 {
        fill: #f5f6f6;
      }

      .cls-10, .cls-13 {
        fill: #ed2024;
      }

      .cls-11 {
        fill: #212121;
      }

      .cls-12 {
        fill: #eaeaea;
      }

      .cls-13 {
        font-family: MyriadPro-Regular, 'Myriad Pro';
        font-size: 20.74px;
      }
    </style>
  </defs>
  <g>
    <g>
      <g>
        <path class="cls-3" d="M370.65,602.61c-5.97,0-10.83-4.86-10.83-10.83s4.86-10.83,10.83-10.83,10.83,4.86,10.83,10.83-4.86,10.83-10.83,10.83Z"/>
        <path class="cls-11" d="M370.65,659.69c-37.45,0-67.92-30.47-67.92-67.92s30.47-67.92,67.92-67.92,67.92,30.47,67.92,67.92-30.47,67.92-67.92,67.92ZM370.65,524.23c-37.25,0-67.55,30.3-67.55,67.55s30.3,67.55,67.55,67.55,67.55-30.3,67.55-67.55-30.3-67.55-67.55-67.55Z"/>
        <g>
          <g>
            <path class="cls-11" d="M370.65,482.82c-1.67,0-3.03-1.36-3.03-3.03s1.36-3.03,3.03-3.03,3.03,1.36,3.03,3.03-1.36,3.03-3.03,3.03Z"/>
            <path class="cls-11" d="M316.17,497.42c-1.44.83-3.3.34-4.13-1.11-.84-1.45-.34-3.3,1.11-4.13,1.45-.83,3.3-.34,4.14,1.11.83,1.45.34,3.3-1.11,4.14Z"/>
            <path class="cls-11" d="M276.29,537.31c-.83,1.44-2.69,1.94-4.14,1.1-1.44-.83-1.94-2.69-1.11-4.13.84-1.45,2.69-1.94,4.14-1.11,1.44.84,1.94,2.69,1.11,4.14Z"/>
            <path class="cls-11" d="M261.7,591.78c0,1.66-1.36,3.02-3.04,3.02s-3.02-1.36-3.02-3.02,1.36-3.03,3.03-3.03c1.67,0,3.03,1.36,3.03,3.03Z"/>
            <path class="cls-11" d="M276.3,646.26c.83,1.44.33,3.3-1.12,4.13-1.44.83-3.29.34-4.12-1.11-.84-1.45-.34-3.3,1.1-4.14,1.45-.83,3.31-.34,4.14,1.11Z"/>
            <path class="cls-11" d="M316.17,686.14c1.44.83,1.94,2.69,1.1,4.14-.83,1.44-2.69,1.94-4.12,1.11-1.45-.84-1.95-2.69-1.12-4.14.84-1.45,2.7-1.94,4.14-1.11Z"/>
            <path class="cls-11" d="M370.65,700.74c1.66,0,3.02,1.35,3.02,3.03,0,1.66-1.35,3.02-3.02,3.02s-3.03-1.36-3.04-3.03c0-1.67,1.36-3.03,3.04-3.03Z"/>
            <path class="cls-11" d="M425.13,686.14c1.44-.84,3.29-.34,4.13,1.12.83,1.44.34,3.29-1.11,4.12-1.45.84-3.3.34-4.14-1.1-.82-1.45-.33-3.31,1.12-4.14Z"/>
            <path class="cls-11" d="M465.01,646.26c.82-1.45,2.68-1.94,4.13-1.1,1.44.84,1.94,2.68,1.11,4.12-.83,1.45-2.69,1.94-4.14,1.12-1.44-.84-1.94-2.69-1.1-4.14Z"/>
            <path class="cls-11" d="M479.6,591.78c-.01-1.67,1.35-3.03,3.03-3.02,1.67,0,3.03,1.35,3.03,3.02s-1.36,3.03-3.03,3.04c-1.67,0-3.03-1.37-3.03-3.03Z"/>
            <path class="cls-11" d="M465.01,537.31c-.84-1.44-.34-3.3,1.11-4.13,1.45-.83,3.3-.34,4.13,1.1.83,1.45.33,3.3-1.11,4.14-1.46.83-3.31.33-4.13-1.11Z"/>
            <path class="cls-11" d="M425.13,497.43c-1.45-.83-1.95-2.69-1.11-4.14.84-1.44,2.7-1.94,4.13-1.11,1.45.84,1.94,2.69,1.11,4.14-.84,1.44-2.69,1.94-4.13,1.11Z"/>
          </g>
          <g>
            <path class="cls-11" d="M360.94,480.83c-1,.09-1.88-.65-1.97-1.65-.08-1,.65-1.88,1.65-1.97,1-.09,1.88.65,1.97,1.65.09,1-.65,1.88-1.65,1.97Z"/>
            <path class="cls-11" d="M351.3,482.09c-.98.17-1.92-.49-2.1-1.47s.48-1.93,1.47-2.1c.98-.18,1.93.48,2.1,1.47.18.99-.49,1.93-1.48,2.1Z"/>
            <path class="cls-11" d="M341.81,484.2c-.97.26-1.96-.32-2.22-1.28-.26-.97.31-1.96,1.28-2.22.96-.26,1.97.31,2.22,1.28.26.96-.32,1.96-1.28,2.22Z"/>
            <path class="cls-11" d="M332.55,487.12c-.95.34-1.99-.15-2.33-1.08-.35-.94.14-1.99,1.08-2.33.94-.34,1.99.14,2.33,1.09.34.94-.15,1.98-1.08,2.33Z"/>
            <path class="cls-11" d="M323.57,490.83c-.91.42-1.99.03-2.41-.88-.43-.91-.03-1.99.87-2.42.9-.42,2-.03,2.41.88.43.91.03,1.99-.88,2.41Z"/>
            <path class="cls-11" d="M306.75,500.54c-.82.57-1.95.37-2.52-.44-.58-.82-.38-1.96.44-2.53.82-.57,1.96-.37,2.53.45.58.82.37,1.96-.44,2.53Z"/>
            <path class="cls-11" d="M299.04,506.46c-.77.64-1.92.54-2.56-.22-.64-.77-.55-1.92.22-2.57.77-.64,1.93-.54,2.56.23.65.77.54,1.91-.22,2.56Z"/>
            <path class="cls-11" d="M291.87,513.02c-.71.71-1.86.7-2.57,0-.71-.71-.71-1.86,0-2.58.7-.7,1.87-.71,2.57,0,.71.71.71,1.86,0,2.57Z"/>
            <path class="cls-11" d="M285.3,520.19c-.65.77-1.8.86-2.55.22-.77-.64-.87-1.79-.24-2.56.64-.76,1.81-.87,2.56-.22.77.64.87,1.79.23,2.55Z"/>
            <path class="cls-11" d="M279.39,527.9c-.58.82-1.72,1.01-2.53.45-.83-.57-1.03-1.71-.46-2.53.58-.81,1.73-1.02,2.53-.44.82.57,1.02,1.71.45,2.53Z"/>
            <path class="cls-11" d="M269.68,544.72c-.43.91-1.52,1.3-2.41.88-.92-.42-1.31-1.51-.89-2.41.43-.9,1.52-1.31,2.42-.87.91.42,1.3,1.5.89,2.41Z"/>
            <path class="cls-11" d="M265.96,553.69c-.35.94-1.39,1.42-2.33,1.09-.95-.34-1.43-1.39-1.1-2.32.35-.94,1.4-1.44,2.33-1.08.94.34,1.43,1.39,1.09,2.32Z"/>
            <path class="cls-11" d="M263.04,562.96c-.27.97-1.27,1.54-2.22,1.29-.97-.26-1.55-1.26-1.3-2.22.26-.97,1.27-1.56,2.23-1.28.96.26,1.54,1.26,1.29,2.22Z"/>
            <path class="cls-11" d="M260.93,572.45c-.18.99-1.13,1.64-2.1,1.48-.99-.17-1.65-1.12-1.48-2.1.18-.98,1.13-1.66,2.1-1.47.98.17,1.65,1.12,1.48,2.09Z"/>
            <path class="cls-11" d="M259.66,582.09c-.09,1-.98,1.74-1.96,1.65-1.01-.09-1.75-.97-1.66-1.96.09-1,.97-1.75,1.97-1.65.99.08,1.74.97,1.66,1.96Z"/>
            <path class="cls-11" d="M259.66,601.5c.08,1-.66,1.88-1.65,1.97-1.01.09-1.89-.66-1.98-1.64-.08-1,.66-1.89,1.65-1.97.99-.09,1.88.65,1.97,1.64Z"/>
            <path class="cls-11" d="M260.92,611.14c.17.99-.5,1.93-1.47,2.11-1,.18-1.94-.49-2.11-1.47-.17-.99.49-1.94,1.48-2.1.98-.18,1.92.48,2.1,1.46Z"/>
            <path class="cls-11" d="M263.02,620.63c.26.97-.32,1.96-1.27,2.22-.98.27-1.98-.32-2.24-1.27-.26-.97.32-1.98,1.29-2.23.96-.26,1.96.32,2.22,1.28Z"/>
            <path class="cls-11" d="M265.94,629.9c.34.95-.15,1.99-1.07,2.33-.95.34-2-.14-2.34-1.07-.34-.95.14-2,1.09-2.33.93-.35,1.98.15,2.32,1.08Z"/>
            <path class="cls-11" d="M269.66,638.88c.43.92.02,2-.87,2.42-.92.43-2,.03-2.43-.87-.42-.92-.03-2.01.88-2.42.9-.42,1.99-.02,2.41.87Z"/>
            <path class="cls-11" d="M279.37,655.69c.58.83.37,1.97-.44,2.54-.83.58-1.97.38-2.54-.43-.57-.83-.38-1.96.45-2.54.81-.57,1.96-.37,2.52.43Z"/>
            <path class="cls-11" d="M285.29,663.41c.65.78.54,1.92-.21,2.55-.78.65-1.93.55-2.57-.21-.64-.78-.55-1.92.23-2.56.75-.64,1.92-.54,2.55.22Z"/>
            <path class="cls-11" d="M291.85,670.57c.72.71.71,1.87,0,2.57-.71.71-1.87.71-2.57,0-.71-.71-.71-1.86,0-2.57.69-.7,1.87-.71,2.56,0Z"/>
            <path class="cls-11" d="M299.01,677.14c.78.65.87,1.8.24,2.55-.65.77-1.81.88-2.56.24-.77-.65-.88-1.8-.22-2.56.63-.76,1.8-.87,2.55-.23Z"/>
            <path class="cls-11" d="M306.72,683.06c.83.58,1.02,1.72.46,2.52-.58.83-1.72,1.03-2.53.46-.83-.58-1.03-1.71-.44-2.53.56-.82,1.72-1.03,2.52-.45Z"/>
            <path class="cls-11" d="M323.54,692.77c.92.44,1.31,1.52.89,2.41-.43.91-1.51,1.32-2.41.89-.91-.43-1.31-1.51-.87-2.42.41-.9,1.51-1.3,2.4-.89Z"/>
            <path class="cls-11" d="M332.52,696.49c.96.35,1.43,1.4,1.09,2.32-.35.95-1.39,1.44-2.32,1.11-.95-.35-1.44-1.39-1.08-2.34.33-.94,1.4-1.43,2.31-1.09Z"/>
            <path class="cls-11" d="M341.79,699.41c.98.27,1.55,1.27,1.29,2.22-.26.98-1.26,1.56-2.22,1.31-.97-.26-1.56-1.26-1.28-2.23.25-.96,1.27-1.55,2.21-1.29Z"/>
            <path class="cls-11" d="M351.27,701.52c1.01.18,1.66,1.14,1.48,2.1-.17.99-1.12,1.66-2.1,1.49-.99-.18-1.66-1.13-1.47-2.12.16-.97,1.13-1.65,2.09-1.48Z"/>
            <path class="cls-11" d="M360.91,702.78c1.02.09,1.75.98,1.66,1.97-.08,1-.97,1.75-1.96,1.67-1.01-.09-1.75-.97-1.65-1.98.08-.98.98-1.74,1.95-1.66Z"/>
            <path class="cls-11" d="M380.33,702.79c1.02-.08,1.89.67,1.97,1.65.09,1.01-.65,1.9-1.65,1.99-1,.08-1.88-.65-1.96-1.66-.09-.98.67-1.89,1.64-1.97Z"/>
            <path class="cls-11" d="M389.96,701.52c1-.17,1.94.5,2.11,1.47.18,1-.48,1.95-1.47,2.12-.99.17-1.93-.49-2.1-1.49-.18-.97.5-1.94,1.46-2.1Z"/>
            <path class="cls-11" d="M399.46,699.42c.97-.26,1.97.33,2.22,1.28.27.98-.31,1.99-1.28,2.24-.97.26-1.97-.31-2.22-1.29-.26-.96.33-1.97,1.28-2.23Z"/>
            <path class="cls-11" d="M408.73,696.49c.96-.34,1.99.16,2.33,1.08.35.96-.14,2.01-1.08,2.35-.95.34-1.99-.14-2.33-1.09-.34-.93.16-1.99,1.08-2.33Z"/>
            <path class="cls-11" d="M417.7,692.78c.93-.42,2-.02,2.41.87.44.92.04,2.01-.86,2.43-.92.43-2,.03-2.42-.89-.42-.89,0-2,.87-2.41Z"/>
            <path class="cls-11" d="M434.52,683.07c.84-.57,1.97-.36,2.53.44.6.83.39,1.98-.43,2.54-.82.58-1.96.38-2.54-.45-.57-.8-.36-1.97.43-2.53Z"/>
            <path class="cls-11" d="M442.23,677.15c.78-.64,1.92-.53,2.55.22.65.77.56,1.93-.21,2.57-.78.65-1.91.55-2.56-.23-.64-.76-.54-1.93.22-2.56Z"/>
            <path class="cls-11" d="M449.4,670.59c.72-.71,1.86-.69,2.55,0,.73.71.73,1.87.02,2.58-.71.71-1.85.7-2.56,0-.71-.7-.71-1.88,0-2.57Z"/>
            <path class="cls-11" d="M455.97,663.42c.65-.77,1.8-.86,2.54-.22.78.64.89,1.81.25,2.56-.64.77-1.78.87-2.55.22-.77-.63-.87-1.81-.24-2.56Z"/>
            <path class="cls-11" d="M461.89,655.71c.58-.82,1.71-1,2.52-.44.83.58,1.04,1.72.46,2.54-.58.82-1.69,1.02-2.53.44-.82-.56-1.02-1.73-.45-2.53Z"/>
            <path class="cls-11" d="M471.59,638.9c.44-.91,1.51-1.29,2.4-.87.93.42,1.33,1.51.9,2.41-.43.91-1.48,1.3-2.41.87-.9-.41-1.31-1.52-.89-2.41Z"/>
            <path class="cls-11" d="M475.31,629.92c.36-.95,1.4-1.42,2.32-1.08.96.34,1.46,1.39,1.11,2.33-.34.94-1.37,1.42-2.33,1.07-.94-.33-1.43-1.4-1.1-2.32Z"/>
            <path class="cls-11" d="M478.23,620.65c.28-.97,1.28-1.53,2.22-1.28.98.26,1.57,1.26,1.3,2.22-.25.97-1.24,1.53-2.22,1.27-.96-.24-1.55-1.27-1.3-2.22Z"/>
            <path class="cls-11" d="M480.34,611.17c.19-.99,1.14-1.64,2.1-1.47.99.17,1.66,1.12,1.48,2.1-.17.99-1.1,1.63-2.1,1.46-.98-.16-1.66-1.13-1.49-2.1Z"/>
            <path class="cls-11" d="M481.61,601.53c.1-1.01.98-1.73,1.97-1.65,1,.09,1.76.97,1.67,1.96-.09,1-.96,1.73-1.97,1.64-.99-.07-1.75-.98-1.66-1.96Z"/>
            <path class="cls-11" d="M481.61,582.11c-.07-1.01.67-1.87,1.66-1.97,1-.08,1.89.66,1.98,1.65.09,1-.64,1.87-1.66,1.96-.98.1-1.89-.66-1.98-1.64Z"/>
            <path class="cls-11" d="M480.34,572.48c-.16-1,.51-1.92,1.48-2.1.99-.17,1.95.49,2.12,1.47.17.99-.48,1.92-1.48,2.09-.98.18-1.95-.5-2.12-1.46Z"/>
            <path class="cls-11" d="M478.23,562.99c-.24-.99.34-1.96,1.3-2.22.97-.26,1.98.31,2.23,1.28.26.97-.31,1.95-1.29,2.22-.96.26-1.99-.33-2.24-1.27Z"/>
            <path class="cls-11" d="M475.31,553.72c-.32-.96.17-1.98,1.1-2.33.95-.34,1.99.14,2.34,1.08.34.94-.14,1.97-1.09,2.32-.93.35-2-.15-2.35-1.07Z"/>
            <path class="cls-11" d="M471.59,544.75c-.41-.93,0-1.99.89-2.41.92-.43,2-.04,2.42.87.43.91.03,1.97-.88,2.4-.9.43-2.01.03-2.43-.86Z"/>
            <path class="cls-11" d="M461.89,527.93c-.57-.84-.35-1.96.45-2.53.83-.58,1.97-.39,2.53.44.58.82.38,1.94-.44,2.52-.81.58-1.98.38-2.54-.43Z"/>
            <path class="cls-11" d="M455.97,520.22c-.63-.79-.51-1.92.24-2.56.78-.65,1.93-.56,2.56.22.65.77.54,1.9-.23,2.54-.76.65-1.93.55-2.57-.21Z"/>
            <path class="cls-11" d="M449.4,513.05c-.7-.73-.68-1.87,0-2.57.72-.72,1.87-.72,2.58,0,.71.7.7,1.84,0,2.55-.7.71-1.87.71-2.58.02Z"/>
            <path class="cls-11" d="M442.24,506.49c-.77-.67-.84-1.8-.22-2.56.65-.78,1.81-.88,2.57-.23.77.64.85,1.78.21,2.54-.63.77-1.81.87-2.56.24Z"/>
            <path class="cls-11" d="M434.54,500.57c-.82-.6-1-1.72-.43-2.53.58-.83,1.71-1.03,2.53-.45.81.57,1,1.7.44,2.51-.57.82-1.72,1.03-2.54.47Z"/>
            <path class="cls-11" d="M417.72,490.86c-.91-.45-1.29-1.52-.87-2.41.43-.92,1.51-1.31,2.43-.89.89.42,1.28,1.5.85,2.4-.41.91-1.51,1.31-2.41.9Z"/>
            <path class="cls-11" d="M408.74,487.14c-.95-.37-1.41-1.4-1.08-2.33.35-.95,1.39-1.44,2.34-1.1.93.34,1.41,1.38,1.07,2.32-.33.94-1.39,1.44-2.33,1.1Z"/>
            <path class="cls-11" d="M399.48,484.22c-.97-.28-1.52-1.27-1.28-2.23.27-.98,1.26-1.56,2.23-1.3.95.26,1.52,1.25,1.27,2.22-.26.96-1.26,1.55-2.22,1.3Z"/>
            <path class="cls-11" d="M389.99,482.11c-1-.2-1.63-1.13-1.47-2.11.18-1,1.12-1.66,2.11-1.48.97.17,1.63,1.12,1.46,2.1-.17.98-1.12,1.65-2.1,1.49Z"/>
            <path class="cls-11" d="M380.35,480.84c-1.01-.11-1.72-.99-1.64-1.97.09-1.01.96-1.75,1.97-1.66.98.09,1.71.97,1.63,1.97-.08.99-.96,1.75-1.96,1.66Z"/>
          </g>
        </g>
        <g>
          <path class="cls-11" d="M283.83,590.35c0,7.73-3.1,11.6-9.29,11.6-1.08,0-1.93-.08-2.57-.27v-1.93c.75.23,1.59.35,2.54.35,2.24,0,3.92-.67,5.07-2.01,1.14-1.34,1.76-3.4,1.86-6.16h-.17c-.51.75-1.19,1.31-2.04,1.71-.84.39-1.8.59-2.87.59-1.81,0-3.23-.52-4.3-1.57-1.06-1.05-1.6-2.51-1.6-4.38,0-2.06.6-3.68,1.79-4.87,1.18-1.19,2.75-1.78,4.68-1.78,1.39,0,2.61.34,3.65,1.03,1.03.69,1.83,1.7,2.39,3.02.56,1.32.85,2.88.85,4.67ZM276.95,583.55c-1.33,0-2.36.42-3.08,1.24-.72.83-1.09,1.98-1.09,3.47,0,1.3.34,2.31,1.01,3.06.67.74,1.69,1.11,3.06,1.11.85,0,1.64-.17,2.35-.5.71-.34,1.28-.79,1.68-1.37.42-.57.62-1.18.62-1.81,0-.95-.19-1.82-.57-2.62-.39-.8-.92-1.43-1.6-1.9-.69-.45-1.47-.69-2.36-.69Z"/>
          <g>
            <path class="cls-11" d="M289.66,555.97h-2.16v-13.42c0-1.11.03-2.17.11-3.17-.18.18-.39.37-.63.57-.23.2-1.29,1.04-3.17,2.52l-1.17-1.47,5.15-3.85h1.87v18.83Z"/>
            <path class="cls-11" d="M309.96,546.53c0,3.25-.52,5.68-1.58,7.29-1.07,1.6-2.69,2.41-4.87,2.41s-3.69-.82-4.78-2.47c-1.09-1.64-1.64-4.05-1.64-7.23s.53-5.71,1.58-7.31c1.06-1.58,2.67-2.37,4.83-2.37s3.72.83,4.81,2.48c1.09,1.66,1.64,4.06,1.64,7.2ZM299.32,546.53c0,2.73.33,4.73,1,5.98.67,1.24,1.73,1.87,3.18,1.87s2.54-.63,3.2-1.9c.66-1.27.99-3.25.99-5.95s-.33-4.69-.99-5.94c-.66-1.26-1.73-1.89-3.2-1.89s-2.52.62-3.18,1.86c-.67,1.24-1,3.23-1,5.97Z"/>
          </g>
          <path class="cls-11" d="M289.69,627.36c1.77,0,3.18.4,4.22,1.2,1.04.79,1.56,1.9,1.56,3.31,0,.93-.3,1.77-.9,2.53-.59.77-1.54,1.46-2.85,2.09,1.58.73,2.7,1.5,3.37,2.3.67.8,1,1.74,1,2.79,0,1.56-.56,2.8-1.69,3.74-1.13.93-2.67,1.4-4.63,1.4-2.08,0-3.68-.44-4.8-1.32-1.12-.88-1.68-2.13-1.68-3.74,0-2.16,1.36-3.83,4.08-5.04-1.23-.67-2.1-1.39-2.64-2.17-.53-.78-.8-1.65-.8-2.61,0-1.36.52-2.45,1.57-3.26,1.04-.81,2.43-1.22,4.18-1.22ZM285.48,641.7c0,1.03.37,1.83,1.11,2.41.74.58,1.78.87,3.12.87s2.35-.31,3.09-.9c.74-.6,1.11-1.43,1.11-2.47,0-.83-.35-1.58-1.04-2.22-.69-.64-1.9-1.27-3.62-1.89-1.32.55-2.28,1.16-2.88,1.83-.59.66-.89,1.46-.89,2.39ZM289.66,629.09c-1.11,0-1.98.26-2.61.77-.63.52-.95,1.21-.95,2.06,0,.79.26,1.47.79,2.03.52.57,1.49,1.13,2.9,1.7,1.27-.52,2.17-1.07,2.7-1.66.53-.6.79-1.28.79-2.08,0-.87-.33-1.56-.97-2.07-.64-.51-1.53-.77-2.66-.77Z"/>
          <g>
            <path class="cls-11" d="M324.01,522.85h-2.16v-13.42c0-1.11.03-2.17.11-3.17-.19.18-.4.37-.63.57-.23.2-1.29,1.04-3.17,2.52l-1.17-1.47,5.15-3.85h1.86v18.83Z"/>
            <path class="cls-11" d="M339.6,522.85h-2.16v-13.42c0-1.11.04-2.17.11-3.17-.18.18-.39.37-.62.57-.23.2-1.29,1.04-3.17,2.52l-1.17-1.47,5.15-3.85h1.87v18.83Z"/>
          </g>
          <path class="cls-11" d="M319.97,679.55l8.07-16.85h-10.61v-1.97h12.95v1.71l-7.96,17.11h-2.45Z"/>
          <path class="cls-11" d="M364.18,683.69c0-3.89.78-6.79,2.35-8.72,1.56-1.92,3.87-2.88,6.93-2.88,1.05,0,1.88.09,2.49.26v1.93c-.72-.23-1.54-.34-2.46-.34-2.19,0-3.86.66-5.02,1.98-1.15,1.32-1.79,3.4-1.9,6.22h.17c1.03-1.55,2.65-2.32,4.86-2.32,1.84,0,3.28.53,4.35,1.61,1.05,1.07,1.58,2.53,1.58,4.37,0,2.06-.58,3.66-1.74,4.84-1.16,1.18-2.72,1.77-4.7,1.77-2.12,0-3.8-.77-5.04-2.3-1.24-1.54-1.86-3.68-1.86-6.42ZM371.04,690.51c1.32,0,2.35-.41,3.08-1.22.73-.8,1.09-1.97,1.09-3.49,0-1.31-.34-2.33-1.02-3.08-.68-.75-1.7-1.13-3.04-1.13-.84,0-1.62.17-2.31.51-.7.33-1.25.79-1.67,1.38-.42.58-.62,1.19-.62,1.82,0,.93.19,1.79.56,2.59.38.81.91,1.44,1.59,1.91.69.47,1.47.7,2.34.7Z"/>
          <path class="cls-11" d="M417.12,668.03c2.05,0,3.66.49,4.84,1.48,1.18.98,1.76,2.33,1.76,4.04,0,1.94-.63,3.48-1.92,4.58-1.28,1.11-3.05,1.66-5.31,1.66s-3.86-.34-5.02-1.02v-2.06c.62.38,1.39.68,2.32.9.93.22,1.84.33,2.73.33,1.56,0,2.78-.35,3.64-1.07.86-.71,1.3-1.74,1.3-3.09,0-2.62-1.66-3.94-4.99-3.94-.85,0-1.97.12-3.39.38l-1.14-.71.73-8.81h9.68v1.97h-7.79l-.49,5.65c1.02-.2,2.03-.3,3.05-.3Z"/>
          <path class="cls-11" d="M459,642.1h-2.89v4.32h-2.11v-4.32h-9.47v-1.86l9.24-12.74h2.34v12.66h2.89v1.94ZM453.99,640.16v-6.26c0-1.23.05-2.62.14-4.16h-.11c-.43.82-.83,1.5-1.2,2.05l-6.09,8.37h7.25Z"/>
          <path class="cls-11" d="M470.19,586.54c0,1.26-.37,2.29-1.1,3.1-.74.8-1.78,1.33-3.12,1.61v.11c1.65.2,2.86.7,3.65,1.51.79.81,1.19,1.88,1.19,3.19,0,1.89-.68,3.33-2.02,4.35-1.36,1.01-3.27,1.52-5.76,1.52-1.09,0-2.08-.08-2.97-.24-.9-.16-1.78-.43-2.63-.83v-2.14c.89.42,1.83.75,2.84.97,1,.22,1.95.33,2.84.33,3.53,0,5.31-1.34,5.31-4.01,0-2.39-1.95-3.59-5.84-3.59h-2.01v-1.93h2.03c1.6,0,2.87-.34,3.79-1.02.94-.68,1.4-1.62,1.4-2.83,0-.97-.34-1.72-1.03-2.27-.68-.54-1.61-.82-2.79-.82-.89,0-1.73.12-2.53.35-.79.23-1.7.66-2.71,1.3l-1.17-1.51c.84-.65,1.81-1.15,2.9-1.51,1.1-.36,2.25-.54,3.45-.54,1.99,0,3.53.44,4.63,1.31,1.1.88,1.66,2.09,1.66,3.62Z"/>
          <path class="cls-11" d="M458.08,555.97h-12.8v-1.84l5.13-4.98c1.56-1.53,2.59-2.62,3.09-3.27.49-.65.87-1.29,1.12-1.91.25-.61.37-1.28.37-1.99,0-1-.31-1.8-.94-2.39-.64-.59-1.51-.88-2.63-.88-.8,0-1.57.12-2.3.38-.72.26-1.52.72-2.42,1.4l-1.16-1.45c1.79-1.44,3.75-2.16,5.85-2.16,1.84,0,3.26.45,4.3,1.35,1.04.91,1.55,2.13,1.55,3.65,0,1.2-.34,2.37-1.03,3.55-.7,1.16-1.99,2.64-3.9,4.43l-4.26,4.03v.1h10.02v1.98Z"/>
          <path class="cls-11" d="M419.38,522.85h-2.16v-13.42c0-1.11.04-2.17.11-3.17-.19.18-.4.37-.62.57-.24.2-1.29,1.04-3.17,2.52l-1.17-1.47,5.15-3.85h1.86v18.83Z"/>
          <g>
            <path class="cls-11" d="M364.29,511.21h-2.27v-14.09c0-1.16.04-2.27.11-3.32-.19.18-.41.38-.65.59-.25.21-1.35,1.08-3.33,2.64l-1.22-1.54,5.41-4.05h1.96v19.77Z"/>
            <path class="cls-11" d="M385.49,511.21h-13.43v-1.93l5.38-5.23c1.64-1.6,2.72-2.75,3.24-3.44.53-.68.92-1.35,1.17-2,.26-.65.39-1.35.39-2.1,0-1.05-.33-1.89-.99-2.51-.67-.62-1.58-.93-2.76-.93-.85,0-1.65.14-2.41.41-.76.27-1.6.76-2.54,1.47l-1.23-1.52c1.89-1.51,3.94-2.27,6.15-2.27,1.92,0,3.43.48,4.52,1.42,1.09.95,1.64,2.24,1.64,3.84,0,1.26-.36,2.49-1.09,3.72-.72,1.23-2.09,2.78-4.08,4.65l-4.47,4.23v.1h10.51v2.09Z"/>
          </g>
        </g>
        <g>
          <path class="cls-11" d="M374.03,593.58c-.4,0-.77-.19-1-.52-.49-.71-.55-2.03-.12-2.78.58-1.01.77-2.12.52-3.05-.13-.5-.4-.93-.76-1.24.08-.1.21-.22.4-.35l76.81-53.78c.67-.47,1.89-.81,2.9-.81.2,0,.39.01.56.04l1.98.35c.65.12,1.1.74.98,1.4l-.35,1.97c-.17.99-1.08,2.41-1.91,2.99l-79.33,55.56c-.2.14-.44.22-.69.22Z"/>
          <path class="cls-11" d="M367.33,593.87c-.21,0-.42-.06-.6-.16l-54.51-31.48c-.87-.5-1.9-1.84-2.16-2.82l-.52-1.94c-.08-.31-.04-.63.13-.92.16-.28.42-.48.73-.56l1.94-.52c.27-.07.61-.11.99-.11.92,0,1.93.23,2.53.57l51.84,29.93c.2.12.34.23.43.32-.96.98-.93,2.77.13,4.29.5.71.56,2.03.12,2.78-.21.38-.62.61-1.06.61Z"/>
        </g>
        <g>
          <path class="cls-11" d="M380.33,591.78c0,5.35-4.34,9.68-9.68,9.68s-9.68-4.34-9.68-9.68,4.34-9.68,9.68-9.68,9.68,4.34,9.68,9.68Z"/>
          <path class="cls-9" d="M370.65,597.49c-3.15,0-5.71-2.56-5.71-5.71s2.56-5.71,5.71-5.71,5.71,2.56,5.71,5.71-2.56,5.71-5.71,5.71Z"/>
        </g>
        <g>
          <path class="cls-5" d="M370.65,594.2c-1.34,0-2.42-1.09-2.42-2.42s1.09-2.42,2.42-2.42,2.42,1.09,2.42,2.42-1.08,2.42-2.42,2.42Z"/>
          <path class="cls-5" d="M340.57,705.24c-.1,0-.21-.01-.31-.04-.65-.18-1.03-.84-.86-1.48l36.35-135.65c.18-.64.84-1.01,1.49-.86.64.17,1.03.84.86,1.48l-36.35,135.64c-.15.54-.64.9-1.17.9Z"/>
          <path class="cls-5" d="M374.41,580.17c-.21,0-.42-.03-.63-.08-1.29-.35-2.06-1.67-1.71-2.97l3.76-14.03c.35-1.29,1.68-2.06,2.97-1.71,1.29.35,2.06,1.67,1.71,2.97l-3.76,14.03c-.29,1.08-1.27,1.79-2.34,1.79Z"/>
        </g>
      </g>
      <path class="cls-7" d="M369.42,755.98v3.29c-91.06-.95-164.9-75.06-165.41-166.22h3.29c.51,89.34,72.88,161.98,162.12,162.92Z"/>
      <path class="cls-6" d="M369.42,424.93v3.29c-89.07.95-161.33,73.3-162.12,162.41h-3.29c.79-90.92,74.53-164.75,165.41-165.69Z"/>
      <path class="cls-10" d="M538.36,593.06c-.51,91.52-74.95,165.86-166.5,166.22v-3.29c89.74-.36,162.7-73.22,163.22-162.93h3.29Z"/>
      <path class="cls-4" d="M538.36,590.62h-3.29c-.8-89.47-73.65-162.06-163.22-162.41v-3.29c91.38.35,165.7,74.42,166.5,165.7Z"/>
      <path class="cls-8" d="M429.04,472.89l-1.38,2.23c-14.61-7.09-30.74-11.51-47.75-12.62v-2.62c17.52,1.14,34.12,5.7,49.12,13.02Z"/>
      <path class="cls-11" d="M371.19,715.16c-67.85,0-123.05-55.2-123.05-123.05s55.2-123.05,123.05-123.05,123.05,55.2,123.05,123.05-55.2,123.05-123.05,123.05ZM371.19,471.47c-66.52,0-120.63,54.12-120.63,120.63s54.12,120.64,120.63,120.64,120.63-54.12,120.63-120.64-54.12-120.63-120.63-120.63Z"/>
      <g>
        <path class="cls-7" d="M445.41,471.11l-3.79-2.21-1.87,2.33c.25.1.48.2.84.41.76.45,1.43,1.06,1.82,1.78.52.9.66,2.13-.07,3.38-1.13,1.94-3.52,2.49-5.67,1.23-1.08-.63-1.82-1.47-2.12-2.06l.93-.83c.27.49.9,1.26,1.8,1.79,1.27.74,2.83.55,3.61-.78.73-1.29.41-2.71-1.57-3.87-.57-.33-1.04-.53-1.44-.7l3.42-4.39,4.75,2.78-.66,1.13Z"/>
        <path class="cls-7" d="M490.07,514.87l-.02-.03-1.99-1.09.83-.9,2.49,1.38.72,1.11-9.65,6.23-.82-1.26,8.43-5.45Z"/>
        <path class="cls-7" d="M493.54,529.02c-3.42,1.89-6.01,1.66-7.24-.57-1.09-1.96.02-4.31,3.33-6.18,3.37-1.86,6.04-1.43,7.17.61,1.17,2.12-.05,4.37-3.25,6.14ZM490.37,523.64c-2.62,1.44-3.66,3.07-2.97,4.31.77,1.39,2.76,1.16,5.33-.26,2.48-1.37,3.75-2.9,2.97-4.31-.66-1.19-2.59-1.25-5.33.26Z"/>
        <path class="cls-7" d="M503.04,587.92h-.04s-1.96,1.15-1.96,1.15l-.34-1.17,2.46-1.43,1.32-.05.41,11.48-1.5.05-.35-10.04Z"/>
        <path class="cls-7" d="M516.3,587.86l-4.38-.15-.54,2.94c.27-.03.51-.05.94-.04.88.03,1.76.25,2.45.7.88.54,1.59,1.56,1.54,3-.08,2.24-1.92,3.86-4.41,3.78-1.25-.04-2.3-.43-2.84-.8l.43-1.17c.47.3,1.39.68,2.43.72,1.47.05,2.75-.86,2.8-2.4.03-1.48-.92-2.58-3.22-2.65-.65-.02-1.17.03-1.59.07l.93-5.49,5.49.18-.04,1.31Z"/>
        <path class="cls-7" d="M492.62,667.98l-.85-.44-.5-1.63c-1.14-3.89-1.86-5.74-3.39-6.55-1.04-.53-2.26-.52-3.04,1-.48.93-.4,1.94-.25,2.61l-1.2-.06c-.23-1.01-.16-2.25.45-3.43,1.13-2.2,3.12-2.35,4.58-1.6,1.89.97,2.71,3.12,3.68,6.34l.33,1.21.03.02,2.36-4.59,1.15.59-3.36,6.53Z"/>
        <path class="cls-7" d="M495.77,650.34c3.35,2.02,4.44,4.38,3.12,6.56-1.16,1.92-3.75,2.13-7.02.2-3.3-1.99-4.26-4.51-3.05-6.51,1.25-2.07,3.81-2.14,6.95-.24ZM492.69,655.77c2.56,1.55,4.49,1.64,5.22.43.82-1.36-.37-2.97-2.88-4.49-2.42-1.46-4.39-1.8-5.22-.43-.7,1.16.21,2.87,2.88,4.49Z"/>
        <path class="cls-7" d="M440.37,718.12l-.53-.8.36-1.66c.9-3.95,1.18-5.93.23-7.38-.65-.97-1.71-1.56-3.14-.61-.87.58-1.3,1.5-1.49,2.16l-1.02-.64c.29-1,.96-2.04,2.06-2.78,2.06-1.37,3.87-.54,4.78.83,1.17,1.77.84,4.05.12,7.34l-.3,1.22.02.03,4.3-2.86.71,1.08-6.11,4.07Z"/>
        <path class="cls-7" d="M448.91,700.86l-3.81,2.17,1.08,2.79c.21-.16.41-.32.78-.53.77-.44,1.63-.71,2.46-.69,1.04,0,2.17.49,2.89,1.75,1.11,1.95.39,4.3-1.78,5.53-1.09.62-2.19.84-2.84.81l-.25-1.22c.55,0,1.54-.15,2.45-.66,1.27-.73,1.89-2.18,1.13-3.52-.75-1.28-2.13-1.71-4.13-.57-.57.32-.98.64-1.32.9l-2.08-5.16,4.78-2.73.65,1.14Z"/>
        <path class="cls-7" d="M363.05,733.61c.46.26,1.5.65,2.58.6,2-.1,2.55-1.4,2.49-2.35-.1-1.61-1.58-2.23-3.08-2.15l-.87.04-.06-1.17.87-.04c1.13-.05,2.53-.71,2.47-2.06-.04-.92-.67-1.7-2.1-1.63-.92.04-1.78.49-2.26.87l-.46-1.11c.58-.47,1.72-.97,2.96-1.03,2.26-.11,3.35,1.18,3.42,2.58.06,1.18-.6,2.22-1.99,2.8v.04c1.43.21,2.63,1.22,2.71,2.83.09,1.84-1.26,3.51-4.02,3.64-1.29.06-2.44-.29-3.02-.63l.37-1.22Z"/>
        <path class="cls-7" d="M379.6,729.32c-.08,3.91-1.57,6.03-4.12,5.98-2.25-.04-3.72-2.18-3.68-5.98.08-3.85,1.78-5.94,4.12-5.89,2.42.05,3.76,2.23,3.68,5.89ZM373.36,729.37c-.06,2.99.82,4.7,2.24,4.73,1.59.03,2.39-1.81,2.45-4.74.06-2.83-.63-4.7-2.24-4.73-1.36-.03-2.38,1.61-2.45,4.74Z"/>
        <path class="cls-7" d="M296.97,713.47c.27.45.99,1.3,1.96,1.78,1.79.89,2.91.03,3.32-.84.7-1.45-.29-2.71-1.64-3.38l-.78-.39.52-1.04.78.39c1.01.5,2.55.62,3.16-.6.41-.82.25-1.81-1.03-2.45-.82-.41-1.8-.44-2.4-.34l.14-1.19c.73-.13,1.98,0,3.08.55,2.03,1.01,2.35,2.67,1.72,3.92-.53,1.06-1.61,1.65-3.1,1.48l-.02.03c1.14.88,1.7,2.35.98,3.79-.82,1.65-2.82,2.45-5.29,1.22-1.16-.58-1.99-1.44-2.33-2.03l.91-.89Z"/>
        <path class="cls-7" d="M315.03,713.71l-3.78-2.22-1.87,2.32c.25.1.48.2.84.41.76.45,1.43,1.06,1.82,1.79.52.9.66,2.13-.08,3.38-1.14,1.94-3.52,2.48-5.68,1.22-1.08-.64-1.82-1.48-2.11-2.06l.93-.82c.27.49.9,1.27,1.8,1.79,1.27.74,2.83.56,3.61-.77.74-1.29.42-2.71-1.56-3.87-.56-.33-1.04-.53-1.43-.7l3.43-4.38,4.74,2.79-.66,1.13Z"/>
        <path class="cls-7" d="M245.26,660.41l2.63-1.69-2.89-4.49.86-.55,8.95.34.91,1.41-6.01,3.86.87,1.35-1.03.66-.87-1.35-2.63,1.69-.79-1.23ZM248.92,658.05l3.23-2.08c.51-.33,1.02-.64,1.55-.93l-.03-.04c-.76.07-1.33.1-1.95.12l-4.81-.25-.03.02,2.04,3.17Z"/>
        <path class="cls-7" d="M256.37,667.91c-3.43,1.88-6.02,1.65-7.24-.58-1.08-1.97.03-4.31,3.34-6.17,3.38-1.86,6.04-1.42,7.16.62,1.17,2.12-.06,4.37-3.27,6.13ZM253.2,662.53c-2.62,1.44-3.66,3.06-2.98,4.3.77,1.39,2.76,1.17,5.33-.25,2.48-1.36,3.76-2.89,2.98-4.3-.66-1.19-2.59-1.26-5.33.25Z"/>
        <path class="cls-7" d="M230.43,597.27l.04-3.13-5.34-.07v-1.03s5.23-7.27,5.23-7.27l1.68.02-.09,7.14,1.61.02-.02,1.22-1.61-.02-.04,3.13-1.47-.02ZM230.59,592.84l-.24-3.83c-.04-.6-.06-1.2-.06-1.8h-.05c-.31.7-.56,1.21-.85,1.76l-2.57,4.07v.04s3.76-.23,3.76-.23Z"/>
        <path class="cls-7" d="M241.9,586.69l-4.38.18-.3,2.97c.26-.05.51-.09.93-.11.88-.04,1.78.12,2.5.52.93.48,1.72,1.44,1.79,2.88.11,2.24-1.59,3.99-4.09,4.09-1.25.05-2.33-.26-2.9-.59l.33-1.2c.49.26,1.44.58,2.49.54,1.47-.06,2.67-1.06,2.6-2.6-.09-1.48-1.13-2.5-3.43-2.41-.65.03-1.16.12-1.58.19l.48-5.54,5.49-.22.06,1.31Z"/>
        <path class="cls-7" d="M244.62,527.82l-1.9,3.95,2.47,1.68c.08-.25.16-.49.34-.87.38-.8.94-1.51,1.63-1.96.85-.59,2.07-.83,3.37-.2,2.02.97,2.76,3.31,1.68,5.55-.54,1.13-1.32,1.93-1.88,2.27l-.9-.86c.46-.31,1.19-1,1.64-1.94.64-1.32.32-2.87-1.07-3.53-1.35-.63-2.73-.19-3.73,1.88-.28.59-.44,1.08-.58,1.49l-4.65-3.06,2.38-4.95,1.18.57Z"/>
        <path class="cls-7" d="M253.5,520.7c3.4,1.93,4.55,4.26,3.29,6.47-1.11,1.95-3.69,2.23-7.02.38-3.35-1.9-4.37-4.4-3.22-6.42,1.2-2.1,3.76-2.24,6.94-.43ZM250.57,526.21c2.6,1.48,4.53,1.52,5.23.29.79-1.38-.45-2.96-3-4.41-2.46-1.4-4.43-1.69-5.23-.29-.67,1.18.28,2.86,3,4.41Z"/>
        <path class="cls-7" d="M292.07,474.26l-3.58,2.53,1.34,2.67c.2-.18.38-.35.73-.6.72-.51,1.56-.86,2.38-.92,1.03-.1,2.21.28,3.04,1.47,1.29,1.84.8,4.24-1.24,5.68-1.03.72-2.1,1.05-2.75,1.07l-.36-1.19c.55-.04,1.52-.29,2.37-.9,1.2-.85,1.68-2.35.79-3.61-.87-1.2-2.29-1.5-4.17-.18-.53.38-.91.73-1.23,1.02l-2.57-4.94,4.49-3.17.75,1.07Z"/>
        <path class="cls-7" d="M300.39,469.07l-3.75,2.27,1.15,2.76c.21-.17.4-.33.76-.55.76-.46,1.61-.75,2.44-.75,1.04-.03,2.18.43,2.93,1.67,1.16,1.92.51,4.28-1.63,5.58-1.07.65-2.16.9-2.82.88l-.28-1.22c.55,0,1.54-.19,2.43-.73,1.25-.76,1.83-2.23,1.04-3.54-.78-1.26-2.18-1.66-4.15-.46-.56.34-.96.67-1.3.93l-2.22-5.1,4.7-2.85.68,1.12Z"/>
        <path class="cls-7" d="M368.24,450.18c-.32,0-.72.05-1.16.16-2.4.59-3.56,2.46-3.68,4.37h.05c.49-.77,1.4-1.44,2.67-1.53,2.03-.15,3.57,1.21,3.73,3.45.16,2.1-1.13,4.14-3.51,4.32-2.45.18-4.2-1.6-4.42-4.58-.17-2.26.51-4.1,1.55-5.31.88-1,2.11-1.68,3.54-1.96.45-.1.84-.15,1.12-.17l.1,1.27ZM368.29,456.83c-.12-1.64-1.13-2.56-2.56-2.45-.93.07-1.75.71-2.12,1.57-.09.18-.15.42-.12.7.18,1.88,1.15,3.21,2.77,3.09,1.34-.1,2.16-1.28,2.03-2.92Z"/>
        <path class="cls-7" d="M379.04,454.46c.03,3.91-1.41,6.09-3.95,6.13-2.25.04-3.78-2.04-3.84-5.85-.03-3.86,1.62-6,3.95-6.04,2.42-.04,3.82,2.1,3.84,5.76ZM372.8,454.74c.02,2.99.95,4.67,2.37,4.65,1.59-.03,2.34-1.9,2.32-4.83-.02-2.83-.76-4.68-2.37-4.65-1.36.02-2.34,1.7-2.32,4.83Z"/>
      </g>
      <g>
        <polyline class="cls-2" points="483.27 457.06 512.69 427.63 608.78 427.63"/>
        <polyline class="cls-2" points="402.76 459.77 420.58 435.65 478.84 435.58"/>
        <polyline class="cls-2" points="253.69 719.39 224.27 748.81 128.18 748.81"/>
        <polyline class="cls-2" points="483.27 719.39 512.69 748.81 608.78 748.81"/>
        <polyline class="cls-2" points="253.69 457.06 224.27 427.63 128.18 427.63"/>
      </g>
      <g>
        <path class="cls-10" d="M519.26,417.36v-25.89h3.65l8.29,13.1c1.92,3.03,3.42,5.76,4.65,8.41l.08-.04c-.31-3.46-.38-6.61-.38-10.64v-10.83h3.15v25.89h-3.38l-8.22-13.13c-1.8-2.88-3.53-5.84-4.84-8.64l-.12.04c.19,3.26.27,6.38.27,10.68v11.06h-3.15Z"/>
        <path class="cls-10" d="M554.71,417.36l-.27-2.34h-.12c-1.04,1.46-3.03,2.77-5.68,2.77-3.76,0-5.68-2.65-5.68-5.34,0-4.49,4-6.95,11.18-6.91v-.38c0-1.54-.42-4.3-4.22-4.3-1.73,0-3.53.54-4.84,1.38l-.77-2.23c1.54-1,3.76-1.65,6.11-1.65,5.68,0,7.07,3.88,7.07,7.6v6.95c0,1.61.08,3.19.31,4.46h-3.07ZM554.22,407.87c-3.69-.08-7.87.58-7.87,4.19,0,2.19,1.46,3.23,3.19,3.23,2.42,0,3.96-1.54,4.49-3.11.12-.35.19-.73.19-1.08v-3.23Z"/>
        <path class="cls-10" d="M576.19,416.66c-.88.46-2.84,1.08-5.34,1.08-5.61,0-9.26-3.8-9.26-9.49s3.92-9.87,9.99-9.87c2,0,3.76.5,4.69.96l-.77,2.61c-.81-.46-2.07-.88-3.92-.88-4.26,0-6.57,3.15-6.57,7.03,0,4.3,2.76,6.95,6.45,6.95,1.92,0,3.19-.5,4.15-.92l.58,2.54Z"/>
        <path class="cls-10" d="M580.14,390.09h3.38v11.6h.08c.54-.96,1.38-1.8,2.42-2.38,1-.58,2.19-.96,3.46-.96,2.5,0,6.49,1.54,6.49,7.95v11.06h-3.38v-10.68c0-3-1.11-5.53-4.3-5.53-2.19,0-3.92,1.54-4.53,3.38-.19.46-.23.96-.23,1.61v11.21h-3.38v-27.27Z"/>
      </g>
      <text class="cls-13" transform="translate(431.79 430.05)"><tspan x="0" y="0">kurz</tspan></text>
      <g>
        <path class="cls-10" d="M143.97,740.94v-25.89h3.65l8.3,13.1c1.92,3.03,3.42,5.76,4.65,8.41l.08-.04c-.31-3.46-.38-6.61-.38-10.64v-10.83h3.15v25.89h-3.38l-8.22-13.13c-1.81-2.88-3.53-5.84-4.84-8.64l-.12.04c.19,3.26.27,6.38.27,10.68v11.06h-3.15Z"/>
        <path class="cls-10" d="M179.42,740.94l-.27-2.34h-.12c-1.04,1.46-3.03,2.77-5.68,2.77-3.76,0-5.68-2.65-5.68-5.34,0-4.49,3.99-6.95,11.18-6.91v-.38c0-1.54-.42-4.3-4.22-4.3-1.73,0-3.53.54-4.84,1.38l-.77-2.23c1.54-1,3.76-1.65,6.11-1.65,5.68,0,7.07,3.88,7.07,7.6v6.95c0,1.61.08,3.19.31,4.46h-3.07ZM178.92,731.45c-3.69-.08-7.87.58-7.87,4.19,0,2.19,1.46,3.23,3.19,3.23,2.42,0,3.96-1.54,4.49-3.11.12-.35.19-.73.19-1.08v-3.23Z"/>
        <path class="cls-10" d="M200.89,740.24c-.88.46-2.84,1.08-5.34,1.08-5.61,0-9.26-3.8-9.26-9.49s3.92-9.87,9.99-9.87c2,0,3.76.5,4.69.96l-.77,2.61c-.81-.46-2.07-.88-3.92-.88-4.26,0-6.57,3.15-6.57,7.03,0,4.3,2.77,6.95,6.45,6.95,1.92,0,3.19-.5,4.15-.92l.58,2.54Z"/>
        <path class="cls-10" d="M204.85,713.67h3.38v11.6h.08c.54-.96,1.38-1.8,2.42-2.38,1-.58,2.19-.96,3.46-.96,2.5,0,6.49,1.54,6.49,7.95v11.06h-3.38v-10.68c0-3-1.11-5.53-4.3-5.53-2.19,0-3.92,1.54-4.53,3.38-.19.46-.23.96-.23,1.61v11.21h-3.38v-27.27Z"/>
      </g>
      <g>
        <path class="cls-10" d="M339.98,792.98v10.83h12.52v-10.83h3.38v25.89h-3.38v-12.14h-12.52v12.14h-3.34v-25.89h3.34Z"/>
        <path class="cls-10" d="M371.86,818.86l-.27-2.34h-.12c-1.04,1.46-3.03,2.77-5.68,2.77-3.76,0-5.68-2.65-5.68-5.34,0-4.49,3.99-6.95,11.18-6.91v-.38c0-1.54-.42-4.3-4.22-4.3-1.73,0-3.53.54-4.84,1.38l-.77-2.23c1.54-1,3.76-1.65,6.11-1.65,5.68,0,7.07,3.88,7.07,7.6v6.95c0,1.61.08,3.19.31,4.46h-3.07ZM371.36,809.38c-3.69-.08-7.87.58-7.87,4.19,0,2.19,1.46,3.23,3.19,3.23,2.42,0,3.96-1.54,4.49-3.11.12-.35.19-.73.19-1.08v-3.23Z"/>
        <path class="cls-10" d="M380.08,791.59h3.38v27.27h-3.38v-27.27Z"/>
        <path class="cls-10" d="M388.99,818.86c.08-1.27.15-3.15.15-4.8v-22.47h3.34v11.68h.08c1.19-2.07,3.34-3.42,6.34-3.42,4.61,0,7.87,3.84,7.83,9.49,0,6.64-4.19,9.95-8.33,9.95-2.69,0-4.84-1.04-6.22-3.5h-.12l-.15,3.07h-2.92ZM392.48,811.41c0,.42.08.85.15,1.23.65,2.34,2.61,3.96,5.07,3.96,3.53,0,5.65-2.88,5.65-7.14,0-3.73-1.92-6.91-5.53-6.91-2.3,0-4.46,1.57-5.15,4.15-.08.38-.19.84-.19,1.38v3.34Z"/>
      </g>
      <g>
        <path class="cls-10" d="M546.97,740.94l-8.45-25.89h3.61l4.03,12.75c1.11,3.5,2.07,6.64,2.76,9.68h.08c.73-3,1.8-6.26,2.96-9.64l4.38-12.79h3.57l-9.26,25.89h-3.69Z"/>
        <path class="cls-10" d="M578.15,731.49c0,6.88-4.76,9.87-9.26,9.87-5.03,0-8.91-3.69-8.91-9.56,0-6.22,4.07-9.87,9.22-9.87s8.95,3.88,8.95,9.56ZM563.41,731.68c0,4.07,2.34,7.14,5.65,7.14s5.65-3.03,5.65-7.22c0-3.15-1.57-7.14-5.57-7.14s-5.72,3.69-5.72,7.22Z"/>
        <path class="cls-10" d="M582.42,728.15c0-2.19-.04-4.07-.15-5.8h2.96l.12,3.65h.15c.84-2.5,2.88-4.07,5.15-4.07.38,0,.65.04.96.12v3.19c-.35-.08-.69-.12-1.15-.12-2.38,0-4.07,1.8-4.53,4.34-.08.46-.15,1-.15,1.57v9.91h-3.34v-12.79Z"/>
      </g>
      <g>
        <path class="cls-10" d="M154.59,421.7l-8.45-25.89h3.61l4.03,12.75c1.11,3.5,2.07,6.64,2.77,9.68h.08c.73-3,1.81-6.26,2.96-9.64l4.38-12.79h3.57l-9.26,25.89h-3.69Z"/>
        <path class="cls-10" d="M185.77,412.25c0,6.88-4.76,9.87-9.26,9.87-5.03,0-8.91-3.69-8.91-9.56,0-6.22,4.07-9.87,9.22-9.87s8.95,3.88,8.95,9.56ZM171.02,412.44c0,4.07,2.34,7.14,5.65,7.14s5.65-3.03,5.65-7.22c0-3.15-1.57-7.14-5.57-7.14s-5.72,3.69-5.72,7.22Z"/>
        <path class="cls-10" d="M190.04,408.91c0-2.19-.04-4.07-.15-5.8h2.96l.12,3.65h.15c.85-2.5,2.88-4.07,5.15-4.07.38,0,.65.04.96.12v3.19c-.35-.08-.69-.12-1.15-.12-2.38,0-4.07,1.8-4.53,4.34-.08.46-.15,1-.15,1.57v9.91h-3.34v-12.79Z"/>
      </g>
      <polygon class="cls-1" points="384.62 739.84 369.59 739.84 356.8 739.84 356.8 719.39 384.62 719.39 384.62 739.84"/>
      <line class="cls-1" x1="370.71" y1="794.23" x2="370.71" y2="739.61"/>
      <g>
        <path class="cls-10" d="M8.45,603.11l-8.45-25.89h3.61l4.03,12.75c1.11,3.5,2.07,6.64,2.77,9.68h.08c.73-3,1.81-6.26,2.96-9.64l4.38-12.79h3.57l-9.26,25.89h-3.69Z"/>
        <path class="cls-10" d="M27.23,579.3c.04,1.15-.81,2.07-2.15,2.07-1.19,0-2.04-.92-2.04-2.07s.88-2.11,2.11-2.11,2.07.92,2.07,2.11ZM23.47,603.11v-18.59h3.38v18.59h-3.38Z"/>
        <path class="cls-10" d="M34.34,594.43c.08,4.57,3,6.45,6.38,6.45,2.42,0,3.88-.42,5.15-.96l.58,2.42c-1.19.54-3.23,1.15-6.18,1.15-5.72,0-9.14-3.76-9.14-9.37s3.3-10.02,8.72-10.02c6.07,0,7.68,5.34,7.68,8.76,0,.69-.08,1.23-.12,1.58h-13.06ZM44.25,592.01c.04-2.15-.88-5.49-4.69-5.49-3.42,0-4.92,3.15-5.18,5.49h9.87Z"/>
        <path class="cls-10" d="M51.7,590.32c0-2.19-.04-4.07-.15-5.8h2.96l.12,3.65h.15c.85-2.5,2.88-4.07,5.15-4.07.38,0,.65.04.96.12v3.19c-.35-.08-.69-.12-1.15-.12-2.38,0-4.07,1.8-4.53,4.34-.08.46-.15,1-.15,1.57v9.91h-3.34v-12.79Z"/>
        <path class="cls-10" d="M69.25,579.19v5.34h4.84v2.57h-4.84v10.02c0,2.3.65,3.61,2.54,3.61.88,0,1.54-.12,1.96-.23l.15,2.53c-.65.27-1.69.46-3,.46-1.57,0-2.84-.5-3.65-1.42-.96-1-1.31-2.65-1.31-4.84v-10.14h-2.88v-2.57h2.88v-4.46l3.3-.88Z"/>
        <path class="cls-10" d="M79.54,594.43c.08,4.57,3,6.45,6.38,6.45,2.42,0,3.88-.42,5.15-.96l.58,2.42c-1.19.54-3.23,1.15-6.18,1.15-5.72,0-9.14-3.76-9.14-9.37s3.3-10.02,8.72-10.02c6.07,0,7.68,5.34,7.68,8.76,0,.69-.08,1.23-.12,1.58h-13.06ZM89.45,592.01c.04-2.15-.88-5.49-4.69-5.49-3.42,0-4.92,3.15-5.18,5.49h9.87Z"/>
        <path class="cls-10" d="M96.91,575.84h3.38v27.27h-3.38v-27.27Z"/>
        <path class="cls-10" d="M115.42,584.52l3.65,10.45c.61,1.69,1.11,3.23,1.5,4.76h.12c.42-1.54.96-3.07,1.57-4.76l3.61-10.45h3.53l-7.3,18.59h-3.23l-7.07-18.59h3.61Z"/>
        <path class="cls-10" d="M149.03,593.67c0,6.88-4.76,9.87-9.26,9.87-5.03,0-8.91-3.69-8.91-9.56,0-6.22,4.07-9.87,9.22-9.87s8.95,3.88,8.95,9.56ZM134.28,593.86c0,4.07,2.34,7.14,5.65,7.14s5.65-3.03,5.65-7.22c0-3.15-1.57-7.14-5.57-7.14s-5.72,3.69-5.72,7.22Z"/>
        <path class="cls-10" d="M153.29,590.32c0-2.19-.04-4.07-.15-5.8h2.96l.12,3.65h.15c.85-2.5,2.88-4.07,5.15-4.07.38,0,.65.04.96.12v3.19c-.35-.08-.69-.12-1.15-.12-2.38,0-4.07,1.8-4.53,4.34-.08.46-.15,1-.15,1.57v9.91h-3.34v-12.79Z"/>
      </g>
      <polygon class="cls-1" points="246.04 601.88 233.1 601.88 222.1 601.88 222.1 581.43 246.04 581.43 246.04 601.88"/>
      <line class="cls-1" x1="167.51" y1="591.66" x2="222.13" y2="591.66"/>
      <g>
        <path class="cls-10" d="M587.69,603.08l-8.45-25.89h3.61l4.03,12.75c1.11,3.5,2.07,6.64,2.76,9.68h.08c.73-3,1.8-6.26,2.96-9.64l4.38-12.79h3.57l-9.26,25.89h-3.69Z"/>
        <path class="cls-10" d="M606.47,579.27c.04,1.15-.81,2.07-2.15,2.07-1.19,0-2.04-.92-2.04-2.07s.88-2.11,2.11-2.11,2.07.92,2.07,2.11ZM602.71,603.08v-18.59h3.38v18.59h-3.38Z"/>
        <path class="cls-10" d="M613.58,594.4c.08,4.57,3,6.45,6.38,6.45,2.42,0,3.88-.42,5.15-.96l.58,2.42c-1.19.54-3.23,1.15-6.18,1.15-5.72,0-9.14-3.76-9.14-9.37s3.3-10.02,8.72-10.02c6.07,0,7.68,5.34,7.68,8.76,0,.69-.08,1.23-.12,1.58h-13.06ZM623.49,591.98c.04-2.15-.88-5.49-4.69-5.49-3.42,0-4.92,3.15-5.19,5.49h9.87Z"/>
        <path class="cls-10" d="M630.94,590.29c0-2.19-.04-4.07-.15-5.8h2.96l.12,3.65h.15c.84-2.5,2.88-4.07,5.15-4.07.38,0,.65.04.96.12v3.19c-.35-.08-.69-.12-1.15-.12-2.38,0-4.07,1.8-4.53,4.34-.08.46-.15,1-.15,1.57v9.91h-3.34v-12.79Z"/>
        <path class="cls-10" d="M648.49,579.15v5.34h4.84v2.57h-4.84v10.02c0,2.3.65,3.61,2.53,3.61.88,0,1.54-.12,1.96-.23l.15,2.53c-.65.27-1.69.46-3,.46-1.58,0-2.84-.5-3.65-1.42-.96-1-1.31-2.65-1.31-4.84v-10.14h-2.88v-2.57h2.88v-4.46l3.3-.88Z"/>
        <path class="cls-10" d="M658.78,594.4c.08,4.57,3,6.45,6.38,6.45,2.42,0,3.88-.42,5.15-.96l.58,2.42c-1.19.54-3.23,1.15-6.18,1.15-5.72,0-9.14-3.76-9.14-9.37s3.3-10.02,8.72-10.02c6.07,0,7.68,5.34,7.68,8.76,0,.69-.08,1.23-.12,1.58h-13.06ZM668.69,591.98c.04-2.15-.88-5.49-4.69-5.49-3.42,0-4.92,3.15-5.19,5.49h9.87Z"/>
        <path class="cls-10" d="M676.15,575.81h3.38v27.27h-3.38v-27.27Z"/>
        <path class="cls-10" d="M693.35,589.52c0-1.92-.04-3.5-.15-5.03h3l.19,3.07h.08c.92-1.77,3.07-3.49,6.14-3.49,2.57,0,6.57,1.54,6.57,7.91v11.1h-3.38v-10.72c0-3-1.11-5.49-4.3-5.49-2.23,0-3.96,1.57-4.53,3.46-.15.42-.23,1-.23,1.58v11.18h-3.38v-13.56Z"/>
        <path class="cls-10" d="M724.96,603.08l-.27-2.34h-.12c-1.04,1.46-3.03,2.77-5.68,2.77-3.76,0-5.68-2.65-5.68-5.34,0-4.49,4-6.95,11.18-6.91v-.38c0-1.54-.42-4.3-4.22-4.3-1.73,0-3.53.54-4.84,1.38l-.77-2.23c1.54-1,3.76-1.65,6.11-1.65,5.68,0,7.07,3.88,7.07,7.6v6.95c0,1.61.08,3.19.31,4.46h-3.07ZM724.46,593.59c-3.69-.08-7.87.58-7.87,4.19,0,2.19,1.46,3.23,3.19,3.23,2.42,0,3.96-1.54,4.49-3.11.12-.35.19-.73.19-1.08v-3.23Z"/>
        <path class="cls-10" d="M746.43,602.39c-.88.46-2.84,1.08-5.34,1.08-5.61,0-9.26-3.8-9.26-9.49s3.92-9.87,9.99-9.87c2,0,3.76.5,4.69.96l-.77,2.61c-.81-.46-2.07-.88-3.92-.88-4.26,0-6.57,3.15-6.57,7.03,0,4.3,2.76,6.95,6.45,6.95,1.92,0,3.19-.5,4.15-.92l.58,2.54Z"/>
        <path class="cls-10" d="M750.39,575.81h3.38v11.6h.08c.54-.96,1.38-1.8,2.42-2.38,1-.58,2.19-.96,3.46-.96,2.5,0,6.49,1.54,6.49,7.95v11.06h-3.38v-10.68c0-3-1.11-5.53-4.3-5.53-2.19,0-3.92,1.54-4.53,3.38-.19.46-.23.96-.23,1.61v11.21h-3.38v-27.27Z"/>
      </g>
      <polygon class="cls-1" points="497.64 601.85 510.57 601.85 521.58 601.85 521.58 581.39 497.64 581.39 497.64 601.85"/>
      <line class="cls-1" x1="576.17" y1="591.62" x2="521.55" y2="591.62"/>
    </g>
    <g>
      <g>
        <path class="cls-11" d="M948.81,580.18h-77.06v-77.06c42.56,0,77.06,34.5,77.06,77.06Z"/>
        <path class="cls-10" d="M940.55,588.44c0,42.56-34.5,77.06-77.06,77.06s-77.06-34.5-77.06-77.06,34.5-77.06,77.06-77.06v77.06h77.06Z"/>
      </g>
      <g>
        <path class="cls-10" d="M956.76,485.01l-5.46-16.74h2.33l2.61,8.25c.72,2.26,1.34,4.3,1.79,6.26h.05c.47-1.94,1.17-4.05,1.91-6.24l2.83-8.27h2.31l-5.99,16.74h-2.38Z"/>
        <path class="cls-10" d="M968.91,469.61c.02.75-.52,1.34-1.39,1.34-.77,0-1.32-.6-1.32-1.34s.57-1.37,1.37-1.37,1.34.6,1.34,1.37ZM966.47,485.01v-12.02h2.19v12.02h-2.19Z"/>
        <path class="cls-10" d="M973.5,479.4c.05,2.96,1.94,4.17,4.12,4.17,1.57,0,2.51-.27,3.33-.62l.37,1.56c-.77.35-2.09.75-4,.75-3.7,0-5.91-2.43-5.91-6.06s2.14-6.48,5.64-6.48c3.92,0,4.97,3.45,4.97,5.66,0,.45-.05.79-.07,1.02h-8.45ZM979.91,477.83c.03-1.39-.57-3.55-3.03-3.55-2.21,0-3.18,2.04-3.35,3.55h6.38Z"/>
        <path class="cls-10" d="M984.73,476.74c0-1.42-.02-2.63-.1-3.75h1.91l.07,2.36h.1c.55-1.62,1.86-2.63,3.33-2.63.25,0,.42.03.62.08v2.06c-.22-.05-.45-.07-.75-.07-1.54,0-2.63,1.17-2.93,2.81-.05.3-.1.65-.1,1.02v6.41h-2.16v-8.27Z"/>
        <path class="cls-10" d="M996.09,469.53v3.45h3.13v1.67h-3.13v6.48c0,1.49.42,2.33,1.64,2.33.57,0,.99-.07,1.27-.15l.1,1.64c-.42.17-1.09.3-1.94.3-1.02,0-1.84-.32-2.36-.92-.62-.65-.84-1.71-.84-3.13v-6.56h-1.86v-1.67h1.86v-2.88l2.14-.57Z"/>
        <path class="cls-10" d="M1002.75,479.4c.05,2.96,1.94,4.17,4.12,4.17,1.57,0,2.51-.27,3.33-.62l.37,1.56c-.77.35-2.09.75-4,.75-3.7,0-5.91-2.43-5.91-6.06s2.14-6.48,5.64-6.48c3.92,0,4.97,3.45,4.97,5.66,0,.45-.05.79-.07,1.02h-8.45ZM1009.16,477.83c.03-1.39-.57-3.55-3.03-3.55-2.21,0-3.18,2.04-3.35,3.55h6.38Z"/>
        <path class="cls-10" d="M1013.98,467.37h2.19v17.64h-2.19v-17.64Z"/>
      </g>
      <polyline class="cls-2" points="926.85 514.72 950.05 491.52 1025.83 491.52"/>
    </g>
  </g>
  <g>
    <path class="cls-7" d="M471.14,1.36v2.82h-8.94v6.21h6.97v2.82h-6.97v9.21h-3.45V1.36h12.39Z"/>
    <path class="cls-7" d="M477.32,21.61c-1.27-.72-2.27-1.73-3-3.03-.73-1.3-1.09-2.81-1.09-4.53s.37-3.2,1.12-4.51c.75-1.31,1.77-2.32,3.06-3.03,1.29-.71,2.74-1.06,4.33-1.06s3.04.35,4.33,1.06c1.29.71,2.31,1.72,3.06,3.03.75,1.31,1.12,2.82,1.12,4.51s-.38,3.2-1.15,4.51c-.77,1.31-1.81,2.33-3.14,3.04-1.32.72-2.78,1.08-4.38,1.08s-3-.36-4.27-1.08ZM484.09,19.05c.78-.42,1.41-1.06,1.89-1.91.48-.85.73-1.88.73-3.09s-.23-2.24-.7-3.08c-.46-.84-1.08-1.47-1.85-1.89s-1.6-.64-2.48-.64-1.71.21-2.47.64-1.36,1.06-1.8,1.89c-.44.84-.67,1.86-.67,3.08,0,1.8.46,3.19,1.38,4.16.92.98,2.07,1.47,3.47,1.47.89,0,1.72-.21,2.5-.64Z"/>
    <path class="cls-7" d="M499.15,6.16c.84-.47,1.83-.71,2.98-.71v3.57h-.88c-1.35,0-2.38.34-3.07,1.03-.7.69-1.05,1.88-1.05,3.57v8.78h-3.45V5.72h3.45v2.42c.5-.85,1.18-1.51,2.01-1.98Z"/>
    <path class="cls-7" d="M529.04,6.27c1.04.55,1.86,1.35,2.45,2.42s.89,2.36.89,3.88v9.84h-3.42v-9.33c0-1.49-.37-2.64-1.12-3.44-.75-.8-1.77-1.2-3.06-1.2s-2.32.4-3.07,1.2c-.76.8-1.14,1.94-1.14,3.44v9.33h-3.42v-9.33c0-1.49-.37-2.64-1.12-3.44s-1.77-1.2-3.06-1.2-2.32.4-3.07,1.2c-.76.8-1.14,1.94-1.14,3.44v9.33h-3.45V5.72h3.45v1.91c.57-.69,1.28-1.22,2.15-1.61.87-.38,1.8-.58,2.79-.58,1.33,0,2.52.28,3.57.85,1.05.57,1.86,1.38,2.42,2.45.5-1.01,1.29-1.81,2.36-2.41s2.22-.89,3.45-.89c1.31,0,2.49.27,3.53.82Z"/>
    <path class="cls-7" d="M551.96,15.36h-12.75c.1,1.33.59,2.4,1.48,3.21s1.98,1.21,3.27,1.21c1.86,0,3.17-.78,3.94-2.33h3.73c-.5,1.54-1.42,2.79-2.74,3.77-1.32.98-2.96,1.47-4.92,1.47-1.59,0-3.02-.36-4.29-1.08-1.26-.72-2.25-1.73-2.97-3.03-.72-1.3-1.08-2.81-1.08-4.53s.35-3.23,1.04-4.53c.7-1.3,1.68-2.31,2.94-3.01,1.26-.71,2.71-1.06,4.35-1.06s2.98.34,4.21,1.03c1.23.69,2.19,1.65,2.88,2.89.69,1.24,1.03,2.67,1.03,4.29,0,.63-.04,1.19-.12,1.7ZM548.47,12.57c-.02-1.27-.47-2.29-1.36-3.06-.89-.77-1.99-1.15-3.3-1.15-1.19,0-2.21.38-3.06,1.14-.85.76-1.35,1.78-1.51,3.07h9.24Z"/>
    <path class="cls-7" d="M558.92,0v22.41h-3.45V0h3.45Z"/>
    <path class="cls-7" d="M566.92,0v22.41h-3.45V0h3.45Z"/>
  </g>
  <g>
    <path class="cls-7" d="M451.15,302.17v21.05h-3.45v-21.05h3.45Z"/>
    <path class="cls-7" d="M467.64,307.08c1.04.55,1.85,1.35,2.44,2.42s.88,2.36.88,3.88v9.84h-3.42v-9.33c0-1.49-.37-2.64-1.12-3.44s-1.77-1.2-3.06-1.2-2.32.4-3.07,1.2c-.76.8-1.14,1.94-1.14,3.44v9.33h-3.45v-16.69h3.45v1.91c.57-.69,1.29-1.22,2.17-1.61.88-.38,1.81-.58,2.8-.58,1.31,0,2.49.27,3.53.82Z"/>
    <path class="cls-7" d="M482.35,309.35h-3.09v13.87h-3.48v-13.87h-1.97v-2.82h1.97v-1.18c0-1.92.51-3.32,1.53-4.19,1.02-.88,2.62-1.32,4.8-1.32v2.88c-1.05,0-1.79.2-2.21.59-.42.39-.64,1.08-.64,2.04v1.18h3.09v2.82Z"/>
    <path class="cls-7" d="M488.38,322.42c-1.27-.72-2.27-1.73-3-3.03-.73-1.3-1.09-2.81-1.09-4.53s.37-3.2,1.12-4.51c.75-1.31,1.77-2.32,3.06-3.03,1.29-.71,2.74-1.06,4.33-1.06s3.04.35,4.33,1.06c1.29.71,2.31,1.72,3.06,3.03.75,1.31,1.12,2.82,1.12,4.51s-.38,3.2-1.15,4.51c-.77,1.31-1.81,2.33-3.14,3.04-1.32.72-2.78,1.08-4.38,1.08s-3-.36-4.27-1.08ZM495.15,319.86c.78-.42,1.41-1.06,1.89-1.91.48-.85.73-1.88.73-3.09s-.23-2.24-.7-3.08c-.46-.84-1.08-1.47-1.85-1.89s-1.6-.64-2.48-.64-1.71.21-2.47.64-1.36,1.06-1.8,1.89c-.44.84-.67,1.86-.67,3.08,0,1.8.46,3.19,1.38,4.16.92.98,2.07,1.47,3.47,1.47.89,0,1.72-.21,2.5-.64Z"/>
    <path class="cls-7" d="M510.2,306.97c.84-.47,1.83-.71,2.98-.71v3.57h-.88c-1.35,0-2.38.34-3.07,1.03-.7.69-1.05,1.88-1.05,3.57v8.78h-3.45v-16.69h3.45v2.42c.5-.85,1.18-1.51,2.01-1.98Z"/>
    <path class="cls-7" d="M540.1,307.08c1.04.55,1.86,1.35,2.45,2.42s.89,2.36.89,3.88v9.84h-3.42v-9.33c0-1.49-.37-2.64-1.12-3.44-.75-.8-1.77-1.2-3.06-1.2s-2.32.4-3.07,1.2-1.13,1.94-1.13,3.44v9.33h-3.42v-9.33c0-1.49-.37-2.64-1.12-3.44-.75-.8-1.77-1.2-3.06-1.2s-2.32.4-3.07,1.2-1.14,1.94-1.14,3.44v9.33h-3.45v-16.69h3.45v1.91c.57-.69,1.28-1.22,2.15-1.61.87-.38,1.8-.58,2.79-.58,1.33,0,2.52.28,3.57.85,1.05.57,1.86,1.38,2.42,2.45.5-1.01,1.29-1.81,2.36-2.41,1.07-.6,2.22-.89,3.45-.89,1.31,0,2.49.27,3.53.82Z"/>
    <path class="cls-7" d="M563.01,316.17h-12.75c.1,1.33.59,2.4,1.48,3.21s1.98,1.21,3.27,1.21c1.86,0,3.17-.78,3.94-2.33h3.73c-.5,1.54-1.42,2.79-2.74,3.77-1.32.98-2.96,1.47-4.92,1.47-1.59,0-3.02-.36-4.29-1.08-1.26-.72-2.25-1.73-2.97-3.03-.72-1.3-1.08-2.81-1.08-4.53s.35-3.23,1.04-4.53c.7-1.3,1.68-2.31,2.94-3.01,1.26-.71,2.71-1.06,4.35-1.06s2.98.34,4.21,1.03c1.23.69,2.19,1.65,2.88,2.89.69,1.24,1.03,2.67,1.03,4.29,0,.63-.04,1.19-.12,1.7ZM559.53,313.38c-.02-1.27-.47-2.29-1.36-3.06-.89-.77-1.99-1.15-3.3-1.15-1.19,0-2.21.38-3.06,1.14-.85.76-1.35,1.78-1.51,3.07h9.24Z"/>
    <path class="cls-7" d="M569.98,300.81v22.41h-3.45v-22.41h3.45Z"/>
    <path class="cls-7" d="M577.98,300.81v22.41h-3.45v-22.41h3.45Z"/>
  </g>
  <g>
    <g>
      <g>
        <rect class="cls-12" x="238.26" y="80.27" width="344.61" height="159.2"/>
        <path class="cls-7" d="M757.16,126.21h-89.05c-19.04,0-34.61,15.06-35.44,33.9h-44.57v-85.07H233.04v169.64h355.06v-81.44h44.57c.83,18.84,16.4,33.91,35.44,33.91h89.05c19.55,0,35.47-15.92,35.47-35.48s-15.92-35.47-35.47-35.47ZM582.88,239.47H238.26V80.27h344.61v159.2ZM757.16,192.99h-89.05c-17.25,0-31.29-14.05-31.29-31.3s14.04-31.29,31.29-31.29h89.05c17.25,0,31.29,14.04,31.29,31.29s-14.04,31.3-31.29,31.3Z"/>
      </g>
      <g>
        <g>
          <path class="cls-7" d="M292.8,117.91v19.8l-6.25,6.25-2.08-2.08v-27.1l8.34,3.13ZM284.46,175.24v-27.1l2.08-2.08,6.25,6.25v19.8l-8.34,3.13ZM320.94,182.53h-31.27c-2.78-.69-4.52-2.43-5.21-5.21l8.34-3.13h25.01l3.13,8.34ZM317.81,115.83h-24.91l-8.34-3.13c.69-2.78,2.43-4.52,5.21-5.21h31.16l-3.13,8.34ZM319.9,137.72v-21.89l3.13-8.34c2.78.7,4.52,2.43,5.21,5.21v29.18l-2.08,2.08-6.25-6.25ZM326.15,146.05l2.08,2.08v29.18c-.69,2.78-2.43,4.52-5.21,5.21l-3.13-8.34v-21.89l6.25-6.25Z"/>
          <path class="cls-7" d="M373.05,182.53h-31.27c-2.78-.69-4.52-2.43-5.21-5.21l8.34-3.13h25.01l3.13,8.34ZM369.92,115.83h-24.91l-8.34-3.13c.69-2.78,2.43-4.52,5.21-5.21h31.16l-3.13,8.34ZM372.01,140.84l4.17,4.17-4.17,4.17h-27.1l-4.17-4.17,4.17-4.17h27.1ZM372.01,137.72v-21.89l3.13-8.34c2.78.7,4.52,2.43,5.21,5.21v29.18l-2.08,2.08-6.25-6.25ZM378.26,146.05l2.08,2.08v29.18c-.69,2.78-2.43,4.52-5.21,5.21l-3.13-8.34v-21.89l6.25-6.25Z"/>
          <path class="cls-7" d="M414.74,132.5h-8.34v-8.34h8.34v8.34ZM414.74,165.86h-8.34v-8.34h8.34v8.34Z"/>
          <path class="cls-7" d="M449.13,117.91v19.8l-6.25,6.25-2.08-2.08v-27.1l8.34,3.13ZM440.8,175.24v-27.1l2.08-2.08,6.25,6.25v19.8l-8.34,3.13ZM477.27,182.53h-31.27c-2.78-.69-4.52-2.43-5.21-5.21l8.34-3.13h25.01l3.13,8.34ZM474.15,115.83h-24.91l-8.34-3.13c.69-2.78,2.43-4.52,5.21-5.21h31.16l-3.13,8.34ZM476.23,137.72v-21.89l3.13-8.34c2.78.7,4.52,2.43,5.21,5.21v29.18l-2.08,2.08-6.25-6.25ZM482.48,146.05l2.08,2.08v29.18c-.69,2.78-2.43,4.52-5.21,5.21l-3.13-8.34v-21.89l6.25-6.25Z"/>
          <path class="cls-7" d="M501.24,117.91v19.8l-6.25,6.25-2.08-2.08v-27.1l8.34,3.13ZM492.91,175.24v-27.1l2.08-2.08,6.25,6.25v19.8l-8.34,3.13ZM529.38,182.53h-31.27c-2.78-.69-4.52-2.43-5.21-5.21l8.34-3.13h25.01l3.13,8.34ZM526.26,115.83h-24.91l-8.34-3.13c.69-2.78,2.43-4.52,5.21-5.21h31.16l-3.13,8.34ZM528.34,137.72v-21.89l3.13-8.34c2.78.7,4.52,2.43,5.21,5.21v29.18l-2.08,2.08-6.25-6.25ZM534.59,146.05l2.08,2.08v29.18c-.69,2.78-2.43,4.52-5.21,5.21l-3.13-8.34v-21.89l6.25-6.25Z"/>
        </g>
        <path class="cls-7" d="M366.39,199.63l-.7-.7v-9.82c.23-.93.82-1.52,1.75-1.75l1.05,2.81v7.36l-2.1,2.1ZM368.49,202.08v7.36l-1.05,2.8c-.94-.23-1.52-.82-1.75-1.75v-9.82l.7-.7,2.1,2.1ZM377.61,198.22l1.4,1.4-1.4,1.4h-9.12l-1.4-1.4,1.4-1.4h9.12ZM377.61,197.17v-7.36l1.05-2.81c.93.23,1.52.82,1.75,1.75v9.82l-.7.7-2.1-2.1ZM379.71,199.98l.7.7v9.82c-.23.94-.82,1.52-1.75,1.75l-1.05-2.8v-7.36l2.1-2.1Z"/>
        <g>
          <path class="cls-7" d="M489.7,190.51v6.66l-2.1,2.1-.7-.7v-9.12l2.8,1.05ZM489.7,202.08v7.36l-1.05,2.8c-.94-.23-1.52-.82-1.75-1.75v-9.82l.7-.7,2.1,2.1ZM498.11,189.81h-8.38l-2.8-1.05c.23-.93.82-1.52,1.75-1.75h10.48l-1.05,2.81ZM495.66,198.57l-1.4,1.4-1.4-1.4v-8.06h2.81v8.06ZM498.81,197.17v-7.36l1.05-2.81c.93.23,1.52.82,1.75,1.75v9.82l-.7.7-2.1-2.1ZM500.92,199.98l.7.7v9.82c-.23.94-.82,1.52-1.75,1.75l-1.05-2.8v-7.36l2.1-2.1Z"/>
          <path class="cls-7" d="M510.03,197.17v-7.36l1.05-2.81c.94.23,1.52.82,1.75,1.75v9.82l-.7.7-2.1-2.1ZM512.14,199.63l.7.7v9.82c-.23.94-.82,1.52-1.75,1.75l-1.05-2.8v-7.36l2.1-2.1Z"/>
          <path class="cls-7" d="M522.65,199.63l-.7-.7v-9.82c.23-.93.82-1.52,1.75-1.75l1.05,2.81v7.36l-2.1,2.1ZM524.76,202.08v7.36l-1.05,2.8c-.94-.23-1.52-.82-1.75-1.75v-9.82l.7-.7,2.1,2.1ZM533.17,197.52h-2.45l-5.26-5.26v-2.1h2.1l5.61,5.61v1.75ZM533.87,197.52v-7.36l1.05-2.81c.93.23,1.52.82,1.75,1.75v9.82l-.7.7-2.1-2.1ZM535.98,199.98l.7.7v9.82c-.23.94-.82,1.52-1.75,1.75l-1.05-2.8v-7.36l2.1-2.1Z"/>
        </g>
      </g>
    </g>
    <g>
      <path class="cls-7" d="M667.07,153.45c1.69.86,2.99,2.09,3.91,3.7.92,1.6,1.38,3.48,1.38,5.62s-.46,4-1.38,5.57c-.92,1.57-2.22,2.78-3.91,3.62-1.69.84-3.65,1.26-5.89,1.26h-6.88v-21.05h6.88c2.24,0,4.21.43,5.89,1.29ZM666.84,168.4c1.31-1.33,1.97-3.21,1.97-5.63s-.66-4.35-1.97-5.72c-1.31-1.37-3.2-2.06-5.66-2.06h-3.42v15.42h3.42c2.46,0,4.35-.67,5.66-2Z"/>
      <path class="cls-7" d="M681.24,156.96c.84-.47,1.83-.71,2.98-.71v3.57h-.88c-1.35,0-2.38.34-3.07,1.03-.7.69-1.04,1.88-1.04,3.57v8.78h-3.45v-16.69h3.45v2.42c.5-.85,1.18-1.51,2.01-1.98Z"/>
      <path class="cls-7" d="M702.58,166.15h-12.75c.1,1.33.6,2.4,1.48,3.21.89.81,1.98,1.21,3.27,1.21,1.86,0,3.17-.78,3.94-2.33h3.73c-.5,1.53-1.42,2.79-2.74,3.77-1.32.98-2.96,1.47-4.92,1.47-1.6,0-3.02-.36-4.29-1.08-1.26-.72-2.25-1.73-2.97-3.03-.72-1.3-1.08-2.81-1.08-4.53s.35-3.23,1.04-4.53,1.68-2.31,2.94-3.01c1.26-.71,2.71-1.06,4.35-1.06s2.98.34,4.21,1.03c1.23.69,2.19,1.65,2.88,2.89s1.03,2.67,1.03,4.29c0,.63-.04,1.19-.12,1.7ZM699.1,163.37c-.02-1.27-.48-2.29-1.36-3.06-.89-.77-1.99-1.15-3.3-1.15-1.19,0-2.21.38-3.06,1.14-.85.76-1.35,1.78-1.51,3.07h9.24Z"/>
      <path class="cls-7" d="M706.27,153.67c-.42-.42-.64-.95-.64-1.57s.21-1.15.64-1.58c.42-.42.95-.64,1.58-.64s1.12.21,1.54.64c.42.42.64.95.64,1.58s-.21,1.15-.64,1.57c-.42.42-.94.64-1.54.64s-1.15-.21-1.58-.64ZM709.55,156.52v16.69h-3.45v-16.69h3.45Z"/>
      <path class="cls-7" d="M725.39,152.16v13.42c0,1.6.42,2.8,1.26,3.6.84.81,2,1.21,3.5,1.21s2.69-.4,3.53-1.21c.84-.81,1.26-2.01,1.26-3.6v-13.42h3.45v13.36c0,1.72-.37,3.17-1.12,4.36-.75,1.19-1.75,2.08-3,2.67-1.25.59-2.64.88-4.15.88s-2.89-.29-4.13-.88c-1.24-.59-2.23-1.47-2.95-2.67-.73-1.19-1.09-2.65-1.09-4.36v-13.36h3.45Z"/>
      <path class="cls-7" d="M754.91,157.07c1,.55,1.79,1.35,2.36,2.42.58,1.07.86,2.36.86,3.88v9.84h-3.42v-9.33c0-1.49-.37-2.64-1.12-3.44-.75-.8-1.77-1.2-3.06-1.2s-2.32.4-3.07,1.2c-.76.8-1.14,1.94-1.14,3.44v9.33h-3.45v-22.41h3.45v7.66c.59-.71,1.33-1.25,2.23-1.64.9-.38,1.88-.58,2.95-.58,1.27,0,2.41.27,3.41.82Z"/>
      <path class="cls-7" d="M767.99,156.96c.84-.47,1.83-.71,2.98-.71v3.57h-.88c-1.35,0-2.38.34-3.07,1.03-.7.69-1.04,1.88-1.04,3.57v8.78h-3.45v-16.69h3.45v2.42c.5-.85,1.18-1.51,2.01-1.98Z"/>
    </g>
  </g>
</svg>